<svg width="53" height="41" viewBox="0 0 53 41" fill="none" xmlns="http://www.w3.org/2000/svg">
<path d="M27.4185 24.4692C27.2331 24.7165 27.2071 25.0598 27.3792 25.3384C27.6065 25.7066 28.0933 25.8229 28.4663 25.5988C31.8728 23.5528 35.1104 21.1908 38.0889 18.5784C41.4502 15.6301 44.5197 12.3311 47.2124 8.77306C47.2132 8.77199 47.2139 8.77093 47.2146 8.76986C47.4729 8.42476 47.4004 7.93807 47.0515 7.68156C46.7012 7.42399 46.2058 7.49478 45.9445 7.84023C43.316 11.314 40.3194 14.5347 37.0375 17.4129C34.13 19.9634 30.9689 22.2691 27.6433 24.2668C27.5531 24.3212 27.4777 24.3902 27.4185 24.4692Z" fill="#1C1E21"/>
<path d="M21.9371 22.2906C21.7516 22.5379 21.7257 22.8812 21.8978 23.1598C22.1251 23.528 22.6118 23.6443 22.9849 23.4202C23.5427 23.0851 24.194 22.7133 24.8828 22.3194C27.7033 20.7082 31.5661 18.5013 34.8777 15.4955C38.2289 12.5561 41.2984 9.25705 43.9911 5.699C44.2549 5.35284 44.1802 4.86508 43.8302 4.60751C43.4799 4.34993 42.9845 4.42108 42.7232 4.76618C40.0947 8.2399 37.0981 11.461 33.8162 14.3392C30.6226 17.2376 26.8471 19.395 24.0897 20.97C23.393 21.3681 22.7349 21.7442 22.1619 22.0882C22.0717 22.1426 21.9963 22.2117 21.9371 22.2906Z" fill="#1C1E21"/>
<path d="M23.8814 26.8463C23.5466 26.3881 22.9018 26.2853 22.4338 26.6154C22.4302 26.619 21.7386 27.1163 20.2008 27.9257C19.6895 28.1993 19.0808 28.5045 18.375 28.8382C17.6188 29.1969 16.7471 29.5875 15.7534 30.003C12.4797 31.3774 7.87716 33.0249 1.67946 34.6725C1.12489 34.8184 0.796911 35.3794 0.941237 35.9227C1.08881 36.4695 1.66142 36.7925 2.21599 36.647C8.09329 35.0845 12.5948 33.5045 15.919 32.1444C17.1541 31.6364 18.2275 31.1607 19.1457 30.7274C19.801 30.4186 20.3808 30.1343 20.8852 29.8718C22.7867 28.8916 23.64 28.2772 23.6473 28.2736C24.112 27.9435 24.2163 27.3045 23.8814 26.8463ZM8.22643 29.0158C8.08968 28.4654 7.52429 28.1317 6.96972 28.2665C6.49777 28.3839 6.00815 28.4939 5.51455 28.597C5.02493 28.6963 4.54613 28.7888 4.08501 28.8632C3.51961 28.9592 3.14148 29.4847 3.23493 30.0422C3.32874 30.5997 3.86527 30.9796 4.43067 30.8836C4.95637 30.795 5.46079 30.6993 5.93598 30.6032C6.45123 30.4968 6.95889 30.3794 7.46656 30.2553C8.02474 30.1204 8.36354 29.5665 8.22643 29.0158ZM20.939 23.565C20.5933 23.1143 19.9453 23.0218 19.4878 23.363C19.4842 23.3665 18.908 23.7959 17.8241 24.389C17.3449 24.6555 16.7687 24.9501 16.0954 25.2557C15.9262 25.33 15.7498 25.4083 15.5661 25.4862C15.0364 25.7171 14.457 25.9444 13.8302 26.1682C13.5852 26.2532 13.333 26.3386 13.0704 26.4236C12.6381 26.566 12.1806 26.7043 11.7054 26.8356C11.6368 26.8534 11.5759 26.8783 11.5145 26.9103C11.0823 27.1234 10.8445 27.6204 10.9816 28.0961C11.1364 28.6429 11.709 28.9592 12.26 28.8101C12.93 28.6219 13.5672 28.4266 14.1651 28.2206C14.781 28.0111 15.3572 27.7909 15.8901 27.5706C17.8959 26.7502 19.3294 25.916 20.0965 25.4296C20.5179 25.1632 20.734 24.9999 20.7377 24.9963C21.0184 24.7832 21.1623 24.4602 21.1479 24.1332C21.1371 23.9347 21.0689 23.7358 20.939 23.565ZM52.5946 12.5892L52.5983 12.5857L51.4602 11.4814L49.7893 9.85514L49.5804 9.65271L48.1545 8.26414L48.1581 8.25703L46.6308 6.76209C46.6308 6.76565 46.6275 6.77276 46.6239 6.77632L40.2386 0.562108C39.8316 0.164359 39.1691 0.171474 38.7693 0.576339C38.69 0.658166 38.6254 0.743194 38.5785 0.839252C36.1762 4.80536 31.2424 10.3059 25.0303 14.9576C24.029 15.7104 22.9956 16.4383 21.933 17.1345C21.4578 17.4433 20.9787 17.745 20.4963 18.04C20.1326 18.2637 19.7689 18.4804 19.4016 18.6931C19.2933 18.7572 19.1854 18.8212 19.0736 18.8778C18.3642 19.2862 17.644 19.6733 16.9166 20.0355C16.8012 20.0959 16.6825 20.1564 16.567 20.213C15.8757 20.5542 15.1772 20.8808 14.471 21.1825C13.6249 21.5482 12.7676 21.8855 11.9071 22.184C11.4279 22.3544 10.9455 22.5105 10.4628 22.6561C9.91901 22.8194 9.37526 22.9688 8.82791 23.1036C8.73085 23.1285 8.64425 23.1641 8.56163 23.2135C8.16906 23.4338 7.96015 23.892 8.07164 24.3428C8.212 24.8896 8.77739 25.2236 9.32836 25.0884C10.2217 24.8686 11.1075 24.6092 11.9865 24.3178C12.0547 24.2969 12.1232 24.272 12.1914 24.2471C12.9693 23.9877 13.7436 23.7002 14.5107 23.384C15.1014 23.1499 15.6848 22.8941 16.2646 22.6276C17.4496 22.0879 18.6128 21.4916 19.7508 20.8523C20.6655 20.3446 21.5621 19.8049 22.4411 19.2439C22.6247 19.13 22.8048 19.013 22.9812 18.8956C23.7876 18.3737 24.5764 17.8304 25.3471 17.2694H25.3507C25.6642 17.042 25.9774 16.8147 26.2834 16.5842C32.1968 12.1595 37.0082 6.95385 39.702 2.91979L49.6093 12.5608L50.5672 13.4911C49.6883 14.9505 48.6838 16.3853 47.5746 17.7842C45.1254 20.8808 42.1581 23.8102 38.8664 26.4592C38.4056 26.8356 37.9337 27.2049 37.4585 27.5671C37.2063 27.7588 36.9541 27.9506 36.6986 28.1388C36.3923 28.3626 36.0827 28.5899 35.7731 28.8101C31.3073 31.9953 26.4169 34.6618 21.5116 36.5759C20.9498 36.7961 20.388 37.0092 19.8226 37.2081C18.8001 37.5702 17.7772 37.9004 16.7579 38.1953C16.6789 38.2199 16.5995 38.2412 16.5241 38.2626C15.9731 38.4223 15.656 38.9869 15.8144 39.5302C15.9767 40.0738 16.5493 40.3861 17.1003 40.2264C17.5037 40.1126 17.9067 39.992 18.3101 39.8678C19.2175 39.5871 20.129 39.2818 21.0364 38.9446C21.6451 38.7243 22.2502 38.4935 22.8585 38.2483C27.7959 36.2599 32.7048 33.5468 37.181 30.3296C37.4369 30.145 37.6923 29.9603 37.9481 29.7721C38.2364 29.5594 38.5207 29.3463 38.8018 29.1296C39.277 28.7674 39.7489 28.3982 40.2097 28.0218C44.8303 24.2933 48.8458 20.0248 51.7522 15.5044C52.1086 14.9469 52.4507 14.3894 52.7711 13.8284C53.0089 13.4132 52.9259 12.9087 52.5946 12.5892ZM29.8919 28.739C29.5606 28.2843 28.9126 28.1779 28.4479 28.5081C28.4407 28.5152 25.718 30.4684 21.0941 32.4425C20.5396 32.6805 19.9525 32.9186 19.3438 33.1491C18.8755 33.3337 18.3895 33.5152 17.8887 33.6892C17.3521 33.8774 17.0642 34.4594 17.2587 34.9923C17.446 35.5249 18.0402 35.8017 18.584 35.6171C18.9116 35.5036 19.232 35.3862 19.5455 35.2656C20.147 35.0418 20.7304 34.8148 21.285 34.5839C26.5067 32.4283 29.6508 30.1734 29.6617 30.1663C30.126 29.8326 30.2307 29.1969 29.8919 28.739Z" fill="#1C1E21"/>
<path d="M45.3468 39.6722C44.8547 39.6722 44.3578 39.578 43.8801 39.3858L43.7239 39.3229L34.4531 31.7283L35.8516 30.0683L44.8464 37.4373C45.3649 37.5956 45.9202 37.4985 46.3567 37.1655C46.8327 36.8019 47.069 36.2341 46.9892 35.6457L45.1906 20.9015L47.3631 20.6439L49.1599 35.3731C49.3436 36.7186 48.7969 38.0321 47.6964 38.8718C47.0037 39.4004 46.1817 39.6722 45.3468 39.6722Z" fill="#1C1E21"/>
<path d="M22.4881 18.654L15.2325 9.16422L15.1762 9.00697C14.7126 7.71339 14.9745 6.31735 15.8773 5.27317C16.78 4.22864 18.1371 3.75297 19.5056 3.99917L34.3275 6.46251L33.9638 8.59036L19.1271 6.12453C18.5213 6.01602 17.9332 6.2213 17.5428 6.67312C17.1849 7.08688 17.0597 7.62907 17.1964 8.14778L24.2359 17.3547L22.4881 18.654Z" fill="#1C1E21"/>
<path d="M46.6583 13.2044L46.8181 13.034L46.729 12.9526C46.6356 12.8672 46.5136 12.8202 46.3855 12.8202C46.3415 12.8202 46.2978 12.8259 46.2556 12.8369L46.6583 13.2044ZM47.1768 13.678L47.3366 13.5079L47.022 13.2201L46.8618 13.3902L47.1768 13.678ZM45.2984 13.9277C45.3936 13.8719 45.5102 13.8427 45.6397 13.8427C45.6794 13.8427 45.7202 13.8455 45.762 13.8509C45.8465 13.8623 45.9331 13.885 46.0153 13.9174L46.4956 13.4062L46.0352 12.986C46.0348 12.9867 45.219 13.8551 45.219 13.8551L45.2984 13.9277ZM47.6541 14.1141L47.814 13.9434L47.5405 13.6936L47.3806 13.864L47.6541 14.1141ZM46.3152 14.0992C46.396 14.1725 46.4573 14.26 46.4988 14.3596C46.5057 14.376 46.5118 14.3927 46.5172 14.4098L47.0144 13.88L46.6991 13.5922L46.2636 14.0561C46.2816 14.07 46.2989 14.0843 46.3152 14.0992ZM48.2513 14.6592C48.2823 14.4941 48.2264 14.3201 48.0972 14.202L48.0178 14.1294L47.8576 14.2999L48.2513 14.6592ZM46.7402 14.5756C46.8401 14.6083 46.9307 14.6613 47.009 14.7328C47.0252 14.7478 47.0411 14.7634 47.0563 14.7798L47.4914 14.3162L47.2179 14.0665L46.7402 14.5756ZM44.5836 15.4422L45.1302 14.8598C45.0938 14.783 45.066 14.7012 45.0498 14.6208C45.0224 14.4856 45.0263 14.3546 45.0613 14.2436C45.0693 14.2152 45.0783 14.1899 45.0884 14.1664L45.0011 14.0867L44.1546 14.9883C44.1438 14.9996 44.1337 15.0114 44.1247 15.0228L44.5836 15.4422ZM45.9363 15.0534C45.972 15.0534 46.0045 15.0655 46.0301 15.0889L46.0384 15.0964L46.0532 15.1178C46.068 15.1388 46.0759 15.1701 46.072 15.201C46.0712 15.2128 46.0705 15.2256 46.0712 15.238C46.072 15.2928 46.0824 15.3455 46.1019 15.3953C46.1279 15.4618 46.1694 15.5219 46.2224 15.5696C46.2574 15.602 46.2996 15.6311 46.3487 15.6571L46.3873 15.676C46.4725 15.7133 46.549 15.7336 46.624 15.7428C46.6496 15.7457 46.6749 15.7471 46.6994 15.7471C46.7449 15.7471 46.7878 15.7418 46.8271 15.7315C46.8863 15.7162 46.9336 15.6895 46.9679 15.6532C46.9892 15.6308 47.0058 15.6041 47.018 15.5739C47.0213 15.5639 47.0256 15.5472 47.0292 15.529C47.0404 15.4693 47.0389 15.3995 47.0252 15.327C47.0112 15.2554 46.9845 15.1825 46.948 15.1156L46.9134 15.0584C46.8852 15.0153 46.8538 14.9779 46.8196 14.9466C46.7654 14.8975 46.7034 14.8623 46.6345 14.8424C46.5901 14.8292 46.5454 14.8228 46.5006 14.8228L46.4093 14.8296C46.3761 14.8296 46.3429 14.8168 46.3188 14.7951L46.3112 14.7883L46.2957 14.7673C46.2798 14.7421 46.2729 14.7125 46.2769 14.6823C46.2812 14.6197 46.2708 14.5507 46.2462 14.4877C46.2206 14.4215 46.1802 14.3628 46.1264 14.3137C46.0889 14.2792 46.0435 14.2483 45.9919 14.2205L45.9529 14.2024C45.8714 14.1657 45.7941 14.1437 45.7205 14.1341C45.6902 14.1305 45.661 14.1284 45.6321 14.1284C45.5892 14.1284 45.5495 14.1326 45.5141 14.1415C45.4553 14.1561 45.4088 14.1817 45.3749 14.218C45.3525 14.2415 45.3352 14.2703 45.3229 14.3041C45.32 14.3151 45.3168 14.3287 45.3143 14.3418C45.3034 14.4027 45.3056 14.4742 45.3207 14.5492C45.3366 14.6289 45.3669 14.709 45.4084 14.7809L45.4304 14.8175C45.4607 14.8645 45.4936 14.9047 45.5293 14.937C45.5834 14.9865 45.6455 15.0214 45.714 15.0416C45.757 15.0541 45.8014 15.0605 45.8454 15.0605C45.8692 15.0605 45.893 15.0587 45.9165 15.0548L45.9363 15.0534ZM44.0215 15.2629C44.0106 15.412 44.0684 15.5618 44.1824 15.666L44.2715 15.7471L44.401 15.6094L44.0215 15.2629ZM47.329 15.7827C47.329 15.7827 48.1452 14.9139 48.1456 14.9136L47.6953 14.5019L47.2143 15.0146C47.2518 15.0921 47.2796 15.175 47.2958 15.2572C47.3243 15.4017 47.3161 15.5397 47.272 15.6575C47.2652 15.6763 47.2583 15.6941 47.2507 15.7108L47.329 15.7827ZM45.1025 15.9158L45.6592 15.323C45.6448 15.3191 45.6303 15.3152 45.6159 15.3106C45.5141 15.2786 45.4211 15.2249 45.3399 15.1509C45.3215 15.1338 45.3038 15.1156 45.2865 15.0964L44.7871 15.6279L45.1025 15.9158ZM44.7904 16.221L44.9199 16.0833L44.6049 15.7951L44.475 15.9332L44.7904 16.221ZM45.5795 16.3519L46.0777 15.8211C46.0626 15.8094 46.0478 15.7973 46.0341 15.7848C45.9522 15.7101 45.8901 15.6215 45.8493 15.5233L45.306 16.1022L45.5795 16.3519ZM45.2677 16.6568L45.3969 16.5188L45.1234 16.269L44.9939 16.4071L45.2677 16.6568ZM46.2318 16.9475C46.2434 16.9372 46.2545 16.9268 46.2646 16.9158L47.1115 16.0139L47.0375 15.9467C46.9404 16.0029 46.8221 16.0324 46.6911 16.0324C46.6565 16.0324 46.6211 16.0303 46.585 16.0264C46.4974 16.0161 46.4086 15.9937 46.3249 15.9609L45.7833 16.5376L46.2318 16.9475ZM45.5506 16.9158C45.6437 17.0008 45.7649 17.0475 45.8923 17.0475C45.9183 17.0475 45.9442 17.0457 45.9695 17.0418L45.6007 16.7048L45.4712 16.8432L45.5506 16.9158ZM45.9128 17.3271C45.7245 17.3271 45.5448 17.2577 45.4066 17.1314L44.0164 15.862C43.7144 15.5856 43.696 15.1192 43.9756 14.8218L45.8861 12.7878C46.0269 12.6381 46.226 12.5523 46.4335 12.5523C46.6226 12.5523 46.803 12.622 46.9412 12.7487L48.3314 14.0181C48.4775 14.1511 48.5619 14.3329 48.5692 14.5297C48.5767 14.7257 48.5064 14.9136 48.3711 15.0573L46.4606 17.0912C46.3198 17.241 46.12 17.3271 45.9128 17.3271Z" fill="#1C1E21"/>
<path d="M46.9206 13.0302L46.7784 12.9003C46.5995 12.737 46.3368 12.7036 46.1221 12.8114L46.6626 13.3049L46.9206 13.0302ZM44.5035 15.6056L43.9764 15.1243C43.9074 15.3338 43.9673 15.5661 44.1337 15.718L44.2758 15.8479L44.5035 15.6056ZM45.2176 14.872C45.1725 14.7884 45.1393 14.6973 45.1212 14.607C45.096 14.4828 45.0992 14.3647 45.1306 14.2647V14.2626L45.1335 14.2558C45.144 14.2181 45.1588 14.1825 45.1768 14.1502L44.9978 13.9865L44.1019 14.94C44.0731 14.9706 44.0492 15.0019 44.0305 15.0335L44.5876 15.5426L45.2176 14.872ZM46.5977 13.4027L46.0348 12.8886C46.0164 12.9043 45.9984 12.921 45.9814 12.9391L45.1173 13.8591L45.2915 14.0182C45.407 13.9314 45.569 13.8972 45.753 13.9218C45.8472 13.9338 45.9439 13.962 46.0341 14.0025L46.5977 13.4027ZM47.4391 13.5037L47.0184 13.1195L46.7604 13.3941L47.1811 13.7787L47.4391 13.5037ZM45.0224 16.0791L44.6013 15.6949L44.3736 15.9372L44.7947 16.3218L45.0224 16.0791ZM45.8042 15.2737C45.7483 15.2705 45.6928 15.2602 45.639 15.2431C45.5463 15.2139 45.4626 15.1652 45.3893 15.0986C45.354 15.0659 45.3208 15.0289 45.2904 14.988L44.6854 15.6319L45.1064 16.0165L45.8042 15.2737ZM47.1165 13.8766L46.6955 13.492L46.155 14.0673C46.1957 14.0929 46.2333 14.1213 46.2672 14.1516C46.3397 14.2181 46.3953 14.2971 46.4324 14.3864C46.4548 14.4412 46.4699 14.4992 46.4768 14.5575L47.1165 13.8766ZM47.9165 13.9395L47.5369 13.593L47.2789 13.868L47.6585 14.2146L47.9165 13.9395ZM45.4994 16.5153L45.1201 16.1688L44.8925 16.4111L45.2717 16.7576L45.4994 16.5153ZM46.1864 15.8105C46.1485 15.7863 46.1138 15.76 46.0828 15.7319C45.9792 15.6373 45.91 15.5163 45.8822 15.384L45.2042 16.1058L45.5838 16.4523L46.1864 15.8105ZM47.5939 14.3124L47.2143 13.9659L46.6035 14.6162C46.6399 14.6216 46.6756 14.6297 46.7106 14.6408C46.8041 14.6703 46.8881 14.7187 46.9603 14.7848C46.9935 14.8154 47.0249 14.85 47.0534 14.8877L47.5939 14.3124ZM46.0005 15.1926C45.9991 15.2103 45.9987 15.226 45.9994 15.2413C46.0002 15.3028 46.0121 15.363 46.0348 15.421C46.0644 15.4967 46.1124 15.5665 46.1737 15.6223C46.2134 15.6586 46.261 15.6913 46.3148 15.7198C46.3281 15.7269 46.3422 15.7337 46.3577 15.7404C46.3631 15.7433 46.3671 15.7451 46.3711 15.7468L46.3743 15.7483C46.4501 15.781 46.5335 15.8034 46.6157 15.8134C46.6994 15.823 46.7774 15.8187 46.8466 15.8002C46.9184 15.7814 46.9773 15.7483 47.0213 15.7013C47.0483 15.6725 47.07 15.6383 47.0855 15.5999C47.0909 15.5843 47.096 15.564 47.1003 15.5423C47.1133 15.474 47.1122 15.395 47.0963 15.3139C47.0808 15.2349 47.0516 15.1545 47.0119 15.0823C47.0076 15.0741 47.0036 15.0666 46.9989 15.0588C46.9913 15.0456 46.9827 15.0321 46.974 15.0193C46.9426 14.9716 46.9073 14.9296 46.869 14.8948C46.807 14.8382 46.7351 14.7973 46.6554 14.7742C46.5912 14.7553 46.5255 14.7482 46.4591 14.7535C46.4454 14.7543 46.4331 14.7553 46.4209 14.7575C46.4021 14.761 46.3823 14.7553 46.3678 14.7425C46.3639 14.739 46.3606 14.7347 46.3577 14.7301C46.3502 14.7183 46.3469 14.7048 46.3487 14.6913C46.3541 14.6141 46.3422 14.5351 46.3141 14.4625C46.2841 14.3857 46.2376 14.3181 46.1755 14.2615C46.1337 14.2231 46.0835 14.1882 46.0265 14.1583C46.0121 14.1509 45.998 14.1441 45.9832 14.1373L45.9738 14.1331C45.8952 14.0982 45.8107 14.074 45.7303 14.0637C45.6466 14.0523 45.5658 14.0555 45.4965 14.0726C45.4243 14.0904 45.3659 14.1231 45.3222 14.1694L45.3215 14.1701C45.2933 14.2 45.271 14.237 45.2555 14.28L45.2551 14.2811C45.25 14.2982 45.2464 14.3138 45.2435 14.3295C45.2313 14.3992 45.2334 14.48 45.2504 14.5632C45.2681 14.65 45.3009 14.7375 45.3457 14.8158C45.3547 14.8318 45.3623 14.8446 45.3702 14.856C45.4034 14.9083 45.4405 14.9528 45.4806 14.9891C45.5427 15.046 45.6145 15.0865 45.6938 15.1097C45.77 15.1321 45.8508 15.1374 45.9284 15.1253L45.9309 15.125L45.9334 15.1246C45.9525 15.1239 45.9688 15.1296 45.9818 15.1417C45.9843 15.1438 45.9879 15.1477 45.9911 15.1527C45.9991 15.1645 46.0023 15.1787 46.0005 15.1926ZM45.5019 16.9678C45.6679 17.1194 45.9067 17.1596 46.1131 17.0756L45.5971 16.6046L45.3695 16.8469L45.5019 16.9678ZM48.287 14.7884C48.3808 14.5703 48.3267 14.3145 48.1467 14.1498L48.0142 14.0292L47.7563 14.3038L48.287 14.7884ZM46.2286 17.0411C46.2618 17.0177 46.2921 16.992 46.318 16.9639L47.2139 16.0105L47.0454 15.8564C46.9311 15.9411 46.7727 15.9763 46.5937 15.9557C46.4963 15.9443 46.3978 15.9169 46.3069 15.8756L45.6816 16.5416L46.2286 17.0411ZM48.1975 14.9631C48.2134 14.9467 48.2286 14.9279 48.2441 14.9062L47.6917 14.4017L47.1274 15.0022C47.1735 15.0869 47.2075 15.179 47.2255 15.2705C47.2515 15.4025 47.2443 15.5273 47.2046 15.6323C47.2038 15.6344 47.2031 15.6376 47.2017 15.6408C47.1916 15.6704 47.1782 15.6995 47.162 15.7266L47.3334 15.8831L48.1975 14.9631ZM46.4079 17.0429C46.1553 17.3119 45.7285 17.3282 45.4561 17.0796L44.0658 15.8098C43.7927 15.5604 43.7761 15.1388 44.0287 14.8702L45.9396 12.8359C46.1921 12.5673 46.6197 12.5513 46.8925 12.8007L48.2827 14.0705C48.5551 14.3191 48.5713 14.74 48.3188 15.009L46.4079 17.0429Z" fill="#1C1E21"/>
<path d="M46.6611 13.2639L46.8791 13.0319L46.7585 12.9216C46.6572 12.8291 46.5255 12.7786 46.3866 12.7786C46.3133 12.7786 46.2415 12.7928 46.1748 12.8199L46.6611 13.2639ZM47.1796 13.7374L47.3976 13.5054L47.0201 13.1607L46.8026 13.3926L47.1796 13.7374ZM45.294 13.9807C45.3871 13.9178 45.5054 13.8847 45.64 13.8847C45.6786 13.8847 45.7176 13.8875 45.7569 13.8929C45.8471 13.9046 45.9395 13.9299 46.0272 13.9676L46.5561 13.4044L46.0348 12.928C46.0239 12.9376 46.0135 12.9479 46.0034 12.959L45.1594 13.8576L45.294 13.9807ZM47.657 14.1736L47.8745 13.9412L47.539 13.6342L47.3211 13.8662L47.657 14.1736ZM46.2007 14.0618C46.2318 14.0832 46.2606 14.106 46.2873 14.1301C46.3635 14.1999 46.4215 14.2821 46.4598 14.3756C46.4757 14.4133 46.4879 14.4535 46.4962 14.4937L47.075 13.8783L46.6976 13.5332L46.2007 14.0618ZM48.2751 14.7378C48.3418 14.54 48.287 14.3176 48.1268 14.1714L48.016 14.0704L47.7981 14.3023L48.2751 14.7378ZM46.7199 14.6129C46.8174 14.6439 46.905 14.6944 46.9808 14.7638C47.0068 14.7876 47.0317 14.8139 47.0555 14.8424L47.5523 14.3137L47.2164 14.0071L46.6619 14.5973C46.6813 14.6015 46.7008 14.6069 46.7199 14.6129ZM44.5864 15.5013L45.1818 14.8673C45.1403 14.7858 45.1096 14.699 45.0923 14.6126C45.0656 14.4806 45.0699 14.3546 45.1049 14.2486C45.114 14.2162 45.1262 14.1853 45.1403 14.1565L44.9996 14.0273L44.1239 14.9598C44.1026 14.9822 44.0842 15.0053 44.0683 15.0285L44.5864 15.5013ZM45.9666 15.0953L46.003 15.121L46.0293 15.201C46.0293 15.2088 46.0286 15.2241 46.0293 15.2398C46.0301 15.2996 46.0413 15.3561 46.0625 15.4098C46.091 15.4831 46.1351 15.5475 46.1939 15.6009C46.2325 15.6358 46.2779 15.6671 46.3288 15.6938C46.3433 15.7019 46.3566 15.708 46.37 15.7144C46.4594 15.7532 46.5406 15.7749 46.6196 15.7845C46.646 15.7873 46.673 15.7891 46.6994 15.7891C46.7499 15.7891 46.7964 15.7834 46.839 15.772C46.9054 15.7549 46.9595 15.7243 46.9999 15.6817C47.0241 15.6557 47.044 15.6247 47.058 15.5888C47.0631 15.5742 47.0678 15.5557 47.0714 15.5369C47.0836 15.4721 47.0822 15.3967 47.0674 15.3191C47.0523 15.243 47.0241 15.1658 46.9859 15.0957L46.9498 15.0356C46.9195 14.99 46.8859 14.9495 46.8491 14.916C46.7899 14.8623 46.7221 14.8243 46.6471 14.8018C46.5998 14.788 46.5511 14.7812 46.502 14.7812L46.4096 14.7876H46.3808L46.3472 14.7631L46.3328 14.7403L46.3202 14.6844C46.3245 14.6176 46.3133 14.5421 46.2866 14.4728C46.2585 14.4005 46.2144 14.3365 46.1556 14.2828C46.1156 14.2465 46.0676 14.213 46.0127 14.1842L45.9713 14.1639C45.8854 14.1259 45.8038 14.1024 45.7266 14.0924C45.6949 14.0882 45.6638 14.086 45.6332 14.086C45.587 14.086 45.5437 14.091 45.504 14.101C45.4376 14.117 45.3835 14.1469 45.3442 14.1892C45.3178 14.217 45.298 14.2504 45.2835 14.2899C45.2792 14.3045 45.2756 14.3194 45.2727 14.3347C45.2612 14.4005 45.2633 14.4774 45.2796 14.5574C45.2965 14.6414 45.3283 14.7257 45.3719 14.8015C45.3795 14.815 45.3867 14.8278 45.3947 14.8396C45.4271 14.8901 45.4625 14.9328 45.5011 14.968C45.5596 15.0213 45.6274 15.0598 45.7024 15.0811C45.7497 15.0953 45.7977 15.1025 45.8464 15.1025C45.8724 15.1025 45.8984 15.1003 45.924 15.0964L45.9377 15.0953H45.9666ZM43.9922 15.1782C43.9485 15.3643 44.0077 15.5632 44.1542 15.697L44.2743 15.8065L44.4616 15.6069L43.9922 15.1782ZM47.3319 15.8421L48.1762 14.9434C48.1863 14.9324 48.1957 14.921 48.2047 14.9096L47.6934 14.4425L47.1637 15.0068C47.2063 15.0889 47.2373 15.1772 47.2547 15.2651C47.2817 15.4024 47.2742 15.5326 47.2327 15.6429C47.2229 15.671 47.2117 15.6966 47.1991 15.7208L47.3319 15.8421ZM45.1053 15.9752L45.7425 15.2967C45.7043 15.291 45.6667 15.2828 45.6299 15.2711C45.5329 15.2401 45.4452 15.1889 45.3694 15.1199C45.3409 15.0939 45.3139 15.0648 45.2886 15.0331L44.7275 15.6301L45.1053 15.9752ZM44.7932 16.2804L44.9805 16.0808L44.603 15.7357L44.4154 15.9357L44.7932 16.2804ZM45.5823 16.4113L46.1416 15.8158C46.1134 15.7962 46.0874 15.7752 46.0629 15.7532C45.9691 15.6678 45.902 15.5607 45.867 15.4436L45.2464 16.104L45.5823 16.4113ZM45.2706 16.7162L45.4578 16.517L45.1215 16.2096L44.9343 16.4096L45.2706 16.7162ZM46.2307 17.0033C46.2549 16.9848 46.2772 16.9649 46.2967 16.9439L47.1724 16.0122L47.0432 15.8941C46.9483 15.9574 46.8282 15.9908 46.6918 15.9908C46.6586 15.9908 46.6243 15.9887 46.5904 15.9844C46.497 15.9737 46.4024 15.9485 46.3144 15.9108L45.7234 16.5401L46.2307 17.0033ZM45.522 16.9464C45.6234 17.0382 45.7548 17.0894 45.893 17.0894C45.9489 17.0894 46.0044 17.0809 46.0575 17.0645L45.5989 16.6458L45.4116 16.845L45.522 16.9464ZM45.9132 17.2855C45.7356 17.2855 45.5661 17.2196 45.4362 17.1008L44.0459 15.8311C43.7609 15.5707 43.7436 15.1309 44.0073 14.8502L45.9179 12.8163C46.0506 12.6751 46.239 12.5939 46.4342 12.5939C46.6121 12.5939 46.782 12.6598 46.913 12.7793L48.3032 14.049C48.5875 14.3087 48.6041 14.7485 48.3404 15.0288L46.4298 17.0628C46.2971 17.204 46.1087 17.2855 45.9132 17.2855Z" fill="#1C1E21"/>
<path d="M47.0935 15.7523L47.3107 15.9508L47.327 15.9337L47.1076 15.7334C47.1033 15.7398 47.0986 15.7462 47.0935 15.7523ZM47.0935 15.7523L47.3107 15.9508L47.327 15.9337L47.1076 15.7334C47.1033 15.7398 47.0986 15.7462 47.0935 15.7523ZM47.0935 15.7523L47.3107 15.9508L47.327 15.9337L47.1076 15.7334C47.1033 15.7398 47.0986 15.7462 47.0935 15.7523ZM47.0935 15.7523L47.3107 15.9508L47.327 15.9337L47.1076 15.7334C47.1033 15.7398 47.0986 15.7462 47.0935 15.7523ZM47.0935 15.7523L47.3107 15.9508L47.327 15.9337L47.1076 15.7334C47.1033 15.7398 47.0986 15.7462 47.0935 15.7523ZM47.0935 15.7523L47.3107 15.9508L47.327 15.9337L47.1076 15.7334C47.1033 15.7398 47.0986 15.7462 47.0935 15.7523ZM47.0935 15.7523L47.3107 15.9508L47.327 15.9337L47.1076 15.7334C47.1033 15.7398 47.0986 15.7462 47.0935 15.7523ZM46.9813 13.0278L46.6652 13.3643L46.0511 12.8033C46.2839 12.6571 46.5967 12.6766 46.8081 12.8695L46.9813 13.0278ZM47.4998 13.5017L47.1841 13.8379L46.7006 13.3964L47.0167 13.0602L47.4998 13.5017ZM47.9772 13.9375L47.6611 14.2737L47.2194 13.8703L47.5352 13.5337L47.9772 13.9375ZM48.176 14.1189C48.3885 14.3132 48.4321 14.6191 48.3008 14.8579L47.6964 14.3061L48.0125 13.9695L48.176 14.1189ZM46.6584 13.4003L46.0446 14.0535C45.9523 14.0083 45.8498 13.9766 45.7477 13.9631C45.5763 13.9403 45.4067 13.9695 45.2905 14.0741L45.0578 13.8614L45.9508 12.9107C45.9779 12.8816 46.0071 12.8556 46.0374 12.8328L46.6584 13.4003ZM47.1772 13.8742L46.4437 14.6551C46.4423 14.6551 46.4404 14.6554 46.4386 14.6554C46.4423 14.57 46.4271 14.4832 46.3935 14.4021C46.36 14.3214 46.3088 14.2463 46.2388 14.1826C46.1955 14.1431 46.1446 14.1072 46.0887 14.0766L46.6937 13.4327L47.1772 13.8742ZM47.6546 14.31L47.0495 14.9543C47.0149 14.9023 46.9752 14.8554 46.9322 14.8155C46.8626 14.7522 46.7825 14.7074 46.6981 14.6807C46.6382 14.6615 46.5754 14.6519 46.513 14.6515L47.2126 13.9065L47.6546 14.31ZM48.3001 14.8995C48.2799 14.9312 48.2568 14.9628 48.2294 14.9916L46.3499 16.9925C46.312 17.033 46.2691 17.0665 46.2247 17.0942L45.6221 16.5439L46.2976 15.8245C46.391 15.8707 46.4957 15.902 46.5992 15.9141C46.767 15.9334 46.9326 15.9024 47.0477 15.8007L47.2653 15.9992L47.2804 15.9832L47.0639 15.7854C47.0668 15.7825 47.0701 15.7793 47.0733 15.7761C47.0802 15.7683 47.087 15.7605 47.0935 15.7523L47.3107 15.9508L47.327 15.9337L47.1076 15.7334C47.131 15.7003 47.1494 15.664 47.1624 15.6256C47.1635 15.6231 47.1646 15.6203 47.1653 15.6178C47.2043 15.515 47.2075 15.3961 47.1844 15.2784C47.165 15.1802 47.1271 15.0827 47.0758 14.9959L47.6899 14.3424L48.3001 14.8995ZM44.5642 15.6032L44.2785 15.907L44.1053 15.7487C43.9054 15.5662 43.8549 15.2841 43.9599 15.0514L44.5642 15.6032ZM45.0831 16.0771L44.7973 16.3809L44.3138 15.9394L44.5996 15.6356L45.0831 16.0771ZM45.5601 16.5129L45.2747 16.8167L44.8327 16.4133L45.1184 16.1091L45.5601 16.5129ZM46.1886 17.0868C45.9616 17.2081 45.6726 17.18 45.4735 16.9985L45.31 16.8491L45.5954 16.5453L46.1886 17.0868ZM45.1448 16.108L45.9126 15.2905C45.9223 15.441 45.9898 15.589 46.1121 15.7007C46.1536 15.7384 46.2016 15.7722 46.2535 15.8014L45.5864 16.5115L45.1448 16.108ZM44.6259 15.6342L45.2959 14.9208C45.3324 14.9763 45.3739 15.0261 45.419 15.0678C45.4883 15.1311 45.5684 15.1766 45.6524 15.203C45.7343 15.2293 45.8202 15.2378 45.9046 15.2289L45.1094 16.0757L44.6259 15.6342ZM43.9779 15.0422C44.0013 14.9952 44.0335 14.9518 44.0713 14.9112L44.9961 13.9268L45.2317 14.1424C45.2061 14.1808 45.1873 14.2235 45.1744 14.2691C45.174 14.2694 45.174 14.2698 45.174 14.2701C45.1408 14.3705 45.1404 14.485 45.1635 14.5989C45.183 14.696 45.2202 14.7924 45.27 14.8785L44.5906 15.6018L43.9779 15.0422ZM47.0531 15.7299C47.0019 15.7843 46.9344 15.8209 46.8579 15.8409C46.7821 15.8608 46.6973 15.8647 46.6111 15.8551C46.5245 15.8448 46.4372 15.8209 46.3575 15.7864C46.3517 15.7839 46.3463 15.7814 46.3405 15.7786C46.325 15.7718 46.3098 15.7644 46.2954 15.7565C46.2395 15.7274 46.1886 15.6925 46.1453 15.653C46.0771 15.5908 46.027 15.516 45.9959 15.436C45.9714 15.3737 45.9584 15.3079 45.9573 15.2428C45.9566 15.2243 45.9573 15.2058 45.9588 15.1877C45.9598 15.183 45.958 15.1781 45.9555 15.1749C45.9548 15.1738 45.9541 15.1731 45.9533 15.1724C45.9487 15.1677 45.9429 15.1663 45.9357 15.1667C45.8523 15.1798 45.7654 15.1745 45.6824 15.15C45.5998 15.1258 45.5207 15.0824 45.4522 15.0201C45.4092 14.9806 45.3696 14.9326 45.3349 14.8792C45.3259 14.8653 45.3176 14.8511 45.3093 14.8365C45.2628 14.755 45.2278 14.6633 45.2094 14.5715C45.1917 14.485 45.1884 14.3996 45.2021 14.3224C45.2054 14.3036 45.2101 14.2854 45.2155 14.2673C45.2155 14.2669 45.2155 14.2662 45.2158 14.2659C45.2332 14.2193 45.2577 14.1769 45.2909 14.1413L45.2916 14.141C45.3429 14.0862 45.41 14.051 45.4868 14.0318C45.5633 14.0129 45.6492 14.0101 45.7365 14.0218C45.8235 14.0332 45.9111 14.0588 45.992 14.0947C45.9952 14.0962 45.9988 14.0976 46.0021 14.0994C46.0172 14.1065 46.0324 14.1136 46.0472 14.1214C46.1063 14.1524 46.1601 14.1894 46.2052 14.2306C46.2738 14.2933 46.3232 14.3676 46.3542 14.4473C46.3852 14.527 46.3979 14.612 46.3917 14.696C46.391 14.7003 46.3921 14.7045 46.3943 14.7077C46.3953 14.7092 46.3964 14.7106 46.3972 14.7116C46.4011 14.7148 46.4076 14.7173 46.4134 14.7159C46.4278 14.7138 46.4419 14.7124 46.4567 14.7113C46.527 14.706 46.5988 14.7134 46.6681 14.7337C46.7511 14.7583 46.8301 14.8013 46.8983 14.8639C46.9398 14.9013 46.9773 14.9461 47.0102 14.9959C47.0192 15.0098 47.0282 15.0237 47.0365 15.0379C47.0412 15.0461 47.0459 15.0539 47.0502 15.0621C47.0917 15.1382 47.122 15.2218 47.1386 15.3058C47.1549 15.3897 47.1574 15.4737 47.1426 15.5502C47.1383 15.5726 47.1328 15.5943 47.1256 15.6153C47.1087 15.6576 47.0845 15.6964 47.0531 15.7299ZM45.9714 12.8645L44.0605 14.8984C43.8238 15.1507 43.839 15.5449 44.0955 15.779L45.4857 17.0487C45.7408 17.2817 46.1403 17.2664 46.3773 17.0145L48.2882 14.9803C48.5249 14.728 48.5097 14.3342 48.2546 14.1011L46.8644 12.8314C46.6079 12.5973 46.2081 12.6123 45.9714 12.8645ZM47.0935 15.7523L47.3107 15.9508L47.327 15.9337L47.1076 15.7334C47.1033 15.7398 47.0986 15.7462 47.0935 15.7523ZM47.0935 15.7523L47.3107 15.9508L47.327 15.9337L47.1076 15.7334C47.1033 15.7398 47.0986 15.7462 47.0935 15.7523ZM47.0935 15.7523L47.3107 15.9508L47.327 15.9337L47.1076 15.7334C47.1033 15.7398 47.0986 15.7462 47.0935 15.7523ZM47.0935 15.7523L47.3107 15.9508L47.327 15.9337L47.1076 15.7334C47.1033 15.7398 47.0986 15.7462 47.0935 15.7523ZM47.0935 15.7523L47.3107 15.9508L47.327 15.9337L47.1076 15.7334C47.1033 15.7398 47.0986 15.7462 47.0935 15.7523ZM47.0935 15.7523L47.3107 15.9508L47.327 15.9337L47.1076 15.7334C47.1033 15.7398 47.0986 15.7462 47.0935 15.7523ZM47.0935 15.7523L47.3107 15.9508L47.327 15.9337L47.1076 15.7334C47.1033 15.7398 47.0986 15.7462 47.0935 15.7523ZM47.0935 15.7523L47.3107 15.9508L47.327 15.9337L47.1076 15.7334C47.1033 15.7398 47.0986 15.7462 47.0935 15.7523Z" fill="#1C1E21"/>
<path d="M43.8074 17.4918C44.0773 17.8198 44.2473 18.1937 44.3313 18.606C44.344 18.6687 44.3667 18.7359 44.3017 18.7896C44.2245 18.8537 44.108 18.8263 44.0788 18.7309C44.0506 18.6395 44.0355 18.5445 44.0059 18.4541C43.784 17.7732 43.3434 17.2847 42.6788 16.9948C42.6431 16.9791 42.6077 16.9624 42.5734 16.9439C42.5157 16.9126 42.4908 16.8464 42.5128 16.787C42.5363 16.7219 42.6063 16.6788 42.6716 16.6981C42.7354 16.7169 42.7975 16.7425 42.8581 16.7699C43.1969 16.925 43.4953 17.1335 43.736 17.4181C43.758 17.4441 43.7836 17.4672 43.8074 17.4918Z" fill="#1C1E21"/>
<path d="M43.33 17.8405C43.3462 17.8598 43.3618 17.8793 43.3762 17.8985C43.3838 17.9074 43.3903 17.9163 43.3968 17.9252C43.3986 17.927 43.4004 17.9291 43.4011 17.9309C43.4155 17.9501 43.4285 17.969 43.4419 17.9875C43.58 18.1874 43.6778 18.4069 43.7374 18.6442C43.7514 18.6994 43.7597 18.7559 43.7615 18.8125C43.763 18.8851 43.7135 18.9374 43.6479 18.9456C43.579 18.9545 43.5183 18.9139 43.4956 18.8463C43.4379 18.6745 43.3953 18.4955 43.317 18.3329C43.1471 17.98 42.8692 17.7267 42.5102 17.5602C42.4626 17.5381 42.4139 17.5164 42.3673 17.4926C42.2822 17.4492 42.2548 17.3869 42.2858 17.3176C42.3139 17.2571 42.3688 17.2229 42.4323 17.234H42.4341C42.4478 17.2364 42.4619 17.2407 42.4756 17.2471C42.4799 17.2489 42.4839 17.2507 42.4879 17.2525C42.4897 17.2535 42.4915 17.2546 42.4936 17.2553C42.638 17.3215 42.7866 17.3837 42.9165 17.4723C43.0244 17.546 43.1229 17.6338 43.2214 17.7214C43.2582 17.7584 43.2943 17.7982 43.33 17.8405Z" fill="#1C1E21"/>
<path d="M42.8771 18.221C43.0517 18.4096 43.1433 18.6422 43.1881 18.8956C43.1985 18.9553 43.1906 19.0115 43.1358 19.0478C43.0856 19.0806 43.0257 19.0866 42.9799 19.0492C42.9481 19.0233 42.9294 18.9777 42.9131 18.9375C42.8597 18.8023 42.8229 18.6597 42.7562 18.5316C42.6461 18.3199 42.4614 18.1805 42.2445 18.0808C42.1987 18.0595 42.1525 18.0389 42.1089 18.0136C42.0472 17.9777 42.0291 17.9218 42.0533 17.8564C42.0721 17.8044 42.1377 17.7614 42.1958 17.7699C42.2341 17.7752 42.2723 17.7873 42.3084 17.8019C42.5325 17.8923 42.7248 18.0257 42.8771 18.221Z" fill="#1C1E21"/>
<path d="M42.4595 18.5768C42.5522 18.6822 42.6146 18.8195 42.6344 18.9746C42.6395 19.0162 42.6373 19.0618 42.6269 19.1023C42.6124 19.1585 42.5688 19.1902 42.5089 19.1891C42.4508 19.1881 42.3992 19.1699 42.3761 19.1098C42.3682 19.0888 42.3617 19.0664 42.3584 19.0443C42.3231 18.7942 42.1838 18.632 41.941 18.5516C41.8378 18.5178 41.8017 18.4417 41.8403 18.3577C41.8681 18.2961 41.9175 18.2695 41.994 18.2848C42.1798 18.3218 42.3292 18.4192 42.4595 18.5768Z" fill="#1C1E21"/>
</svg>
