<svg width="321" height="264" viewBox="0 0 321 264" fill="none" xmlns="http://www.w3.org/2000/svg">
<path opacity="0.2" d="M49.1241 23.0288H295.188C309.411 23.0288 321 37.2055 321 54.6049V231.453C321 248.844 309.411 263.029 295.188 263.029H49.1241C34.9009 263.029 23.3057 248.844 23.3057 231.453V54.6049C23.3057 37.2055 34.9009 23.0288 49.1241 23.0288Z" fill="#3A3A3A"/>
<path d="M26.812 0.970703H272.876C287.099 0.970703 298.694 15.1474 298.694 32.5468V209.387C298.694 226.786 287.099 240.971 272.876 240.971H26.812C12.5952 240.971 1 226.786 1 209.387V32.5468C1 15.1474 12.5952 0.970703 26.812 0.970703Z" fill="#FEFAF6" stroke="#96A1B0"/>
<rect x="38" y="197" width="223" height="2" rx="1" fill="#3A3A3A"/>
<path d="M42 114.6C42 112.391 43.7909 110.6 46 110.6H74C76.2091 110.6 78 112.391 78 114.6V197H42V114.6Z" fill="#3A3A3A"/>
<path d="M102 57C102 54.7909 103.791 53 106 53H134C136.209 53 138 54.7909 138 57V197H102V57Z" fill="#FF4F32"/>
<path d="M162 82.9199C162 80.7108 163.791 78.9199 166 78.9199H194C196.209 78.9199 198 80.7108 198 82.9199V197H162V82.9199Z" fill="#FFC930"/>
<path d="M222 68.52C222 66.3109 223.791 64.52 226 64.52H254C256.209 64.52 258 66.3109 258 68.52V197H222V68.52Z" fill="#FF4F32"/>
</svg>
