<svg width="322" height="321" viewBox="0 0 322 321" fill="none" xmlns="http://www.w3.org/2000/svg">
<path opacity="0.15" d="M47.8742 320.999C34.162 320.999 23 309.844 23 296.125V47.5632C23 33.8446 34.162 22.6826 47.8742 22.6826H296.443C310.161 22.6826 321.317 33.8446 321.317 47.5632V296.125C321.317 309.844 310.161 320.999 296.443 320.999H47.8742Z" fill="#8A8A8A"/>
<path d="M25.8806 299.317C12.162 299.317 1 288.161 1 274.443V25.8742C1 12.1556 12.162 1 25.8806 1H274.443C288.161 1 299.323 12.1556 299.323 25.8742V274.443C299.323 288.161 288.161 299.317 274.443 299.317H25.8806Z" fill="#FEFAF6" stroke="#96A1B0"/>
<path d="M119.925 277.307C119.489 277.307 119.047 277.307 118.503 277.198C116.215 276.871 114.235 275.667 112.922 273.808C111.621 271.963 111.064 269.65 111.39 267.465C112.044 263.345 115.664 260.244 119.816 260.244C120.246 260.244 120.688 260.244 121.232 260.353C123.52 260.679 125.5 261.884 126.813 263.742C128.114 265.588 128.672 267.901 128.345 270.086C127.685 274.27 124.141 277.307 119.925 277.307Z" fill="#FF4F32"/>
<path d="M150.105 277.307C145.401 277.307 141.576 273.482 141.576 268.772C141.576 264.069 145.401 260.244 150.105 260.244C154.808 260.244 158.64 264.069 158.64 268.772C158.64 273.482 154.808 277.307 150.105 277.307Z" fill="#D9B8B2"/>
<path d="M180.29 277.307C175.587 277.307 171.762 273.482 171.762 268.772C171.762 264.069 175.587 260.244 180.29 260.244C185 260.244 188.825 264.069 188.825 268.772C188.825 273.482 185 277.307 180.29 277.307Z" fill="#D9B8B2"/>
<path d="M182.995 123.212C155.186 119.957 140.532 112.236 127.095 101.637C124.667 99.6319 121.303 98.4849 117.849 98.4849C115.395 98.4849 113.031 99.0488 110.999 100.112L103.374 104.034L103.227 103.925C99.3185 98.062 97.8896 91.6545 99.2992 86.349C100.491 81.7868 103.72 78.0768 108.904 75.3216L128.082 65.518L128.313 65.5116C129.479 64.8708 130.805 64.5312 132.125 64.5312C135.508 64.5312 138.481 66.4151 139.891 69.4523C143.691 77.1477 147.253 82.8889 150.784 86.9898C160.652 98.3952 175.19 100.881 189.172 102.502L189.364 102.932C186.192 109.391 184.142 116.208 183.264 123.192V123.481L182.995 123.212Z" fill="#FF4F32"/>
<path d="M93.9672 193.387C84.3366 183.327 74.8727 172.363 65.8508 160.804C61.3079 155.005 56.7008 148.809 51.3569 141.293C51.2993 141.184 51.2416 141.101 51.1903 141.024C51.1327 140.941 51.0814 140.857 51.0237 140.748C50.9725 140.697 50.9404 140.607 50.9148 140.524C50.8892 140.441 50.8636 140.37 50.8123 140.319C49.7743 138.403 49.5564 136.199 50.1908 134.11C50.8572 131.925 52.3565 130.131 54.4133 129.048L103.559 103.546L110.973 99.7336C113.228 98.6059 115.747 97.9844 118.072 97.9844C121.462 97.9844 124.749 99.1185 127.568 101.259C141.402 112.152 155.537 119.559 183.237 122.827H183.455L183.481 123.076C182.968 126.818 182.706 130.009 182.609 133.758C182.609 134.796 182.616 144.003 182.827 147.816V147.925L123.423 178.572L93.98 193.406L93.9672 193.387Z" fill="#FFC930"/>
<path d="M107.502 166.591C116.786 166.591 124.315 159.062 124.315 149.778C124.315 140.493 116.786 132.964 107.502 132.964C98.2174 132.964 90.6885 140.493 90.6885 149.778C90.6885 159.062 98.2174 166.591 107.502 166.591Z" fill="#E4E4E3"/>
<path d="M182.336 147.823C182.035 144.151 181.9 139.928 181.9 134.52C182.118 121.981 184.399 111.53 188.878 102.579L188.987 102.463L192.941 102.886L194.683 103.104C210.734 104.853 227.336 106.66 239.812 118.373L240.03 118.591L182.451 148.297L182.336 147.823Z" fill="#E4E4E3"/>
<path d="M107.577 206.555C107.539 206.529 102.265 202.005 94.0763 193.496L93.8584 193.278L123.179 178.195L182.565 147.682L239.675 118.246L239.816 118.374C244.109 122.449 247.73 127.543 250.28 133.092L250.389 133.31L107.577 206.715V206.555Z" fill="black"/>
<path d="M137.904 120.136L159.37 91.8013" stroke="black" stroke-width="2.56302" stroke-linecap="round" stroke-linejoin="round"/>
<path d="M158.717 129.836L172.666 97.0361" stroke="black" stroke-width="2.56302" stroke-linecap="round" stroke-linejoin="round"/>
</svg>
