<svg width="321" height="220" viewBox="0 0 321 220" fill="none" xmlns="http://www.w3.org/2000/svg">
<path opacity="0.2" d="M49.1241 23.0581H295.188C309.411 23.0581 321 34.6469 321 48.8701V193.435C321 207.652 309.411 219.248 295.188 219.248H49.1241C34.9009 219.248 23.3057 207.652 23.3057 193.435V48.8701C23.3057 34.6469 34.9009 23.0581 49.1241 23.0581Z" fill="#3A3A3A"/>
<path d="M26.812 0.752441H272.876C287.099 0.752441 298.694 12.3412 298.694 26.5645V171.123C298.694 185.347 287.099 196.942 272.876 196.942H26.812C12.5952 196.942 1 185.347 1 171.123V26.5645C1 12.3412 12.5952 0.752441 26.812 0.752441Z" fill="#FEFAF6" stroke="#96A1B0"/>
<path d="M298.79 38.2559H1V79.6564H298.79V38.2559Z" fill="#3A3A3A"/>
<path d="M53.8932 134.69H92.2747C100.851 134.69 107.767 141.607 107.767 150.279C107.767 158.849 100.851 165.867 92.2747 165.867H53.8932C45.3233 165.867 38.4072 158.951 38.4072 150.279C38.3111 141.607 45.3233 134.69 53.8932 134.69Z" fill="#D9B8B2"/>
<path d="M237.905 165.669C250.929 165.669 261.48 155.119 261.48 142.094C261.48 129.082 250.929 118.525 237.905 118.525C224.886 118.525 214.336 129.082 214.336 142.094C214.336 155.119 224.886 165.669 237.905 165.669Z" fill="#FF4F32"/>
<path d="M207.419 165.669C220.431 165.669 230.987 155.119 230.987 142.094C230.987 129.082 220.431 118.525 207.419 118.525C194.394 118.525 183.844 129.082 183.844 142.094C183.844 155.119 194.394 165.669 207.419 165.669Z" fill="#FFC930"/>
</svg>
