<svg width="320" height="280" viewBox="0 0 320 280" fill="none" xmlns="http://www.w3.org/2000/svg">
<path d="M193.65 258.475C192.581 258.475 191.5 258.464 190.439 258.441C189.931 258.43 189.528 258.009 189.539 257.501C189.55 256.999 189.96 256.599 190.459 256.599H190.479C191.527 256.621 192.594 256.632 193.65 256.633H194.067C194.574 256.633 194.986 257.044 194.987 257.551C194.988 258.06 194.577 258.473 194.069 258.474L193.65 258.475ZM197.676 258.421C197.178 258.421 196.77 258.024 196.755 257.525C196.742 257.017 197.143 256.593 197.651 256.58C198.845 256.548 200.051 256.502 201.238 256.441C201.745 256.412 202.178 256.806 202.205 257.314C202.217 257.558 202.132 257.797 201.969 257.978C201.805 258.159 201.576 258.268 201.332 258.281C200.131 258.341 198.909 258.389 197.701 258.422C197.692 258.421 197.685 258.421 197.676 258.421ZM186.856 258.322C186.842 258.322 186.827 258.322 186.814 258.32C185.608 258.265 184.39 258.194 183.191 258.111C182.684 258.075 182.301 257.634 182.337 257.127C182.372 256.62 182.811 256.235 183.32 256.273C184.504 256.356 185.707 256.425 186.898 256.481C187.406 256.504 187.8 256.935 187.776 257.442C187.752 257.936 187.345 258.322 186.856 258.322ZM204.883 258.054C204.406 258.054 204.003 257.686 203.966 257.202C203.928 256.695 204.308 256.253 204.815 256.214C206.006 256.125 207.207 256.02 208.385 255.902C208.505 255.89 208.627 255.901 208.742 255.936C208.858 255.971 208.966 256.029 209.06 256.105C209.153 256.182 209.231 256.276 209.288 256.382C209.345 256.489 209.381 256.606 209.393 256.726C209.405 256.846 209.393 256.968 209.358 257.084C209.323 257.199 209.266 257.307 209.189 257.401C209.113 257.494 209.018 257.572 208.912 257.629C208.805 257.686 208.689 257.722 208.568 257.734C207.375 257.853 206.158 257.96 204.953 258.051C204.931 258.054 204.907 258.054 204.883 258.054ZM179.663 257.814C179.633 257.814 179.604 257.813 179.574 257.81C178.37 257.695 177.157 257.562 175.967 257.418C175.847 257.403 175.731 257.365 175.625 257.305C175.52 257.246 175.428 257.166 175.353 257.071C175.279 256.976 175.224 256.867 175.191 256.751C175.159 256.634 175.15 256.512 175.164 256.392C175.226 255.887 175.685 255.53 176.19 255.59C177.364 255.734 178.562 255.864 179.75 255.978C180.256 256.027 180.627 256.476 180.579 256.982C180.533 257.457 180.132 257.814 179.663 257.814ZM212.06 257.335C211.603 257.335 211.206 256.995 211.147 256.529C211.117 256.287 211.184 256.043 211.334 255.85C211.484 255.657 211.704 255.531 211.946 255.501C213.134 255.351 214.328 255.186 215.495 255.008C215.998 254.932 216.468 255.276 216.544 255.779C216.62 256.282 216.275 256.751 215.773 256.828C214.59 257.008 213.38 257.176 212.176 257.327C212.137 257.333 212.099 257.335 212.06 257.335ZM172.507 256.94C172.462 256.94 172.416 256.937 172.37 256.93C171.169 256.751 169.963 256.554 168.788 256.345C168.287 256.255 167.953 255.778 168.042 255.277C168.131 254.777 168.609 254.443 169.109 254.532C170.269 254.738 171.457 254.932 172.642 255.108C173.145 255.184 173.492 255.652 173.416 256.155C173.384 256.373 173.274 256.572 173.107 256.716C172.94 256.86 172.727 256.94 172.507 256.94ZM219.191 256.248C218.754 256.248 218.367 255.935 218.286 255.49C218.196 254.989 218.528 254.511 219.029 254.42C220.208 254.208 221.39 253.977 222.543 253.735C223.04 253.63 223.528 253.949 223.633 254.446C223.738 254.944 223.419 255.432 222.922 255.537C221.752 255.782 220.552 256.017 219.356 256.232C219.3 256.243 219.246 256.248 219.191 256.248ZM165.41 255.676C165.348 255.676 165.285 255.67 165.221 255.656C164.03 255.409 162.838 255.141 161.676 254.863C161.181 254.745 160.877 254.248 160.996 253.753C161.053 253.515 161.202 253.31 161.41 253.182C161.618 253.055 161.869 253.015 162.106 253.072C163.25 253.347 164.423 253.609 165.595 253.853C165.714 253.878 165.826 253.925 165.926 253.993C166.026 254.062 166.112 254.149 166.178 254.25C166.245 254.351 166.29 254.464 166.313 254.583C166.335 254.702 166.334 254.824 166.309 254.943C166.267 255.15 166.154 255.336 165.99 255.47C165.826 255.603 165.621 255.676 165.41 255.676ZM226.25 254.764C225.834 254.764 225.458 254.481 225.356 254.059C225.237 253.565 225.54 253.066 226.034 252.947C227.205 252.664 228.37 252.363 229.497 252.051C229.987 251.916 230.495 252.203 230.63 252.693C230.662 252.809 230.671 252.931 230.656 253.051C230.642 253.171 230.603 253.287 230.544 253.392C230.484 253.497 230.404 253.59 230.309 253.664C230.214 253.739 230.104 253.793 229.988 253.825C228.842 254.143 227.658 254.449 226.468 254.737C226.394 254.755 226.321 254.764 226.25 254.764ZM158.4 253.991C158.319 253.991 158.238 253.98 158.156 253.958C156.987 253.637 155.823 253.296 154.665 252.935C154.18 252.784 153.909 252.268 154.061 251.781C154.212 251.295 154.728 251.026 155.214 251.177C156.334 251.526 157.487 251.864 158.644 252.182C158.761 252.214 158.87 252.269 158.965 252.343C159.061 252.417 159.141 252.51 159.201 252.615C159.261 252.72 159.299 252.836 159.314 252.956C159.329 253.076 159.32 253.197 159.288 253.314C159.235 253.508 159.119 253.68 158.958 253.802C158.798 253.925 158.602 253.991 158.4 253.991ZM233.2 252.839C232.809 252.839 232.445 252.587 232.322 252.195C232.248 251.962 232.271 251.709 232.384 251.493C232.497 251.276 232.691 251.113 232.924 251.04C234.073 250.679 235.211 250.296 236.309 249.904C236.788 249.733 237.315 249.982 237.486 250.461C237.657 250.939 237.408 251.466 236.929 251.638C235.786 252.046 234.634 252.432 233.476 252.797C233.385 252.826 233.292 252.839 233.2 252.839ZM151.517 251.841C151.416 251.841 151.313 251.824 151.211 251.788C150.066 251.385 148.929 250.959 147.801 250.511C147.689 250.466 147.586 250.4 147.5 250.316C147.413 250.231 147.343 250.131 147.296 250.02C147.248 249.909 147.222 249.789 147.22 249.668C147.218 249.548 147.241 249.427 147.285 249.315C147.473 248.842 148.009 248.611 148.481 248.799C149.567 249.231 150.692 249.652 151.823 250.051C152.054 250.132 152.242 250.302 152.348 250.522C152.453 250.742 152.467 250.995 152.386 251.226C152.322 251.405 152.205 251.561 152.049 251.671C151.894 251.782 151.708 251.841 151.517 251.841ZM239.99 250.407C239.626 250.407 239.282 250.19 239.137 249.832C238.946 249.361 239.172 248.824 239.643 248.632C240.761 248.178 241.861 247.701 242.91 247.213C243.371 246.999 243.919 247.2 244.134 247.661C244.348 248.122 244.147 248.67 243.686 248.884C242.61 249.384 241.483 249.873 240.338 250.338C240.227 250.383 240.109 250.406 239.99 250.407ZM144.818 249.176C144.692 249.176 144.565 249.15 144.442 249.095C143.332 248.599 142.233 248.078 141.147 247.531C140.693 247.302 140.51 246.748 140.738 246.294C140.967 245.84 141.521 245.657 141.975 245.885C143.017 246.41 144.1 246.924 145.194 247.413C145.658 247.621 145.865 248.166 145.659 248.63C145.586 248.793 145.468 248.931 145.319 249.027C145.17 249.124 144.996 249.176 144.818 249.176ZM246.527 247.366C246.198 247.366 245.879 247.189 245.714 246.878C245.475 246.429 245.645 245.871 246.094 245.632C247.161 245.064 248.197 244.471 249.171 243.869C249.274 243.805 249.388 243.762 249.508 243.743C249.627 243.724 249.749 243.728 249.867 243.756C249.985 243.784 250.096 243.834 250.194 243.905C250.292 243.976 250.375 244.065 250.438 244.168C250.502 244.271 250.545 244.385 250.564 244.505C250.584 244.624 250.579 244.746 250.551 244.864C250.524 244.982 250.473 245.093 250.402 245.191C250.331 245.289 250.242 245.372 250.139 245.436C249.131 246.058 248.062 246.671 246.96 247.258C246.821 247.331 246.673 247.366 246.527 247.366ZM138.38 245.931C138.227 245.931 138.07 245.892 137.927 245.81C136.857 245.202 135.804 244.568 134.797 243.923C134.368 243.649 134.245 243.079 134.519 242.651C134.793 242.222 135.363 242.099 135.79 242.373C136.769 242.999 137.794 243.617 138.836 244.208C139.278 244.459 139.433 245.021 139.183 245.463C139.102 245.605 138.986 245.723 138.845 245.805C138.704 245.887 138.544 245.931 138.38 245.931ZM252.65 243.567C252.504 243.567 252.361 243.533 252.231 243.467C252.101 243.401 251.989 243.306 251.904 243.188C251.832 243.09 251.781 242.98 251.753 242.862C251.724 242.745 251.72 242.623 251.738 242.503C251.757 242.384 251.799 242.269 251.862 242.166C251.925 242.063 252.008 241.973 252.106 241.902C253.082 241.191 254.008 240.453 254.858 239.707C255.241 239.372 255.822 239.41 256.158 239.793C256.494 240.175 256.455 240.756 256.073 241.092C255.181 241.874 254.211 242.648 253.19 243.391C253.033 243.506 252.844 243.567 252.65 243.567ZM132.311 242.044C132.129 242.044 131.944 241.99 131.783 241.878C130.745 241.149 129.763 240.462 128.831 239.812C128.415 239.522 128.312 238.947 128.604 238.531C128.894 238.113 129.469 238.011 129.885 238.302C130.817 238.953 131.8 239.641 132.84 240.369C133.257 240.661 133.357 241.236 133.066 241.652C132.98 241.773 132.867 241.872 132.736 241.94C132.605 242.009 132.459 242.044 132.311 242.044ZM258.044 238.804C257.822 238.804 257.6 238.724 257.423 238.563C257.047 238.22 257.021 237.638 257.363 237.262C257.979 236.588 258.553 235.893 259.069 235.197C259.233 234.977 259.396 234.756 259.558 234.534C259.858 234.124 260.434 234.035 260.845 234.334C261.256 234.634 261.344 235.21 261.045 235.621C260.881 235.846 260.716 236.07 260.549 236.295C259.978 237.062 259.369 237.8 258.723 238.505C258.637 238.599 258.532 238.674 258.415 238.726C258.298 238.777 258.172 238.804 258.044 238.804ZM126.397 237.922C126.217 237.922 126.035 237.869 125.874 237.758C124.758 236.988 123.788 236.325 122.908 235.731C122.486 235.447 122.375 234.874 122.659 234.452C122.727 234.352 122.813 234.266 122.914 234.199C123.015 234.132 123.128 234.086 123.247 234.063C123.365 234.04 123.488 234.04 123.606 234.064C123.725 234.089 123.837 234.136 123.938 234.204C124.824 234.801 125.799 235.468 126.921 236.242C127.34 236.531 127.445 237.104 127.156 237.523C127.072 237.646 126.958 237.747 126.826 237.816C126.694 237.886 126.547 237.922 126.397 237.922ZM120.415 233.904C120.245 233.904 120.072 233.857 119.919 233.758C118.759 233.014 117.766 232.408 116.886 231.908C116.444 231.656 116.289 231.094 116.54 230.652C116.791 230.21 117.353 230.056 117.795 230.306C118.704 230.824 119.723 231.445 120.912 232.208C121.34 232.483 121.465 233.052 121.189 233.48C121.015 233.755 120.718 233.904 120.415 233.904ZM262.383 233.061C262.204 233.061 262.022 233.009 261.863 232.9C261.444 232.613 261.337 232.039 261.624 231.619C262.305 230.627 262.968 229.626 263.594 228.645C263.868 228.216 264.437 228.09 264.866 228.364C265.295 228.637 265.421 229.207 265.147 229.636C264.496 230.656 263.828 231.665 263.143 232.662C263.058 232.785 262.945 232.886 262.812 232.956C262.68 233.025 262.533 233.061 262.383 233.061ZM85.632 232.652H85.6275C84.4596 232.647 83.2397 232.626 82.0011 232.59C81.4928 232.576 81.0928 232.152 81.1071 231.643C81.1215 231.135 81.5469 230.736 82.0541 230.75C83.2784 230.785 84.4839 230.805 85.6375 230.811C86.1458 230.814 86.5557 231.228 86.5535 231.737C86.5502 232.242 86.1391 232.652 85.632 232.652ZM89.2352 232.62C88.7369 232.62 88.3269 232.222 88.3148 231.721C88.3119 231.6 88.333 231.48 88.3766 231.367C88.4203 231.254 88.4858 231.151 88.5693 231.064C88.6529 230.976 88.7528 230.906 88.8635 230.857C88.9741 230.809 89.0933 230.782 89.2142 230.779C90.4396 230.751 91.6407 230.703 92.7832 230.637C93.2904 230.606 93.7258 230.995 93.7556 231.503C93.7854 232.01 93.3976 232.446 92.8893 232.476C91.7258 232.543 90.5037 232.592 89.2573 232.62H89.2352ZM78.4254 232.45C78.41 232.45 78.3956 232.45 78.3801 232.449C77.2078 232.393 75.9912 232.323 74.7647 232.242C74.2575 232.209 73.873 231.771 73.9062 231.263C73.9393 230.756 74.378 230.371 74.8851 230.405C76.1006 230.484 77.3072 230.554 78.4685 230.61C78.9768 230.635 79.368 231.067 79.3436 231.575C79.3204 232.067 78.9138 232.45 78.4254 232.45ZM96.4274 232.195C95.96 232.195 95.56 231.841 95.5125 231.366C95.4616 230.86 95.8307 230.408 96.3368 230.357C97.5478 230.235 98.7345 230.085 99.8627 229.911C100.365 229.834 100.835 230.178 100.914 230.681C100.991 231.184 100.646 231.653 100.143 231.732C98.9831 231.911 97.7655 232.064 96.5213 232.19C96.4893 232.194 96.4583 232.195 96.4274 232.195ZM71.231 231.982C71.2067 231.982 71.1813 231.98 71.1559 231.978C69.9802 231.883 68.7681 231.777 67.5526 231.663C67.0466 231.616 66.6742 231.167 66.7217 230.661C66.7692 230.155 67.2189 229.784 67.7239 229.83C68.9316 229.943 70.136 230.049 71.304 230.143C71.8111 230.184 72.189 230.628 72.1482 231.135C72.1084 231.616 71.7051 231.982 71.231 231.982ZM64.051 231.31C64.019 231.31 63.9858 231.308 63.9538 231.304C63.398 231.246 62.8345 231.185 62.2643 231.122C61.6212 231.051 60.9726 230.968 60.3384 230.877C59.8356 230.804 59.4865 230.336 59.5594 229.834C59.6323 229.331 60.0997 228.982 60.6025 229.055C61.2168 229.143 61.8433 229.224 62.4665 229.292C63.0345 229.355 63.5947 229.416 64.1472 229.473C64.6532 229.526 65.0201 229.979 64.9659 230.485C64.9162 230.958 64.5162 231.31 64.051 231.31ZM103.543 231.091C103.118 231.091 102.736 230.795 102.644 230.363C102.538 229.866 102.855 229.376 103.352 229.27C104.297 229.068 105.144 228.866 105.891 228.687C106.223 228.607 106.54 228.532 106.845 228.461C107.34 228.345 107.835 228.655 107.95 229.15C108.065 229.645 107.757 230.14 107.261 230.255C106.96 230.324 106.647 230.399 106.319 230.478C105.562 230.659 104.704 230.865 103.737 231.071C103.671 231.084 103.607 231.091 103.543 231.091ZM114.11 230.446C114 230.446 113.888 230.426 113.78 230.384C112.629 229.941 111.665 229.743 110.653 229.743H110.604C110.098 229.743 109.687 229.335 109.684 228.828C109.68 228.32 110.09 227.904 110.598 227.901H110.653C111.885 227.901 113.089 228.143 114.442 228.665C114.916 228.847 115.153 229.381 114.97 229.855C114.903 230.029 114.785 230.178 114.632 230.284C114.478 230.389 114.296 230.446 114.11 230.446ZM56.9252 230.253C56.8611 230.253 56.797 230.247 56.7329 230.234C55.5373 229.978 54.3418 229.681 53.1816 229.35C52.6932 229.209 52.4092 228.7 52.5495 228.211C52.6899 227.723 53.1993 227.439 53.6877 227.579C54.8081 227.9 55.9616 228.187 57.1163 228.434C57.2346 228.459 57.3468 228.507 57.4464 228.576C57.546 228.644 57.6312 228.732 57.6969 228.833C57.7627 228.935 57.8078 229.048 57.8298 229.167C57.8517 229.286 57.8499 229.408 57.8246 229.526C57.7329 229.957 57.3506 230.253 56.9252 230.253ZM50.0148 228.276C49.9098 228.276 49.8037 228.258 49.6999 228.219C48.5531 227.801 47.4216 227.342 46.3076 226.844C46.0875 226.742 45.9163 226.558 45.8312 226.331C45.7461 226.104 45.7539 225.852 45.853 225.631C45.952 225.41 46.1343 225.237 46.3603 225.149C46.5863 225.061 46.8378 225.066 47.0601 225.163C48.1275 225.641 49.228 226.088 50.3308 226.489C50.8081 226.663 51.0545 227.192 50.8811 227.669C50.8163 227.847 50.6984 228 50.5435 228.109C50.3885 228.217 50.2039 228.275 50.0148 228.276ZM266.249 226.993C266.091 226.993 265.931 226.952 265.784 226.866C265.573 226.742 265.421 226.54 265.359 226.303C265.298 226.067 265.332 225.816 265.456 225.605C266.057 224.581 266.637 223.546 267.195 222.499C267.434 222.05 267.992 221.88 268.44 222.119C268.889 222.357 269.059 222.915 268.821 223.364C268.25 224.433 267.658 225.491 267.045 226.536C266.964 226.675 266.847 226.79 266.708 226.87C266.568 226.95 266.41 226.993 266.249 226.993ZM43.4569 225.337C43.3099 225.337 43.1607 225.302 43.0215 225.228C41.946 224.65 40.8912 224.034 39.8591 223.382C39.6578 223.249 39.5166 223.042 39.466 222.807C39.4153 222.571 39.4591 222.324 39.588 222.121C39.7169 221.917 39.9206 221.772 40.1554 221.716C40.3902 221.661 40.6373 221.7 40.8436 221.825C41.8381 222.454 42.8646 223.052 43.8933 223.605C44.3408 223.846 44.5099 224.404 44.269 224.851C44.1903 224.998 44.0732 225.121 43.9302 225.207C43.7872 225.292 43.6236 225.338 43.4569 225.337ZM37.3785 221.499C37.1895 221.499 36.9995 221.441 36.8348 221.321C35.8625 220.608 34.8934 219.848 33.9564 219.06C33.5675 218.733 33.5167 218.152 33.8437 217.763C34.1708 217.374 34.752 217.323 35.1409 217.65C36.047 218.412 36.9829 219.146 37.9232 219.836C38.1202 219.98 38.2518 220.197 38.2891 220.438C38.3264 220.68 38.2663 220.926 38.1221 221.123C38.0364 221.24 37.9245 221.335 37.7952 221.4C37.666 221.465 37.5232 221.499 37.3785 221.499ZM269.626 220.641C269.493 220.641 269.359 220.613 269.232 220.552C268.772 220.333 268.577 219.784 268.795 219.324C269.309 218.245 269.795 217.153 270.242 216.081C270.287 215.969 270.355 215.866 270.441 215.78C270.526 215.694 270.628 215.625 270.74 215.579C270.853 215.532 270.973 215.508 271.094 215.508C271.216 215.508 271.336 215.532 271.449 215.579C271.561 215.626 271.663 215.694 271.748 215.78C271.834 215.867 271.902 215.969 271.947 216.081C271.993 216.194 272.016 216.314 272.015 216.436C272.015 216.558 271.99 216.678 271.942 216.79C271.485 217.89 270.985 219.008 270.458 220.115C270.3 220.447 269.971 220.641 269.626 220.641ZM31.8714 216.879C31.6427 216.879 31.415 216.795 31.236 216.625C30.3664 215.796 29.5001 214.921 28.6637 214.023C28.3167 213.65 28.3377 213.068 28.709 212.721C29.0803 212.374 29.6637 212.395 30.0106 212.766C30.8228 213.637 31.6625 214.487 32.5056 215.291C32.8736 215.641 32.8879 216.225 32.5377 216.593C32.4519 216.683 32.3486 216.755 32.234 216.805C32.1194 216.854 31.9961 216.879 31.8714 216.879ZM272.386 214.002C272.239 214.002 272.093 213.967 271.962 213.899C271.831 213.831 271.719 213.733 271.633 213.613C271.548 213.492 271.493 213.353 271.473 213.207C271.453 213.061 271.468 212.912 271.518 212.773C271.913 211.657 272.281 210.522 272.608 209.401C272.751 208.912 273.262 208.633 273.751 208.775C274.239 208.918 274.519 209.429 274.376 209.918C274.034 211.085 273.66 212.242 273.254 213.388C273.19 213.568 273.072 213.723 272.917 213.833C272.762 213.942 272.576 214.002 272.386 214.002ZM26.9499 211.606C26.6858 211.606 26.4239 211.493 26.2416 211.275C25.4625 210.34 24.7076 209.385 23.9776 208.411C23.6726 208.004 23.7544 207.426 24.1621 207.121C24.5687 206.816 25.1466 206.899 25.4516 207.306C26.1687 208.261 26.9101 209.2 27.6571 210.096C27.8134 210.283 27.8889 210.525 27.867 210.769C27.845 211.012 27.7274 211.236 27.5399 211.393C27.374 211.53 27.1654 211.606 26.9499 211.606ZM274.403 207.1C274.334 207.1 274.265 207.092 274.195 207.077C273.7 206.963 273.391 206.468 273.504 205.973C273.766 204.838 274.001 203.669 274.202 202.497C274.222 202.378 274.266 202.264 274.33 202.161C274.395 202.059 274.479 201.971 274.577 201.901C274.676 201.831 274.788 201.781 274.906 201.755C275.023 201.728 275.146 201.725 275.265 201.746C275.766 201.832 276.102 202.308 276.016 202.809C275.808 204.014 275.567 205.217 275.298 206.386C275.201 206.812 274.822 207.1 274.403 207.1ZM22.624 205.844C22.4734 205.844 22.325 205.807 22.1919 205.737C22.0588 205.666 21.945 205.564 21.8605 205.439C21.1788 204.433 20.5193 203.412 19.8826 202.376C19.6163 201.943 19.7511 201.376 20.1842 201.11C20.6174 200.844 21.1842 200.979 21.4505 201.412C22.0781 202.432 22.729 203.439 23.3842 204.406C23.6693 204.827 23.5599 205.4 23.1389 205.685C22.9874 205.789 22.8078 205.844 22.624 205.844ZM275.628 200.013C275.498 200.013 275.369 199.986 275.25 199.932C275.131 199.879 275.025 199.801 274.938 199.704C274.852 199.606 274.787 199.492 274.748 199.367C274.709 199.243 274.697 199.111 274.712 198.982C274.846 197.869 274.961 196.71 275.065 195.436C275.106 194.929 275.548 194.552 276.057 194.593C276.564 194.634 276.941 195.078 276.9 195.585C276.795 196.884 276.677 198.066 276.541 199.202C276.486 199.669 276.088 200.013 275.628 200.013ZM18.8417 199.706C18.5191 199.706 18.2064 199.536 18.0373 199.235C17.4539 198.194 16.876 197.114 16.3191 196.024C16.0871 195.571 16.2672 195.016 16.7191 194.785C17.1721 194.553 17.7268 194.734 17.9578 195.185C18.5036 196.254 19.0716 197.314 19.6428 198.335C19.8914 198.779 19.7334 199.339 19.2892 199.588C19.153 199.666 18.9987 199.706 18.8417 199.706ZM15.5545 193.285C15.2086 193.285 14.876 193.088 14.7202 192.755C14.2131 191.672 13.7114 190.551 13.2285 189.425C13.0285 188.958 13.2451 188.416 13.7125 188.216C14.1799 188.016 14.7213 188.232 14.9213 188.7C15.3965 189.809 15.8893 190.91 16.3876 191.974C16.6031 192.435 16.4042 192.983 15.9434 193.199C15.8186 193.257 15.686 193.285 15.5545 193.285ZM276.233 192.841C276.214 192.841 276.195 192.84 276.175 192.839C275.668 192.808 275.281 192.371 275.312 191.863L275.365 190.979C275.422 190.039 275.476 189.151 275.538 188.262C275.573 187.755 276.012 187.371 276.52 187.408C276.64 187.416 276.758 187.448 276.866 187.502C276.975 187.556 277.071 187.631 277.15 187.722C277.23 187.813 277.29 187.919 277.329 188.034C277.367 188.148 277.382 188.269 277.374 188.39C277.312 189.271 277.259 190.153 277.203 191.089L277.149 191.974C277.121 192.464 276.715 192.841 276.233 192.841ZM12.7026 186.64C12.3346 186.64 11.9877 186.419 11.8451 186.055C11.4087 184.946 10.9777 183.801 10.5634 182.653C10.391 182.175 10.6385 181.646 11.117 181.474C11.5954 181.301 12.1236 181.549 12.296 182.028C12.7048 183.159 13.1291 184.287 13.56 185.381C13.7457 185.854 13.5136 186.389 13.0396 186.574C12.928 186.62 12.8142 186.64 12.7026 186.64ZM276.78 185.664C276.744 185.664 276.708 185.662 276.671 185.657C276.166 185.599 275.805 185.141 275.864 184.636C276.019 183.303 276.209 182.115 276.446 181.004C276.497 180.766 276.64 180.557 276.845 180.424C277.05 180.291 277.299 180.245 277.538 180.295C278.035 180.401 278.353 180.889 278.247 181.387C278.023 182.441 277.841 183.573 277.692 184.85C277.667 185.074 277.559 185.281 277.391 185.431C277.223 185.581 277.005 185.664 276.78 185.664ZM10.2507 179.856C9.86506 179.856 9.50484 179.612 9.37667 179.225C9.00208 178.097 8.63303 176.936 8.27944 175.775C8.24422 175.659 8.23214 175.537 8.24389 175.417C8.25565 175.297 8.29102 175.18 8.34797 175.073C8.40492 174.966 8.48234 174.872 8.5758 174.795C8.66927 174.718 8.77695 174.661 8.89269 174.626C9.37887 174.477 9.89378 174.751 10.0418 175.238C10.391 176.385 10.7557 177.532 11.1247 178.645C11.2849 179.128 11.0231 179.649 10.5402 179.809C10.4441 179.841 10.3468 179.856 10.2507 179.856ZM278.317 178.667C278.213 178.667 278.108 178.65 278.005 178.613C277.527 178.441 277.278 177.914 277.45 177.435C277.879 176.243 278.38 175.133 278.982 174.04C279.227 173.595 279.787 173.432 280.233 173.677C280.678 173.923 280.84 174.483 280.595 174.928C280.04 175.935 279.578 176.958 279.184 178.057C279.12 178.236 279.002 178.39 278.847 178.5C278.691 178.609 278.506 178.667 278.317 178.667ZM8.14906 172.961C7.74575 172.961 7.37669 172.695 7.26288 172.288C6.94244 171.142 6.62643 169.961 6.32477 168.781C6.29401 168.664 6.28677 168.542 6.30346 168.421C6.32015 168.301 6.36046 168.185 6.42205 168.081C6.48364 167.976 6.56531 167.885 6.66235 167.812C6.75939 167.739 6.8699 167.686 6.98751 167.656C7.10513 167.626 7.22753 167.619 7.34767 167.637C7.46782 167.654 7.58334 167.695 7.68759 167.757C7.79184 167.819 7.88277 167.902 7.95514 167.999C8.0275 168.096 8.07989 168.207 8.10928 168.325C8.40762 169.492 8.71922 170.659 9.03634 171.793C9.17335 172.283 8.88717 172.791 8.39767 172.928C8.3148 172.95 8.23082 172.961 8.14906 172.961ZM281.751 172.414C281.548 172.415 281.351 172.348 281.191 172.223C280.787 171.914 280.712 171.335 281.021 170.932C281.743 169.994 282.563 169.059 283.461 168.155C283.819 167.794 284.403 167.791 284.763 168.15C285.124 168.508 285.126 169.092 284.767 169.452C283.924 170.302 283.155 171.177 282.481 172.054C282.395 172.166 282.285 172.257 282.158 172.32C282.031 172.382 281.892 172.415 281.751 172.414ZM286.767 167.314C286.632 167.314 286.497 167.284 286.375 167.227C286.252 167.169 286.143 167.085 286.057 166.98C285.733 166.588 285.788 166.008 286.179 165.684C287.073 164.945 288.052 164.198 289.088 163.465C289.186 163.396 289.298 163.346 289.416 163.319C289.534 163.292 289.656 163.289 289.775 163.309C289.894 163.33 290.008 163.373 290.111 163.438C290.213 163.503 290.302 163.587 290.372 163.685C290.442 163.784 290.491 163.896 290.518 164.014C290.545 164.132 290.548 164.254 290.528 164.373C290.507 164.492 290.464 164.606 290.399 164.708C290.335 164.811 290.251 164.899 290.152 164.969C289.154 165.675 288.213 166.394 287.353 167.104C287.188 167.24 286.981 167.314 286.767 167.314ZM6.35792 165.967C5.94025 165.967 5.56125 165.681 5.4618 165.255C5.18998 164.094 4.92369 162.902 4.67065 161.714C4.56458 161.217 4.8817 160.727 5.37893 160.621C5.87616 160.515 6.36566 160.832 6.47173 161.33C6.72256 162.506 6.98664 163.686 7.25515 164.836C7.37117 165.331 7.06399 165.826 6.56786 165.942C6.49825 165.958 6.42753 165.967 6.35792 165.967ZM292.614 163.151C292.306 163.151 292.007 162.997 291.831 162.717C291.562 162.286 291.693 161.718 292.124 161.449C293.152 160.808 294.195 160.189 295.251 159.595C295.694 159.345 296.256 159.501 296.505 159.944C296.755 160.387 296.599 160.948 296.156 161.198C295.124 161.779 294.105 162.383 293.1 163.01C292.954 163.102 292.786 163.151 292.614 163.151ZM298.87 159.608C298.537 159.608 298.216 159.427 298.051 159.111C297.817 158.659 297.994 158.103 298.444 157.87C299.479 157.334 300.571 156.788 301.691 156.248C302.149 156.027 302.7 156.219 302.921 156.677C303.142 157.135 302.949 157.685 302.492 157.906C301.388 158.439 300.312 158.977 299.293 159.505C299.157 159.575 299.012 159.608 298.87 159.608ZM4.85076 158.904C4.41872 158.904 4.03309 158.598 3.94801 158.158C3.72039 156.985 3.4994 155.784 3.28946 154.59C3.24761 154.35 3.30286 154.103 3.44309 153.903C3.58331 153.703 3.79708 153.567 4.03751 153.524C4.27806 153.482 4.52539 153.538 4.72528 153.678C4.92516 153.818 5.06128 154.032 5.1038 154.272C5.31153 155.456 5.53031 156.645 5.75572 157.808C5.85296 158.307 5.52589 158.79 5.02645 158.888C4.96789 158.899 4.90932 158.904 4.85076 158.904ZM305.298 156.354C304.985 156.354 304.679 156.193 304.506 155.903C304.444 155.799 304.404 155.684 304.386 155.564C304.369 155.445 304.376 155.323 304.406 155.206C304.435 155.088 304.488 154.978 304.56 154.881C304.633 154.785 304.724 154.703 304.828 154.641C305.823 154.05 306.778 153.382 307.666 152.655C307.76 152.578 307.868 152.521 307.984 152.486C308.1 152.451 308.221 152.439 308.341 152.451C308.462 152.463 308.579 152.499 308.685 152.556C308.792 152.614 308.886 152.691 308.963 152.785C309.039 152.879 309.096 152.986 309.131 153.102C309.166 153.218 309.178 153.34 309.166 153.46C309.154 153.58 309.118 153.697 309.061 153.804C309.003 153.91 308.926 154.005 308.832 154.081C307.873 154.866 306.842 155.587 305.768 156.225C305.626 156.309 305.464 156.354 305.298 156.354ZM310.856 151.808C310.635 151.808 310.414 151.73 310.239 151.569C310.058 151.405 309.949 151.176 309.937 150.932C309.925 150.689 310.011 150.45 310.175 150.269C310.939 149.426 311.66 148.507 312.317 147.537C312.602 147.116 313.175 147.007 313.597 147.292C314.018 147.577 314.127 148.151 313.842 148.572C313.136 149.613 312.361 150.599 311.539 151.506C311.453 151.602 311.347 151.678 311.23 151.73C311.112 151.782 310.985 151.808 310.856 151.808ZM3.60326 151.789C3.15797 151.789 2.76681 151.466 2.69499 151.011C2.50936 149.83 2.32925 148.624 2.16019 147.424C2.12628 147.182 2.18976 146.937 2.33666 146.742C2.48356 146.547 2.70187 146.418 2.94361 146.384C3.06333 146.367 3.1852 146.374 3.30227 146.404C3.41933 146.434 3.52929 146.487 3.62585 146.56C3.72242 146.633 3.80369 146.724 3.86504 146.828C3.92639 146.932 3.9666 147.048 3.98337 147.167C4.15022 148.357 4.32922 149.554 4.51375 150.725C4.59331 151.228 4.24966 151.699 3.74801 151.778C3.6994 151.785 3.65078 151.789 3.60326 151.789ZM314.904 145.87C314.764 145.87 314.622 145.838 314.488 145.771C314.035 145.541 313.853 144.986 314.084 144.533C314.598 143.52 315.07 142.441 315.487 141.325C315.53 141.212 315.594 141.108 315.676 141.02C315.759 140.931 315.858 140.86 315.968 140.81C316.078 140.76 316.197 140.732 316.318 140.728C316.439 140.724 316.56 140.744 316.673 140.786C316.786 140.829 316.89 140.893 316.978 140.975C317.067 141.058 317.138 141.157 317.188 141.267C317.238 141.377 317.266 141.496 317.27 141.617C317.274 141.738 317.255 141.859 317.212 141.972C316.771 143.151 316.272 144.293 315.727 145.366C315.65 145.518 315.532 145.645 315.386 145.734C315.241 145.823 315.074 145.87 314.904 145.87ZM2.59665 144.634C2.1392 144.634 1.74141 144.292 1.68395 143.826C1.53589 142.637 1.39556 141.425 1.26518 140.222C1.21103 139.715 1.57567 139.261 2.08174 139.207C2.5867 139.152 3.04195 139.518 3.09609 140.024C3.22537 141.217 3.36459 142.419 3.51155 143.599C3.57454 144.104 3.21542 144.564 2.71156 144.627C2.67289 144.631 2.63422 144.634 2.59665 144.634ZM317.444 139.135C317.366 139.135 317.285 139.125 317.206 139.103C316.714 138.972 316.423 138.467 316.555 137.975C316.851 136.871 317.109 135.713 317.323 134.532C317.413 134.032 317.893 133.699 318.393 133.791C318.894 133.881 319.226 134.361 319.135 134.86C318.912 136.091 318.642 137.3 318.333 138.453C318.223 138.865 317.851 139.135 317.444 139.135ZM1.81986 137.448C1.34915 137.448 0.948053 137.089 0.903855 136.612C0.793359 135.411 0.690598 134.194 0.598887 132.994C0.58961 132.874 0.604178 132.752 0.641758 132.637C0.679339 132.523 0.739195 132.416 0.817904 132.324C0.896613 132.233 0.992632 132.157 1.10047 132.103C1.20831 132.048 1.32586 132.015 1.44639 132.006C1.95356 131.966 2.39555 132.348 2.43422 132.854C2.52483 134.044 2.62759 135.251 2.73698 136.443C2.78339 136.949 2.41102 137.397 1.90495 137.444C1.87732 137.446 1.84859 137.448 1.81986 137.448ZM318.742 132.05C318.613 132.051 318.485 132.023 318.367 131.971C318.249 131.918 318.143 131.841 318.056 131.745C317.97 131.649 317.905 131.535 317.865 131.412C317.825 131.289 317.812 131.159 317.825 131.031C317.949 129.886 318.04 128.696 318.095 127.494C318.118 126.985 318.55 126.591 319.056 126.615C319.565 126.638 319.958 127.069 319.935 127.576C319.88 128.796 319.787 130.014 319.656 131.228C319.607 131.7 319.207 132.05 318.742 132.05ZM1.2696 130.235C0.786729 130.235 0.38121 129.858 0.351376 129.37C0.277344 128.15 0.214362 126.928 0.162429 125.739C0.140329 125.231 0.534799 124.801 1.04308 124.779C1.55357 124.757 1.98119 125.151 2.00329 125.659C2.05411 126.838 2.1171 128.05 2.19002 129.259C2.22096 129.766 1.83423 130.203 1.32595 130.234C1.30716 130.235 1.28838 130.235 1.2696 130.235ZM319.078 124.851C318.573 124.851 318.162 124.444 318.158 123.938C318.147 122.778 318.107 121.58 318.038 120.378C318.008 119.87 318.396 119.435 318.904 119.405C319.411 119.375 319.847 119.763 319.876 120.272C319.948 121.504 319.989 122.731 320 123.921C320.004 124.43 319.597 124.846 319.087 124.851H319.078ZM0.960208 122.996C0.461872 122.996 0.051933 122.599 0.0397785 122.097C0.00662981 120.695 0 119.659 0 119.038C0 118.642 0.00331495 118.435 0.00331495 118.435L0.00441993 118.403C0.0497232 117.483 0.114915 116.545 0.198892 115.615C0.244195 115.109 0.691703 114.736 1.19888 114.781C1.70495 114.826 2.07953 115.274 2.03312 115.781C1.95246 116.68 1.88837 117.588 1.84417 118.477C1.84307 118.531 1.84196 118.721 1.84196 119.04C1.84196 119.652 1.84859 120.672 1.88174 122.055C1.8939 122.563 1.49169 122.985 0.983412 122.997C0.974572 122.996 0.966837 122.996 0.960208 122.996ZM318.667 117.651C318.44 117.65 318.22 117.565 318.051 117.412C317.882 117.26 317.776 117.05 317.752 116.823C317.634 115.662 317.488 114.469 317.319 113.278C317.247 112.774 317.598 112.309 318.102 112.237C318.604 112.167 319.071 112.516 319.143 113.02C319.315 114.235 319.463 115.452 319.583 116.636C319.635 117.142 319.266 117.594 318.76 117.645C318.729 117.648 318.698 117.651 318.667 117.651ZM1.53147 113.037C1.48838 113.037 1.44528 113.034 1.40109 113.029C0.897225 112.957 0.546954 112.492 0.618776 111.988C0.786729 110.799 0.988936 109.588 1.21766 108.388C1.31269 107.888 1.79555 107.56 2.295 107.656C2.79444 107.751 3.12261 108.234 3.02648 108.734C2.80328 109.904 2.60659 111.086 2.44195 112.246C2.37676 112.706 1.98229 113.037 1.53147 113.037ZM317.659 110.508C317.221 110.508 316.833 110.195 316.754 109.749C316.543 108.575 316.314 107.405 316.065 106.239C315.959 105.741 316.276 105.252 316.773 105.146C317.271 105.04 317.76 105.357 317.866 105.854C318.122 107.051 318.357 108.253 318.567 109.424C318.656 109.925 318.323 110.403 317.822 110.493C317.767 110.504 317.713 110.508 317.659 110.508ZM2.88062 105.958C2.80991 105.958 2.73808 105.95 2.66626 105.933C2.17124 105.814 1.86627 105.317 1.9845 104.823C2.26406 103.655 2.57455 102.47 2.90935 101.297C2.94244 101.181 2.99815 101.072 3.0733 100.978C3.14844 100.883 3.24154 100.804 3.34726 100.745C3.45298 100.686 3.56925 100.649 3.6894 100.635C3.80955 100.622 3.93123 100.632 4.04746 100.665C4.16377 100.698 4.27242 100.754 4.36717 100.829C4.46192 100.904 4.54091 100.997 4.59962 101.103C4.65833 101.209 4.69561 101.325 4.70932 101.445C4.72302 101.565 4.71289 101.687 4.67949 101.803C4.35324 102.946 4.05152 104.096 3.77453 105.252C3.67398 105.673 3.29719 105.958 2.88062 105.958ZM316.156 103.452C315.741 103.452 315.366 103.171 315.263 102.751C314.982 101.61 314.677 100.444 314.357 99.2873C314.325 99.1707 314.316 99.0489 314.33 98.9288C314.345 98.8087 314.383 98.6927 314.443 98.5874C314.503 98.4822 314.582 98.3897 314.678 98.3152C314.773 98.2408 314.882 98.1859 314.999 98.1536C315.116 98.1213 315.237 98.1123 315.357 98.127C315.478 98.1418 315.594 98.1801 315.699 98.2397C315.804 98.2993 315.897 98.3791 315.971 98.4745C316.045 98.5699 316.1 98.679 316.133 98.7956C316.457 99.9702 316.767 101.152 317.052 102.312C317.081 102.429 317.086 102.551 317.068 102.67C317.05 102.79 317.008 102.905 316.946 103.008C316.883 103.112 316.801 103.202 316.703 103.273C316.606 103.345 316.495 103.397 316.378 103.425C316.303 103.443 316.229 103.452 316.156 103.452ZM4.85739 99.0243C4.76126 99.0243 4.66402 99.0089 4.56789 98.9779C4.08503 98.8177 3.82315 98.2973 3.98337 97.8144C4.36127 96.6752 4.76899 95.5194 5.19772 94.3802C5.37672 93.904 5.9082 93.6631 6.38334 93.8421C6.85957 94.0211 7.10045 94.5526 6.92145 95.0277C6.50157 96.1437 6.10157 97.2763 5.73141 98.3923C5.67088 98.5763 5.55379 98.7365 5.39683 98.85C5.23988 98.9635 5.05108 99.0245 4.85739 99.0243ZM314.232 96.4984C313.839 96.4984 313.474 96.2432 313.353 95.8476C313.007 94.7194 312.638 93.5714 312.256 92.4355C312.095 91.9537 312.355 91.4311 312.837 91.2698C313.318 91.1084 313.841 91.367 314.002 91.8499C314.389 93.0012 314.762 94.1647 315.113 95.3073C315.148 95.4228 315.161 95.5443 315.149 95.6646C315.138 95.785 315.103 95.9019 315.046 96.0088C314.989 96.1156 314.912 96.2102 314.819 96.2872C314.726 96.3642 314.618 96.4221 314.503 96.4575C314.412 96.4852 314.322 96.4984 314.232 96.4984ZM7.39327 92.2742C7.27393 92.2742 7.15349 92.251 7.03637 92.2023C6.56786 92.0057 6.34687 91.4653 6.54466 90.9968C7.00985 89.8897 7.50487 88.7692 8.01646 87.6676C8.23082 87.2068 8.77778 87.0057 9.23965 87.2201C9.70042 87.4344 9.90152 87.9814 9.68716 88.4433C9.1844 89.525 8.69933 90.6245 8.24187 91.7106C8.17173 91.8778 8.05375 92.0204 7.90276 92.1207C7.75177 92.221 7.57451 92.2743 7.39327 92.2742ZM311.938 89.6576C311.561 89.6576 311.209 89.4256 311.073 89.051C310.669 87.9372 310.242 86.809 309.807 85.6964C309.621 85.2223 309.855 84.6886 310.328 84.503C310.802 84.3174 311.336 84.5516 311.522 85.0257C311.962 86.1527 312.393 87.2952 312.803 88.4223C312.977 88.9007 312.73 89.4289 312.253 89.6024C312.149 89.6399 312.043 89.6576 311.938 89.6576ZM10.4286 85.7328C10.2883 85.7328 10.1457 85.7008 10.012 85.6323C9.55898 85.4013 9.37777 84.8477 9.60871 84.3947C10.1534 83.324 10.7269 82.2423 11.3137 81.1804C11.3721 81.0745 11.4508 80.9812 11.5453 80.9058C11.6398 80.8304 11.7482 80.7744 11.8644 80.7409C11.9805 80.7075 12.1022 80.6973 12.2223 80.7109C12.3424 80.7244 12.4587 80.7616 12.5645 80.8202C13.0098 81.0666 13.1711 81.6268 12.9247 82.071C12.3481 83.1139 11.7897 84.1667 11.2496 85.229C11.1727 85.3807 11.0553 85.5081 10.9104 85.597C10.7654 85.686 10.5986 85.733 10.4286 85.7328ZM309.311 82.9373C309.129 82.9373 308.951 82.8837 308.8 82.783C308.649 82.6823 308.531 82.5392 308.461 82.3715C308.003 81.2776 307.525 80.1705 307.039 79.0788C306.832 78.6147 307.041 78.0699 307.505 77.8633C307.97 77.6567 308.514 77.8655 308.721 78.3296C309.212 79.4346 309.696 80.555 310.158 81.6611C310.205 81.7726 310.229 81.8922 310.23 82.0131C310.23 82.134 310.207 82.2538 310.161 82.3656C310.115 82.4775 310.047 82.5792 309.962 82.665C309.877 82.7507 309.776 82.8189 309.664 82.8655C309.55 82.9141 309.43 82.9373 309.311 82.9373ZM13.9147 79.4202C13.752 79.42 13.5922 79.3767 13.4516 79.2947C13.311 79.2127 13.1946 79.095 13.1143 78.9534C13.0341 78.8118 12.9927 78.6515 12.9945 78.4887C12.9964 78.326 13.0413 78.1666 13.1247 78.0268C13.7435 76.9915 14.3899 75.9484 15.0462 74.9263C15.1785 74.721 15.3868 74.5766 15.6255 74.5248C15.8642 74.473 16.1136 74.5181 16.3191 74.6501C16.5244 74.7824 16.6689 74.9907 16.7207 75.2294C16.7725 75.4681 16.7274 75.7175 16.5953 75.923C15.9501 76.9274 15.3136 77.9528 14.7059 78.9716C14.6242 79.1086 14.5084 79.2219 14.3697 79.3006C14.231 79.3792 14.0742 79.4205 13.9147 79.4202ZM306.378 76.3462C306.033 76.3462 305.702 76.1506 305.545 75.818C305.038 74.744 304.511 73.659 303.978 72.5905C303.75 72.1352 303.936 71.5827 304.39 71.3551C304.845 71.1275 305.398 71.3131 305.626 71.7673C306.165 72.8468 306.697 73.9451 307.21 75.0313C307.427 75.491 307.23 76.0401 306.77 76.2567C306.643 76.3175 306.51 76.3462 306.378 76.3462ZM17.8252 73.3363C17.6451 73.3363 17.4627 73.2833 17.3036 73.1739C16.8848 72.8855 16.7799 72.312 17.0683 71.8932C17.7522 70.901 18.4649 69.9032 19.1843 68.9286C19.4859 68.5198 20.0627 68.4325 20.4715 68.7342C20.8804 69.0358 20.9677 69.6126 20.666 70.0214C19.9562 70.9824 19.2622 71.9549 18.5843 72.9385C18.4994 73.0614 18.386 73.1617 18.2538 73.231C18.1215 73.3003 17.9745 73.3364 17.8252 73.3363ZM303.156 69.8899C302.826 69.8899 302.505 69.7109 302.341 69.3982C301.786 68.3441 301.212 67.2822 300.636 66.2414C300.389 65.7961 300.549 65.2359 300.995 64.9895C301.439 64.7431 302 64.9033 302.247 65.3486C302.83 66.4005 303.41 67.4745 303.97 68.5397C304.207 68.9894 304.034 69.5463 303.585 69.7839C303.453 69.8535 303.305 69.8899 303.156 69.8899ZM22.1146 67.5242C21.9146 67.5242 21.7146 67.4601 21.5456 67.3264C21.1467 67.0115 21.0782 66.4325 21.392 66.0336C22.1389 65.0856 22.9113 64.1364 23.6892 63.2127C24.0162 62.8237 24.5974 62.7729 24.9864 63.1C25.3753 63.4271 25.4262 64.0083 25.0991 64.3972C24.3345 65.3066 23.5743 66.2414 22.8395 67.1729C22.7532 67.2825 22.6431 67.3712 22.5175 67.4321C22.3919 67.4929 22.2542 67.5245 22.1146 67.5242ZM299.664 63.5884C299.347 63.5884 299.039 63.4248 298.868 63.1309C298.269 62.1033 297.652 61.0691 297.032 60.0569C296.767 59.6227 296.903 59.0558 297.337 58.7907C297.77 58.5255 298.338 58.6614 298.604 59.0956C299.229 60.1188 299.853 61.1641 300.459 62.2039C300.715 62.6436 300.566 63.2072 300.126 63.4635C299.986 63.5456 299.827 63.5887 299.664 63.5884ZM26.7576 62.0017C26.5389 62.0017 26.319 61.9243 26.1433 61.7663C25.9613 61.6034 25.8515 61.3748 25.8381 61.1309C25.8246 60.887 25.9085 60.6478 26.0715 60.4658C26.877 59.5674 27.7068 58.6691 28.5388 57.7984C28.6223 57.711 28.7222 57.6408 28.8328 57.592C28.9434 57.5431 29.0626 57.5166 29.1835 57.5138C29.3043 57.5111 29.4246 57.5321 29.5373 57.5758C29.65 57.6195 29.7531 57.685 29.8405 57.7686C29.9279 57.8521 29.9981 57.952 30.0469 58.0626C30.0957 58.1732 30.1223 58.2923 30.1251 58.4132C30.1278 58.5341 30.1068 58.6543 30.063 58.7671C30.0193 58.8798 29.9538 58.9828 29.8703 59.0702C29.0515 59.9277 28.235 60.8105 27.4427 61.6945C27.3569 61.7914 27.2514 61.869 27.1333 61.922C27.0152 61.9749 26.8871 62.0021 26.7576 62.0017ZM295.906 57.4437C295.604 57.4437 295.306 57.2945 295.131 57.0205C294.486 56.0161 293.824 55.0073 293.162 54.0228C292.878 53.6007 292.989 53.0283 293.411 52.7443C293.833 52.4604 294.406 52.572 294.69 52.9941C295.359 53.9896 296.029 55.0095 296.681 56.0249C296.956 56.4526 296.831 57.0227 296.404 57.2968C296.249 57.3962 296.077 57.4437 295.906 57.4437ZM31.7344 56.7907C31.6122 56.7909 31.4911 56.7666 31.3784 56.7194C31.2657 56.6721 31.1636 56.6028 31.078 56.5155C30.7211 56.1531 30.7266 55.5697 31.0891 55.2139C31.9498 54.3675 32.8349 53.5266 33.7189 52.7123C33.8986 52.5468 34.1366 52.4594 34.3807 52.4694C34.6247 52.4793 34.8549 52.5858 35.0205 52.7653C35.186 52.945 35.2734 53.1831 35.2634 53.4271C35.2535 53.6712 35.147 53.9013 34.9675 54.067C34.0921 54.8732 33.2297 55.6936 32.3808 56.5277C32.2075 56.6958 31.9758 56.7901 31.7344 56.7907ZM37.0282 51.9156C36.7697 51.9156 36.5122 51.8073 36.3299 51.5963C35.9984 51.2106 36.0404 50.6294 36.426 50.298C37.3446 49.5065 38.2762 48.7304 39.2204 47.9698C39.6171 47.6516 40.1961 47.7135 40.5155 48.1101C40.5914 48.2044 40.6479 48.3126 40.682 48.4287C40.716 48.5448 40.7268 48.6665 40.7138 48.7867C40.7007 48.907 40.6641 49.0235 40.606 49.1297C40.5479 49.2358 40.4694 49.3294 40.3751 49.4051C39.4547 50.1455 38.531 50.9156 37.6282 51.6935C37.4611 51.8367 37.2483 51.9155 37.0282 51.9156ZM291.879 51.456C291.589 51.456 291.305 51.32 291.125 51.0659C290.435 50.0869 289.726 49.1068 289.021 48.1532C288.949 48.056 288.897 47.9455 288.868 47.8281C288.839 47.7107 288.833 47.5886 288.851 47.469C288.869 47.3493 288.91 47.2343 288.973 47.1307C289.035 47.027 289.117 46.9367 289.215 46.8649C289.624 46.5632 290.2 46.6483 290.503 47.0571C291.216 48.0217 291.932 49.0129 292.63 50.0029C292.771 50.2025 292.826 50.4498 292.785 50.6903C292.743 50.9309 292.608 51.1451 292.408 51.2858C292.254 51.3969 292.069 51.4565 291.879 51.456ZM142.231 51.2582C141.758 51.2582 141.356 50.8968 141.315 50.4173C141.271 49.9112 141.647 49.4648 142.153 49.4206C143.279 49.3223 144.391 49.1013 145.46 48.7621C145.944 48.6085 146.462 48.877 146.616 49.361C146.769 49.846 146.501 50.3632 146.017 50.5167C144.813 50.8982 143.57 51.1457 142.312 51.2549C142.284 51.2571 142.258 51.2582 142.231 51.2582ZM138.636 51.2007C138.601 51.2007 138.567 51.1985 138.532 51.1952C137.351 51.0626 136.114 50.8217 134.858 50.4792C134.367 50.3455 134.078 49.8394 134.212 49.3488C134.347 48.8582 134.852 48.5698 135.343 48.7035C136.507 49.0217 137.65 49.2449 138.737 49.3665C139.242 49.4228 139.607 49.8792 139.549 50.3841C139.498 50.8538 139.099 51.2007 138.636 51.2007ZM131.689 49.3554C131.575 49.3554 131.459 49.3344 131.346 49.2891C130.266 48.856 129.137 48.3444 127.993 47.7687C127.539 47.54 127.355 46.9864 127.584 46.5323C127.813 46.0781 128.366 45.8947 128.82 46.1234C129.919 46.6759 130.998 47.1665 132.031 47.5798C132.144 47.6248 132.246 47.6914 132.332 47.776C132.419 47.8606 132.488 47.9614 132.535 48.0726C132.583 48.1838 132.608 48.3034 132.609 48.4243C132.611 48.5453 132.588 48.6653 132.543 48.7775C132.399 49.1366 132.053 49.3554 131.689 49.3554ZM149.02 49.1245C148.697 49.1245 148.385 48.9554 148.216 48.6538C147.967 48.2107 148.125 47.6494 148.568 47.4008C149.524 46.8649 150.459 46.2339 151.424 45.4715C151.823 45.1566 152.402 45.2251 152.717 45.624C153.032 46.0229 152.964 46.6019 152.565 46.9168C151.522 47.7389 150.508 48.4228 149.468 49.0063C149.331 49.0837 149.177 49.1245 149.02 49.1245ZM42.648 47.3941C42.3685 47.3941 42.0911 47.2671 41.9099 47.0251C41.6049 46.6185 41.6878 46.0406 42.0944 45.7356C43.0657 45.0074 44.0591 44.2914 45.0458 43.6052C45.4635 43.3146 46.0369 43.4185 46.3275 43.8362C46.6181 44.2538 46.5143 44.8273 46.0966 45.1179C45.1183 45.7976 44.1524 46.495 43.1994 47.2096C43.0407 47.3296 42.847 47.3945 42.648 47.3941ZM125.242 46.1389C125.084 46.1389 124.924 46.098 124.777 46.0118C123.775 45.424 122.732 44.7754 121.677 44.0848C121.251 43.8063 121.132 43.2351 121.412 42.8097C121.69 42.3843 122.261 42.2649 122.687 42.5445C123.715 43.2185 124.733 43.8505 125.709 44.424C125.813 44.4851 125.904 44.5662 125.977 44.6626C126.05 44.759 126.103 44.8688 126.134 44.9858C126.164 45.1028 126.171 45.2247 126.155 45.3444C126.138 45.4641 126.098 45.5794 126.037 45.6837C125.867 45.9765 125.558 46.1389 125.242 46.1389ZM287.579 45.6439C287.304 45.6439 287.032 45.5212 286.851 45.287C286.118 44.34 285.364 43.3931 284.614 42.4704C284.292 42.076 284.352 41.4959 284.746 41.1754C285.141 40.8539 285.721 40.9136 286.041 41.308C286.802 42.2417 287.563 43.2008 288.306 44.1588C288.381 44.2544 288.435 44.3636 288.467 44.4802C288.499 44.5968 288.508 44.7186 288.492 44.8385C288.477 44.9585 288.438 45.0743 288.378 45.1793C288.319 45.2843 288.239 45.3765 288.143 45.4505C287.982 45.5761 287.784 45.6442 287.579 45.6439ZM154.69 44.7279C154.451 44.7279 154.212 44.6351 154.032 44.4516C153.676 44.0881 153.682 43.5058 154.045 43.15C154.824 42.3865 155.621 41.5456 156.482 40.5799C156.82 40.1998 157.402 40.1666 157.782 40.5047C158.162 40.8428 158.196 41.4252 157.857 41.8053C156.969 42.803 156.144 43.6726 155.335 44.4649C155.162 44.633 154.931 44.7273 154.69 44.7279ZM48.5717 43.2804C48.4171 43.2806 48.265 43.2419 48.1294 43.1677C47.9938 43.0936 47.8792 42.9864 47.796 42.8561C47.522 42.4285 47.6457 41.8583 48.0745 41.5843C49.0988 40.9279 50.1418 40.2859 51.1772 39.6771C51.3878 39.5534 51.6389 39.5184 51.8752 39.5797C52.1116 39.6411 52.314 39.7937 52.4379 40.0042C52.5616 40.2148 52.5966 40.4658 52.5353 40.7022C52.474 40.9386 52.3213 41.141 52.1109 41.2649C51.0965 41.8616 50.0733 42.4903 49.0689 43.1345C48.9205 43.2295 48.748 43.2801 48.5717 43.2804ZM119.207 42.1997C119.023 42.1997 118.836 42.1445 118.673 42.0285C118.191 41.6837 117.694 41.3246 117.199 40.9589C116.725 40.6086 116.24 40.2627 115.76 39.9301C115.341 39.6418 115.236 39.0672 115.525 38.6495C115.815 38.2307 116.388 38.1258 116.806 38.4153C117.303 38.7589 117.804 39.1158 118.293 39.4782C118.781 39.8373 119.268 40.192 119.743 40.5301C120.157 40.8252 120.254 41.3997 119.959 41.8141C119.873 41.9334 119.76 42.0305 119.629 42.0976C119.499 42.1646 119.354 42.1996 119.207 42.1997ZM283.017 40.0406C282.884 40.0408 282.752 40.012 282.631 39.9563C282.51 39.9006 282.403 39.8193 282.316 39.718C281.54 38.8099 280.753 37.9115 279.954 37.023C279.614 36.6451 279.645 36.0628 280.024 35.7225C280.402 35.3821 280.984 35.4131 281.324 35.7921C282.125 36.6827 282.93 37.6009 283.718 38.5213C284.048 38.9081 284.003 39.4893 283.616 39.8196C283.441 39.9688 283.229 40.0406 283.017 40.0406ZM54.7882 39.6263C54.46 39.6263 54.1418 39.4495 53.976 39.1401C53.7363 38.6915 53.9053 38.1335 54.3528 37.8937C55.428 37.318 56.5208 36.7622 57.6014 36.2407C58.0589 36.0197 58.6102 36.212 58.8312 36.6694C59.0522 37.1269 58.86 37.6782 58.4025 37.8992C57.3451 38.4097 56.2755 38.9534 55.2235 39.5169C55.0896 39.5884 54.9401 39.626 54.7882 39.6263ZM159.51 39.3688C159.304 39.3688 159.097 39.3003 158.925 39.1589C158.533 38.8351 158.476 38.255 158.8 37.8628C159.444 37.0805 160.14 36.2186 161.056 35.0683C161.209 34.8774 161.43 34.7547 161.673 34.7272C161.915 34.6996 162.159 34.7695 162.35 34.9214C162.748 35.2385 162.814 35.8175 162.497 36.2153C161.575 37.3744 160.873 38.244 160.221 39.034C160.039 39.255 159.776 39.3688 159.51 39.3688ZM113.249 38.1423C113.088 38.1423 112.925 38.1003 112.777 38.0119C111.764 37.406 110.73 36.8347 109.677 36.2993C109.569 36.2444 109.473 36.1689 109.395 36.0769C109.316 35.985 109.256 35.8785 109.219 35.7635C109.181 35.6484 109.167 35.5272 109.176 35.4066C109.186 35.286 109.219 35.1684 109.274 35.0606C109.505 34.6076 110.058 34.4264 110.512 34.6573C111.591 35.2065 112.671 35.8031 113.722 36.4307C113.932 36.5561 114.083 36.7595 114.143 36.9963C114.202 37.2332 114.166 37.484 114.04 37.6937C113.959 37.8307 113.843 37.9441 113.704 38.0227C113.565 38.1014 113.409 38.1426 113.249 38.1423ZM61.282 36.4948C60.9251 36.4948 60.5848 36.286 60.4356 35.9368C60.2356 35.4694 60.4511 34.928 60.9185 34.728C62.036 34.2483 63.1645 33.7944 64.303 33.3667C64.7792 33.1877 65.3096 33.4297 65.4886 33.9059C65.6676 34.3822 65.4256 34.9125 64.9494 35.0915C63.851 35.5037 62.7394 35.9501 61.6444 36.4208C61.5262 36.4716 61.4036 36.4948 61.282 36.4948ZM106.827 34.8783C106.708 34.8783 106.586 34.8551 106.469 34.8054C105.384 34.3468 104.271 33.9214 103.162 33.5435C102.68 33.38 102.424 32.8562 102.588 32.3745C102.751 31.8927 103.275 31.6363 103.757 31.7999C104.915 32.1954 106.06 32.6317 107.187 33.1081C107.656 33.3059 107.875 33.8463 107.677 34.3148C107.606 34.4819 107.488 34.6245 107.337 34.7247C107.186 34.825 107.009 34.8784 106.827 34.8783ZM278.194 34.6772C277.95 34.6772 277.707 34.5811 277.525 34.3899C276.704 33.5225 275.864 32.6573 275.028 31.8209C274.856 31.6479 274.759 31.4135 274.759 31.1693C274.759 30.925 274.856 30.6908 275.029 30.5181C275.202 30.3456 275.437 30.2488 275.681 30.249C275.925 30.2492 276.159 30.3464 276.332 30.5192C277.178 31.3678 278.03 32.243 278.863 33.1236C279.213 33.4927 279.197 34.0761 278.828 34.4253C278.657 34.587 278.43 34.6771 278.194 34.6772ZM68.0322 33.9667C67.837 33.9664 67.6468 33.9042 67.4892 33.7891C67.3315 33.6739 67.2145 33.5117 67.1549 33.3258C67.0805 33.0931 67.1016 32.8405 67.2135 32.6233C67.3254 32.4062 67.5189 32.2423 67.7515 32.1678C68.9162 31.7955 70.0951 31.4507 71.2576 31.1446C71.7493 31.0154 72.2531 31.3082 72.3824 31.7999C72.5117 32.2916 72.2189 32.7954 71.7272 32.9247C70.5957 33.2231 69.4476 33.559 68.3129 33.9214C68.22 33.9523 68.125 33.9667 68.0322 33.9667ZM164.019 33.7369C163.818 33.7369 163.615 33.6717 163.446 33.5369C163.049 33.2208 162.982 32.6407 163.298 32.243C164.2 31.1093 164.898 30.2397 165.566 29.422C165.887 29.0275 166.467 28.969 166.862 29.2905C167.256 29.6121 167.315 30.1922 166.993 30.5855C166.331 31.3966 165.636 32.2606 164.74 33.3877C164.654 33.4967 164.545 33.5847 164.42 33.6452C164.295 33.7057 164.158 33.737 164.019 33.7369ZM100.006 32.5535C99.929 32.5535 99.8505 32.5435 99.7721 32.5236C98.6306 32.2246 97.4789 31.9663 96.3191 31.749C95.8197 31.6551 95.4893 31.1745 95.5832 30.675C95.6771 30.1756 96.1578 29.8452 96.6572 29.9391C97.8605 30.1643 99.0553 30.4323 100.239 30.7424C100.476 30.8045 100.677 30.9577 100.801 31.1683C100.924 31.379 100.959 31.63 100.897 31.8662C100.789 32.2805 100.415 32.5535 100.006 32.5535ZM75.0001 32.1325C74.5724 32.1325 74.189 31.833 74.0995 31.3977C73.9968 30.8993 74.3172 30.412 74.8155 30.3104C76.0144 30.0629 77.2265 29.8496 78.4166 29.675C78.9204 29.6021 79.3878 29.9491 79.4608 30.4529C79.5348 30.9557 79.1867 31.4242 78.6829 31.4971C77.5118 31.669 76.346 31.8746 75.1868 32.1137C75.1238 32.1258 75.0619 32.1325 75.0001 32.1325ZM92.9247 31.2286C92.8893 31.2286 92.854 31.2264 92.8186 31.2231C91.6454 31.089 90.4679 30.995 89.2883 30.9413C88.78 30.9181 88.3866 30.4883 88.4098 29.98C88.433 29.4717 88.864 29.0795 89.3711 29.1016C90.5932 29.1568 91.823 29.2552 93.0274 29.3933C93.5324 29.4507 93.8948 29.9082 93.8374 30.4132C93.7843 30.8828 93.3865 31.2286 92.9247 31.2286ZM82.1281 31.0916C81.6552 31.0916 81.253 30.7292 81.2121 30.2485C81.2018 30.128 81.2154 30.0066 81.252 29.8913C81.2887 29.7761 81.3477 29.6691 81.4257 29.5767C81.5036 29.4842 81.5991 29.408 81.7066 29.3525C81.814 29.2969 81.9314 29.2631 82.0519 29.2529C83.2718 29.1491 84.5016 29.0839 85.7082 29.0585H85.7281C86.2275 29.0585 86.6375 29.4585 86.6485 29.9601C86.6596 30.4684 86.2562 30.8894 85.7469 30.9004C84.58 30.9247 83.3889 30.9888 82.2077 31.0883C82.1801 31.0905 82.1535 31.0916 82.1281 31.0916ZM273.097 29.5745C272.869 29.5745 272.641 29.4905 272.464 29.3226C271.594 28.4983 270.708 27.6828 269.83 26.8983C269.451 26.5591 269.418 25.9768 269.758 25.5978C269.92 25.4156 270.149 25.3056 270.393 25.292C270.637 25.2783 270.876 25.362 271.058 25.5248C271.95 26.3215 272.849 27.1491 273.731 27.9856C273.908 28.1536 274.011 28.385 274.018 28.6291C274.025 28.8731 273.934 29.1098 273.766 29.2872C273.68 29.3779 273.576 29.4501 273.461 29.4995C273.346 29.5489 273.222 29.5744 273.097 29.5745ZM168.59 28.1557C168.378 28.1557 168.166 28.0828 167.991 27.9347C167.604 27.6044 167.56 27.0231 167.89 26.6364C168.72 25.6663 169.508 24.7757 170.298 23.9116C170.38 23.8223 170.478 23.7499 170.588 23.6987C170.697 23.6475 170.816 23.6184 170.937 23.613C171.057 23.6077 171.178 23.6262 171.292 23.6676C171.405 23.709 171.51 23.7724 171.599 23.8541C171.974 24.1978 172 24.7801 171.656 25.1547C170.852 26.0344 170.062 26.9277 169.288 27.8342C169.202 27.9353 169.095 28.0164 168.975 28.072C168.854 28.1275 168.723 28.1561 168.59 28.1557ZM267.719 24.7679C267.51 24.7679 267.299 24.6972 267.127 24.5514C266.212 23.7812 265.278 23.021 264.353 22.2917C263.954 21.9768 263.886 21.3978 264.201 20.9989C264.516 20.6 265.095 20.5315 265.494 20.8464C266.434 21.5879 267.382 22.3602 268.312 23.1425C268.701 23.4696 268.752 24.0508 268.424 24.4398C268.337 24.5426 268.23 24.6253 268.108 24.682C267.986 24.7387 267.853 24.7681 267.719 24.7679ZM173.465 22.842C173.231 22.842 172.995 22.7525 172.816 22.5746C172.455 22.2166 172.454 21.6332 172.812 21.2729C173.683 20.3956 174.568 19.5448 175.443 18.7448C175.817 18.4012 176.401 18.4277 176.743 18.8023C177.087 19.178 177.061 19.7603 176.686 20.1028C175.811 20.9041 174.955 21.7264 174.119 22.5691C174.034 22.6556 173.932 22.7243 173.819 22.7711C173.707 22.818 173.587 22.842 173.465 22.842ZM262.055 20.305C261.866 20.305 261.674 20.2464 261.51 20.126C260.551 19.4197 259.579 18.7304 258.595 18.0586C258.175 17.7713 258.067 17.199 258.354 16.7791C258.642 16.3592 259.214 16.2509 259.634 16.5382C260.622 17.2133 261.62 17.9216 262.601 18.6432C262.698 18.7148 262.781 18.8049 262.843 18.9084C262.906 19.0119 262.947 19.1267 262.965 19.2462C262.984 19.3658 262.978 19.4878 262.949 19.6052C262.92 19.7226 262.868 19.8331 262.796 19.9304C262.711 20.0468 262.599 20.1414 262.47 20.2065C262.342 20.2716 262.199 20.3053 262.055 20.305ZM178.785 17.9835C178.596 17.9834 178.41 17.9248 178.255 17.8155C178.1 17.7062 177.982 17.5517 177.918 17.3729C177.854 17.1942 177.847 17.0001 177.897 16.8171C177.947 16.634 178.053 16.471 178.2 16.3504C179.148 15.5725 180.121 14.8189 181.09 14.1128C181.188 14.0416 181.299 13.9904 181.416 13.962C181.534 13.9336 181.656 13.9287 181.775 13.9475C181.895 13.9663 182.009 14.0084 182.112 14.0714C182.216 14.1345 182.305 14.2173 182.376 14.315C182.448 14.4128 182.499 14.5235 182.527 14.6411C182.556 14.7586 182.561 14.8806 182.542 15C182.523 15.1195 182.481 15.234 182.418 15.3372C182.355 15.4403 182.272 15.53 182.174 15.6012C181.233 16.2863 180.289 17.0167 179.368 17.7736C179.204 17.9097 178.998 17.984 178.785 17.9835ZM256.1 16.2399C255.927 16.2398 255.756 16.1904 255.61 16.0973C254.604 15.4622 253.585 14.847 252.554 14.2521C252.114 13.9979 251.963 13.4344 252.217 12.9946C252.472 12.5537 253.035 12.4035 253.475 12.6576C254.526 13.2644 255.565 13.8922 256.591 14.5404C257.021 14.8123 257.15 15.3802 256.878 15.81C256.796 15.9419 256.681 16.0506 256.545 16.1258C256.409 16.201 256.256 16.2402 256.1 16.2399ZM184.61 13.7493C184.306 13.7493 184.008 13.599 183.833 13.3239C183.559 12.8952 183.685 12.3261 184.113 12.0521C185.14 11.3968 186.197 10.7681 187.257 10.1814C187.702 9.93499 188.263 10.0963 188.509 10.5416C188.755 10.9869 188.594 11.5471 188.149 11.7935C187.115 12.3653 186.1 12.9692 185.105 13.6045C184.957 13.6992 184.785 13.7494 184.61 13.7493ZM249.858 12.6366C249.715 12.6366 249.568 12.6024 249.432 12.5316C248.376 11.9781 247.302 11.4433 246.241 10.9449C245.78 10.7283 245.583 10.1803 245.8 9.71952C246.016 9.25875 246.564 9.06207 247.025 9.27864C248.11 9.78913 249.208 10.335 250.288 10.9007C250.395 10.9568 250.49 11.0335 250.568 11.1263C250.645 11.2192 250.704 11.3264 250.74 11.4419C250.776 11.5573 250.789 11.6787 250.778 11.7992C250.767 11.9196 250.732 12.0367 250.676 12.1438C250.597 12.2924 250.48 12.4167 250.336 12.5035C250.191 12.5904 250.027 12.6364 249.858 12.6366ZM190.907 10.2665C190.562 10.2665 190.232 10.072 190.074 9.73941C189.856 9.27975 190.053 8.73059 190.512 8.51291C191.604 7.99579 192.732 7.50519 193.865 7.05216C194.338 6.86321 194.872 7.09414 195.061 7.56596C195.25 8.03778 195.019 8.57368 194.548 8.76263C193.45 9.20019 192.358 9.67643 191.3 10.177C191.173 10.2377 191.039 10.2665 190.907 10.2665ZM243.337 9.57146C243.216 9.57122 243.095 9.5472 242.983 9.50074C241.888 9.04504 240.782 8.61546 239.666 8.21236C239.188 8.03999 238.94 7.51182 239.113 7.03337C239.285 6.55492 239.813 6.30741 240.292 6.47979C241.421 6.88751 242.565 7.33171 243.691 7.80021C244.16 7.99579 244.382 8.53501 244.187 9.00351C244.041 9.3582 243.698 9.57146 243.337 9.57146ZM197.587 7.5969C197.201 7.5969 196.841 7.3516 196.713 6.96486C196.553 6.482 196.815 5.96156 197.298 5.80134C198.439 5.42345 199.617 5.07207 200.797 4.75495C201.289 4.62235 201.793 4.91517 201.925 5.40577C202.058 5.89637 201.765 6.40244 201.275 6.53393C200.132 6.83983 198.999 7.17845 197.877 7.54939C197.781 7.58143 197.683 7.5969 197.587 7.5969ZM236.561 7.12839C236.472 7.12839 236.382 7.11514 236.292 7.08751C235.156 6.74093 234.012 6.42407 232.86 6.13725C232.742 6.10812 232.632 6.05614 232.534 5.98428C232.437 5.91243 232.355 5.8221 232.293 5.71846C232.23 5.61481 232.189 5.49989 232.171 5.38026C232.153 5.26063 232.159 5.13864 232.188 5.02124C232.217 4.90381 232.269 4.79326 232.341 4.69592C232.413 4.59858 232.503 4.51637 232.607 4.45397C232.71 4.39157 232.825 4.35022 232.945 4.33229C233.064 4.31435 233.187 4.32017 233.304 4.34943C234.474 4.64003 235.66 4.96821 236.829 5.32511C237.315 5.47317 237.589 5.98808 237.441 6.47426C237.384 6.66332 237.268 6.82904 237.109 6.94686C236.951 7.06468 236.759 7.12833 236.561 7.12839ZM204.535 5.72952C204.109 5.72952 203.726 5.43229 203.635 4.99804C203.53 4.50081 203.848 4.01242 204.346 3.90745C205.516 3.66104 206.723 3.43894 207.932 3.24779C208.434 3.16823 208.905 3.51077 208.985 4.01352C209.004 4.13296 208.999 4.25495 208.971 4.37254C208.943 4.49012 208.891 4.60099 208.82 4.69879C208.749 4.79659 208.66 4.87941 208.556 4.94251C208.453 5.00562 208.339 5.04777 208.219 5.06655C207.041 5.25329 205.866 5.46985 204.725 5.70963C204.662 5.72289 204.598 5.72952 204.535 5.72952ZM229.566 5.39141C229.508 5.39141 229.45 5.38588 229.391 5.37483C228.231 5.15273 227.055 4.96158 225.895 4.80688C225.391 4.73948 225.037 4.2765 225.104 3.77264C225.136 3.53063 225.263 3.31136 225.457 3.16302C225.651 3.01467 225.896 2.94938 226.138 2.98149C227.332 3.14061 228.543 3.33729 229.737 3.56601C229.977 3.61206 230.189 3.75137 230.326 3.95336C230.463 4.15535 230.514 4.40351 230.469 4.64335C230.385 5.08533 229.999 5.39141 229.566 5.39141ZM211.646 4.60357C211.41 4.60265 211.184 4.51164 211.014 4.34923C210.843 4.18683 210.742 3.96535 210.73 3.73029C210.717 3.49524 210.796 3.26445 210.948 3.08532C211.101 2.9062 211.317 2.79234 211.551 2.76713C212.759 2.64006 213.988 2.54835 215.201 2.49421C215.71 2.4699 216.14 2.86437 216.163 3.37265C216.186 3.88093 215.791 4.31076 215.284 4.33396C214.108 4.387 212.917 4.47539 211.744 4.59915C211.711 4.60136 211.678 4.60357 211.646 4.60357ZM222.446 4.44335C222.422 4.44335 222.399 4.44225 222.376 4.44114C221.199 4.35275 220.007 4.29971 218.832 4.28092C218.324 4.27319 217.919 3.85441 217.926 3.34613C217.934 2.84227 218.345 2.44006 218.847 2.44006H218.861C220.072 2.45885 221.301 2.5141 222.513 2.6047C223.02 2.64227 223.4 3.08425 223.363 3.59143C223.345 3.82291 223.241 4.03931 223.071 4.19729C222.901 4.35527 222.678 4.44316 222.446 4.44335Z" fill="#C5CBD3"/>
<path d="M6.43543 146.453C6.43543 146.453 18.5358 224.748 87.9525 239.621C148.294 252.549 135.329 224.653 173.63 244.108C211.93 263.564 254.407 251.816 275.606 221.295C309.01 173.204 262.143 167.929 303.54 139.341C344.936 110.752 262.188 -18.5499 190.291 2.25422C136.313 17.8728 145.683 70.0422 95.2707 42.8868C44.8581 15.7314 0.621151 93.317 6.43543 146.453Z" fill="#B4DCFA"/>
<path d="M184.913 127.611C202.807 117.414 209.596 95.607 200.077 78.9034C190.559 62.1999 168.337 56.9252 150.443 67.1222C132.549 77.3192 125.759 99.1264 135.278 115.83C144.797 132.533 167.019 137.808 184.913 127.611Z" fill="#323B48"/>
<path d="M135.323 119.631C135.323 119.631 130.107 122.735 133.855 125.717C137.604 128.7 150.02 125.895 146.751 120.145C143.482 114.396 135.323 119.631 135.323 119.631Z" fill="#387ADF"/>
<path d="M144.714 127.272C144.714 127.272 149.669 136.875 138.826 146.007C127.983 155.138 120.695 151.84 120.047 165.459C119.398 179.079 134.123 192.834 119.048 207.017C103.973 221.2 95.6295 217.469 88.0307 225.462C80.4319 233.455 78.1447 252.573 59.0731 250.922C42.0049 249.445 21.7466 220.801 32.4868 205.148C43.2269 189.496 67.6896 197.87 72.0752 169.12C76.4607 140.37 86.5877 135.691 109.343 128.361C132.099 121.03 132.282 130.364 138.607 122.466C138.608 122.464 142.297 121.685 144.714 127.272Z" fill="#323B48"/>
<path d="M88.6675 169.869C88.6675 169.869 83.1858 174.967 80.0488 179.045C76.913 183.123 56.6503 194.404 50.4106 221.255C47.6117 233.302 80.3096 274.076 118.531 214.912C118.531 214.912 108.961 201.747 108.408 198.26C107.854 194.773 123.78 190.121 122.328 182.909C120.876 175.699 88.6675 169.869 88.6675 169.869Z" fill="#F3BFA1"/>
<path d="M151.894 135.935C151.894 135.935 129.887 121.203 110.081 141.173C110.081 141.173 86.5605 164.307 85.9307 171.458L134.881 192.731L146.256 167.055C146.255 167.055 143.39 145.597 151.894 135.935Z" fill="white"/>
<path d="M138.066 183.832C137.947 183.832 137.826 183.808 137.71 183.76L90.337 163.887C90.1118 163.793 89.9334 163.613 89.841 163.386C89.7485 163.16 89.7497 162.907 89.8441 162.682C89.9387 162.457 90.1188 162.278 90.3449 162.186C90.5709 162.093 90.8244 162.094 91.0496 162.189L138.422 182.062C138.618 182.144 138.78 182.292 138.879 182.48C138.979 182.668 139.01 182.884 138.968 183.093C138.926 183.301 138.813 183.489 138.649 183.623C138.484 183.758 138.278 183.832 138.066 183.832Z" fill="#323B48"/>
<path d="M148.299 137.023C148.299 137.023 141.841 136.629 134.735 145.642C129.523 152.252 118.226 211.806 112.573 243.089C145.397 244.57 141.708 227.893 173.631 244.108C195.447 255.191 218.617 256.144 238.44 249.275C227.368 191.044 187.578 137.814 187.578 137.814C160.426 147.962 148.299 137.023 148.299 137.023Z" fill="white"/>
<path d="M218.348 206.553L215.556 182.205L255.53 171.354C255.53 171.354 273.843 204.244 271.105 216.651C268.367 229.06 213.581 232.953 218.348 206.553Z" fill="#F3BFA1"/>
<path d="M176.917 158.416C176.917 158.416 206.397 120.052 234.731 141.171C234.731 141.171 259.341 170.378 259.971 177.529L211.02 198.802L199.646 173.126C199.645 173.127 185.422 168.077 176.917 158.416Z" fill="white"/>
<path d="M193.883 135.007C193.417 134.764 188.418 133.807 187.91 133.574C191.704 140.601 192.979 152.897 194.122 157.466C195.795 164.156 195.332 172.306 195.332 172.306C195.332 172.306 183.054 173.161 168.039 172.757C153.023 172.352 140 170.112 140 170.112C140 170.112 140 164.821 143.879 154.594C145.982 149.051 151.617 138.527 153.994 134.799L149.224 133.446C141.42 140.121 128.033 169.423 127.149 189.599C127.096 190.816 123.273 223.448 121.042 243.062C145.018 241.685 144.758 229.442 173.632 244.109C190.6 252.728 208.386 255.22 224.78 252.672C208.94 197.933 201.075 138.823 193.883 135.007Z" fill="#4A4A4A"/>
<path d="M47.6598 95.8628C40.135 103.388 43.6808 111.235 45.1935 114.056C42.8919 113.112 40.3472 112.157 37.9815 112.926C35.6158 113.695 34.1252 117.109 36.0003 118.743C36.9693 119.587 38.3804 119.619 39.6654 119.605C48.2543 119.512 56.8431 119.359 65.4308 119.145C71.4959 118.994 79.9046 120.143 85.5587 117.331C100.291 110.004 75.4937 95.7645 73.7014 108.574C74.5887 102.235 70.9357 95.5336 65.1435 92.8121C60.2906 90.5325 54.263 91.1822 49.8631 94.201C49.862 94.2021 48.4299 95.0927 47.6598 95.8628ZM274.079 36.9985C283.26 46.1796 278.934 55.7573 277.089 59.1982C279.897 58.0468 283.002 56.88 285.888 57.8192C288.775 58.7584 290.594 62.9241 288.306 64.9185C287.124 65.9494 285.401 65.9881 283.833 65.9704C273.352 65.8577 262.872 65.6699 252.394 65.4091C244.993 65.2246 234.732 66.6268 227.833 63.1959C209.855 54.2557 240.116 36.8791 242.302 52.511C241.221 44.7763 245.677 36.5985 252.745 33.2781C258.667 30.4969 266.022 31.2903 271.391 34.972C271.391 34.972 273.139 36.0593 274.079 36.9985Z" fill="white"/>
<path d="M94.0278 205.331C94.8974 201.15 95.0686 201.634 97.5957 199.621C98.8509 199.035 101.895 197.354 103.076 196.767C103.117 196.76 103.158 196.763 103.2 196.756C105.487 195.577 109.492 190.473 114.737 187.52C121.717 183.591 127.32 187.376 133.206 189.417C139.093 191.457 144.349 193.918 148.063 200.533C151.778 207.149 153.5 213.427 154.929 216.308C156.216 218.905 152.393 222.265 149.953 220.969C146.936 219.366 143.584 214.834 141.515 208.341C140.666 211.849 135.665 214.271 128.291 214.63C122.493 214.913 121.078 215.196 118.532 214.913C116.146 215.885 112.863 217.412 110.225 218.628C107.854 219.72 105.297 220.353 102.69 220.495L102.62 220.498C101.421 220.564 100.197 220.347 99.1791 219.712C95.4399 217.375 92.7316 211.559 94.0278 205.331Z" fill="#F3BFA1"/>
<path d="M135.264 215.22C131.954 215.22 129.607 211.757 129.505 211.605C129.37 211.401 129.321 211.153 129.368 210.913C129.416 210.674 129.557 210.463 129.76 210.327C129.964 210.192 130.212 210.143 130.452 210.191C130.691 210.239 130.902 210.38 131.038 210.583C131.057 210.61 133.052 213.536 135.462 213.37C137.143 213.256 138.821 211.582 140.316 208.529C142.301 204.478 142.567 200.542 141.109 196.831C140.011 194.035 138.29 192.407 138.272 192.391C137.901 192.045 137.88 191.462 138.224 191.09C138.306 191.002 138.405 190.93 138.515 190.88C138.624 190.829 138.743 190.801 138.863 190.796C138.984 190.792 139.104 190.811 139.217 190.853C139.33 190.895 139.434 190.958 139.523 191.04C139.604 191.116 141.527 192.917 142.789 196.075C143.952 198.986 144.755 203.651 141.968 209.338C140.138 213.073 137.988 215.048 135.576 215.208C135.472 215.217 135.367 215.22 135.264 215.22Z" fill="#323B48"/>
<path d="M129.577 212.245C128.176 212.245 126.643 211.706 125.082 210.654C123.661 209.696 122.7 208.647 122.66 208.603C122.317 208.226 122.345 207.644 122.722 207.302C123.097 206.96 123.681 206.987 124.022 207.364C124.054 207.399 127.355 210.966 130.272 210.332C131.897 209.978 133.198 208.32 134.137 205.403C135.897 199.937 135.643 196.249 135.119 194.118C134.561 191.844 133.587 190.821 133.577 190.811C133.215 190.453 133.217 189.873 133.575 189.511C133.933 189.15 134.518 189.151 134.879 189.509C135.075 189.702 139.619 194.386 135.889 205.967C134.734 209.556 132.973 211.631 130.657 212.132C130.302 212.208 129.94 212.246 129.577 212.245Z" fill="#323B48"/>
<path d="M124.062 208.738C122.915 208.738 121.686 208.337 120.438 207.544C117.463 205.658 115.817 203.2 115.544 200.238C115.392 198.596 116.441 196.62 117.881 195.831C118.987 195.224 120.226 195.346 121.281 196.164C121.683 196.476 121.756 197.055 121.444 197.456C121.133 197.858 120.554 197.93 120.153 197.62C119.672 197.246 119.231 197.191 118.767 197.446C117.893 197.925 117.304 199.251 117.379 200.07C117.6 202.468 118.923 204.404 121.424 205.991C122.357 206.582 123.734 207.192 124.997 206.739C126.251 206.289 127.275 204.877 128.04 202.541C129.407 198.37 129.531 194.513 128.402 191.386C127.554 189.038 126.284 187.898 126.271 187.887C125.891 187.552 125.851 186.971 126.185 186.59C126.518 186.209 127.095 186.166 127.478 186.497C127.543 186.552 129.064 187.887 130.087 190.634C131.008 193.105 131.703 197.275 129.789 203.116C128.838 206.018 127.434 207.822 125.618 208.474C125.122 208.649 124.6 208.738 124.062 208.738Z" fill="#323B48"/>
<path d="M121.22 199.71C120.818 199.71 120.451 199.446 120.334 199.041C119.681 196.755 120.9 194.123 120.952 194.012C121.056 193.791 121.244 193.62 121.473 193.537C121.703 193.454 121.956 193.466 122.178 193.57C122.399 193.674 122.569 193.861 122.652 194.091C122.735 194.321 122.723 194.574 122.62 194.795C122.606 194.824 121.645 196.923 122.106 198.536C122.245 199.025 121.962 199.535 121.474 199.675C121.388 199.699 121.302 199.71 121.22 199.71ZM211.337 192.517C210.921 192.517 210.544 192.234 210.443 191.813C210.424 191.735 208.54 183.944 206.77 175.611C204.374 164.336 203.319 157.46 203.634 155.174C203.703 154.67 204.169 154.318 204.671 154.387C205.175 154.456 205.528 154.921 205.458 155.424C204.884 159.596 210.153 182.793 212.233 191.379C212.352 191.872 212.048 192.371 211.554 192.49C211.481 192.508 211.408 192.517 211.337 192.517Z" fill="#323B48"/>
<path d="M207.833 189.903C207.472 189.903 207.131 189.691 206.983 189.339C206.786 188.87 207.007 188.33 207.476 188.133L254.849 168.261C255.318 168.064 255.857 168.285 256.054 168.753C256.251 169.222 256.03 169.762 255.561 169.959L208.188 189.832C208.072 189.88 207.952 189.903 207.833 189.903Z" fill="#323B48"/>
<path d="M184.637 155.791C187.665 163.957 215.55 228.397 230.727 231.874C247.172 235.643 284.246 233.848 266.846 201.909C248.816 168.818 202.998 140.42 202.998 140.42L184.637 155.791Z" fill="#F3BFA1"/>
<path d="M257.903 189.876C257.611 189.876 257.325 189.738 257.146 189.48C254.459 185.617 250.392 180.933 250.351 180.887C250.018 180.503 250.057 179.921 250.442 179.587C250.533 179.508 250.639 179.447 250.754 179.409C250.868 179.37 250.99 179.355 251.11 179.363C251.231 179.372 251.349 179.404 251.457 179.458C251.565 179.512 251.662 179.587 251.741 179.678C251.782 179.726 255.915 184.483 258.658 188.429C258.949 188.847 258.845 189.42 258.428 189.711C258.274 189.819 258.091 189.876 257.903 189.876Z" fill="#323B48"/>
<path d="M174.813 138.457L178.289 137.986C190.859 136.283 199.669 124.712 197.966 112.142L193.252 77.3436C192.778 73.842 189.555 71.3879 186.054 71.863L153.02 76.3381C149.518 76.8121 147.064 80.0353 147.539 83.5369L152.698 121.619C154.155 132.375 164.056 139.914 174.813 138.457Z" fill="#F3BFA1"/>
<path d="M165.973 109.543C167.355 109.543 168.476 108.422 168.476 107.039C168.476 105.656 167.355 104.535 165.973 104.535C164.59 104.535 163.469 105.656 163.469 107.039C163.469 108.422 164.59 109.543 165.973 109.543Z" fill="#323B48"/>
<path d="M185.674 107.037C187.057 107.037 188.178 105.916 188.178 104.533C188.178 103.151 187.057 102.03 185.674 102.03C184.291 102.03 183.17 103.151 183.17 104.533C183.17 105.916 184.291 107.037 185.674 107.037Z" fill="#323B48"/>
<path d="M189.238 97.3415C189.105 97.3415 188.969 97.3117 188.839 97.2498C188.826 97.2432 187.442 96.5802 185.919 96.0774C183.31 95.2156 182.75 95.6133 182.746 95.6178C182.659 95.7018 182.556 95.768 182.444 95.8124C182.331 95.8567 182.211 95.8785 182.09 95.8765C181.969 95.8744 181.85 95.8486 181.739 95.8004C181.628 95.7522 181.528 95.6826 181.444 95.5957C181.274 95.42 181.181 95.184 181.185 94.9397C181.189 94.6954 181.29 94.4628 181.466 94.2929C182.319 93.4686 183.909 93.4775 186.47 94.3206C188.122 94.8642 189.578 95.5614 189.638 95.5913C190.097 95.8122 190.289 96.3625 190.068 96.82C189.993 96.9763 189.875 97.1083 189.729 97.2005C189.582 97.2928 189.412 97.3417 189.238 97.3415ZM160.958 100.975C160.694 100.975 160.432 100.862 160.25 100.643C160.172 100.55 160.114 100.443 160.078 100.327C160.042 100.212 160.029 100.09 160.04 99.97C160.051 99.8495 160.086 99.7324 160.142 99.6253C160.198 99.5182 160.275 99.4233 160.368 99.3459C162.579 97.5039 165.192 96.0553 167.926 95.1559C168.409 94.9968 168.929 95.2598 169.088 95.7426C169.247 96.2255 168.984 96.7459 168.502 96.905C165.987 97.7327 163.581 99.0663 161.546 100.761C161.381 100.899 161.173 100.975 160.958 100.975Z" fill="#323B48"/>
<path d="M148.941 107.091L152.608 145.828C153.054 150.547 156.69 154.273 160.654 154.074L175.926 153.305C180.492 153.075 182.761 137.381 179.788 132.908L179.594 124.595C179.594 124.595 162.952 101.461 148.941 107.091Z" fill="#F3BFA1"/>
<path d="M178.958 117.298C178.237 117.298 177.526 117.186 176.747 117.039C176.247 116.945 175.918 116.463 176.012 115.964C176.106 115.465 176.589 115.135 177.087 115.229C178.841 115.56 179.925 115.687 181.869 114.532L178.455 106.066C178.364 105.839 178.366 105.586 178.462 105.361C178.557 105.136 178.738 104.958 178.965 104.867C179.436 104.677 179.972 104.904 180.162 105.376L183.864 114.554C184.027 114.958 183.884 115.421 183.521 115.663C181.653 116.914 180.292 117.298 178.958 117.298Z" fill="#323B48"/>
<path d="M180.355 123.003C179.868 122.852 179.337 123.122 179.019 123.52C178.169 124.589 175.901 126.165 170.344 124.424C169.21 124.07 168.661 125.827 169.794 126.182C173.468 127.332 176.432 127.332 178.608 126.182C179.784 125.561 180.467 124.725 180.841 124.109C181.107 123.671 180.844 123.154 180.355 123.003Z" fill="#323B48"/>
<path d="M179.911 76.8653C179.911 76.8653 177.862 90.843 146.816 96.8904C146.816 96.8904 142.644 73.4322 160.855 66.9063C198.55 53.3982 193.633 89.3557 193.633 89.3557C193.633 89.3557 184.619 87.3668 179.911 76.8653Z" fill="#323B48"/>
<path d="M150.849 96.1634C150.849 96.1634 141.853 95.3712 141.255 101.979C140.542 109.859 149.272 115.315 155.842 114.899C162.414 114.486 156.281 96.612 150.849 96.1634ZM193.418 96.7944C193.418 96.7944 197.642 93.9833 199.715 97.0816C202.187 100.777 199.348 105.816 195.996 107.38C192.643 108.943 190.86 98.4772 193.418 96.7944Z" fill="#F3BFA1"/>
<path d="M138.127 87.4892C138.127 87.4892 140.183 72.6805 153.222 64.7359C166.26 56.7912 177.167 56.6498 185.521 65.0022C192.275 71.7568 206.066 66.7889 204.029 90.2173C202.429 108.619 185.74 70.8319 185.74 70.8319C185.74 70.8319 175.193 71.0043 168.407 78.0407C161.622 85.077 147.37 93.4736 138.127 87.4892Z" fill="#323B48"/>
<path d="M146.525 45.6923C146.525 45.6923 123.188 52.5938 124.509 71.7041C125.831 90.8143 131.865 91.5679 131.865 91.5679C131.865 91.5679 134.815 84.3879 146.396 76.1548C146.395 76.1548 157.437 54.4159 146.525 45.6923Z" fill="#4A4A4A"/>
<path d="M179.594 59.4415C179.594 59.4415 177.488 38.8097 160.191 41.0671C142.893 43.3246 136.843 49.3908 135.755 56.0282C134.667 62.6657 146.396 76.155 146.396 76.155C146.396 76.155 162.293 66.164 179.594 59.4415Z" fill="white"/>
<path d="M146.395 77.0751C146.138 77.0751 145.882 76.9679 145.7 76.7579C145.579 76.6187 142.697 73.2928 139.9 69.0895C136.056 63.3128 134.356 58.8676 134.846 55.8787C134.929 55.377 135.402 55.0367 135.904 55.1185C136.405 55.2013 136.746 55.6742 136.664 56.1759C135.828 61.2675 143.908 71.8873 147.09 75.5491C147.424 75.9325 147.383 76.5148 147 76.8485C146.832 76.9946 146.617 77.0751 146.395 77.0751Z" fill="#323B48"/>
<path d="M190.72 68.1992L200.332 60.6568C203.16 58.3419 203.923 54.1397 198.452 53.0535C196.105 52.5873 192.974 52.4525 188.849 52.8392C177.667 53.8867 166.814 58.8767 153.114 72.2334C153.115 72.2334 181.972 64.8026 190.72 68.1992Z" fill="#4A4A4A"/>
<path d="M162.908 64.6354C162.63 64.6354 162.355 64.5095 162.173 64.2708C161.866 63.8653 161.946 63.2874 162.351 62.9813C171.173 56.2985 179.566 52.7837 188.765 51.9218C189.273 51.8743 189.721 52.2467 189.767 52.7527C189.815 53.2588 189.443 53.7085 188.936 53.7549C184.617 54.1594 180.579 55.145 176.59 56.7659C172.255 58.5283 167.961 61.041 163.463 64.4487C163.303 64.57 163.108 64.6356 162.908 64.6354Z" fill="#323B48"/>
<path d="M195.055 160.169C190.337 162.041 185.084 159.146 184.144 154.158C183.758 152.113 183.35 150.116 182.973 148.599C182.663 147.354 181.938 143.638 182.141 142.238C182.813 137.588 185.936 132.382 189.692 129.56L193.056 125.033L197.986 112.58C197.986 112.58 198.423 110.842 201.004 110.463C203.584 110.083 203.053 112.026 203.053 112.026L202.653 115.987L200.726 123.025L202.489 115.13L202.244 111.055C202.244 111.055 201.435 108.001 202.573 105.715C202.966 104.926 203.514 104.394 204.063 104.036C205.008 103.421 206.271 103.985 206.444 105.1C206.71 106.802 208.225 109.321 208.191 110.172C208.137 111.537 211.235 119.695 210.558 120.967C209.989 122.036 207.942 129.466 207.3 131.821C207.171 132.297 206.958 132.739 206.668 133.136C204.894 135.569 203.271 141.433 202.995 142.304C202.818 142.867 204.192 146.856 205.441 150.268C206.469 153.08 205.067 156.199 202.284 157.304L195.055 160.169Z" fill="#F3BFA1"/>
<path d="M201.524 125.475C201.41 125.475 201.294 125.454 201.182 125.408C200.711 125.219 200.481 124.683 200.67 124.212C201.996 120.897 202.077 112.671 202.078 112.589C202.083 112.083 202.494 111.675 202.999 111.675H203.007C203.515 111.679 203.924 112.095 203.92 112.603C203.917 112.954 203.834 121.26 202.38 124.895C202.312 125.066 202.194 125.213 202.041 125.316C201.888 125.419 201.708 125.475 201.524 125.475ZM182.781 140.469C182.741 140.469 182.699 140.467 182.657 140.46C182.537 140.444 182.421 140.404 182.317 140.343C182.212 140.282 182.121 140.202 182.047 140.105C181.974 140.009 181.92 139.899 181.89 139.782C181.859 139.665 181.851 139.543 181.868 139.424C182.29 136.303 184.216 132.804 187.592 129.023C189.687 126.677 191.674 124.982 192.292 124.47L196.408 114.074C196.595 113.601 197.13 113.37 197.603 113.557C197.716 113.601 197.819 113.667 197.905 113.751C197.992 113.836 198.062 113.936 198.11 114.047C198.158 114.158 198.183 114.278 198.185 114.399C198.187 114.52 198.165 114.64 198.12 114.752L193.917 125.372C193.858 125.521 193.761 125.653 193.635 125.753C193.545 125.825 184.591 133.047 183.694 139.671C183.664 139.892 183.555 140.094 183.387 140.241C183.219 140.388 183.004 140.469 182.781 140.469ZM167.082 161.217C166.003 161.217 164.852 161.176 163.622 161.087C148.221 159.978 148.126 153.137 148.129 152.847L149.971 152.869V152.852C149.972 152.905 150.024 154.168 151.637 155.585C154.5 158.1 159.807 158.966 163.754 159.25C167.751 159.538 173.376 159.454 177.472 157.422C179.87 156.232 180.611 154.915 180.618 154.902L180.612 154.912L182.25 155.754C182.126 155.997 179.288 161.217 167.082 161.217ZM85.9309 204.723C85.6955 204.723 85.4591 204.634 85.2801 204.454C84.921 204.094 84.921 203.511 85.2801 203.151C87.5574 200.874 91.3839 199.204 96.6534 198.188C100.514 197.444 103.686 197.345 103.819 197.341C104.323 197.329 104.752 197.727 104.766 198.235C104.78 198.743 104.38 199.167 103.872 199.182C103.748 199.185 91.4325 199.603 86.5817 204.454C86.4964 204.539 86.3949 204.607 86.2832 204.653C86.1715 204.7 86.0518 204.723 85.9309 204.723ZM149.954 221.89C149.463 221.89 149.055 221.502 149.035 221.007C149.014 220.499 149.41 220.07 149.918 220.049C152.033 219.963 153.439 219.462 153.985 218.603C154.528 217.748 154.089 216.683 154.085 216.672C154.08 216.662 154.079 216.66 154.076 216.65L150.318 207.254C150.129 206.782 150.359 206.246 150.831 206.057C151.302 205.868 151.838 206.098 152.027 206.57L155.782 215.96C155.877 216.187 156.558 217.956 155.554 219.566C154.664 220.994 152.792 221.775 149.992 221.889C149.98 221.89 149.966 221.89 149.954 221.89ZM174.983 217.501C174.568 217.501 174.193 217.22 174.09 216.8C174.061 216.683 174.056 216.561 174.074 216.442C174.092 216.322 174.134 216.207 174.196 216.104C174.259 216 174.341 215.91 174.439 215.839C174.536 215.767 174.646 215.715 174.764 215.687C180.312 214.32 184.914 210.992 188.442 205.794C190.187 203.225 191.223 200.806 191.734 199.436L149.348 199.285C148.839 199.282 148.428 198.869 148.431 198.361C148.431 198.117 148.529 197.884 148.701 197.712C148.874 197.54 149.107 197.444 149.351 197.444H149.354L193.018 197.6C193.305 197.601 193.575 197.735 193.748 197.964C193.834 198.077 193.892 198.208 193.919 198.347C193.945 198.486 193.939 198.63 193.902 198.766C193.859 198.921 192.814 202.614 190.002 206.776C186.26 212.313 181.143 216.014 175.205 217.477C175.13 217.492 175.056 217.501 174.983 217.501Z" fill="#323B48"/>
<path d="M147.701 255.538C157.538 255.538 165.512 247.564 165.512 237.727C165.512 227.89 157.538 219.916 147.701 219.916C137.865 219.916 129.891 227.89 129.891 237.727C129.891 247.564 137.865 255.538 147.701 255.538Z" fill="#DD8924"/>
<path d="M149.812 254.454C159.367 254.454 167.112 246.708 167.112 237.154C167.112 227.599 159.367 219.853 149.812 219.853C140.257 219.853 132.512 227.599 132.512 237.154C132.512 246.708 140.257 254.454 149.812 254.454Z" fill="#FDA429"/>
<path d="M149.812 254.454C159.367 254.454 167.112 246.708 167.112 237.154C167.112 227.599 159.367 219.853 149.812 219.853C140.257 219.853 132.512 227.599 132.512 237.154C132.512 246.708 140.257 254.454 149.812 254.454Z" fill="#FDA429"/>
<path d="M149.795 248.738C147.802 248.738 145.834 248.219 144.058 247.201C141.374 245.664 139.45 243.173 138.64 240.189C137.829 237.204 138.229 234.082 139.767 231.398C141.304 228.714 143.794 226.789 146.78 225.979C152.941 224.306 159.316 227.957 160.99 234.118C161.552 236.188 161.531 238.364 160.929 240.411C160.895 240.527 160.838 240.635 160.762 240.729C160.686 240.824 160.592 240.902 160.486 240.96C160.38 241.018 160.263 241.054 160.143 241.067C160.023 241.079 159.901 241.068 159.785 241.034C159.669 241 159.561 240.943 159.467 240.867C159.373 240.792 159.294 240.698 159.237 240.592C159.179 240.485 159.142 240.369 159.13 240.248C159.117 240.128 159.128 240.007 159.162 239.891C159.668 238.17 159.686 236.34 159.213 234.6C157.805 229.418 152.445 226.347 147.263 227.755C142.08 229.163 139.01 234.523 140.418 239.705C141.825 244.887 147.185 247.958 152.368 246.55C154.422 245.992 156.196 244.811 157.499 243.136C157.811 242.735 158.39 242.662 158.791 242.973C159.192 243.286 159.265 243.864 158.953 244.265C157.404 246.258 155.294 247.663 152.85 248.327C151.839 248.602 150.814 248.738 149.795 248.738Z" fill="#323B48"/>
<path d="M60.7567 232.228C60.7567 232.228 57.444 237.399 57.0407 241.268C56.6374 245.136 59.1931 248.008 60.5467 249.731C61.9003 251.453 68.5079 259.841 69.5565 261.014C70.604 262.188 71.2736 262.649 73.3885 263.404C75.5034 264.159 76.6979 264.759 81.5862 263.54C86.4745 262.322 102.943 263.054 115.291 272.858C115.291 272.858 121.218 278.192 124.665 278.724C128.113 279.255 129.753 278.983 132.284 277.267C134.815 275.551 138.399 272.618 139.679 270.342C139.679 270.342 141.432 266.154 141.542 263.134C141.653 260.113 142.035 258.733 136.848 255.218C131.662 251.703 113.656 239.401 96.0998 233.602C96.0998 233.602 77.2338 228.479 73.5167 229.247C69.7985 230.016 61.792 231.407 60.7567 232.228Z" fill="white"/>
<path d="M84.1699 237.227L93.7941 234.909L96.2526 235.609C94.6847 236.232 89.7091 238.051 86.0782 238.288L84.1699 237.227ZM95.2261 241.841C97.3476 242.926 101.351 244.994 103.363 246.164C103.891 246.471 104.524 246.518 105.093 246.295L111.651 243.722C112.252 243.487 112.295 242.652 111.722 242.355L104.341 238.538C103.902 238.311 103.392 238.263 102.919 238.405L95.3366 240.679C94.793 240.843 94.7223 241.582 95.2261 241.841ZM113.43 248.963L115.023 249.868C115.203 249.971 115.164 250.244 114.961 250.287C114.341 250.417 113.186 250.5 111.598 249.927C111.395 249.854 111.397 249.565 111.602 249.497L113.246 248.947C113.308 248.924 113.375 248.931 113.43 248.963ZM117.318 251.387L118.91 252.292C119.09 252.395 119.051 252.668 118.848 252.711C118.228 252.842 117.073 252.924 115.486 252.351C115.282 252.278 115.284 251.99 115.489 251.921L117.133 251.371C117.195 251.35 117.261 251.356 117.318 251.387ZM125.016 256.566L126.608 257.471C126.788 257.574 126.749 257.847 126.546 257.89C125.926 258.02 124.772 258.103 123.184 257.53C122.98 257.457 122.983 257.169 123.187 257.1L124.831 256.55C124.893 256.528 124.961 256.534 125.016 256.566ZM121.081 253.954L122.673 254.859C122.853 254.962 122.815 255.235 122.611 255.278C121.991 255.408 120.837 255.491 119.249 254.918C119.046 254.845 119.048 254.556 119.252 254.488L120.896 253.938C120.958 253.917 121.026 253.922 121.081 253.954Z" fill="#323B48"/>
<path d="M132.904 257.253L134.578 258.396C134.578 258.396 136.153 257.396 134.436 256.372L132.904 257.253Z" fill="#4A4A4A"/>
<path d="M124.47 261.798C115.906 256.024 98.2191 245.13 83.2834 238.068C72.2217 232.838 64.2417 232.165 60.8462 232.168C60.8141 232.188 60.781 232.209 60.7567 232.229C60.7567 232.229 57.444 237.4 57.0407 241.269C56.6374 245.137 59.1931 248.009 60.5467 249.732C61.9003 251.454 68.5079 259.842 69.5565 261.016C70.604 262.189 71.2736 262.65 73.3885 263.406C75.5034 264.16 76.6979 264.76 81.5862 263.542C86.4745 262.323 102.943 263.055 115.291 272.86C115.291 272.86 121.218 278.193 124.665 278.725C126.982 279.082 128.483 279.074 129.986 278.511C137.221 265.024 132.188 267.001 124.47 261.798Z" fill="white"/>
<path d="M141.584 262.037C141.096 262.037 140.689 261.654 140.665 261.161C140.601 259.846 140.241 258.629 136.331 255.98L136.082 255.811C113.016 240.175 100.103 235.894 95.8335 234.484C88.333 232.449 76.2669 229.617 73.7023 230.149C72.9067 230.314 71.9057 230.509 70.8471 230.715C67.9002 231.289 62.508 232.338 61.4273 232.894C60.8727 233.796 58.2926 238.136 57.9567 241.365C57.6208 244.585 59.6329 247.107 60.9633 248.777C61.0704 248.912 61.1732 249.041 61.2704 249.164C62.0505 250.157 64.0207 252.657 65.8903 255.012C66.2063 255.41 66.14 255.99 65.7411 256.306C65.3433 256.622 64.7632 256.556 64.4472 256.158C62.5754 253.8 60.603 251.296 59.8218 250.303C59.7279 250.182 59.6274 250.057 59.5224 249.926C58.097 248.138 55.7103 245.146 56.1236 241.176C56.5445 237.137 59.8395 231.954 59.9798 231.735C60.0351 231.65 60.1036 231.574 60.1832 231.511C61.0318 230.838 64.0494 230.165 70.4935 228.91C71.5476 228.704 72.5432 228.511 73.3277 228.348C77.1498 227.558 94.386 232.186 96.3385 232.716C96.3539 232.721 96.3705 232.725 96.386 232.731C113.793 238.481 131.346 250.379 137.114 254.289L137.363 254.458C141.551 257.296 142.401 258.973 142.504 261.075C142.528 261.583 142.137 262.014 141.628 262.04C141.614 262.037 141.6 262.037 141.584 262.037ZM127.323 279.886C126.5 279.886 125.589 279.797 124.525 279.634C120.922 279.078 115.161 273.979 114.696 273.563C108.084 268.321 100.587 265.996 95.46 264.97C91.2413 264.125 85.1707 263.598 81.8083 264.435C76.9078 265.656 75.4393 265.126 73.4062 264.391C73.299 264.352 73.1896 264.312 73.0791 264.273C70.8979 263.494 70.0725 262.975 68.8703 261.63C68.5311 261.251 68.5643 260.668 68.9433 260.329C69.3223 259.99 69.9046 260.023 70.2438 260.402C71.1753 261.445 71.7101 261.827 73.699 262.538C73.8128 262.579 73.9244 262.619 74.0338 262.658C77.0083 263.733 78.6481 263.325 81.3652 262.648C84.0005 261.991 89.4932 261.896 95.8235 263.164C101.155 264.233 108.959 266.656 115.864 272.139C115.879 272.151 115.894 272.163 115.907 272.175C117.501 273.607 122.203 277.414 124.807 277.815C128.102 278.323 129.468 278.066 131.769 276.507C134.474 274.674 137.699 271.94 138.852 269.94C138.941 269.72 139.315 268.789 139.694 267.594C139.847 267.109 140.365 266.842 140.849 266.995C141.335 267.149 141.603 267.667 141.448 268.151C140.99 269.599 140.549 270.656 140.53 270.7C140.517 270.733 140.5 270.765 140.483 270.796C139.12 273.217 135.494 276.206 132.802 278.032C130.882 279.331 129.386 279.886 127.323 279.886Z" fill="#323B48"/>
<path d="M78.2424 236.822C78.1319 236.822 78.0203 236.802 77.9109 236.76C69.848 233.647 63.9873 233.114 61.0835 233.09C60.7189 233.228 60.2912 233.122 60.036 232.799C59.9609 232.704 59.9052 232.596 59.8721 232.479C59.839 232.363 59.8291 232.241 59.8431 232.121C59.857 232.001 59.8945 231.885 59.9534 231.779C60.0123 231.673 60.0914 231.58 60.1863 231.505C60.2481 231.457 60.3056 231.419 60.3608 231.386C60.5133 231.291 60.6901 231.248 60.8691 231.247C63.8216 231.247 70.0292 231.742 78.5738 235.041C78.8017 235.129 78.9852 235.304 79.0841 235.527C79.1829 235.751 79.189 236.004 79.1009 236.232C79.0342 236.406 78.9164 236.555 78.7631 236.66C78.6099 236.766 78.4283 236.822 78.2424 236.822ZM129.985 279.43C129.838 279.43 129.689 279.395 129.551 279.321C129.102 279.08 128.934 278.522 129.175 278.075C131.973 272.86 132.949 269.933 132.438 268.287C132.038 266.999 130.617 266.265 128.465 265.153C127.131 264.465 125.621 263.684 123.956 262.561C115.725 257.012 101.871 248.552 89.472 242.16C89.3634 242.105 89.2668 242.03 89.1876 241.937C89.1085 241.845 89.0484 241.738 89.0109 241.622C88.9734 241.506 88.9591 241.384 88.969 241.263C88.9788 241.142 89.0126 241.024 89.0683 240.916C89.1241 240.808 89.2007 240.712 89.2937 240.633C89.3867 240.555 89.4944 240.496 89.6104 240.459C89.7264 240.423 89.8485 240.409 89.9697 240.42C90.0908 240.431 90.2086 240.466 90.3162 240.523C102.781 246.949 116.71 255.455 124.985 261.034C126.561 262.096 128.022 262.851 129.31 263.517C131.689 264.746 133.569 265.717 134.197 267.741C134.886 269.961 133.932 273.102 130.797 278.944C130.719 279.091 130.602 279.214 130.459 279.3C130.316 279.386 130.152 279.431 129.985 279.43ZM114.444 248.377L116.558 247.514C116.558 247.514 118.612 248.727 117.467 249.265C116.322 249.803 115.277 249.028 114.444 248.377ZM117.358 247.419L119.032 248.561C119.032 248.561 120.606 247.561 118.889 246.537L117.358 247.419ZM118.297 250.634L120.411 249.771C120.411 249.771 122.465 250.984 121.32 251.523C120.175 252.061 119.13 251.285 118.297 250.634ZM121.21 249.676L122.884 250.819C122.884 250.819 124.458 249.819 122.741 248.794L121.21 249.676ZM122.023 252.961L124.137 252.098C124.137 252.098 126.191 253.311 125.046 253.85C123.902 254.388 122.857 253.612 122.023 252.961ZM124.937 252.003L126.611 253.146C126.611 253.146 128.185 252.146 126.468 251.121L124.937 252.003ZM125.83 255.398L127.943 254.535C127.943 254.535 129.997 255.748 128.853 256.286C127.708 256.824 126.664 256.048 125.83 255.398ZM128.743 254.44L130.417 255.582C130.417 255.582 131.992 254.582 130.275 253.558L128.743 254.44Z" fill="#323B48"/>
<path d="M128.883 259.079L130.475 259.984C130.655 260.087 130.617 260.36 130.413 260.403C129.794 260.533 128.639 260.616 127.051 260.043C126.848 259.97 126.849 259.681 127.054 259.613L128.699 259.062C128.759 259.041 128.827 259.048 128.883 259.079Z" fill="#1C1E21"/>
<path d="M129.846 258.62L131.959 257.757C131.959 257.757 134.014 258.97 132.869 259.508C131.724 260.046 130.68 259.271 129.846 258.62Z" fill="#FDA429"/>
<path d="M127.544 267.898C124.231 265.54 116.442 262.085 112.705 260.486C106.194 257.7 101.346 252.51 94.4915 250.981C91.3899 250.289 89.0518 254.033 89.39 255.92C89.6673 257.466 90.0364 258.995 90.4949 260.497C90.9402 261.956 91.4905 263.424 92.4772 264.59C93.2805 265.539 94.3346 266.238 95.3943 266.888C100.553 270.051 106.847 272.746 112.458 275.008C116.465 276.624 123.036 280.095 126.291 277.34C129.004 275.045 130.502 270.003 127.544 267.898Z" fill="white"/>
<path d="M123.088 279.296C120.523 279.296 117.54 278.161 114.778 276.99C114.309 276.791 114.091 276.251 114.29 275.783C114.488 275.316 115.029 275.096 115.496 275.295C119.575 277.024 123.633 278.383 125.695 276.637C127.247 275.323 128.316 273.004 128.237 271.124C128.191 270.029 127.778 269.195 127.009 268.648C123.699 266.293 115.649 262.747 112.342 261.333C110.184 260.409 108.26 259.254 106.662 258.246C106.232 257.975 106.103 257.407 106.375 256.977C106.647 256.547 107.215 256.418 107.644 256.689C109.18 257.659 111.026 258.767 113.065 259.64C117.242 261.426 124.746 264.778 128.076 267.149C129.315 268.031 130.007 269.379 130.076 271.047C130.179 273.489 128.866 276.367 126.884 278.044C125.824 278.942 124.522 279.296 123.088 279.296ZM109.26 274.62C109.142 274.62 109.021 274.596 108.905 274.548C102.945 272.057 98.4987 269.873 94.912 267.674C93.8744 267.037 92.691 266.268 91.7739 265.186C90.6568 263.866 90.0546 262.212 89.6137 260.767C89.1447 259.229 88.7672 257.665 88.4833 256.083C88.2325 254.681 89.0314 252.722 90.385 251.425C91.6424 250.22 93.1717 249.744 94.6921 250.083C97.0401 250.607 99.2975 251.547 102.014 253.132C102.118 253.192 102.21 253.273 102.283 253.37C102.356 253.466 102.41 253.576 102.44 253.693C102.471 253.81 102.479 253.932 102.462 254.051C102.446 254.171 102.406 254.287 102.345 254.391C102.284 254.496 102.203 254.587 102.107 254.66C102.011 254.734 101.901 254.787 101.784 254.818C101.667 254.849 101.545 254.856 101.425 254.84C101.305 254.824 101.19 254.784 101.085 254.723C98.5406 253.238 96.4457 252.361 94.291 251.881C93.1385 251.623 92.2236 252.214 91.6601 252.756C90.6579 253.717 90.1717 255.063 90.2966 255.759C90.5662 257.265 90.9297 258.769 91.3761 260.23C91.7816 261.559 92.2811 262.935 93.1805 263.997C93.9219 264.872 94.9606 265.543 95.8766 266.105C99.3804 268.253 103.746 270.396 109.617 272.851C110.086 273.046 110.307 273.586 110.112 274.055C109.963 274.406 109.62 274.619 109.26 274.62Z" fill="#323B48"/>
<path d="M93.2614 235.156C93.2614 235.156 89.7101 236.397 86.1985 236.896L81.2207 227.29L91.0725 225.026C91.0725 225.026 94.5531 233.035 93.2614 235.156Z" fill="white"/>
<path d="M86.1979 237.816C85.8575 237.816 85.5404 237.628 85.3802 237.319L80.4024 227.713C80.2709 227.46 80.2642 227.16 80.3847 226.903C80.4438 226.775 80.5313 226.663 80.6404 226.575C80.7496 226.486 80.8776 226.424 81.0145 226.392L90.8663 224.128C91.2983 224.029 91.7403 224.252 91.9171 224.659C91.9536 224.743 92.8154 226.733 93.5304 229.021C94.5823 232.387 94.7469 234.488 94.0475 235.635C93.9365 235.817 93.7659 235.955 93.5646 236.025C93.4165 236.077 89.8873 237.303 86.3271 237.808C86.2843 237.813 86.2411 237.816 86.1979 237.816ZM82.5846 227.92L86.7117 235.885C89.2177 235.466 91.6475 234.717 92.569 234.417C92.6829 233.916 92.727 232.629 91.7768 229.585C91.3392 228.181 90.832 226.869 90.5204 226.097L82.5846 227.92Z" fill="#323B48"/>
</svg>
