<svg width="159" height="40" viewBox="0 0 159 40" fill="none" xmlns="http://www.w3.org/2000/svg">
<path d="M9.38887 15.9177L11.6933 10.2695C12.0317 9.43979 13.2066 9.43979 13.5451 10.2695L15.8495 15.9177C15.9929 16.2692 16.3229 16.5091 16.7015 16.5372L22.7957 16.9886C23.6891 17.0548 24.0515 18.1719 23.3671 18.7499L18.6955 22.6952C18.405 22.9405 18.2788 23.3295 18.3699 23.6987L19.8299 29.6174C20.0447 30.4878 19.094 31.1792 18.3321 30.7068L13.1461 27.4914C12.8233 27.2912 12.415 27.2912 12.0922 27.4914L6.90625 30.7068C6.14436 31.1792 5.19368 30.4878 5.40839 29.6174L6.86848 23.6987C6.95956 23.3295 6.83334 22.9405 6.54281 22.6952L1.87124 18.7499C1.18685 18.1719 1.54923 17.0548 2.44259 16.9886L8.53684 16.5372C8.91541 16.5091 9.24547 16.2692 9.38887 15.9177Z" fill="#FFCC00"/>
<path d="M42.6271 15.9177L44.9315 10.2695C45.27 9.43979 46.4449 9.43979 46.7834 10.2695L49.0877 15.9177C49.2311 16.2692 49.5612 16.5091 49.9398 16.5372L56.034 16.9886C56.9274 17.0548 57.2898 18.1719 56.6054 18.7499L51.9338 22.6952C51.6433 22.9405 51.5171 23.3295 51.6081 23.6987L53.0682 29.6174C53.2829 30.4878 52.3323 31.1792 51.5704 30.7068L46.3844 27.4914C46.0616 27.2912 45.6533 27.2912 45.3305 27.4914L40.1445 30.7068C39.3826 31.1792 38.432 30.4878 38.6467 29.6174L40.1068 23.6987C40.1978 23.3295 40.0716 22.9405 39.7811 22.6952L35.1095 18.7499C34.4251 18.1719 34.7875 17.0548 35.6809 16.9886L41.7751 16.5372C42.1537 16.5091 42.4837 16.2692 42.6271 15.9177Z" fill="#FFCC00"/>
<path d="M75.8654 15.9177L78.1698 10.2695C78.5083 9.43979 79.6831 9.43979 80.0216 10.2695L82.326 15.9177C82.4694 16.2692 82.7995 16.5091 83.1781 16.5372L89.2723 16.9886C90.1657 17.0548 90.528 18.1719 89.8437 18.7499L85.1721 22.6952C84.8816 22.9405 84.7553 23.3295 84.8464 23.6987L86.3065 29.6174C86.5212 30.4878 85.5705 31.1792 84.8087 30.7068L79.6227 27.4914C79.2999 27.2912 78.8916 27.2912 78.5688 27.4914L73.3828 30.7068C72.6209 31.1792 71.6702 30.4878 71.885 29.6174L73.345 23.6987C73.4361 23.3295 73.3099 22.9405 73.0194 22.6952L68.3478 18.7499C67.6634 18.1719 68.0258 17.0548 68.9192 16.9886L75.0134 16.5372C75.392 16.5091 75.722 16.2692 75.8654 15.9177Z" fill="#FFCC00"/>
<path d="M109.104 15.9177L111.408 10.2695C111.747 9.43979 112.921 9.43979 113.26 10.2695L115.564 15.9177C115.708 16.2692 116.038 16.5091 116.416 16.5372L122.511 16.9886C123.404 17.0548 123.766 18.1719 123.082 18.7499L118.41 22.6952C118.12 22.9405 117.994 23.3295 118.085 23.6987L119.545 29.6174C119.759 30.4878 118.809 31.1792 118.047 30.7068L112.861 27.4914C112.538 27.2912 112.13 27.2912 111.807 27.4914L106.621 30.7068C105.859 31.1792 104.909 30.4878 105.123 29.6174L106.583 23.6987C106.674 23.3295 106.548 22.9405 106.258 22.6952L101.586 18.7499C100.902 18.1719 101.264 17.0548 102.157 16.9886L108.252 16.5372C108.63 16.5091 108.96 16.2692 109.104 15.9177Z" fill="#FFCC00"/>
<path d="M142.342 15.9177L144.646 10.2695C144.985 9.43979 146.16 9.43979 146.498 10.2695L148.803 15.9177C148.946 16.2692 149.276 16.5091 149.655 16.5372L155.749 16.9886C156.642 17.0548 157.005 18.1719 156.32 18.7499L151.649 22.6952C151.358 22.9405 151.232 23.3295 151.323 23.6987L152.783 29.6174C152.998 30.4878 152.047 31.1792 151.285 30.7068L146.099 27.4914C145.776 27.2912 145.368 27.2912 145.045 27.4914L139.859 30.7068C139.097 31.1792 138.147 30.4878 138.362 29.6174L139.822 23.6987C139.913 23.3295 139.786 22.9405 139.496 22.6952L134.824 18.7499C134.14 18.1719 134.502 17.0548 135.396 16.9886L141.49 16.5372C141.869 16.5091 142.199 16.2692 142.342 15.9177Z" fill="#FFCC00"/>
</svg>
