<svg width="592" height="365" viewBox="0 0 592 365" fill="none" xmlns="http://www.w3.org/2000/svg">
<path d="M394.007 199.476L592 199.476C592 314.893 504.883 396.481 394.007 396.481L394.007 199.476Z" fill="#F3F8FF"/>
<path d="M592 199.476L394.007 199.476C394.007 86.0488 473.204 0.480957 592 0.480957V199.476Z" fill="#E1EDFF"/>
<path d="M197.993 199.476L394.007 199.476L394.007 396.481C283.13 396.481 197.993 316.883 197.993 199.476Z" fill="#E4EFFF"/>
<path d="M197.993 199.476L197.993 0.480957C320.749 0.480957 394.007 88.0387 394.007 199.476L197.993 199.476Z" fill="#F0F6FF"/>
<path d="M197.993 199.476L0 199.476C0 95.9985 91.0769 0.480957 197.993 0.480957L197.993 199.476Z" fill="#E3EEFF"/>
</svg>
