<svg width="756" height="549" viewBox="0 0 756 549" fill="none" xmlns="http://www.w3.org/2000/svg">
<g clip-path="url(#clip0_321_1573)">
<rect width="755.576" height="548.625" rx="24" fill="white"/>
<g opacity="0.5">
<path d="M502.982 275.574L755.49 275.574C755.49 421.885 644.387 525.312 502.982 525.312L502.982 275.574Z" fill="#E6E6E6"/>
<path d="M755.49 275.574L502.982 275.574C502.982 131.785 603.985 23.3125 755.49 23.3125L755.49 275.574Z" fill="#F7F7F7"/>
<path d="M252.999 275.574L502.982 275.574L502.982 525.312C361.577 525.312 252.999 424.408 252.999 275.574Z" fill="#F6F6F6"/>
<path d="M252.999 275.574L252.999 23.3125C409.554 23.3125 502.982 134.307 502.982 275.574L252.999 275.574Z" fill="#EEEEEE"/>
<path d="M252.999 275.574L0.490242 275.574C0.490238 144.398 116.644 23.3125 252.999 23.3125L252.999 275.574Z" fill="#F6F6F6"/>
</g>
<path d="M188.894 522C122.907 522 59.4512 513.078 0 496.815V508.937C0 530.543 16.9501 548.125 37.7788 548.125H717.797C738.625 548.125 755.576 548.125 755.576 548.125V194.327C670.057 385.667 448.636 522 188.894 522Z" fill="#E4E4E4"/>
<g filter="url(#filter0_i_321_1573)">
<path d="M50.3716 52.25H75.5574V78.375H50.3716V52.25ZM100.743 52.25H125.929V78.375H100.743V52.25ZM151.115 52.25H176.301V78.375H151.115V52.25ZM201.487 52.25H226.673V78.375H201.487V52.25ZM692.611 418H591.868C588.528 418 585.325 419.376 582.963 421.826C580.601 424.276 579.275 427.598 579.275 431.062V483.312C579.275 486.777 580.601 490.099 582.963 492.549C585.325 494.999 588.528 496.375 591.868 496.375H692.611C695.951 496.375 699.154 494.999 701.516 492.549C703.877 490.099 705.204 486.777 705.204 483.312V431.062C705.204 427.598 703.877 424.276 701.516 421.826C699.154 419.376 695.951 418 692.611 418ZM541.496 418H440.752C437.413 418 434.21 419.376 431.848 421.826C429.486 424.276 428.16 427.598 428.16 431.062V483.312C428.16 486.777 429.486 490.099 431.848 492.549C434.21 494.999 437.413 496.375 440.752 496.375H541.496C544.836 496.375 548.039 494.999 550.4 492.549C552.762 490.099 554.089 486.777 554.089 483.312V431.062C554.089 427.598 552.762 424.276 550.4 421.826C548.039 419.376 544.836 418 541.496 418ZM62.9645 444.125H251.858V470.25H62.9645V444.125Z" fill="#C5CBD3"/>
</g>
<path d="M506.681 71.3601C506.681 61.4979 514.676 53.503 524.538 53.503H533.268H561.046H588.824H597.554C607.416 53.503 615.411 61.4979 615.411 71.3601V101.537V166.598C615.411 176.46 607.416 184.455 597.554 184.455H588.824H561.046H533.268H524.538C514.676 184.455 506.681 176.46 506.681 166.598V143.592V101.537V71.3601Z" fill="url(#paint0_linear_321_1573)" stroke="#886B37" stroke-width="2.38095"/>
<path d="M689.618 87.2332C710.782 103.11 710.78 134.852 689.618 150.725M674.199 94.0359C691.13 106.51 691.128 131.451 674.199 143.922M659.232 100.839C671.931 109.911 671.929 128.049 659.232 137.12M648.348 112.176C652.58 115.579 652.58 122.381 648.348 125.782" stroke="#1C1E21" stroke-width="5.55556" stroke-linecap="round"/>
</g>
<defs>
<filter id="filter0_i_321_1573" x="50.3716" y="52.25" width="656.833" height="446.125" filterUnits="userSpaceOnUse" color-interpolation-filters="sRGB">
<feFlood flood-opacity="0" result="BackgroundImageFix"/>
<feBlend mode="normal" in="SourceGraphic" in2="BackgroundImageFix" result="shape"/>
<feColorMatrix in="SourceAlpha" type="matrix" values="0 0 0 0 0 0 0 0 0 0 0 0 0 0 0 0 0 0 127 0" result="hardAlpha"/>
<feOffset dx="4" dy="4"/>
<feGaussianBlur stdDeviation="1"/>
<feComposite in2="hardAlpha" operator="arithmetic" k2="-1" k3="1"/>
<feColorMatrix type="matrix" values="0 0 0 0 0.164706 0 0 0 0 0.164706 0 0 0 0 0.164706 0 0 0 0.5 0"/>
<feBlend mode="normal" in2="shape" result="effect1_innerShadow_321_1573"/>
</filter>
<linearGradient id="paint0_linear_321_1573" x1="505.49" y1="118.979" x2="616.601" y2="118.979" gradientUnits="userSpaceOnUse">
<stop stop-color="#C3AF72" stop-opacity="0.647059"/>
<stop offset="1" stop-color="#FAF4C4"/>
</linearGradient>
<clipPath id="clip0_321_1573">
<rect width="755.576" height="548.625" rx="24" fill="white"/>
</clipPath>
</defs>
</svg>
