<svg width="549" height="756" viewBox="0 0 549 756" fill="none" xmlns="http://www.w3.org/2000/svg">
<g clip-path="url(#clip0_687_581)">
<rect y="755.576" width="755.576" height="548.625" rx="24" transform="rotate(-90 0 755.576)" fill="white"/>
<g opacity="0.5">
<path d="M275.574 252.594L275.574 0.0854302C421.885 0.0854191 525.312 111.189 525.312 252.594L275.574 252.594Z" fill="#E6E6E6"/>
<path d="M275.574 0.0854302L275.574 252.594C131.785 252.594 23.3125 151.59 23.3125 0.0854492L275.574 0.0854302Z" fill="#F7F7F7"/>
<path d="M275.574 502.577L275.574 252.594L525.312 252.594C525.313 393.998 424.408 502.577 275.574 502.577Z" fill="#F6F6F6"/>
<path d="M275.574 502.577L23.3125 502.577C23.3125 346.022 134.307 252.594 275.574 252.594L275.574 502.577Z" fill="#EEEEEE"/>
<path d="M275.574 502.577L275.574 755.085C144.398 755.085 23.3125 638.932 23.3125 502.577L275.574 502.577Z" fill="#F6F6F6"/>
</g>
<path d="M522 566.682C522 632.669 513.078 696.124 496.815 755.576L508.937 755.576C530.543 755.576 548.125 738.626 548.125 717.797L548.125 37.7789C548.125 16.9502 548.125 0.000106605 548.125 0.000106605L194.327 0.00012207C385.667 85.5187 522 306.94 522 566.682Z" fill="#E4E4E4"/>
<g filter="url(#filter0_i_687_581)">
<path d="M52.25 705.204L52.25 680.018L78.375 680.018L78.375 705.204L52.25 705.204ZM52.25 654.832L52.25 629.646L78.375 629.646L78.375 654.832L52.25 654.832ZM52.25 604.46L52.25 579.275L78.375 579.275L78.375 604.46L52.25 604.46ZM52.25 554.089L52.25 528.903L78.375 528.903L78.375 554.089L52.25 554.089ZM418 62.9643L418 163.708C418 167.048 419.376 170.251 421.826 172.612C424.276 174.974 427.598 176.301 431.062 176.301L483.312 176.301C486.777 176.301 490.099 174.974 492.549 172.612C494.999 170.251 496.375 167.048 496.375 163.708L496.375 62.9643C496.375 59.6245 494.999 56.4214 492.549 54.0598C490.099 51.6981 486.777 50.3714 483.312 50.3714L431.062 50.3714C427.598 50.3714 424.276 51.6981 421.826 54.0598C419.376 56.4214 418 59.6245 418 62.9643ZM418 214.08L418 314.823C418 318.163 419.376 321.366 421.826 323.728C424.276 326.089 427.598 327.416 431.062 327.416L483.312 327.416C486.777 327.416 490.099 326.089 492.549 323.728C494.999 321.366 496.375 318.163 496.375 314.823L496.375 214.079C496.375 210.74 494.999 207.537 492.549 205.175C490.099 202.813 486.777 201.487 483.312 201.487L431.062 201.487C427.598 201.487 424.276 202.813 421.826 205.175C419.376 207.537 418 210.74 418 214.08ZM444.125 692.611L444.125 503.717L470.25 503.717L470.25 692.611L444.125 692.611Z" fill="#C5CBD3"/>
</g>
<path d="M143.592 165.562L142.401 165.562L142.401 166.752L142.401 194.53L142.401 222.308L142.401 248.895L102.728 248.895L102.728 222.308L102.728 194.53L102.728 166.752L102.728 140.165L166.598 140.165C176.46 140.165 184.455 148.16 184.455 158.022L184.455 165.562L143.592 165.562ZM100.347 223.498L100.347 248.895L71.3601 248.895C61.4979 248.895 53.503 240.9 53.503 231.038L53.503 223.498L100.347 223.498ZM100.347 221.117L53.503 221.117L53.503 195.72L100.347 195.72L100.347 221.117ZM100.347 193.339L53.503 193.339L53.503 167.943L100.347 167.943L100.347 193.339ZM100.347 165.562L53.503 165.562L53.503 158.022C53.503 148.16 61.4979 140.165 71.3601 140.165L100.347 140.165L100.347 165.562ZM144.782 167.943L184.455 167.943L184.455 193.339L144.782 193.339L144.782 167.943ZM144.782 195.72L184.455 195.72L184.455 221.117L144.782 221.117L144.782 195.72ZM144.782 223.498L184.455 223.498L184.455 231.038C184.455 240.9 176.46 248.895 166.598 248.895L144.782 248.895L144.782 223.498Z" fill="url(#paint0_linear_687_581)" stroke="#886B37" stroke-width="2.38095"/>
<path d="M87.2334 65.9575C103.11 44.7935 134.852 44.796 150.725 65.9575M94.0361 81.3774C106.511 64.4461 131.451 64.4481 143.923 81.3774M100.839 96.3437C109.911 83.6452 128.05 83.6467 137.12 96.3437M112.177 107.228C115.579 102.995 122.381 102.996 125.782 107.228" stroke="#1C1E21" stroke-width="5.55556" stroke-linecap="round"/>
</g>
<defs>
<filter id="filter0_i_687_581" x="52.25" y="50.3713" width="446.125" height="656.833" filterUnits="userSpaceOnUse" color-interpolation-filters="sRGB">
<feFlood flood-opacity="0" result="BackgroundImageFix"/>
<feBlend mode="normal" in="SourceGraphic" in2="BackgroundImageFix" result="shape"/>
<feColorMatrix in="SourceAlpha" type="matrix" values="0 0 0 0 0 0 0 0 0 0 0 0 0 0 0 0 0 0 127 0" result="hardAlpha"/>
<feOffset dx="4" dy="4"/>
<feGaussianBlur stdDeviation="1"/>
<feComposite in2="hardAlpha" operator="arithmetic" k2="-1" k3="1"/>
<feColorMatrix type="matrix" values="0 0 0 0 0.164706 0 0 0 0 0.164706 0 0 0 0 0.164706 0 0 0 0.5 0"/>
<feBlend mode="normal" in2="shape" result="effect1_innerShadow_687_581"/>
</filter>
<linearGradient id="paint0_linear_687_581" x1="118.979" y1="250.085" x2="118.979" y2="138.974" gradientUnits="userSpaceOnUse">
<stop stop-color="#C3AF72" stop-opacity="0.647059"/>
<stop offset="1" stop-color="#FAF4C4"/>
</linearGradient>
<clipPath id="clip0_687_581">
<rect y="755.576" width="755.576" height="548.625" rx="24" transform="rotate(-90 0 755.576)" fill="white"/>
</clipPath>
</defs>
</svg>
