<svg width="9165" height="399" viewBox="0 0 9165 399" fill="none" xmlns="http://www.w3.org/2000/svg">
<g clip-path="url(#clip0_758_1094)">
<path d="M478.081 81.5762C425.964 81.5762 379.39 108.589 379.39 158.498C379.39 215.734 461.991 219.687 461.991 248.441C461.991 260.548 448.116 271.386 424.419 271.386C390.788 271.386 365.652 256.242 365.652 256.242L354.897 306.606C354.897 306.606 383.853 319.398 422.297 319.398C479.277 319.398 524.113 291.058 524.113 240.296C524.113 179.816 441.169 175.98 441.169 149.292C441.169 139.807 452.558 129.415 476.188 129.415C502.849 129.415 524.601 140.429 524.601 140.429L535.127 91.7868C535.127 91.7868 511.459 81.5762 478.081 81.5762ZM1.26227 85.2476L0 92.5898C0 92.5898 21.926 96.6022 41.6734 104.607C67.0997 113.785 68.9115 119.129 73.1935 135.725L119.857 315.612H182.41L278.778 85.2476H216.368L154.446 241.873L129.179 109.11C126.862 93.9153 115.123 85.2476 100.756 85.2476H1.26227ZM303.874 85.2476L254.915 315.611H314.428L363.215 85.2469H303.874V85.2476ZM635.797 85.2476C621.446 85.2476 613.843 92.9308 608.263 106.357L521.073 315.611H583.483L595.558 280.735H671.59L678.933 315.611H734L685.959 85.2476H635.797ZM643.913 147.485L662.413 233.929H612.852L643.913 147.485Z" fill="#1C1E21"/>
</g>
<g clip-path="url(#clip1_758_1094)">
<path d="M1447.82 76.2966H1417.96V222.729C1417.96 277.726 1398.6 294.266 1349.52 294.266C1308.38 294.134 1292.38 278.266 1292.38 257.693C1292.38 252.984 1294.12 237.792 1309.18 237.792C1324.11 237.792 1325.05 247.877 1325.05 264.282C1325.05 271.139 1327.87 284.585 1345.49 284.585C1373.46 284.585 1385.96 271.811 1385.96 226.63V76.2966H1357.19V68.4961H1447.82V76.2966ZM1453.87 259.305C1448.89 259.305 1444.59 260.917 1441.23 264.414C1437.74 267.91 1435.99 272.078 1435.99 277.053C1435.99 282.028 1437.74 286.196 1441.23 289.425C1444.73 292.921 1448.89 294.535 1453.87 294.535C1458.85 294.535 1463.01 292.923 1466.65 289.425C1470.14 286.196 1471.89 282.028 1471.89 277.053C1471.89 271.943 1470.14 267.91 1466.65 264.414C1463.15 260.919 1458.98 259.305 1453.87 259.305ZM1648.17 259.305C1643.2 259.305 1639.03 260.917 1635.54 264.414C1632.04 267.912 1630.42 272.078 1630.42 277.053C1630.42 282.028 1632.04 286.196 1635.54 289.425C1639.17 292.921 1643.33 294.535 1648.17 294.535C1653.15 294.535 1657.45 292.923 1660.95 289.425C1664.44 286.196 1666.19 282.028 1666.19 277.053C1666.19 271.943 1664.44 267.91 1660.95 264.414C1657.45 260.919 1653.15 259.305 1648.17 259.305ZM1591.83 68.4961C1661.35 68.4961 1673.18 94.7152 1673.18 132.098C1673.18 169.077 1653.95 196.104 1585.24 196.104L1561.58 196.238V252.04C1561.58 258.899 1562.38 262.262 1564 266.024C1565.74 270.461 1569.51 273.824 1575.16 276.109C1579.19 277.589 1585.38 278.396 1593.45 278.663V288.616H1497.97V278.663C1506.04 278.396 1512.09 277.586 1516.13 275.84C1521.51 273.553 1525.14 270.192 1526.75 265.755C1528.23 261.856 1529.04 261.183 1529.04 247.737V76.2941H1502.95V68.6282L1591.83 68.4961ZM1579.59 187.636C1621.55 187.636 1642.39 169.484 1642.39 133.984C1642.39 98.6192 1630.82 76.9692 1577.85 76.9692L1561.44 77.2358V187.768H1579.59M1946.15 265.222C1944.94 261.323 1944.27 256.479 1944.27 250.296V76.2966H1967.26V68.4961H1911.19C1910.51 70.5141 1843.68 236.715 1843.68 236.715C1843.54 236.984 1843.32 237.211 1843.06 237.376C1842.81 237.54 1842.51 237.637 1842.2 237.657C1841.4 237.657 1840.86 237.254 1840.59 236.715C1840.59 236.715 1769.59 70.5141 1768.79 68.4961H1706.53V76.1596H1732.35V243.437C1732.35 243.437 1731.81 258.901 1731.81 259.036C1731.41 263.069 1730.06 266.702 1728.04 269.659C1725.89 272.753 1722.53 275.172 1718.09 276.787C1715.13 277.728 1710.7 278.398 1705.32 278.533V288.484H1768.65V278.533C1763.41 278.266 1761.13 277.728 1758.03 276.787C1753.46 275.307 1750.1 273.02 1747.81 269.793C1745.79 266.834 1744.45 263.204 1744.04 258.901C1744.04 258.901 1743.37 243.437 1743.37 243.303V99.2869H1747C1747 99.2869 1827.14 286.465 1828.09 288.618H1834.81L1910.78 101.439H1912.66V250.293C1912.66 256.749 1911.99 261.858 1910.78 265.757C1909.3 270.329 1906.08 273.692 1901.37 275.977C1897.87 277.589 1892.63 278.398 1885.64 278.665V288.618H1972.24V278.665C1965.24 278.264 1959.86 277.457 1956.23 275.842C1950.86 273.291 1947.63 269.793 1946.15 265.222ZM2062.6 127.394C2105.36 127.394 2137.09 156.573 2137.09 210.09C2137.09 278.802 2087.61 295.071 2061.66 295.071C2048.48 295.071 1987.57 289.961 1987.57 211.568C1987.43 158.053 2016.48 127.394 2062.6 127.394ZM2062.06 285.392C2093.12 285.392 2102.67 266.029 2102.67 209.687C2102.67 170.557 2102.53 137.208 2062.06 137.208C2024.68 137.208 2021.99 169.481 2021.99 212.509C2021.99 268.044 2027.23 285.392 2062.06 285.392ZM2257.98 129.814C2230.41 129.814 2220.87 146.085 2213.2 162.759C2213.2 162.759 2211.18 162.625 2211.05 162.625C2210.91 162.759 2205.53 131.159 2205.53 131.159H2153.09V139.497H2181.87V247.877C2181.87 258.632 2181.33 266.971 2178.51 271.542C2175.28 276.787 2168.69 278.805 2157.66 278.805H2152.96V288.755H2242.65V278.805H2237.81C2226.11 278.805 2220.06 276.251 2216.96 271.139C2214.14 266.704 2212.8 259.038 2212.8 247.877V191.669C2212.8 172.71 2227.99 150.925 2245.2 150.925C2263.22 150.925 2263.76 176.743 2283.12 167.468C2296.84 161.01 2293.75 129.814 2257.98 129.814ZM2614.99 272.481C2620.63 272.481 2627.49 266.564 2628.97 255.406H2634.35C2632.87 280.955 2620.36 291.174 2599.52 291.174C2580.97 291.174 2570.75 277.995 2569 267.103C2558.11 278.668 2541.97 293.192 2516.42 293.192C2493.43 293.192 2475.54 275.441 2474.47 255.271C2471.38 203.635 2539.28 198.124 2567.92 195.568V169.212C2567.92 159.665 2565.77 152.002 2561.6 146.219C2557.17 140.168 2549.23 137.21 2537.93 137.21C2528.25 137.21 2521.13 139.632 2516.56 144.336C2512.25 148.907 2510.37 153.883 2509.03 162.49C2507.14 174.187 2502.17 178.759 2493.29 178.759C2489.4 178.759 2486.3 177.683 2483.48 175.263C2480.79 172.979 2479.45 169.616 2479.45 164.775C2479.45 154.421 2483.48 147.293 2493.7 139.497C2504.19 131.43 2520.59 127.397 2542.78 127.397C2565.91 127.397 2581.91 131.699 2590.11 140.036C2598.45 148.372 2600.74 158.053 2600.74 172.172V238.058L2601.28 258.231C2602.35 267.24 2605.3 272.481 2614.99 272.481ZM2568.06 205.249C2546 205.249 2505.93 219.906 2505.93 249.22C2505.93 258.363 2509.16 276.65 2531.21 276.65C2539.82 276.65 2551.51 271.674 2566.84 257.693L2567.52 257.018C2568.06 256.614 2568.06 256.345 2568.06 255.809V205.249ZM2798.13 271.542C2794.23 266.704 2793.42 256.078 2793.42 248.011V176.746C2793.42 166.392 2792.08 157.652 2788.18 150.39C2784.28 143.396 2778.77 138.02 2771.91 134.525C2764.92 131.029 2756.99 129.28 2748.24 129.28C2716.78 129.28 2703.06 147.435 2696.88 159.67H2694.46L2688.94 131.164H2640.13V139.365H2664.6V247.882C2664.6 256.22 2663.93 262.269 2662.72 266.305C2661.38 271.144 2658.28 274.372 2653.71 276.39C2650.75 277.599 2646.18 278.408 2640.27 278.675V288.628H2717.72V278.675C2709.92 278.002 2704.68 275.987 2701.85 271.953C2698.76 267.648 2697.42 260.388 2697.42 249.631V208.082C2697.42 190.735 2697.28 173.926 2703.2 163.437C2709.65 152.144 2721.35 145.823 2734.39 145.823C2746.23 145.823 2752.55 149.59 2756.31 157.119C2760.48 165.589 2761.42 181.322 2761.42 193.827V245.328C2761.42 253.933 2761.15 260.119 2760.62 264.153C2759.67 268.861 2758.6 272.76 2754.83 275.18C2752.14 277.063 2747.98 278.274 2742.46 278.675V288.491H2817.09V278.533C2807.54 278.129 2801.89 276.517 2798.13 271.542ZM2447.98 121.074C2456.45 118.386 2463.44 120.401 2465.73 129.951C2466.8 134.522 2465.86 140.036 2463.17 144.874C2460.62 149.715 2456.18 153.212 2449.19 155.362C2443.14 157.38 2436.68 157.38 2429.56 155.766C2432.92 163.028 2435.74 173.248 2435.74 185.214C2435.74 226.897 2403.87 239.404 2369.85 244.648C2335.16 250.024 2326.29 254.195 2326.29 265.085C2326.29 272.481 2330.86 276.784 2354.93 276.784C2404.68 279.206 2426.87 276.38 2442.47 297.761C2447.31 304.618 2449.73 313.763 2449.73 325.194C2449.73 333.53 2447.58 342.27 2442.87 350.743C2438.43 359.211 2430.1 366.608 2418.13 372.659C2406.16 378.711 2389.49 381.94 2369.05 381.94C2353.58 381.94 2342.42 380.729 2325.48 375.619C2314.45 372.393 2299.93 363.518 2299.93 344.828C2299.93 339.178 2300.87 334.474 2303.43 330.44C2306.25 326.135 2312.03 323.582 2316.87 324.389C2325.48 325.869 2328.03 333.667 2326.55 341.061C2324.81 348.324 2326.42 358.543 2334.76 363.65C2346.05 370.644 2358.42 372.256 2373.62 372.256C2391.37 372.256 2405.62 369.164 2416.11 363.381C2427.41 357.061 2432.92 348.588 2432.92 338.101C2432.92 330.438 2430.23 324.521 2424.99 320.488C2420.01 316.858 2413.15 314.436 2404.68 313.362C2396.75 312.421 2384.51 311.75 2367.44 311.613C2347.8 311.212 2332.21 308.925 2321.04 304.353C2310.96 300.185 2303.16 292.789 2303.16 279.074C2303.16 256.35 2324.4 249.357 2348.34 244.516C2349.82 244.249 2349.82 242.231 2348.07 241.962C2319.97 236.045 2307.2 219.909 2307.2 186.831C2307.2 158.459 2326.43 127.399 2370.13 127.399C2397.16 127.399 2412.62 136.543 2420.69 143.94C2423.11 145.821 2428.62 145.686 2431.85 144.744C2435.07 143.668 2437.5 140.038 2438.7 133.585C2440.32 126.587 2443.27 122.554 2447.98 121.074ZM2370.93 235.774C2390.02 235.774 2403.74 229.991 2403.74 186.29C2403.74 155.766 2396.34 135.865 2370.93 135.865C2349.15 135.865 2338.92 157.65 2338.92 186.828C2338.79 228.377 2350.49 235.774 2370.93 235.774Z" fill="#1C1E21"/>
</g>
<g clip-path="url(#clip2_758_1094)">
<path d="M4029.8 311.945H3986.12C3985.84 311.945 3985.84 311.945 3985.7 311.807L3948.11 265.916L3910.51 311.807C3910.37 311.945 3910.23 311.945 3910.09 311.945H3875.12C3874.85 311.945 3874.71 311.807 3874.57 311.669C3874.57 311.531 3874.57 311.254 3874.71 311.116L3930.14 243.108L3875.4 175.792C3875.26 175.515 3875.26 175.377 3875.26 175.101C3875.4 174.962 3875.54 174.824 3875.68 174.824H3919.36C3919.49 174.824 3919.63 174.962 3919.77 175.101L3952.81 216.016L3986.4 175.101C3986.53 174.962 3986.67 174.824 3986.81 174.824H4022.34C4022.47 174.824 4022.75 174.962 4022.89 175.101C4023.03 175.377 4022.89 175.515 4022.75 175.792L3970.91 238.132L4030.35 311.116C4030.49 311.254 4030.49 311.531 4030.49 311.669C4030.21 311.945 4030.08 311.945 4029.8 311.945Z" fill="#1C1E21"/>
<path d="M4266.03 198.873C4246.68 198.873 4233.55 210.622 4229.68 230.942H4295.47V229.56C4295.47 213.387 4283.45 198.873 4266.03 198.873ZM4329.34 251.952C4329.2 252.091 4329.06 252.229 4328.92 252.229H4228.98C4231.06 275.451 4246.12 288.721 4270.59 288.721C4285.66 288.721 4301.69 283.606 4324.22 271.581C4324.64 271.304 4325.05 271.719 4325.05 272.133V302.82C4325.05 303.096 4324.91 303.235 4324.78 303.235C4303.76 312.081 4282.62 318.163 4266.03 318.163C4223.04 318.163 4191.8 286.786 4191.8 243.659C4191.8 200.532 4223.04 169.154 4266.03 169.154C4305.29 169.154 4330.44 195.556 4330.44 231.909C4330.44 237.853 4329.47 251.538 4329.34 251.952Z" fill="#1C1E21"/>
<path d="M4532.25 146.347C4519.95 146.347 4510 136.533 4510 124.508C4510 112.067 4519.95 101.977 4532.25 101.977C4544.56 101.977 4554.51 112.067 4554.51 124.508C4554.51 136.533 4544.56 146.347 4532.25 146.347ZM4514.29 311.943C4513.87 311.943 4513.73 311.805 4513.73 311.391V175.237C4513.73 174.96 4513.87 174.684 4514.15 174.684H4550.22C4550.5 174.684 4550.64 174.96 4550.64 175.237V311.391C4550.64 311.805 4550.36 311.943 4550.09 311.943H4514.29Z" fill="#1C1E21"/>
<path d="M4095.87 291.485C4089.37 291.485 4082.74 290.518 4075 288.582L4075.14 201.223C4084.12 198.32 4091.86 197.076 4099.6 197.076C4124.62 197.076 4141.35 215.46 4141.35 242.968C4141.35 272.41 4123.52 291.485 4095.87 291.485ZM4105.68 169.154C4095.46 169.154 4085.23 170.951 4074.45 174.683H4038.51C4038.23 174.683 4037.95 174.96 4037.95 175.236V398.473C4048.73 396.953 4062 393.082 4075 383.959V316.09C4083.84 317.334 4091.17 318.163 4098.22 318.163C4147.43 318.163 4179.22 288.721 4179.22 243.106C4179.22 199.564 4148.95 169.154 4105.68 169.154Z" fill="#1C1E21"/>
<path d="M4448.63 280.151C4437.43 286.095 4427.34 288.86 4417.94 288.86C4395.69 288.86 4382.28 273.102 4382.28 246.7C4382.28 216.29 4399.28 196.524 4425.68 196.524C4433.01 196.524 4440.06 198.321 4448.63 202.191V280.151ZM4448.63 102.668V173.855C4438.12 170.814 4428.86 169.431 4419.46 169.431C4376.61 169.431 4344.41 201.638 4344.41 244.489C4344.41 287.063 4372.88 318.025 4412.14 318.025C4425.68 318.025 4438.4 314.57 4453.33 306.967V319.269C4463.14 317.334 4474.48 313.464 4485.67 305.447V88.0156C4474.75 89.5361 4461.76 93.2683 4448.63 102.668Z" fill="#1C1E21"/>
<path d="M4675.73 279.873C4664.82 286.093 4655.55 289.134 4647.26 289.134C4623.35 289.134 4609.11 273.376 4609.11 246.975C4609.11 216.98 4625.97 196.799 4650.99 196.799C4657.63 196.799 4665.78 199.425 4675.73 204.678V279.873ZM4712.78 173.024C4712.78 172.194 4712.09 171.503 4711.26 171.503H4682.09C4681.26 171.503 4680.43 172.194 4680.43 173.024V178H4679.74C4666.34 172.056 4654.72 169.43 4643.53 169.43C4603.17 169.43 4571.51 202.881 4571.51 245.731C4571.51 288.996 4599.85 318.024 4642.01 318.024C4653.2 318.024 4667.72 317.194 4681.26 301.713V319.268C4690.8 317.194 4702.14 313.186 4712.78 305.445V173.024Z" fill="#1C1E21"/>
<path d="M3775.32 277.938H3865.86C3864.48 288.029 3861.02 299.917 3853.28 311.942H3759.15C3747.68 311.942 3738.14 302.957 3737.03 291.761C3737.03 291.623 3736.89 291.485 3736.89 291.208V112.619C3736.89 112.481 3737.03 112.342 3737.03 112.204C3738.14 100.87 3747.68 91.8848 3759.15 91.8848H3865.72C3864.34 101.975 3860.88 114.139 3853.01 126.165H3775.32V174.821H3852.31C3852.59 174.821 3852.87 175.097 3852.87 175.374V209.101C3852.87 209.378 3852.59 209.654 3852.31 209.654H3775.32V277.938Z" fill="#1C1E21"/>
<path d="M3661.98 314.847C3652.99 314.847 3647.46 307.798 3647.46 299.228C3647.46 290.105 3653.82 283.608 3661.98 283.608C3669.99 283.608 3676.35 289.966 3676.35 299.228C3676.35 308.489 3669.99 314.847 3661.98 314.847ZM3661.98 281.949C3652.85 281.949 3644.97 288.861 3644.97 299.228C3644.97 309.042 3652.02 316.506 3661.98 316.506C3670.96 316.506 3678.84 309.595 3678.84 299.228C3678.84 288.861 3671.1 281.949 3661.98 281.949Z" fill="#1C1E21"/>
<path d="M3657.97 297.846V291.488H3662.25C3664.46 291.488 3666.95 291.764 3666.95 294.39C3666.95 297.57 3664.6 297.708 3661.98 297.708C3661.84 297.846 3657.97 297.846 3657.97 297.846ZM3669.99 294.805C3669.99 290.658 3667.51 288.861 3662.53 288.861H3654.79V309.319H3658.11V300.611H3661.29L3666.54 309.319H3670.41L3664.74 300.334C3667.78 300.058 3669.99 298.537 3669.99 294.805Z" fill="#1C1E21"/>
<path d="M4742.64 197.354C4733.65 197.354 4728.12 190.304 4728.12 181.734C4728.12 172.611 4734.48 166.114 4742.64 166.114C4750.65 166.114 4757.01 172.473 4757.01 181.734C4757.01 190.995 4750.65 197.354 4742.64 197.354ZM4742.64 164.594C4733.51 164.594 4725.63 171.505 4725.63 181.872C4725.63 191.686 4732.68 199.151 4742.64 199.151C4751.62 199.151 4759.5 192.239 4759.5 181.872C4759.5 171.367 4751.62 164.594 4742.64 164.594Z" fill="#1C1E21"/>
<path d="M4738.49 180.352V174.132H4742.78C4744.99 174.132 4747.47 174.409 4747.47 177.035C4747.47 180.214 4745.13 180.352 4742.5 180.352H4738.49ZM4750.65 177.45C4750.65 173.303 4748.17 171.506 4743.19 171.506H4735.45V191.963H4738.77V183.255H4741.95L4747.2 191.963H4751.07L4745.4 182.979C4748.3 182.702 4750.65 181.182 4750.65 177.45Z" fill="#1C1E21"/>
<path d="M3545.17 126.029L3538.68 107.506L3482.83 33.0018L3492.79 30.5137L3588.85 113.588L3645.39 97.4156C3652.02 95.7569 3659.63 95.3422 3665.29 95.3422C3647.6 57.0533 3614.98 25.5375 3572.13 10.3326C3487.4 -19.9392 3394.09 24.4317 3363.96 109.303C3354.56 135.566 3352.49 162.659 3356.36 188.369L3491.68 141.372L3545.17 126.029Z" fill="#1C1E21"/>
<path d="M3671.38 109.996C3666.4 113.175 3659.08 117.46 3651.89 119.81L3595.21 135.983L3557.48 257.346L3547.66 260.525L3555.68 167.913L3551.26 148.7L3498.18 163.905L3357.74 196.664C3368.94 250.573 3407.09 297.708 3462.79 317.475C3547.66 347.747 3640.83 303.376 3671.1 218.504C3684.09 182.151 3683.26 144 3671.38 109.996Z" fill="#1C1E21"/>
</g>
<g clip-path="url(#clip3_758_1094)">
<path d="M5325.23 257.147C5328.26 265.192 5332.46 272.07 5337.82 277.782C5343.18 283.495 5349.54 287.866 5356.88 290.898C5364.23 293.929 5372.21 295.444 5380.84 295.444C5389.23 295.444 5397.1 293.87 5404.45 290.722C5411.79 287.574 5418.2 283.144 5423.68 277.432C5429.16 271.719 5433.42 264.9 5436.45 256.972C5439.48 249.045 5440.99 240.185 5440.99 230.392V79.3027H5477.72V324.123H5441.34V301.389C5433.18 310.016 5423.56 316.661 5412.49 321.325C5401.41 325.988 5389.47 328.32 5376.64 328.32C5363.58 328.32 5351.4 326.046 5340.09 321.499C5328.78 316.953 5318.99 310.483 5310.71 302.089C5302.44 293.695 5295.91 283.612 5291.13 271.836C5286.35 260.062 5283.96 246.947 5283.96 232.49V79.3027H5320.68V230.392C5320.68 240.185 5322.2 249.103 5325.23 257.147ZM5541.02 79.3027V168.487C5549.18 160.326 5558.62 153.857 5569.35 149.077C5580.07 144.296 5591.73 141.907 5604.32 141.907C5617.38 141.907 5629.62 144.354 5641.04 149.251C5652.47 154.147 5662.38 160.792 5670.77 169.187C5679.17 177.581 5685.81 187.49 5690.71 198.914C5695.6 210.34 5698.05 222.464 5698.05 235.288C5698.05 248.112 5695.6 260.178 5690.71 271.486C5685.81 282.794 5679.17 292.646 5670.77 301.039C5662.38 309.433 5652.47 316.078 5641.04 320.975C5629.62 325.871 5617.38 328.319 5604.32 328.319C5591.73 328.319 5580.01 325.929 5569.17 321.149C5558.33 316.369 5548.83 309.899 5540.67 301.738V324.122H5505.69V79.3027H5541.02ZM5545.04 259.42C5548.19 266.882 5552.56 273.41 5558.15 279.006C5563.75 284.602 5570.28 289.033 5577.74 292.297C5585.2 295.561 5593.25 297.193 5601.87 297.193C5610.27 297.193 5618.19 295.561 5625.65 292.297C5633.12 289.033 5639.59 284.603 5645.07 279.006C5650.55 273.411 5654.92 266.882 5658.18 259.42C5661.45 251.959 5663.08 243.916 5663.08 235.288C5663.08 226.661 5661.45 218.559 5658.18 210.981C5654.92 203.403 5650.55 196.816 5645.07 191.22C5639.59 185.625 5633.12 181.253 5625.65 178.106C5618.19 174.958 5610.27 173.383 5601.87 173.383C5593.48 173.383 5585.55 174.957 5578.09 178.106C5570.63 181.254 5564.1 185.625 5558.5 191.22C5552.91 196.816 5548.48 203.403 5545.21 210.981C5541.95 218.559 5540.32 226.661 5540.32 235.288C5540.32 243.916 5541.89 251.959 5545.04 259.42ZM5717.98 199.265C5722.65 188.073 5729.06 178.222 5737.22 169.712C5745.38 161.202 5755.06 154.498 5766.25 149.602C5777.44 144.706 5789.56 142.258 5802.62 142.258C5815.45 142.258 5827.34 144.59 5838.3 149.252C5849.25 153.916 5858.7 160.386 5866.62 168.663C5874.55 176.94 5880.73 186.734 5885.16 198.041C5889.59 209.35 5891.81 221.649 5891.81 234.94V246.482H5746.66C5747.83 253.71 5750.16 260.413 5753.66 266.591C5757.16 272.77 5761.53 278.133 5766.77 282.679C5772.02 287.226 5777.96 290.782 5784.61 293.346C5791.26 295.911 5798.31 297.194 5805.77 297.194C5826.99 297.194 5844.13 288.45 5857.18 270.963L5882.71 289.848C5873.85 301.74 5862.89 311.067 5849.84 317.828C5836.78 324.589 5822.09 327.97 5805.77 327.97C5792.48 327.97 5780.06 325.638 5768.52 320.975C5756.98 316.313 5746.96 309.784 5738.44 301.389C5729.93 292.995 5723.23 283.144 5718.33 271.836C5713.44 260.528 5710.99 248.228 5710.99 234.939C5710.99 222.348 5713.32 210.457 5717.98 199.265ZM5767.12 185.45C5757.21 193.727 5750.63 204.744 5747.36 218.501H5856.13C5853.1 204.744 5846.63 193.727 5836.72 185.45C5826.81 177.173 5815.21 173.034 5801.92 173.034C5788.63 173.034 5777.03 177.173 5767.12 185.45ZM5957.9 189.472C5950.44 197.632 5946.71 208.707 5946.71 222.697V324.124H5911.39V145.754H5946.36V167.788C5950.79 160.56 5956.56 154.847 5963.67 150.651C5970.79 146.453 5979.24 144.354 5989.03 144.354H6001.27V177.23H5986.58C5974.93 177.231 5965.37 181.311 5957.9 189.472Z" fill="#1C1E21"/>
</g>
<g clip-path="url(#clip4_758_1094)">
<path d="M7059.59 227.967L7051.16 251.854H7050.46C7049.05 246.468 7046.48 238.271 7042.26 228.435L6997.07 114.856H6952.8V295.881H6982.08V184.175C6982.08 177.149 6982.08 169.187 6981.84 159.351C6981.61 154.433 6981.14 150.686 6980.91 147.876H6981.61C6983.01 154.901 6984.65 160.054 6985.82 163.332L7040.16 295.412H7060.76L7114.63 162.161C7115.8 159.117 7116.97 153.028 7118.14 147.876H7118.84C7118.14 161.224 7117.67 173.168 7117.44 180.428V295.178H7148.58V114.388H7105.96L7059.59 227.967ZM7178.09 165.44H7208.53V295.178H7178.09V165.44ZM7193.55 110.641C7188.39 110.641 7184.18 112.514 7180.67 115.793C7177.15 119.071 7175.28 123.287 7175.28 128.439C7175.28 133.357 7177.15 137.572 7180.67 140.85C7184.18 144.129 7188.39 145.768 7193.55 145.768C7198.7 145.768 7203.15 143.895 7206.43 140.85C7209.94 137.572 7211.81 133.357 7211.81 128.439C7211.81 123.521 7209.94 119.305 7206.43 115.793C7203.38 112.514 7198.93 110.641 7193.55 110.641ZM7316.49 164.269C7310.87 163.098 7305.02 162.395 7299.4 162.395C7285.58 162.395 7272.93 165.44 7262.4 171.529C7251.86 177.617 7243.43 186.048 7238.04 196.586C7232.42 207.359 7229.61 219.771 7229.61 234.056C7229.61 246.468 7232.42 257.474 7237.81 267.544C7243.19 277.38 7250.69 285.342 7260.76 290.728C7270.36 296.115 7281.6 298.925 7294.25 298.925C7308.77 298.925 7321.18 295.881 7331.01 290.26L7331.25 290.026V261.924L7330.08 262.861C7325.63 266.139 7320.47 268.949 7315.32 270.589C7309.94 272.462 7305.02 273.399 7300.8 273.399C7288.63 273.399 7279.02 269.886 7272.23 262.158C7265.21 254.664 7261.69 244.36 7261.69 231.48C7261.69 218.131 7265.21 207.593 7272.47 199.865C7279.73 192.137 7289.33 188.156 7301.04 188.156C7310.87 188.156 7320.94 191.434 7330.08 197.991L7331.25 198.928V169.187L7331.01 168.953C7327.03 167.313 7322.58 165.44 7316.49 164.269ZM7416.96 163.332C7409.46 163.332 7402.44 165.674 7396.35 170.592C7391.2 174.807 7387.69 180.896 7384.64 188.156H7384.41V165.44H7353.96V295.178H7384.41V228.904C7384.41 217.663 7386.75 208.296 7391.9 201.504C7397.05 194.479 7403.61 190.966 7411.57 190.966C7414.38 190.966 7417.19 191.668 7420.71 192.137C7423.98 193.074 7426.33 194.01 7427.97 195.181L7429.14 196.118V165.674L7428.43 165.44C7426.33 164.035 7422.11 163.332 7416.96 163.332ZM7499.86 162.63C7478.55 162.63 7461.45 168.953 7449.51 181.364C7437.33 193.776 7431.48 210.872 7431.48 232.417C7431.48 252.556 7437.57 268.949 7449.28 280.893C7460.99 292.602 7476.91 298.691 7496.82 298.691C7517.66 298.691 7534.28 292.368 7546.23 279.722C7558.41 267.076 7564.26 250.215 7564.26 229.372C7564.26 208.764 7558.64 192.371 7547.16 180.428C7536.16 168.484 7520 162.63 7499.86 162.63ZM7524.21 262.392C7518.59 269.652 7509.7 273.165 7498.69 273.165C7487.68 273.165 7478.78 269.652 7472.46 261.924C7466.14 254.664 7463.09 244.126 7463.09 230.777C7463.09 216.96 7466.37 206.422 7472.46 198.928C7478.78 191.434 7487.45 187.687 7498.45 187.687C7509.23 187.687 7517.66 191.2 7523.75 198.46C7529.84 205.72 7533.11 216.258 7533.11 230.075C7532.65 244.126 7530.07 255.132 7524.21 262.392ZM7632.17 219.302C7622.57 215.321 7616.48 212.277 7613.67 209.701C7611.33 207.359 7610.16 204.08 7610.16 199.865C7610.16 196.352 7611.57 192.839 7615.08 190.498C7618.59 188.156 7622.57 186.985 7628.43 186.985C7633.58 186.985 7638.97 187.921 7644.12 189.327C7649.27 190.732 7653.95 192.839 7657.7 195.65L7658.87 196.586V168.016L7658.17 167.782C7654.66 166.377 7649.97 164.971 7644.35 163.801C7638.73 162.864 7633.58 162.395 7629.36 162.395C7614.84 162.395 7602.9 165.908 7593.53 173.636C7584.17 180.896 7579.72 190.732 7579.72 202.207C7579.72 208.296 7580.65 213.682 7582.76 218.131C7584.87 222.581 7587.91 226.796 7592.13 230.309C7596.34 233.587 7602.43 237.334 7610.86 240.847C7617.89 243.892 7623.27 246.233 7626.55 248.107C7629.83 249.98 7631.94 252.088 7633.58 253.727C7634.75 255.601 7635.45 257.943 7635.45 260.987C7635.45 269.652 7628.9 273.867 7615.55 273.867C7610.39 273.867 7605.01 272.93 7598.69 270.823C7592.36 268.715 7586.51 265.671 7581.59 262.158L7580.42 261.221V290.963L7581.12 291.197C7585.57 293.305 7590.96 294.71 7597.51 296.349C7604.07 297.52 7609.93 298.457 7615.08 298.457C7630.77 298.457 7643.65 294.944 7652.78 287.216C7662.15 279.722 7667.07 270.12 7667.07 257.708C7667.07 249.044 7664.73 241.316 7659.57 235.461C7652.78 229.841 7644.35 223.986 7632.17 219.302ZM7747.39 162.63C7726.08 162.63 7708.99 168.953 7697.04 181.364C7685.1 193.776 7679.01 210.872 7679.01 232.417C7679.01 252.556 7685.1 268.949 7696.81 280.893C7708.52 292.602 7724.44 298.691 7744.35 298.691C7765.19 298.691 7781.82 292.368 7793.76 279.722C7805.94 267.076 7811.79 250.215 7811.79 229.372C7811.79 208.764 7806.17 192.371 7794.7 180.428C7783.69 168.484 7767.53 162.63 7747.39 162.63ZM7771.51 262.392C7765.89 269.652 7756.99 273.165 7745.99 273.165C7734.75 273.165 7726.08 269.652 7719.76 261.924C7713.44 254.664 7710.39 244.126 7710.39 230.777C7710.39 216.96 7713.67 206.422 7719.76 198.928C7726.08 191.434 7734.75 187.687 7745.75 187.687C7756.29 187.687 7764.96 191.2 7771.05 198.46C7777.13 205.72 7780.41 216.258 7780.41 230.075C7780.41 244.126 7777.37 255.132 7771.51 262.392ZM7974.55 190.498V165.44H7943.87V127.034L7942.94 127.268L7913.9 135.933L7913.2 136.167V165.44H7867.3V149.047C7867.3 141.553 7869.17 135.698 7872.45 131.951C7875.73 128.204 7880.64 126.331 7886.73 126.331C7890.95 126.331 7895.4 127.268 7900.32 129.375L7901.49 130.078V103.615L7900.78 103.381C7896.57 101.976 7890.95 101.039 7883.69 101.039C7874.55 101.039 7866.59 103.147 7859.33 106.659C7852.07 110.641 7846.69 116.027 7842.71 123.287C7838.72 130.312 7836.62 138.274 7836.62 147.408V165.44H7815.31V190.263H7836.62V295.178H7867.3V190.498H7913.2V257.24C7913.2 284.64 7926.08 298.457 7951.84 298.457C7956.05 298.457 7960.5 297.754 7964.72 297.051C7969.17 296.115 7972.44 294.944 7974.32 294.007L7974.55 293.773V268.715L7973.38 269.652C7971.51 270.823 7969.87 271.76 7967.06 272.462C7964.72 273.165 7962.61 273.399 7960.97 273.399C7954.88 273.399 7950.66 271.994 7947.62 268.481C7944.81 265.202 7943.41 259.816 7943.41 251.854V190.498H7974.55Z" fill="#1C1E21"/>
<path d="M6560.31 53.9688H6703.87V197.524H6560.31V53.9688Z" fill="#1C1E21"/>
<path d="M6718.86 53.9688H6862.41V197.524H6718.86V53.9688Z" fill="#1C1E21"/>
<path d="M6560.31 212.512H6703.87V356.067H6560.31V212.512Z" fill="#1C1E21"/>
<path d="M6718.86 212.512H6862.41V356.067H6718.86V212.512Z" fill="#1C1E21"/>
</g>
<g clip-path="url(#clip5_758_1094)">
<path d="M8926.82 131.747C8932.85 121.365 8940.66 112.128 8949.89 104.462C8981.5 78.0789 9012.35 73.2852 9065.91 73.2852C9099.57 73.6769 9132.89 80.1106 9164.27 92.2797V145.407C9164.27 145.407 9124.12 112.968 9070.02 112.968C9015.92 112.968 8996.93 145.407 8996.93 145.407C8996.93 145.407 8984.28 159.427 8984.28 188.658C8984.28 217.889 8996.93 230.612 8996.93 230.612C9008.69 243.843 9024.08 253.33 9041.19 257.896C9059.6 262.858 9078.84 263.987 9097.7 261.212V214.032H9041.19V172.943H9164.27V282.874C9164.27 282.874 9125.78 301.688 9056.97 301.688C9037.75 301.953 9018.55 300.092 8999.74 296.138L8926.82 131.747Z" fill="#1C1E21"/>
<path d="M8785.72 296.677L8785.54 160.904L8823.27 76.4199H8902.06L8926.61 131.746C8912.61 156.685 8908 185.807 8913.6 213.851C8921.24 254.976 8965.46 282.657 8965.46 282.657C8965.46 282.657 8974.76 290.406 8999.49 295.92L8999.88 296.497H8925.53L8905.27 251.48H8817.14L8797.54 296.497H8785.64L8785.72 296.677ZM8889.66 210.896L8861.41 140.792L8832.75 210.896H8889.66Z" fill="#1C1E21"/>
<path d="M8562.61 151.317V296.677H8494.17V76.4199H8577.1L8640.14 179.719L8703.72 76.4199H8785.54L8785.72 160.904L8724.91 296.677H8713.02V151.317L8662.45 242.613H8615.23L8562.61 151.317Z" fill="#1C1E21"/>
<path d="M8498.1 325.079L8494.49 345.552H8490.42L8496.73 313.113L8507.54 337.478L8518.35 313.113L8524.66 345.552H8520.59L8516.98 325.079L8507.39 345.948L8498.1 325.079Z" fill="#1C1E21"/>
<path d="M8530.6 314.557H8547.36V318.161H8534.42V326.847H8546.86V330.451H8534.42V342.093H8547.26V345.698H8530.5L8530.6 314.557Z" fill="#1C1E21"/>
<path d="M8574.33 345.552H8569.68L8560.56 332.469H8558.9V345.552H8554.97V314.555H8559.66C8562.47 314.288 8565.3 314.799 8567.84 316.033C8569.08 316.787 8570.11 317.844 8570.83 319.105C8571.55 320.366 8571.93 321.79 8571.95 323.242C8572.02 325.357 8571.29 327.42 8569.9 329.022C8568.52 330.625 8566.59 331.649 8564.49 331.892L8574.33 345.552ZM8558.9 329.117H8560.2C8564.09 329.117 8568.56 328.396 8568.56 323.422C8568.56 318.448 8563.91 317.871 8559.98 317.871H8558.9V329.117Z" fill="#1C1E21"/>
<path d="M8602.91 320.464C8600.64 318.5 8597.72 317.447 8594.73 317.509C8591.54 317.749 8588.57 319.183 8586.4 321.522C8584.23 323.861 8583.03 326.934 8583.03 330.124C8583.03 333.314 8584.23 336.386 8586.4 338.725C8588.57 341.065 8591.54 342.498 8594.73 342.739C8597.79 342.707 8600.75 341.597 8603.09 339.603V344.217C8600.64 345.664 8597.85 346.439 8595.01 346.464C8592.17 346.488 8589.37 345.762 8586.89 344.357C8584.42 342.953 8582.36 340.92 8580.93 338.465C8579.49 336.01 8578.73 333.22 8578.72 330.376C8578.73 328.22 8579.16 326.086 8580 324.099C8580.83 322.112 8582.06 320.312 8583.6 318.802C8585.14 317.293 8586.96 316.105 8588.97 315.307C8590.97 314.51 8593.11 314.119 8595.27 314.157C8598 314.14 8600.7 314.836 8603.09 316.175V320.428L8602.91 320.464Z" fill="#1C1E21"/>
<path d="M8628.6 326.916V314.373H8632.5V345.37H8628.6V330.412H8613.72V345.37H8609.83V314.373H8613.72V326.916H8628.6Z" fill="#1C1E21"/>
<path d="M8645.15 337.623L8641.55 345.372H8637.47L8652.32 312.934L8667.21 345.372H8663.14L8659.53 337.623H8645.15ZM8652.36 321.584L8646.81 334.127H8657.94L8652.36 321.584Z" fill="#1C1E21"/>
<path d="M8672.11 313.078L8695.54 337.443V314.556H8699.43V346.994L8676 322.629V345.697H8672.11V313.258V313.078Z" fill="#1C1E21"/>
<path d="M8716.19 345.552H8712.26V318.052H8704.84V314.447H8723.61V318.052H8716.19V345.552Z" fill="#1C1E21"/>
<path d="M8748.34 337.623L8744.73 345.372H8740.66L8755.51 312.934L8770.4 345.372H8766.32L8762.72 337.623H8748.34ZM8755.55 321.584L8750 334.127H8761.13L8755.55 321.584Z" fill="#1C1E21"/>
<path d="M8775.48 314.557H8782C8791.48 314.557 8799.48 319.531 8799.48 329.875C8799.48 340.219 8791.66 345.553 8781.82 345.553H8775.48V314.557ZM8779.08 341.877H8780.42C8788.38 341.877 8795.27 338.922 8795.27 329.875C8795.27 320.828 8788.38 317.873 8780.42 317.873H8779.08V341.877Z" fill="#1C1E21"/>
<path d="M8816.21 337.444L8825.51 314.557H8829.98L8816.39 347.211L8802.8 314.557H8807.09L8816.21 337.444Z" fill="#1C1E21"/>
<path d="M8838.88 345.553H8834.99V314.557H8838.88V345.553Z" fill="#1C1E21"/>
<path d="M8861.19 320.466C8860.72 319.55 8860 318.786 8859.11 318.263C8858.23 317.74 8857.21 317.479 8856.18 317.511C8854.91 317.43 8853.66 317.848 8852.69 318.676C8851.72 319.503 8851.11 320.676 8850.99 321.944C8850.99 324.323 8853.41 325.548 8855.24 326.377L8857.48 327.278C8861.95 328.936 8865.3 331.351 8865.3 336.686C8865.29 337.982 8865.02 339.264 8864.51 340.454C8863.99 341.644 8863.24 342.718 8862.31 343.613C8861.37 344.508 8860.26 345.204 8859.05 345.661C8857.83 346.118 8856.54 346.326 8855.24 346.273C8852.86 346.254 8850.56 345.366 8848.78 343.773C8847 342.18 8845.86 339.994 8845.58 337.623L8849.48 336.866C8849.41 337.674 8849.52 338.486 8849.78 339.251C8850.05 340.017 8850.47 340.719 8851.02 341.314C8851.57 341.909 8852.24 342.384 8852.98 342.708C8853.72 343.033 8854.52 343.201 8855.33 343.201C8856.14 343.201 8856.95 343.033 8857.69 342.708C8858.43 342.384 8859.1 341.909 8859.65 341.314C8860.2 340.719 8860.62 340.017 8860.88 339.251C8861.15 338.486 8861.25 337.674 8861.19 336.866C8861.19 333.55 8858.6 332.072 8855.82 330.991L8853.59 330.054C8849.98 328.576 8846.7 326.45 8846.7 322.124C8846.76 321 8847.05 319.899 8847.55 318.888C8848.04 317.877 8848.74 316.975 8849.59 316.236C8850.44 315.497 8851.43 314.935 8852.5 314.585C8853.57 314.234 8854.7 314.102 8855.82 314.195C8857.45 314.15 8859.06 314.558 8860.47 315.372C8861.88 316.186 8863.04 317.376 8863.82 318.808L8861.19 320.466Z" fill="#1C1E21"/>
<path d="M8902.85 330.055C8902.85 334.395 8901.13 338.557 8898.06 341.625C8894.99 344.694 8890.83 346.418 8886.49 346.418C8882.15 346.418 8877.99 344.694 8874.92 341.625C8871.85 338.557 8870.13 334.395 8870.13 330.055C8870.13 325.715 8871.85 321.553 8874.92 318.484C8877.99 315.415 8882.15 313.691 8886.49 313.691C8890.83 313.691 8894.99 315.415 8898.06 318.484C8901.13 321.553 8902.85 325.715 8902.85 330.055ZM8898.96 330.055C8898.96 326.747 8897.65 323.575 8895.31 321.237C8892.97 318.898 8889.8 317.584 8886.49 317.584C8883.18 317.584 8880.01 318.898 8877.67 321.237C8875.33 323.575 8874.02 326.747 8874.02 330.055C8874.02 333.362 8875.33 336.534 8877.67 338.873C8880.01 341.212 8883.18 342.526 8886.49 342.526C8889.8 342.526 8892.97 341.212 8895.31 338.873C8897.65 336.534 8898.96 333.362 8898.96 330.055Z" fill="#1C1E21"/>
<path d="M8928.7 345.552H8924.05L8914.93 332.469H8913.27V345.552H8909.27V314.555H8913.88C8916.7 314.288 8919.53 314.799 8922.07 316.033C8923.58 316.975 8924.78 318.36 8925.48 320.002C8926.19 321.643 8926.37 323.461 8926.01 325.211C8925.65 326.96 8924.76 328.556 8923.46 329.783C8922.16 331.011 8920.52 331.81 8918.75 332.072L8928.7 345.552ZM8913.09 329.117H8914.39C8918.28 329.117 8922.75 328.396 8922.75 323.422C8922.75 318.448 8918.1 317.871 8914.21 317.871H8913.09V329.117Z" fill="#1C1E21"/>
<path d="M8930.35 314.557H8934.82L8942.46 327.856L8950.07 314.557H8954.54L8944.3 332.073V345.553H8940.41V332.073L8930.35 314.557Z" fill="#1C1E21"/>
<path d="M9002.98 329.875V331.172C9003.03 333.096 9002.69 335.009 9001.99 336.8C9001.29 338.591 9000.23 340.223 8998.89 341.6C8997.54 342.978 8995.94 344.072 8994.17 344.819C8992.39 345.566 8990.49 345.95 8988.56 345.95C8984.42 345.713 8980.52 343.886 8977.68 340.85C8974.85 337.814 8973.29 333.802 8973.34 329.648C8973.39 325.494 8975.03 321.518 8977.93 318.546C8980.84 315.575 8984.77 313.836 8988.92 313.691C8991.33 313.688 8993.72 314.212 8995.9 315.227C8998.09 316.242 9000.02 317.723 9001.58 319.566L8998.8 322.161C8997.64 320.637 8996.15 319.397 8994.44 318.535C8992.72 317.673 8990.84 317.212 8988.92 317.188C8987.28 317.168 8985.64 317.48 8984.12 318.104C8982.59 318.729 8981.21 319.654 8980.05 320.824C8978.89 321.994 8977.98 323.386 8977.36 324.916C8976.75 326.446 8976.46 328.083 8976.49 329.73C8976.49 332.993 8977.75 336.129 8979.99 338.496C8982.24 340.862 8985.31 342.278 8988.56 342.454C8991.1 342.426 8993.54 341.474 8995.43 339.775C8997.31 338.076 8998.51 335.747 8998.8 333.227H8990.8V329.622L9002.98 329.875Z" fill="#1C1E21"/>
<path d="M9029.11 345.552H9024.61L9015.49 332.469H9013.8V345.552H9009.87V314.555H9014.52C9017.33 314.288 9020.16 314.799 9022.7 316.033C9023.94 316.787 9024.97 317.844 9025.69 319.105C9026.41 320.366 9026.79 321.79 9026.81 323.242C9026.88 325.357 9026.15 327.42 9024.76 329.022C9023.38 330.625 9021.45 331.649 9019.35 331.892L9029.11 345.552ZM9013.47 329.117H9014.77C9018.7 329.117 9023.17 328.396 9023.17 323.422C9023.17 318.448 9018.52 317.871 9014.59 317.871H9013.47V329.117Z" fill="#1C1E21"/>
<path d="M9065.37 330.055C9065.37 334.395 9063.65 338.557 9060.58 341.625C9057.51 344.694 9053.35 346.418 9049.01 346.418C9044.67 346.418 9040.51 344.694 9037.44 341.625C9034.37 338.557 9032.65 334.395 9032.65 330.055C9032.65 325.715 9034.37 321.553 9037.44 318.484C9040.51 315.415 9044.67 313.691 9049.01 313.691C9053.35 313.691 9057.51 315.415 9060.58 318.484C9063.65 321.553 9065.37 325.715 9065.37 330.055ZM9061.44 330.055C9061.54 328.363 9061.28 326.671 9060.7 325.081C9060.11 323.491 9059.21 322.036 9058.04 320.807C9056.88 319.577 9055.47 318.598 9053.92 317.928C9052.36 317.259 9050.69 316.914 9048.99 316.914C9047.3 316.914 9045.62 317.259 9044.07 317.928C9042.51 318.598 9041.11 319.577 9039.94 320.807C9038.77 322.036 9037.87 323.491 9037.29 325.081C9036.7 326.671 9036.45 328.363 9036.54 330.055C9036.45 331.746 9036.7 333.439 9037.29 335.029C9037.87 336.619 9038.77 338.073 9039.94 339.303C9041.11 340.533 9042.51 341.512 9044.07 342.181C9045.62 342.851 9047.3 343.196 9048.99 343.196C9050.69 343.196 9052.36 342.851 9053.92 342.181C9055.47 341.512 9056.88 340.533 9058.04 339.303C9059.21 338.073 9060.11 336.619 9060.7 335.029C9061.28 333.439 9061.54 331.746 9061.44 330.055Z" fill="#1C1E21"/>
<path d="M9075.07 314.556V332.83C9075.07 337.804 9076.55 342.598 9082.67 342.598C9088.8 342.598 9090.13 337.984 9090.13 332.83V314.556H9094.03V334.128C9094.13 335.671 9093.91 337.219 9093.39 338.673C9092.86 340.126 9092.03 341.453 9090.96 342.567C9089.88 343.681 9088.59 344.558 9087.15 345.14C9085.72 345.723 9084.18 345.999 9082.64 345.95C9081.07 346.032 9079.51 345.773 9078.05 345.192C9076.6 344.61 9075.29 343.72 9074.21 342.582C9073.14 341.443 9072.32 340.085 9071.82 338.601C9071.32 337.116 9071.15 335.541 9071.32 333.983V314.412L9075.07 314.556Z" fill="#1C1E21"/>
<path d="M9106.06 345.553H9102.17V314.557H9106.64C9116.3 314.557 9119.29 317.873 9119.29 323.603C9119.29 330.055 9114.24 332.65 9108.48 332.65H9106.24V345.553H9106.06ZM9106.06 329.118H9107.5C9111.43 329.118 9115.69 328.397 9115.69 323.423C9115.69 318.449 9111.04 318.053 9107.14 318.053H9106.03V329.118H9106.06Z" fill="#1C1E21"/>
<path d="M9131.9 329.333C9131.97 326.172 9132.96 323.099 9134.75 320.492C9136.53 317.884 9139.05 315.857 9141.97 314.658C9144.9 313.459 9148.11 313.142 9151.21 313.745C9154.32 314.348 9157.18 315.845 9159.44 318.052C9162.42 321.044 9164.09 325.094 9164.09 329.315C9164.09 333.537 9162.42 337.586 9159.44 340.579C9157.97 342.108 9156.21 343.322 9154.26 344.146C9152.31 344.971 9150.21 345.388 9148.09 345.372C9145.99 345.425 9143.89 345.043 9141.95 344.249C9140 343.455 9138.24 342.267 9136.77 340.759C9135.23 339.285 9134 337.511 9133.16 335.547C9132.32 333.583 9131.9 331.468 9131.9 329.333ZM9161.5 329.333C9161.53 327.578 9161.2 325.835 9160.52 324.215C9159.85 322.595 9158.84 321.134 9157.57 319.926C9155.04 317.43 9151.64 316.03 9148.09 316.03C9144.54 316.03 9141.13 317.43 9138.61 319.926C9137.37 321.161 9136.39 322.628 9135.72 324.242C9135.05 325.856 9134.71 327.586 9134.71 329.333C9134.71 331.08 9135.05 332.811 9135.72 334.425C9136.39 336.039 9137.37 337.505 9138.61 338.74C9141.15 341.211 9144.55 342.593 9148.09 342.593C9151.63 342.593 9155.03 341.211 9157.57 338.74C9158.85 337.534 9159.86 336.075 9160.55 334.456C9161.24 332.837 9161.59 331.093 9161.57 329.333H9161.5ZM9141.02 338.164V321.007H9147.15C9148.53 320.972 9149.91 321.105 9151.26 321.404C9152.16 321.582 9152.96 322.098 9153.49 322.845C9154.05 323.599 9154.37 324.504 9154.4 325.441C9154.44 326.098 9154.35 326.759 9154.13 327.379C9153.9 328 9153.55 328.567 9153.1 329.045C9152.64 329.537 9152.08 329.924 9151.46 330.179C9150.84 330.435 9150.17 330.552 9149.49 330.523C9150.61 330.919 9151.91 332.181 9153.6 334.776L9155.66 338.092H9152.3L9150.75 335.136C9150.05 333.869 9149.24 332.663 9148.34 331.532C9147.98 331.166 9147.55 330.891 9147.07 330.728C9146.58 330.565 9146.07 330.519 9145.56 330.595H9143.91V337.983H9141.1L9141.02 338.164ZM9143.83 328.576H9147.15C9148.24 328.667 9149.33 328.481 9150.32 328.036C9151.08 327.675 9151.26 326.918 9151.26 325.981C9151.28 325.593 9151.21 325.206 9151.05 324.854C9150.88 324.501 9150.63 324.195 9150.32 323.963C9149.26 323.544 9148.11 323.359 9146.97 323.422H9143.83V328.576Z" fill="#1C1E21"/>
</g>
<defs>
<clipPath id="clip0_758_1094">
<rect width="734" height="238.403" fill="white" transform="translate(0 81.2852)"/>
</clipPath>
<clipPath id="clip1_758_1094">
<rect width="1524.71" height="313.481" fill="white" transform="translate(1292.38 68.4785)"/>
</clipPath>
<clipPath id="clip2_758_1094">
<rect width="1405.08" height="397.918" fill="white" transform="translate(3354.42 0.675781)"/>
</clipPath>
<clipPath id="clip3_758_1094">
<rect width="717.313" height="249.051" fill="white" transform="translate(5283.96 79.2852)"/>
</clipPath>
<clipPath id="clip4_758_1094">
<rect width="1414.32" height="302.098" fill="white" transform="translate(6560.27 53.9688)"/>
</clipPath>
<clipPath id="clip5_758_1094">
<rect width="674" height="273.925" fill="white" transform="translate(8490.27 73.2852)"/>
</clipPath>
</defs>
</svg>
