<svg width="6399" height="1000" viewBox="0 0 6399 1000" fill="none" xmlns="http://www.w3.org/2000/svg">
<path d="M24 0.751953H1599.5V499.752H0.5V24.2519C0.5 11.2733 11.0213 0.751953 24 0.751953Z" fill="white"/>
<path d="M24 0.751953H1599.5V499.752H0.5V24.2519C0.5 11.2733 11.0213 0.751953 24 0.751953Z" stroke="#506687"/>
<g clip-path="url(#clip0_1074_1225)">
<path d="M853.896 175.422C821.099 175.422 791.791 192.421 791.791 223.828C791.791 259.845 843.77 262.333 843.77 280.427C843.77 288.046 835.039 294.866 820.127 294.866C798.963 294.866 783.146 285.337 783.146 285.337L776.378 317.03C776.378 317.03 794.599 325.079 818.792 325.079C854.648 325.079 882.863 307.245 882.863 275.302C882.863 237.243 830.668 234.829 830.668 218.035C830.668 212.066 837.835 205.526 852.705 205.526C869.482 205.526 883.17 212.457 883.17 212.457L889.794 181.847C889.794 181.847 874.9 175.422 853.896 175.422ZM553.841 177.732L553.047 182.353C553.047 182.353 566.845 184.878 579.271 189.915C595.272 195.691 596.412 199.053 599.106 209.497L628.471 322.697H667.835L728.478 177.732H689.204L650.238 276.294L634.337 192.748C632.879 183.187 625.492 177.732 616.451 177.732H553.841ZM744.27 177.732L713.461 322.696H750.912L781.612 177.732H744.27V177.732ZM953.144 177.732C944.113 177.732 939.329 182.567 935.817 191.016L880.95 322.696H920.223L927.822 300.749H975.668L980.289 322.696H1014.94L984.71 177.732H953.144ZM958.251 216.897L969.893 271.295H938.705L958.251 216.897Z" fill="#1C1E21"/>
</g>
<rect x="1599.5" y="0.751953" width="1599" height="499" fill="white"/>
<rect x="1599.5" y="0.751953" width="1599" height="499" stroke="#506687"/>
<g clip-path="url(#clip1_1074_1225)">
<path d="M1998.57 167.846H1978.87V264.602C1978.87 300.942 1966.1 311.871 1933.71 311.871C1906.57 311.783 1896.01 301.299 1896.01 287.705C1896.01 284.593 1897.16 274.555 1907.1 274.555C1916.94 274.555 1917.57 281.219 1917.57 292.059C1917.57 296.589 1919.43 305.474 1931.05 305.474C1949.51 305.474 1957.76 297.033 1957.76 267.18V167.846H1938.77V162.691H1998.57V167.846ZM2002.56 288.77C1999.28 288.77 1996.44 289.835 1994.22 292.146C1991.91 294.456 1990.76 297.21 1990.76 300.497C1990.76 303.785 1991.91 306.539 1994.22 308.672C1996.53 310.982 1999.28 312.048 2002.56 312.048C2005.84 312.048 2008.59 310.983 2010.99 308.672C2013.3 306.539 2014.45 303.785 2014.45 300.497C2014.45 297.121 2013.3 294.456 2010.99 292.146C2008.68 289.836 2005.93 288.77 2002.56 288.77ZM2130.76 288.77C2127.48 288.77 2124.73 289.835 2122.42 292.146C2120.11 294.457 2119.05 297.21 2119.05 300.497C2119.05 303.785 2120.11 306.539 2122.42 308.672C2124.82 310.982 2127.57 312.048 2130.76 312.048C2134.04 312.048 2136.88 310.983 2139.19 308.672C2141.49 306.539 2142.65 303.785 2142.65 300.497C2142.65 297.121 2141.49 294.456 2139.19 292.146C2136.88 289.836 2134.04 288.77 2130.76 288.77ZM2093.59 162.691C2139.45 162.691 2147.26 180.016 2147.26 204.717C2147.26 229.151 2134.57 247.009 2089.24 247.009L2073.62 247.098V283.969C2073.62 288.501 2074.16 290.724 2075.22 293.209C2076.37 296.141 2078.86 298.364 2082.58 299.873C2085.24 300.851 2089.33 301.384 2094.65 301.561V308.137H2031.66V301.561C2036.98 301.384 2040.97 300.849 2043.64 299.695C2047.18 298.184 2049.58 295.963 2050.65 293.032C2051.62 290.455 2052.15 290.011 2052.15 281.126V167.844H2034.94V162.779L2093.59 162.691ZM2085.51 241.414C2113.19 241.414 2126.94 229.42 2126.94 205.963C2126.94 182.595 2119.31 168.29 2084.36 168.29L2073.53 168.466V241.501H2085.51M2327.36 292.679C2326.56 290.103 2326.12 286.903 2326.12 282.817V167.846H2341.29V162.691H2304.29C2303.85 164.025 2259.75 273.844 2259.75 273.844C2259.66 274.021 2259.52 274.171 2259.34 274.28C2259.17 274.389 2258.98 274.453 2258.78 274.466C2258.24 274.466 2257.89 274.199 2257.71 273.844C2257.71 273.844 2210.87 164.025 2210.34 162.691H2169.26V167.755H2186.3V278.285C2186.3 278.285 2185.94 288.503 2185.94 288.592C2185.68 291.257 2184.79 293.657 2183.46 295.611C2182.04 297.656 2179.82 299.254 2176.89 300.321C2174.94 300.943 2172.01 301.386 2168.46 301.475V308.05H2210.25V301.475C2206.79 301.299 2205.28 300.943 2203.24 300.321C2200.22 299.343 2198.01 297.832 2196.5 295.7C2195.17 293.744 2194.28 291.346 2194.01 288.503C2194.01 288.503 2193.57 278.285 2193.57 278.196V183.037H2195.96C2195.96 183.037 2248.84 306.716 2249.46 308.139H2253.9L2304.02 184.459H2305.27V282.815C2305.27 287.081 2304.82 290.457 2304.02 293.033C2303.05 296.054 2300.92 298.276 2297.81 299.786C2295.51 300.851 2292.05 301.386 2287.43 301.562V308.139H2344.57V301.562C2339.96 301.297 2336.41 300.764 2334.01 299.697C2330.46 298.011 2328.33 295.7 2327.36 292.679ZM2404.19 201.609C2432.4 201.609 2453.34 220.889 2453.34 256.251C2453.34 301.653 2420.69 312.402 2403.57 312.402C2394.87 312.402 2354.68 309.026 2354.68 257.227C2354.6 221.867 2373.76 201.609 2404.19 201.609ZM2403.84 306.007C2424.33 306.007 2430.63 293.213 2430.63 255.984C2430.63 230.129 2430.54 208.093 2403.84 208.093C2379.17 208.093 2377.4 229.418 2377.4 257.849C2377.4 294.544 2380.86 306.007 2403.84 306.007ZM2533.1 203.207C2514.91 203.207 2508.61 213.959 2503.55 224.977C2503.55 224.977 2502.22 224.888 2502.13 224.888C2502.05 224.977 2498.5 204.096 2498.5 204.096H2463.9V209.606H2482.88V281.219C2482.88 288.325 2482.53 293.835 2480.66 296.856C2478.54 300.321 2474.19 301.654 2466.91 301.654H2463.81V308.229H2522.98V301.654H2519.79C2512.07 301.654 2508.08 299.967 2506.04 296.589C2504.17 293.659 2503.29 288.593 2503.29 281.219V244.079C2503.29 231.551 2513.31 217.157 2524.67 217.157C2536.56 217.157 2536.91 234.217 2549.69 228.088C2558.74 223.821 2556.7 203.207 2533.1 203.207ZM2768.65 297.476C2772.37 297.476 2776.9 293.567 2777.87 286.193H2781.42C2780.45 303.075 2772.2 309.828 2758.44 309.828C2746.2 309.828 2739.46 301.119 2738.3 293.922C2731.12 301.564 2720.47 311.161 2703.61 311.161C2688.44 311.161 2676.65 299.432 2675.94 286.104C2673.9 251.986 2718.7 248.344 2737.59 246.655V229.24C2737.59 222.932 2736.18 217.868 2733.43 214.048C2730.5 210.049 2725.26 208.095 2717.81 208.095C2711.42 208.095 2706.72 209.695 2703.7 212.803C2700.86 215.824 2699.62 219.111 2698.74 224.799C2697.49 232.528 2694.21 235.548 2688.36 235.548C2685.78 235.548 2683.74 234.837 2681.88 233.239C2680.11 231.729 2679.22 229.507 2679.22 226.308C2679.22 219.467 2681.88 214.757 2688.62 209.606C2695.55 204.276 2706.37 201.611 2721.01 201.611C2736.27 201.611 2746.82 204.454 2752.24 209.962C2757.74 215.47 2759.25 221.867 2759.25 231.196V274.731L2759.6 288.06C2760.31 294.013 2762.26 297.476 2768.65 297.476ZM2737.68 253.052C2723.13 253.052 2696.69 262.737 2696.69 282.106C2696.69 288.147 2698.82 300.23 2713.37 300.23C2719.05 300.23 2726.77 296.943 2736.88 287.705L2737.33 287.258C2737.68 286.992 2737.68 286.814 2737.68 286.46V253.052ZM2889.48 296.856C2886.91 293.659 2886.38 286.638 2886.38 281.307V234.218C2886.38 227.377 2885.49 221.602 2882.92 216.803C2880.35 212.182 2876.71 208.63 2872.18 206.32C2867.57 204.011 2862.34 202.855 2856.57 202.855C2835.81 202.855 2826.76 214.851 2822.68 222.935H2821.08L2817.44 204.1H2785.24V209.519H2801.38V281.222C2801.38 286.732 2800.94 290.729 2800.14 293.395C2799.26 296.592 2797.22 298.726 2794.2 300.059C2792.25 300.858 2789.23 301.393 2785.33 301.569V308.145H2836.43V301.569C2831.28 301.124 2827.82 299.793 2825.96 297.127C2823.92 294.283 2823.03 289.486 2823.03 282.378V254.924C2823.03 243.462 2822.94 232.355 2826.85 225.424C2831.11 217.962 2838.82 213.786 2847.43 213.786C2855.24 213.786 2859.41 216.275 2861.89 221.25C2864.64 226.847 2865.26 237.242 2865.26 245.505V279.535C2865.26 285.22 2865.09 289.308 2864.73 291.973C2864.11 295.084 2863.4 297.661 2860.92 299.259C2859.14 300.504 2856.39 301.304 2852.75 301.569V308.055H2901.99V301.475C2895.69 301.208 2891.97 300.143 2889.48 296.856ZM2658.46 197.433C2664.05 195.656 2668.66 196.988 2670.17 203.298C2670.88 206.319 2670.26 209.962 2668.48 213.159C2666.8 216.357 2663.87 218.668 2659.26 220.089C2655.26 221.422 2651.01 221.422 2646.3 220.356C2648.52 225.154 2650.38 231.907 2650.38 239.814C2650.38 267.356 2629.36 275.62 2606.91 279.085C2584.02 282.638 2578.17 285.393 2578.17 292.589C2578.17 297.476 2581.19 300.319 2597.07 300.319C2629.89 301.919 2644.53 300.053 2654.82 314.18C2658.01 318.711 2659.61 324.754 2659.61 332.306C2659.61 337.815 2658.19 343.589 2655.09 349.188C2652.16 354.783 2646.66 359.671 2638.76 363.67C2630.87 367.668 2619.87 369.802 2606.38 369.802C2596.18 369.802 2588.81 369.002 2577.64 365.625C2570.36 363.493 2560.78 357.63 2560.78 345.28C2560.78 341.546 2561.4 338.438 2563.09 335.773C2564.95 332.929 2568.76 331.241 2571.96 331.775C2577.63 332.752 2579.32 337.905 2578.34 342.791C2577.19 347.59 2578.26 354.342 2583.76 357.717C2591.21 362.338 2599.37 363.403 2609.4 363.403C2621.11 363.403 2630.51 361.36 2637.43 357.539C2644.89 353.363 2648.52 347.764 2648.52 340.835C2648.52 335.772 2646.75 331.862 2643.29 329.197C2640.01 326.798 2635.48 325.198 2629.89 324.489C2624.66 323.866 2616.58 323.424 2605.32 323.333C2592.36 323.068 2582.07 321.557 2574.71 318.536C2568.05 315.782 2562.91 310.894 2562.91 301.832C2562.91 286.817 2576.93 282.196 2592.72 278.998C2593.7 278.822 2593.7 277.488 2592.54 277.311C2574 273.401 2565.57 262.738 2565.57 240.882C2565.57 222.135 2578.26 201.612 2607.09 201.612C2624.93 201.612 2635.13 207.654 2640.45 212.541C2642.05 213.784 2645.69 213.695 2647.82 213.073C2649.94 212.362 2651.54 209.963 2652.34 205.7C2653.4 201.076 2655.35 198.41 2658.46 197.433ZM2607.62 273.221C2620.22 273.221 2629.27 269.401 2629.27 240.525C2629.27 220.356 2624.39 207.206 2607.62 207.206C2593.25 207.206 2586.51 221.6 2586.51 240.88C2586.42 268.334 2594.14 273.221 2607.62 273.221Z" fill="#1C1E21"/>
</g>
<rect x="3198.5" y="0.751953" width="1599" height="499" fill="white"/>
<rect x="3198.5" y="0.751953" width="1599" height="499" stroke="#506687"/>
<g clip-path="url(#clip2_1074_1225)">
<path d="M3979.74 325.746H3950.38C3950.19 325.746 3950.19 325.746 3950.1 325.653L3924.83 294.806L3899.56 325.653C3899.46 325.746 3899.37 325.746 3899.28 325.746H3875.77C3875.58 325.746 3875.49 325.653 3875.4 325.56C3875.4 325.467 3875.4 325.281 3875.49 325.188L3912.75 279.475L3875.96 234.227C3875.86 234.041 3875.86 233.948 3875.86 233.762C3875.96 233.669 3876.05 233.576 3876.14 233.576H3905.5C3905.6 233.576 3905.69 233.669 3905.78 233.762L3927.99 261.264L3950.57 233.762C3950.66 233.669 3950.75 233.576 3950.84 233.576H3974.72C3974.82 233.576 3975 233.669 3975.09 233.762C3975.19 233.948 3975.09 234.041 3975 234.227L3940.16 276.13L3980.11 325.188C3980.2 325.281 3980.2 325.467 3980.2 325.56C3980.02 325.746 3979.93 325.746 3979.74 325.746Z" fill="#1C1E21"/>
<path d="M4138.53 249.74C4125.52 249.74 4116.69 257.638 4114.09 271.296H4158.32V270.367C4158.32 259.496 4150.23 249.74 4138.53 249.74ZM4181.08 285.419C4180.99 285.511 4180.9 285.604 4180.8 285.604H4113.63C4115.02 301.214 4125.15 310.133 4141.59 310.133C4151.72 310.133 4162.5 306.696 4177.64 298.612C4177.92 298.426 4178.2 298.705 4178.2 298.984V319.611C4178.2 319.796 4178.11 319.889 4178.02 319.889C4163.89 325.836 4149.68 329.924 4138.53 329.924C4109.63 329.924 4088.63 308.833 4088.63 279.844C4088.63 250.855 4109.63 229.764 4138.53 229.764C4164.91 229.764 4181.82 247.51 4181.82 271.946C4181.82 275.941 4181.17 285.14 4181.08 285.419Z" fill="#1C1E21"/>
<path d="M4317.47 214.434C4309.21 214.434 4302.52 207.838 4302.52 199.754C4302.52 191.392 4309.21 184.609 4317.47 184.609C4325.74 184.609 4332.43 191.392 4332.43 199.754C4332.43 207.838 4325.74 214.434 4317.47 214.434ZM4305.4 325.744C4305.12 325.744 4305.02 325.651 4305.02 325.373V233.853C4305.02 233.667 4305.12 233.482 4305.3 233.482H4329.55C4329.74 233.482 4329.83 233.667 4329.83 233.853V325.373C4329.83 325.651 4329.65 325.744 4329.46 325.744H4305.4Z" fill="#1C1E21"/>
<path d="M4024.15 311.992C4019.78 311.992 4015.32 311.341 4010.12 310.041L4010.21 251.319C4016.25 249.368 4021.45 248.532 4026.66 248.532C4043.48 248.532 4054.72 260.89 4054.72 279.379C4054.72 299.17 4042.73 311.992 4024.15 311.992ZM4030.75 229.764C4023.87 229.764 4017 230.972 4009.75 233.48H3985.59C3985.4 233.48 3985.22 233.666 3985.22 233.852V383.906C3992.47 382.884 4001.39 380.283 4010.12 374.151V328.53C4016.07 329.366 4020.99 329.924 4025.73 329.924C4058.81 329.924 4080.18 310.133 4080.18 279.472C4080.18 250.205 4059.83 229.764 4030.75 229.764Z" fill="#1C1E21"/>
<path d="M4261.27 304.374C4253.74 308.369 4246.96 310.227 4240.64 310.227C4225.68 310.227 4216.67 299.635 4216.67 281.889C4216.67 261.448 4228.1 248.161 4245.84 248.161C4250.77 248.161 4255.51 249.369 4261.27 251.971V304.374ZM4261.27 185.073V232.924C4254.21 230.88 4247.98 229.95 4241.66 229.95C4212.86 229.95 4191.21 251.599 4191.21 280.402C4191.21 309.019 4210.35 329.832 4236.74 329.832C4245.84 329.832 4254.39 327.509 4264.43 322.399V330.668C4271.02 329.367 4278.64 326.766 4286.17 321.377V175.225C4278.83 176.247 4270.09 178.755 4261.27 185.073Z" fill="#1C1E21"/>
<path d="M4413.92 304.189C4406.58 308.37 4400.36 310.414 4394.78 310.414C4378.71 310.414 4369.14 299.822 4369.14 282.075C4369.14 261.913 4380.47 248.348 4397.29 248.348C4401.75 248.348 4407.23 250.113 4413.92 253.644V304.189ZM4438.82 232.367C4438.82 231.809 4438.36 231.345 4437.8 231.345H4418.2C4417.64 231.345 4417.08 231.809 4417.08 232.367V235.712H4416.62C4407.61 231.717 4399.8 229.951 4392.27 229.951C4365.14 229.951 4343.87 252.436 4343.87 281.239C4343.87 310.321 4362.91 329.833 4391.25 329.833C4398.78 329.833 4408.53 329.275 4417.64 318.869V330.669C4424.05 329.275 4431.67 326.581 4438.82 321.378V232.367Z" fill="#1C1E21"/>
<path d="M3808.69 302.887H3869.55C3868.62 309.67 3866.3 317.66 3861.09 325.744H3797.82C3790.11 325.744 3783.7 319.704 3782.95 312.178C3782.95 312.085 3782.86 311.993 3782.86 311.807V191.763C3782.86 191.67 3782.95 191.577 3782.95 191.484C3783.7 183.866 3790.11 177.826 3797.82 177.826H3869.45C3868.53 184.609 3866.2 192.785 3860.91 200.869H3808.69V233.574H3860.44C3860.63 233.574 3860.81 233.76 3860.81 233.946V256.616C3860.81 256.802 3860.63 256.988 3860.44 256.988H3808.69V302.887Z" fill="#1C1E21"/>
<path d="M3732.5 327.697C3726.46 327.697 3722.74 322.959 3722.74 317.198C3722.74 311.066 3727.02 306.699 3732.5 306.699C3737.89 306.699 3742.16 310.973 3742.16 317.198C3742.16 323.423 3737.89 327.697 3732.5 327.697ZM3732.5 305.584C3726.37 305.584 3721.07 310.23 3721.07 317.198C3721.07 323.795 3725.81 328.812 3732.5 328.812C3738.54 328.812 3743.83 324.167 3743.83 317.198C3743.83 310.23 3738.63 305.584 3732.5 305.584Z" fill="#1C1E21"/>
<path d="M3729.8 316.27V311.996H3732.68C3734.17 311.996 3735.84 312.182 3735.84 313.947C3735.84 316.084 3734.26 316.177 3732.5 316.177C3732.4 316.27 3729.8 316.27 3729.8 316.27ZM3737.88 314.226C3737.88 311.438 3736.21 310.23 3732.87 310.23H3727.66V323.982H3729.89V318.128H3732.03L3735.56 323.982H3738.16L3734.35 317.942C3736.4 317.756 3737.88 316.734 3737.88 314.226Z" fill="#1C1E21"/>
<path d="M4458.9 248.72C4452.86 248.72 4449.14 243.981 4449.14 238.22C4449.14 232.088 4453.42 227.721 4458.9 227.721C4464.29 227.721 4468.56 231.995 4468.56 238.22C4468.56 244.446 4464.29 248.72 4458.9 248.72ZM4458.9 226.699C4452.76 226.699 4447.47 231.345 4447.47 238.313C4447.47 244.91 4452.21 249.927 4458.9 249.927C4464.94 249.927 4470.23 245.282 4470.23 238.313C4470.23 231.252 4464.94 226.699 4458.9 226.699Z" fill="#1C1E21"/>
<path d="M4456.11 237.292V233.111H4458.99C4460.47 233.111 4462.15 233.297 4462.15 235.062C4462.15 237.199 4460.57 237.292 4458.8 237.292H4456.11ZM4464.28 235.341C4464.28 232.554 4462.61 231.346 4459.27 231.346H4454.06V245.097H4456.29V239.243H4458.43L4461.96 245.097H4464.56L4460.75 239.057C4462.7 238.872 4464.28 237.85 4464.28 235.341Z" fill="#1C1E21"/>
<path d="M3653.99 200.777L3649.62 188.326L3612.08 138.246L3618.77 136.574L3683.35 192.415L3721.35 181.544C3725.81 180.429 3730.92 180.15 3734.73 180.15C3722.84 154.413 3700.91 133.229 3672.11 123.009C3615.15 102.661 3552.43 132.486 3532.18 189.534C3525.86 207.188 3524.47 225.399 3527.07 242.68L3618.03 211.09L3653.99 200.777Z" fill="#1C1E21"/>
<path d="M3738.82 190C3735.47 192.137 3730.55 195.017 3725.72 196.597L3687.62 207.468L3662.26 289.045L3655.66 291.182L3661.05 228.931L3658.08 216.016L3622.4 226.236L3528 248.256C3535.53 284.493 3561.17 316.176 3598.61 329.462C3655.66 349.81 3718.29 319.985 3738.63 262.937C3747.37 238.501 3746.81 212.857 3738.82 190Z" fill="#1C1E21"/>
</g>
<path d="M4797.5 0.751953H6373C6385.98 0.751953 6396.5 11.2733 6396.5 24.252V499.752H4797.5V0.751953Z" fill="white"/>
<path d="M4797.5 0.751953H6373C6385.98 0.751953 6396.5 11.2733 6396.5 24.252V499.752H4797.5V0.751953Z" stroke="#506687"/>
<g clip-path="url(#clip3_1074_1225)">
<path d="M5485.49 190.906H5436.53C5434.91 190.905 5433.34 191.48 5432.11 192.526C5430.88 193.572 5430.06 195.022 5429.81 196.613L5410.01 321.397C5409.92 321.976 5409.96 322.568 5410.12 323.132C5410.28 323.695 5410.56 324.218 5410.94 324.663C5411.33 325.108 5411.8 325.465 5412.34 325.709C5412.87 325.954 5413.46 326.08 5414.05 326.079H5437.42C5439.04 326.08 5440.61 325.504 5441.84 324.457C5443.07 323.409 5443.89 321.958 5444.14 320.365L5449.48 286.709C5449.73 285.118 5450.55 283.668 5451.78 282.62C5453.01 281.572 5454.58 280.996 5456.2 280.995H5471.69C5503.94 280.995 5522.55 265.484 5527.41 234.745C5529.6 221.296 5527.51 210.73 5521.17 203.33C5514.21 195.204 5501.87 190.906 5485.49 190.906ZM5491.14 236.481C5488.46 253.942 5475.04 253.942 5462.06 253.942H5454.67L5459.85 221.332C5460.01 220.378 5460.49 219.509 5461.23 218.882C5461.97 218.254 5462.91 217.909 5463.88 217.909H5467.27C5476.11 217.909 5484.45 217.909 5488.76 222.919C5491.33 225.907 5492.12 230.347 5491.14 236.481ZM5631.83 235.919H5608.38C5607.41 235.919 5606.47 236.264 5605.73 236.891C5604.99 237.518 5604.5 238.387 5604.35 239.341L5603.31 245.859L5601.67 243.497C5596.6 236.175 5585.28 233.727 5573.99 233.727C5548.08 233.727 5525.95 253.231 5521.64 280.59C5519.4 294.237 5522.59 307.287 5530.38 316.388C5537.52 324.755 5547.74 328.242 5559.91 328.242C5580.78 328.242 5592.35 314.901 5592.35 314.901L5591.31 321.376C5591.22 321.955 5591.25 322.547 5591.41 323.111C5591.57 323.676 5591.85 324.199 5592.23 324.645C5592.61 325.092 5593.09 325.451 5593.62 325.697C5594.16 325.943 5594.74 326.071 5595.33 326.072H5616.45C5618.07 326.073 5619.64 325.497 5620.87 324.449C5622.1 323.402 5622.92 321.951 5623.17 320.358L5635.84 240.601C5635.93 240.023 5635.9 239.432 5635.74 238.869C5635.58 238.306 5635.3 237.783 5634.92 237.338C5634.54 236.893 5634.06 236.536 5633.53 236.29C5633 236.045 5632.41 235.919 5631.83 235.919ZM5599.15 281.273C5596.89 294.586 5586.26 303.523 5572.7 303.523C5565.89 303.523 5560.45 301.353 5556.96 297.24C5553.49 293.156 5552.17 287.342 5553.28 280.867C5555.39 267.668 5566.2 258.439 5579.55 258.439C5586.21 258.439 5591.62 260.638 5595.18 264.786C5598.75 268.977 5600.17 274.826 5599.15 281.273ZM5756.68 235.919H5733.12C5732.01 235.92 5730.92 236.192 5729.94 236.709C5728.96 237.226 5728.12 237.973 5727.49 238.886L5695 286.46L5681.23 240.743C5680.8 239.349 5679.94 238.127 5678.76 237.258C5677.59 236.389 5676.16 235.919 5674.7 235.919H5651.55C5650.9 235.917 5650.26 236.07 5649.68 236.364C5649.1 236.658 5648.6 237.085 5648.22 237.61C5647.84 238.135 5647.59 238.742 5647.5 239.381C5647.4 240.02 5647.46 240.672 5647.67 241.284L5673.62 316.978L5649.23 351.211C5648.79 351.818 5648.54 352.532 5648.48 353.274C5648.43 354.017 5648.59 354.759 5648.93 355.421C5649.27 356.082 5649.79 356.636 5650.43 357.023C5651.07 357.411 5651.81 357.615 5652.56 357.615H5676.09C5677.18 357.616 5678.27 357.353 5679.24 356.847C5680.21 356.342 5681.05 355.609 5681.68 354.712L5760.03 242.287C5760.46 241.679 5760.71 240.967 5760.75 240.228C5760.8 239.489 5760.64 238.751 5760.3 238.095C5759.95 237.439 5759.43 236.889 5758.79 236.506C5758.16 236.122 5757.43 235.919 5756.68 235.919Z" fill="#1C1E21"/>
<path d="M5834.68 190.908H5785.71C5784.09 190.908 5782.53 191.483 5781.3 192.529C5780.07 193.576 5779.25 195.024 5779 196.614L5759.2 321.398C5759.11 321.976 5759.14 322.567 5759.3 323.131C5759.46 323.694 5759.74 324.216 5760.12 324.661C5760.51 325.106 5760.98 325.463 5761.52 325.708C5762.05 325.953 5762.63 326.08 5763.22 326.08H5788.35C5789.48 326.079 5790.58 325.675 5791.44 324.942C5792.3 324.209 5792.87 323.194 5793.04 322.081L5798.66 286.71C5798.91 285.119 5799.73 283.669 5800.96 282.621C5802.19 281.574 5803.76 280.997 5805.38 280.997H5820.87C5853.12 280.997 5871.73 265.485 5876.6 234.746C5878.79 221.298 5876.68 210.731 5870.35 203.331C5863.4 195.205 5851.06 190.908 5834.68 190.908ZM5840.32 236.482C5837.65 253.943 5824.23 253.943 5811.25 253.943H5803.87L5809.06 221.333C5809.21 220.379 5809.69 219.51 5810.43 218.882C5811.17 218.254 5812.11 217.91 5813.08 217.911H5816.47C5825.3 217.911 5833.65 217.911 5837.95 222.92C5840.52 225.909 5841.3 230.349 5840.32 236.482ZM5981.01 235.92H5957.58C5956.61 235.917 5955.67 236.261 5954.93 236.889C5954.19 237.517 5953.7 238.388 5953.55 239.343L5952.52 245.86L5950.87 243.498C5945.8 236.176 5934.49 233.728 5923.19 233.728C5897.28 233.728 5875.16 253.232 5870.85 280.591C5868.62 294.238 5871.79 307.288 5879.58 316.389C5886.74 324.757 5896.95 328.243 5909.11 328.243C5929.98 328.243 5941.56 314.902 5941.56 314.902L5940.51 321.377C5940.42 321.957 5940.45 322.55 5940.61 323.116C5940.77 323.681 5941.06 324.206 5941.44 324.652C5941.82 325.099 5942.3 325.457 5942.84 325.702C5943.37 325.948 5943.96 326.074 5944.55 326.073H5965.66C5967.28 326.072 5968.85 325.496 5970.08 324.448C5971.31 323.401 5972.12 321.951 5972.37 320.359L5985.05 240.602C5985.14 240.023 5985.1 239.431 5984.94 238.867C5984.78 238.303 5984.5 237.781 5984.11 237.336C5983.73 236.891 5983.25 236.534 5982.72 236.29C5982.18 236.046 5981.6 235.919 5981.01 235.92ZM5948.33 281.274C5946.08 294.587 5935.44 303.524 5921.88 303.524C5915.09 303.524 5909.63 301.354 5906.14 297.241C5902.67 293.157 5901.37 287.344 5902.46 280.868C5904.58 267.669 5915.38 258.44 5928.73 258.44C5935.39 258.44 5940.8 260.639 5944.36 264.787C5947.95 268.978 5949.37 274.827 5948.33 281.274ZM6008.65 194.33L5988.55 321.398C5988.46 321.976 5988.5 322.567 5988.65 323.131C5988.81 323.694 5989.1 324.216 5989.48 324.661C5989.86 325.106 5990.34 325.463 5990.87 325.708C5991.4 325.953 5991.99 326.08 5992.58 326.08H6012.78C6016.13 326.08 6018.98 323.661 6019.5 320.366L6039.31 195.589C6039.4 195.011 6039.37 194.42 6039.21 193.856C6039.05 193.293 6038.77 192.77 6038.39 192.324C6038 191.879 6037.53 191.521 6036.99 191.275C6036.46 191.029 6035.88 190.901 6035.29 190.9H6012.67C6011.7 190.904 6010.76 191.251 6010.02 191.879C6009.28 192.508 6008.8 193.377 6008.65 194.33Z" fill="#718098"/>
<path d="M5206.71 350.328L5210.45 326.691L5202.11 326.499H5162.29L5189.96 152.077C5190.05 151.544 5190.32 151.058 5190.73 150.708C5191.14 150.358 5191.67 150.167 5192.21 150.17H5259.36C5281.65 150.17 5297.03 154.781 5305.06 163.881C5308.83 168.151 5311.23 172.612 5312.39 177.522C5313.6 182.673 5313.62 188.828 5312.44 196.335L5312.35 196.883V201.693L5316.11 203.814C5318.99 205.261 5321.57 207.219 5323.74 209.591C5326.96 213.242 5329.04 217.881 5329.92 223.381C5330.83 229.038 5330.53 235.769 5329.04 243.39C5327.32 252.156 5324.55 259.791 5320.8 266.038C5317.49 271.635 5313.04 276.482 5307.73 280.269C5302.75 283.784 5296.83 286.453 5290.14 288.16C5283.65 289.84 5276.26 290.686 5268.15 290.686H5262.92C5259.18 290.686 5255.56 292.024 5252.71 294.422C5249.86 296.845 5247.97 300.194 5247.38 303.871L5246.99 305.999L5240.37 347.66L5240.07 349.19C5239.99 349.674 5239.86 349.916 5239.66 350.079C5239.46 350.237 5239.22 350.325 5238.97 350.328H5206.71Z" fill="#1C1E21"/>
<path d="M5319.68 197.438C5319.48 198.711 5319.25 200.013 5318.99 201.351C5310.14 246.541 5279.84 262.153 5241.15 262.153H5221.45C5216.72 262.153 5212.73 265.568 5212 270.207L5201.91 333.791L5199.05 351.815C5198.94 352.53 5198.98 353.261 5199.18 353.957C5199.38 354.654 5199.73 355.3 5200.2 355.85C5200.67 356.401 5201.26 356.843 5201.92 357.146C5202.58 357.449 5203.3 357.606 5204.03 357.607H5238.97C5243.11 357.607 5246.62 354.618 5247.27 350.563L5247.62 348.798L5254.19 307.3L5254.62 305.023C5255.26 300.953 5258.78 297.965 5262.92 297.965H5268.15C5302 297.965 5328.5 284.303 5336.24 244.77C5339.48 228.255 5337.8 214.465 5329.24 204.766C5326.53 201.766 5323.29 199.283 5319.68 197.438Z" fill="#718098"/>
<path d="M5310.42 193.769C5307.59 192.956 5304.72 192.322 5301.81 191.869C5296.06 190.992 5290.26 190.57 5284.44 190.61H5231.81C5229.81 190.608 5227.87 191.319 5226.35 192.614C5224.83 193.908 5223.83 195.701 5223.52 197.669L5212.32 268.154L5212 270.211C5212.35 267.967 5213.49 265.921 5215.23 264.444C5216.96 262.966 5219.17 262.155 5221.46 262.156H5241.16C5279.85 262.156 5310.14 246.538 5319 201.354C5319.26 200.017 5319.48 198.714 5319.68 197.441C5317.35 196.223 5314.91 195.202 5312.4 194.388C5311.75 194.171 5311.08 193.965 5310.42 193.769Z" fill="#323B48"/>
<path d="M5223.52 197.667C5223.82 195.699 5224.83 193.905 5226.35 192.611C5227.87 191.317 5229.81 190.609 5231.81 190.615H5284.44C5290.67 190.615 5296.49 191.021 5301.81 191.875C5305.4 192.436 5308.94 193.276 5312.41 194.387C5315.02 195.248 5317.45 196.265 5319.69 197.439C5322.32 180.739 5319.67 169.369 5310.58 159.072C5300.57 147.738 5282.49 142.885 5259.36 142.885H5192.22C5187.49 142.885 5183.46 146.3 5182.73 150.947L5154.77 327.161C5154.64 327.979 5154.69 328.816 5154.91 329.613C5155.14 330.41 5155.53 331.15 5156.08 331.78C5156.62 332.41 5157.29 332.916 5158.04 333.264C5158.8 333.611 5159.62 333.792 5160.46 333.793H5201.91L5212.32 268.153L5223.52 197.667Z" fill="#1C1E21"/>
</g>
<path d="M0.5 499.752H1599.5V998.752H24C11.0213 998.752 0.5 988.231 0.5 975.252V499.752Z" fill="white"/>
<path d="M0.5 499.752H1599.5V998.752H24C11.0213 998.752 0.5 988.231 0.5 975.252V499.752Z" stroke="#506687"/>
<g clip-path="url(#clip4_1074_1225)">
<path d="M596.545 783.441C598.488 788.598 601.179 793.007 604.617 796.669C608.054 800.331 612.127 803.133 616.835 805.076C621.544 807.02 626.663 807.991 632.193 807.991C637.574 807.991 642.618 806.982 647.327 804.964C652.035 802.946 656.145 800.106 659.658 796.445C663.17 792.782 665.898 788.411 667.841 783.329C669.784 778.247 670.756 772.568 670.756 766.29V669.436H694.296V826.375H670.98V811.802C665.749 817.332 659.583 821.592 652.483 824.582C645.383 827.571 637.724 829.065 629.503 829.065C621.132 829.065 613.323 827.608 606.074 824.693C598.825 821.779 592.547 817.631 587.241 812.25C581.935 806.869 577.75 800.406 574.686 792.857C571.622 785.309 570.09 776.902 570.09 767.635V669.436H593.631V766.29C593.631 772.568 594.602 778.284 596.545 783.441ZM734.874 669.436V726.606C740.106 721.375 746.159 717.228 753.035 714.163C759.91 711.099 767.384 709.567 775.454 709.567C783.825 709.567 791.671 711.136 798.995 714.275C806.319 717.414 812.671 721.674 818.052 727.055C823.433 732.436 827.693 738.788 830.832 746.111C833.971 753.436 835.54 761.208 835.54 769.429C835.54 777.649 833.971 785.384 830.832 792.633C827.693 799.882 823.433 806.197 818.052 811.577C812.671 816.958 806.319 821.218 798.995 824.357C791.671 827.496 783.824 829.065 775.454 829.065C767.383 829.065 759.873 827.533 752.923 824.469C745.972 821.405 739.881 817.257 734.65 812.026V826.375H712.231V669.436H734.874ZM737.453 784.898C739.47 789.681 742.273 793.866 745.86 797.454C749.448 801.041 753.633 803.881 758.415 805.973C763.199 808.066 768.355 809.112 773.885 809.112C779.266 809.112 784.348 808.066 789.131 805.973C793.913 803.881 798.061 801.041 801.574 797.454C805.086 793.867 807.889 789.681 809.981 784.898C812.074 780.115 813.12 774.959 813.12 769.429C813.12 763.898 812.074 758.704 809.981 753.846C807.889 748.989 805.086 744.767 801.574 741.179C798.061 737.593 793.914 734.79 789.131 732.772C784.347 730.755 779.266 729.745 773.885 729.745C768.505 729.745 763.423 730.754 758.64 732.772C753.857 734.79 749.672 737.593 746.085 741.179C742.498 744.767 739.658 748.989 737.565 753.846C735.473 758.704 734.427 763.898 734.427 769.429C734.426 774.959 735.435 780.115 737.453 784.898ZM848.317 746.336C851.306 739.162 855.417 732.847 860.648 727.392C865.878 721.936 872.082 717.639 879.256 714.5C886.431 711.361 894.203 709.792 902.573 709.792C910.794 709.792 918.417 711.287 925.442 714.276C932.466 717.265 938.52 721.413 943.602 726.719C948.684 732.025 952.645 738.303 955.484 745.552C958.324 752.801 959.744 760.686 959.744 769.205V776.604H866.701C867.449 781.237 868.944 785.535 871.186 789.495C873.428 793.456 876.23 796.893 879.593 799.808C882.956 802.723 886.767 805.003 891.027 806.646C895.287 808.29 899.808 809.113 904.591 809.113C918.193 809.113 929.179 803.507 937.549 792.297L953.915 804.404C948.236 812.027 941.211 818.006 932.841 822.34C924.47 826.674 915.054 828.842 904.592 828.842C896.072 828.842 888.113 827.346 880.714 824.357C873.316 821.368 866.889 817.183 861.433 811.802C855.978 806.421 851.681 800.106 848.542 792.857C845.403 785.608 843.834 777.724 843.834 769.204C843.833 761.133 845.328 753.511 848.317 746.336ZM879.817 737.48C873.465 742.786 869.242 749.848 867.15 758.667H936.876C934.933 749.848 930.785 742.786 924.433 737.48C918.08 732.174 910.644 729.521 902.125 729.521C893.605 729.521 886.169 732.174 879.817 737.48ZM1002.12 740.058C997.333 745.289 994.942 752.389 994.942 761.357V826.376H972.297V712.034H994.717V726.158C997.557 721.525 1001.26 717.863 1005.82 715.172C1010.37 712.482 1015.79 711.136 1022.07 711.136H1029.92V732.211H1020.5C1013.03 732.212 1006.9 734.827 1002.12 740.058Z" fill="#1C1E21"/>
</g>
<rect x="1599.5" y="499.752" width="1599" height="499" fill="white"/>
<rect x="1599.5" y="499.752" width="1599" height="499" stroke="#506687"/>
<g clip-path="url(#clip5_1074_1225)">
<path d="M2250.21 765.66L2244.17 782.739H2243.67C2242.66 778.888 2240.82 773.027 2237.8 765.995L2205.44 684.785H2173.76V814.218H2194.71V734.348C2194.71 729.325 2194.71 723.632 2194.55 716.599C2194.38 713.083 2194.04 710.404 2193.88 708.395H2194.38C2195.38 713.418 2196.56 717.102 2197.4 719.446L2236.29 813.883H2251.04L2289.6 718.609C2290.44 716.432 2291.28 712.078 2292.12 708.395H2292.62C2292.12 717.939 2291.78 726.478 2291.62 731.669V813.716H2313.91V684.45H2283.4L2250.21 765.66ZM2335.04 720.953H2356.83V813.716H2335.04V720.953ZM2346.1 681.771C2342.41 681.771 2339.4 683.111 2336.88 685.455C2334.37 687.799 2333.03 690.813 2333.03 694.497C2333.03 698.013 2334.37 701.027 2336.88 703.371C2339.4 705.716 2342.41 706.888 2346.1 706.888C2349.79 706.888 2352.98 705.548 2355.32 703.371C2357.84 701.027 2359.18 698.013 2359.18 694.497C2359.18 690.981 2357.84 687.967 2355.32 685.455C2353.14 683.111 2349.96 681.771 2346.1 681.771ZM2434.12 720.116C2430.1 719.278 2425.91 718.776 2421.88 718.776C2411.99 718.776 2402.94 720.953 2395.39 725.306C2387.85 729.66 2381.81 735.688 2377.96 743.223C2373.93 750.925 2371.92 759.799 2371.92 770.013C2371.92 778.888 2373.93 786.757 2377.79 793.957C2381.65 800.99 2387.01 806.683 2394.22 810.534C2401.09 814.385 2409.14 816.395 2418.19 816.395C2428.59 816.395 2437.47 814.218 2444.51 810.199L2444.68 810.032V789.939L2443.84 790.609C2440.66 792.953 2436.97 794.962 2433.28 796.134C2429.43 797.474 2425.91 798.143 2422.89 798.143C2414.17 798.143 2407.3 795.632 2402.43 790.106C2397.4 784.748 2394.89 777.381 2394.89 768.171C2394.89 758.627 2397.4 751.092 2402.6 745.567C2407.8 740.041 2414.67 737.195 2423.06 737.195C2430.1 737.195 2437.31 739.539 2443.84 744.227L2444.68 744.897V723.632L2444.51 723.464C2441.66 722.292 2438.48 720.953 2434.12 720.116ZM2506.04 719.446C2500.68 719.446 2495.65 721.12 2491.29 724.636C2487.6 727.65 2485.09 732.004 2482.91 737.195H2482.74V720.953H2460.94V813.716H2482.74V766.33C2482.74 758.292 2484.42 751.595 2488.1 746.739C2491.79 741.716 2496.49 739.204 2502.19 739.204C2504.2 739.204 2506.21 739.706 2508.72 740.041C2511.07 740.711 2512.75 741.381 2513.92 742.218L2514.76 742.888V721.12L2514.26 720.953C2512.75 719.948 2509.73 719.446 2506.04 719.446ZM2565.39 718.943C2550.13 718.943 2537.9 723.464 2529.35 732.339C2520.63 741.213 2516.44 753.436 2516.44 768.841C2516.44 783.241 2520.8 794.962 2529.18 803.502C2537.56 811.874 2548.96 816.227 2563.21 816.227C2578.13 816.227 2590.04 811.706 2598.59 802.664C2607.3 793.623 2611.5 781.567 2611.5 766.664C2611.5 751.93 2607.47 740.209 2599.26 731.669C2591.38 723.13 2579.81 718.943 2565.39 718.943ZM2582.83 790.274C2578.8 795.464 2572.43 797.976 2564.55 797.976C2556.67 797.976 2550.3 795.464 2545.78 789.939C2541.25 784.748 2539.07 777.213 2539.07 767.669C2539.07 757.79 2541.42 750.255 2545.78 744.897C2550.3 739.539 2556.51 736.86 2564.39 736.86C2572.1 736.86 2578.13 739.371 2582.49 744.562C2586.85 749.753 2589.2 757.288 2589.2 767.167C2588.86 777.213 2587.02 785.083 2582.83 790.274ZM2660.11 759.464C2653.24 756.618 2648.88 754.441 2646.87 752.599C2645.19 750.925 2644.35 748.581 2644.35 745.567C2644.35 743.055 2645.36 740.543 2647.88 738.869C2650.39 737.195 2653.24 736.357 2657.43 736.357C2661.12 736.357 2664.98 737.027 2668.66 738.032C2672.35 739.036 2675.71 740.543 2678.39 742.553L2679.23 743.223V722.795L2678.72 722.627C2676.21 721.623 2672.86 720.618 2668.83 719.781C2664.81 719.111 2661.12 718.776 2658.1 718.776C2647.71 718.776 2639.16 721.288 2632.45 726.813C2625.75 732.004 2622.56 739.036 2622.56 747.241C2622.56 751.595 2623.23 755.446 2624.74 758.627C2626.25 761.809 2628.43 764.823 2631.45 767.334C2634.46 769.678 2638.82 772.357 2644.86 774.869C2649.89 777.046 2653.74 778.72 2656.09 780.06C2658.44 781.399 2659.95 782.906 2661.12 784.078C2661.96 785.418 2662.46 787.092 2662.46 789.269C2662.46 795.464 2657.77 798.478 2648.21 798.478C2644.52 798.478 2640.67 797.809 2636.14 796.302C2631.61 794.795 2627.42 792.618 2623.9 790.106L2623.06 789.436V810.702L2623.57 810.869C2626.75 812.376 2630.61 813.381 2635.3 814.553C2640 815.39 2644.19 816.06 2647.88 816.06C2659.11 816.06 2668.33 813.548 2674.87 808.023C2681.57 802.664 2685.09 795.799 2685.09 786.925C2685.09 780.73 2683.42 775.204 2679.73 771.018C2674.87 766.999 2668.83 762.813 2660.11 759.464ZM2742.6 718.943C2727.34 718.943 2715.1 723.464 2706.55 732.339C2698 741.213 2693.64 753.436 2693.64 768.841C2693.64 783.241 2698 794.962 2706.39 803.502C2714.77 811.874 2726.17 816.227 2740.42 816.227C2755.34 816.227 2767.24 811.706 2775.79 802.664C2784.51 793.623 2788.7 781.567 2788.7 766.664C2788.7 751.93 2784.68 740.209 2776.46 731.669C2768.58 723.13 2757.02 718.943 2742.6 718.943ZM2759.87 790.274C2755.84 795.464 2749.47 797.976 2741.59 797.976C2733.55 797.976 2727.34 795.464 2722.82 789.939C2718.29 784.748 2716.11 777.213 2716.11 767.669C2716.11 757.79 2718.46 750.255 2722.82 744.897C2727.34 739.539 2733.55 736.86 2741.42 736.86C2748.97 736.86 2755.17 739.371 2759.53 744.562C2763.89 749.753 2766.24 757.288 2766.24 767.167C2766.24 777.213 2764.06 785.083 2759.87 790.274ZM2905.22 738.869V720.953H2883.26V693.492L2882.59 693.66L2861.8 699.855L2861.3 700.023V720.953H2828.44V709.232C2828.44 703.874 2829.78 699.688 2832.12 697.009C2834.47 694.33 2837.99 692.99 2842.35 692.99C2845.37 692.99 2848.55 693.66 2852.07 695.167L2852.91 695.669V676.748L2852.41 676.581C2849.39 675.576 2845.37 674.906 2840.17 674.906C2833.63 674.906 2827.93 676.413 2822.74 678.925C2817.54 681.771 2813.68 685.623 2810.83 690.813C2807.98 695.836 2806.47 701.53 2806.47 708.06V720.953H2791.22V738.702H2806.47V813.716H2828.44V738.869H2861.3V786.59C2861.3 806.181 2870.52 816.06 2888.96 816.06C2891.98 816.06 2895.16 815.557 2898.18 815.055C2901.36 814.385 2903.71 813.548 2905.05 812.878L2905.22 812.711V794.795L2904.38 795.464C2903.04 796.302 2901.87 796.971 2899.86 797.474C2898.18 797.976 2896.67 798.143 2895.5 798.143C2891.14 798.143 2888.12 797.139 2885.94 794.627C2883.93 792.283 2882.92 788.432 2882.92 782.739V738.869H2905.22Z" fill="#1C1E21"/>
<path d="M1892.78 641.252H1995.55V743.894H1892.78V641.252Z" fill="#1C1E21"/>
<path d="M2006.28 641.252H2109.05V743.894H2006.28V641.252Z" fill="#1C1E21"/>
<path d="M1892.78 754.611H1995.55V857.253H1892.78V754.611Z" fill="#1C1E21"/>
<path d="M2006.28 754.611H2109.05V857.253H2006.28V754.611Z" fill="#1C1E21"/>
</g>
<rect x="3198.5" y="499.752" width="1599" height="499" fill="white"/>
<rect x="3198.5" y="499.752" width="1599" height="499" stroke="#506687"/>
<path fill-rule="evenodd" clip-rule="evenodd" d="M3578.7 674.404H3618.65C3626.09 674.404 3633.54 675.081 3640.3 676.098C3675.5 681.174 3703.26 699.793 3703.26 749.206C3703.26 798.285 3675.5 817.233 3640.3 821.971C3633.54 822.987 3626.09 823.321 3618.65 823.321H3578.7V674.404ZM4484.43 697.078C4489.84 697.078 4493.9 693.017 4493.9 686.924C4493.9 680.836 4489.84 676.431 4484.43 676.431C4479.01 676.431 4474.94 680.831 4474.94 686.924C4474.94 693.017 4479.01 697.078 4484.43 697.078ZM4484.43 674.065C4486.12 674.064 4487.79 674.396 4489.35 675.042C4490.91 675.688 4492.33 676.636 4493.52 677.83C4494.71 679.024 4495.66 680.442 4496.31 682.002C4496.95 683.563 4497.29 685.235 4497.29 686.924C4497.29 688.613 4496.95 690.286 4496.31 691.847C4495.66 693.408 4494.72 694.827 4493.52 696.021C4492.33 697.216 4490.91 698.164 4489.35 698.81C4487.79 699.456 4486.12 699.789 4484.43 699.788C4482.74 699.788 4481.06 699.455 4479.5 698.809C4477.94 698.162 4476.53 697.215 4475.33 696.021C4474.14 694.827 4473.19 693.409 4472.54 691.848C4471.9 690.288 4471.56 688.615 4471.56 686.926C4471.56 685.237 4471.9 683.565 4472.54 682.005C4473.19 680.444 4474.14 679.026 4475.33 677.832C4476.53 676.638 4477.94 675.69 4479.5 675.044C4481.06 674.398 4482.74 674.065 4484.43 674.065ZM4484.43 688.957L4483.74 687.94H4482.05V694.033H4479.34V679.481H4485.09C4488.48 679.481 4490.51 680.836 4490.51 683.88C4490.51 686.246 4488.82 687.602 4486.45 687.94L4490.51 694.033H4487.47L4484.43 688.957ZM4484.43 681.513H4484.76C4486.11 681.513 4487.47 681.852 4487.47 683.546C4487.47 685.579 4486.12 685.912 4484.76 685.912H4482.06V681.513H4484.43ZM4390.33 737.692C4401.5 736.337 4410.64 731.599 4410.64 717.385C4410.64 703.848 4401.51 700.122 4390.33 698.433H4370.02V738.375H4379.5C4383.22 738.375 4386.95 738.031 4390.33 737.692ZM4390.33 674.743C4416.73 675.759 4441.1 681.174 4441.1 715.018C4441.1 732.62 4429.93 747.173 4411.32 749.54C4419.1 750.556 4423.84 758.343 4426.55 765.114L4449.91 823.321H4417.41L4399.81 776.618C4397.11 769.847 4394.74 765.782 4390.34 763.415C4387.97 762.065 4384.25 761.382 4379.5 761.382H4370.03V823.321H4340.92V674.404H4372.39C4378.14 674.404 4384.58 674.404 4390.33 674.743ZM4119.22 719.079C4122.61 727.877 4124.3 737.697 4124.3 748.867C4124.3 759.36 4122.61 769.513 4119.22 778.651C4108.73 807.408 4083.35 826.031 4048.49 826.031C4001.78 826.031 3972 794.215 3972 748.862C3972 703.166 4002.46 672.032 4048.49 672.032C4083.35 672.032 4108.73 690.312 4119.22 719.079ZM4119.22 687.602L4170.67 823.321H4181.5L4238.7 674.404H4208.23L4177.78 752.923L4145.29 674.404H4114.15L4119.22 687.602ZM4246.15 674.404H4332.79V698.433H4275.59V734.987H4327.71V757.995H4275.59V799.969H4333.13V823.321H4246.15V674.404H4246.15ZM3640.3 700.804C3635.23 699.11 3629.81 698.433 3624.4 698.433H3607.81V799.969H3624.4C3629.82 799.969 3635.23 798.953 3640.3 797.264C3658.24 790.827 3672.8 774.246 3672.8 749.201C3672.8 724.156 3658.24 706.892 3640.3 700.804ZM3714.77 674.404H3744.21V823.321H3714.77V674.404ZM3838.64 714.002C3828.49 707.57 3817.66 701.138 3806.15 699.788C3795.66 698.433 3784.49 701.477 3784.49 716.369C3784.49 742.092 3848.8 731.26 3848.8 781.017C3848.8 813.506 3823.08 829.414 3793.63 826.031C3777.73 824.332 3768.59 819.594 3756.06 811.139V780.673C3765.88 786.094 3780.43 796.581 3791.94 798.614C3804.46 800.647 3818 796.915 3818 783.384C3818 754.617 3754.04 766.459 3754.04 717.38C3754.04 684.214 3779.08 672.027 3804.8 672.027C3817.67 672.027 3828.83 676.765 3838.65 685.564L3838.64 714.002ZM3964.55 808.429C3957.1 817.915 3939.5 823.321 3927.65 824.337C3881.96 827.386 3851.5 802.002 3851.5 751.573C3851.5 700.804 3878.24 671.021 3927.65 673.731C3937.47 674.07 3953.38 677.453 3963.87 686.251V714.684C3951.34 706.902 3938.49 701.487 3927.65 701.148C3897.53 700.132 3881.96 719.084 3881.96 749.545C3881.96 780.011 3896.52 796.925 3927.65 795.575C3939.84 795.241 3958.12 785.421 3964.55 780.011V808.429Z" fill="#1C1E21"/>
<path d="M4797.5 499.752H6396.5V975.252C6396.5 988.231 6385.98 998.752 6373 998.752H4797.5V499.752Z" fill="white"/>
<path d="M4797.5 499.752H6396.5V975.252C6396.5 988.231 6385.98 998.752 6373 998.752H4797.5V499.752Z" stroke="#506687"/>
<g clip-path="url(#clip6_1074_1225)">
<path d="M5665.12 703.532C5669.25 696.427 5674.59 690.107 5680.91 684.86C5702.54 666.806 5723.65 663.525 5760.31 663.525C5783.34 663.793 5806.14 668.196 5827.62 676.524V712.88C5827.62 712.88 5800.14 690.681 5763.12 690.681C5726.1 690.681 5713.1 712.88 5713.1 712.88C5713.1 712.88 5704.44 722.474 5704.44 742.478C5704.44 762.481 5713.1 771.187 5713.1 771.187C5721.15 780.242 5731.68 786.734 5743.39 789.859C5755.99 793.254 5769.15 794.027 5782.06 792.128V759.842H5743.39V731.724H5827.62V806.951C5827.62 806.951 5801.27 819.826 5754.19 819.826C5741.03 820.008 5727.9 818.734 5715.02 816.028L5665.12 703.532Z" fill="#1C1E21"/>
<path d="M5568.56 816.397L5568.44 723.484L5594.26 665.67H5648.18L5664.98 703.53C5655.4 720.597 5652.24 740.526 5656.07 759.717C5661.3 787.86 5691.56 806.802 5691.56 806.802C5691.56 806.802 5697.93 812.105 5714.85 815.879L5715.12 816.273H5664.24L5650.37 785.467H5590.07L5576.65 816.273H5568.51L5568.56 816.397ZM5639.69 757.694L5620.36 709.721L5600.75 757.694H5639.69Z" fill="#1C1E21"/>
<path d="M5415.89 716.923V816.397H5369.05V665.67H5425.8L5468.94 736.359L5512.45 665.67H5568.44L5568.56 723.484L5526.95 816.397H5518.81V716.923L5484.21 779.399H5451.9L5415.89 716.923Z" fill="#1C1E21"/>
<path d="M5371.74 835.833L5369.27 849.843H5366.48L5370.8 827.645L5378.2 844.318L5385.6 827.645L5389.92 849.843H5387.13L5384.66 835.833L5378.1 850.114L5371.74 835.833Z" fill="#1C1E21"/>
<path d="M5393.98 828.633H5405.45V831.099H5396.59V837.044H5405.1V839.51H5396.59V847.477H5405.38V849.943H5393.91L5393.98 828.633Z" fill="#1C1E21"/>
<path d="M5423.9 849.843H5420.72L5414.48 840.89H5413.34V849.843H5410.66V828.631H5413.86C5415.79 828.448 5417.72 828.798 5419.46 829.643C5420.31 830.158 5421.01 830.882 5421.51 831.745C5422 832.608 5422.26 833.582 5422.27 834.576C5422.32 836.023 5421.82 837.435 5420.88 838.531C5419.93 839.628 5418.61 840.329 5417.17 840.495L5423.9 849.843ZM5413.34 838.596H5414.23C5416.9 838.596 5419.95 838.103 5419.95 834.699C5419.95 831.295 5416.77 830.9 5414.08 830.9H5413.34V838.596Z" fill="#1C1E21"/>
<path d="M5443.46 832.676C5441.91 831.331 5439.92 830.61 5437.87 830.653C5435.69 830.818 5433.65 831.799 5432.17 833.399C5430.69 835 5429.86 837.103 5429.86 839.286C5429.86 841.469 5430.69 843.571 5432.17 845.172C5433.65 846.773 5435.69 847.754 5437.87 847.918C5439.97 847.896 5441.99 847.137 5443.59 845.773V848.93C5441.91 849.92 5440.01 850.45 5438.06 850.467C5436.11 850.484 5434.2 849.987 5432.51 849.026C5430.81 848.065 5429.41 846.674 5428.42 844.994C5427.44 843.314 5426.92 841.404 5426.91 839.458C5426.92 837.983 5427.21 836.523 5427.79 835.163C5428.36 833.803 5429.2 832.571 5430.25 831.538C5431.3 830.505 5432.55 829.692 5433.92 829.146C5435.29 828.601 5436.76 828.333 5438.24 828.359C5440.11 828.348 5441.95 828.824 5443.59 829.74V832.651L5443.46 832.676Z" fill="#1C1E21"/>
<path d="M5461.05 837.089V828.506H5463.72V849.718H5461.05V839.482H5450.87V849.718H5448.2V828.506H5450.87V837.089H5461.05Z" fill="#1C1E21"/>
<path d="M5472.37 844.417L5469.9 849.72H5467.12L5477.28 827.521L5487.47 849.72H5484.68L5482.21 844.417H5472.37ZM5477.3 833.441L5473.51 842.024H5481.13L5477.3 833.441Z" fill="#1C1E21"/>
<path d="M5490.82 827.621L5506.85 844.295V828.632H5509.52V850.831L5493.48 834.157V849.943H5490.82V827.744V827.621Z" fill="#1C1E21"/>
<path d="M5520.99 849.844H5518.3V831.025H5513.22V828.559H5526.07V831.025H5520.99V849.844Z" fill="#1C1E21"/>
<path d="M5542.99 844.417L5540.52 849.72H5537.73L5547.9 827.521L5558.08 849.72H5555.3L5552.83 844.417H5542.99ZM5547.92 833.441L5544.12 842.024H5551.74L5547.92 833.441Z" fill="#1C1E21"/>
<path d="M5561.56 828.633H5566.03C5572.51 828.633 5577.99 832.037 5577.99 839.115C5577.99 846.194 5572.64 849.845 5565.9 849.845H5561.56V828.633ZM5564.03 847.329H5564.94C5570.39 847.329 5575.1 845.306 5575.1 839.115C5575.1 832.924 5570.39 830.902 5564.94 830.902H5564.03V847.329Z" fill="#1C1E21"/>
<path d="M5589.43 844.295L5595.79 828.633H5598.85L5589.55 850.979L5580.25 828.633H5583.19L5589.43 844.295Z" fill="#1C1E21"/>
<path d="M5604.95 849.845H5602.28V828.633H5604.95V849.845Z" fill="#1C1E21"/>
<path d="M5620.21 832.677C5619.89 832.05 5619.4 831.527 5618.79 831.169C5618.18 830.811 5617.49 830.633 5616.78 830.654C5615.91 830.599 5615.06 830.885 5614.39 831.451C5613.73 832.018 5613.31 832.82 5613.23 833.688C5613.23 835.316 5614.88 836.154 5616.14 836.722L5617.67 837.338C5620.73 838.473 5623.02 840.126 5623.02 843.776C5623.02 844.663 5622.83 845.54 5622.48 846.354C5622.13 847.169 5621.62 847.904 5620.97 848.516C5620.33 849.129 5619.57 849.605 5618.74 849.918C5617.91 850.231 5617.03 850.373 5616.14 850.337C5614.51 850.324 5612.93 849.716 5611.72 848.626C5610.5 847.536 5609.72 846.04 5609.53 844.417L5612.2 843.899C5612.15 844.452 5612.22 845.008 5612.4 845.532C5612.59 846.055 5612.87 846.536 5613.25 846.943C5613.63 847.35 5614.08 847.675 5614.59 847.897C5615.1 848.12 5615.65 848.234 5616.2 848.234C5616.76 848.234 5617.31 848.12 5617.81 847.897C5618.32 847.675 5618.78 847.35 5619.16 846.943C5619.53 846.536 5619.82 846.055 5620 845.532C5620.18 845.008 5620.25 844.452 5620.21 843.899C5620.21 841.63 5618.44 840.619 5616.54 839.879L5615.01 839.238C5612.54 838.226 5610.3 836.771 5610.3 833.811C5610.34 833.042 5610.54 832.289 5610.88 831.597C5611.21 830.904 5611.69 830.287 5612.27 829.782C5612.85 829.276 5613.53 828.892 5614.26 828.652C5614.99 828.412 5615.77 828.321 5616.54 828.385C5617.65 828.355 5618.75 828.633 5619.72 829.191C5620.69 829.748 5621.48 830.562 5622.01 831.542L5620.21 832.677Z" fill="#1C1E21"/>
<path d="M5648.72 839.239C5648.72 842.209 5647.54 845.057 5645.44 847.157C5643.34 849.257 5640.5 850.437 5637.53 850.437C5634.56 850.437 5631.71 849.257 5629.61 847.157C5627.51 845.057 5626.33 842.209 5626.33 839.239C5626.33 836.269 5627.51 833.421 5629.61 831.321C5631.71 829.221 5634.56 828.041 5637.53 828.041C5640.5 828.041 5643.34 829.221 5645.44 831.321C5647.54 833.421 5648.72 836.269 5648.72 839.239ZM5646.06 839.239C5646.06 836.975 5645.16 834.805 5643.56 833.204C5641.96 831.604 5639.79 830.705 5637.53 830.705C5635.26 830.705 5633.09 831.604 5631.49 833.204C5629.89 834.805 5628.99 836.975 5628.99 839.239C5628.99 841.502 5629.89 843.673 5631.49 845.273C5633.09 846.874 5635.26 847.773 5637.53 847.773C5639.79 847.773 5641.96 846.874 5643.56 845.273C5645.16 843.673 5646.06 841.502 5646.06 839.239Z" fill="#1C1E21"/>
<path d="M5666.41 849.843H5663.23L5656.99 840.89H5655.85V849.843H5653.12V828.631H5656.27C5658.2 828.448 5660.14 828.798 5661.87 829.643C5662.91 830.287 5663.73 831.235 5664.21 832.358C5664.69 833.481 5664.82 834.726 5664.57 835.923C5664.32 837.12 5663.71 838.212 5662.83 839.052C5661.94 839.892 5660.81 840.439 5659.6 840.618L5666.41 849.843ZM5655.73 838.596H5656.62C5659.28 838.596 5662.34 838.103 5662.34 834.699C5662.34 831.295 5659.16 830.9 5656.5 830.9H5655.73V838.596Z" fill="#1C1E21"/>
<path d="M5667.54 828.633H5670.6L5675.83 837.734L5681.03 828.633H5684.09L5677.08 840.62V849.845H5674.42V840.62L5667.54 828.633Z" fill="#1C1E21"/>
<path d="M5717.24 839.116V840.003C5717.27 841.32 5717.04 842.629 5716.56 843.855C5716.08 845.08 5715.36 846.197 5714.44 847.14C5713.52 848.082 5712.42 848.831 5711.21 849.342C5709.99 849.853 5708.69 850.116 5707.37 850.116C5704.53 849.954 5701.87 848.704 5699.93 846.626C5697.99 844.549 5696.92 841.803 5696.95 838.961C5696.99 836.118 5698.11 833.397 5700.1 831.363C5702.08 829.33 5704.78 828.14 5707.62 828.041C5709.27 828.039 5710.9 828.397 5712.39 829.092C5713.89 829.786 5715.21 830.8 5716.28 832.061L5714.38 833.837C5713.58 832.794 5712.56 831.945 5711.39 831.355C5710.22 830.766 5708.93 830.45 5707.62 830.434C5706.49 830.42 5705.37 830.633 5704.33 831.061C5703.29 831.488 5702.34 832.121 5701.55 832.922C5700.75 833.723 5700.13 834.675 5699.71 835.722C5699.29 836.769 5699.09 837.89 5699.11 839.017C5699.11 841.249 5699.97 843.396 5701.51 845.015C5703.04 846.635 5705.14 847.604 5707.37 847.724C5709.11 847.705 5710.78 847.053 5712.07 845.89C5713.36 844.728 5714.18 843.134 5714.38 841.409H5708.9V838.943L5717.24 839.116Z" fill="#1C1E21"/>
<path d="M5735.12 849.843H5732.04L5725.8 840.89H5724.64V849.843H5721.95V828.631H5725.13C5727.06 828.448 5729 828.798 5730.73 829.643C5731.58 830.158 5732.29 830.882 5732.78 831.745C5733.27 832.608 5733.53 833.582 5733.55 834.576C5733.59 836.023 5733.09 837.435 5732.15 838.531C5731.2 839.628 5729.88 840.329 5728.44 840.495L5735.12 849.843ZM5724.42 838.596H5725.31C5728 838.596 5731.05 838.103 5731.05 834.699C5731.05 831.295 5727.87 830.9 5725.18 830.9H5724.42V838.596Z" fill="#1C1E21"/>
<path d="M5759.94 839.239C5759.94 842.209 5758.76 845.057 5756.66 847.157C5754.56 849.257 5751.71 850.437 5748.74 850.437C5745.77 850.437 5742.93 849.257 5740.83 847.157C5738.73 845.057 5737.55 842.209 5737.55 839.239C5737.55 836.269 5738.73 833.421 5740.83 831.321C5742.93 829.221 5745.77 828.041 5748.74 828.041C5751.71 828.041 5754.56 829.221 5756.66 831.321C5758.76 833.421 5759.94 836.269 5759.94 839.239ZM5757.25 839.239C5757.32 838.081 5757.14 836.923 5756.74 835.835C5756.34 834.747 5755.72 833.752 5754.93 832.91C5754.13 832.069 5753.17 831.398 5752.1 830.94C5751.04 830.482 5749.89 830.246 5748.73 830.246C5747.57 830.246 5746.43 830.482 5745.36 830.94C5744.3 831.398 5743.34 832.069 5742.54 832.91C5741.74 833.752 5741.12 834.747 5740.72 835.835C5740.32 836.923 5740.15 838.081 5740.21 839.239C5740.15 840.396 5740.32 841.555 5740.72 842.643C5741.12 843.731 5741.74 844.726 5742.54 845.568C5743.34 846.409 5744.3 847.079 5745.36 847.537C5746.43 847.995 5747.57 848.232 5748.73 848.232C5749.89 848.232 5751.04 847.995 5752.1 847.537C5753.17 847.079 5754.13 846.409 5754.93 845.568C5755.72 844.726 5756.34 843.731 5756.74 842.643C5757.14 841.555 5757.32 840.396 5757.25 839.239Z" fill="#1C1E21"/>
<path d="M5766.58 828.634V841.139C5766.58 844.543 5767.59 847.823 5771.78 847.823C5775.97 847.823 5776.89 844.666 5776.89 841.139V828.634H5779.55V842.027C5779.62 843.083 5779.47 844.142 5779.11 845.137C5778.75 846.132 5778.18 847.04 5777.45 847.802C5776.72 848.565 5775.83 849.164 5774.85 849.563C5773.87 849.962 5772.81 850.15 5771.76 850.117C5770.69 850.173 5769.62 849.996 5768.62 849.598C5767.63 849.2 5766.73 848.591 5765.99 847.812C5765.26 847.033 5764.7 846.104 5764.36 845.088C5764.01 844.072 5763.9 842.994 5764.01 841.928V828.535L5766.58 828.634Z" fill="#1C1E21"/>
<path d="M5787.78 849.845H5785.12V828.633H5788.18C5794.79 828.633 5796.83 830.902 5796.83 834.824C5796.83 839.239 5793.38 841.015 5789.43 841.015H5787.9V849.845H5787.78ZM5787.78 838.597H5788.77C5791.46 838.597 5794.37 838.104 5794.37 834.7C5794.37 831.297 5791.18 831.025 5788.52 831.025H5787.76V838.597H5787.78Z" fill="#1C1E21"/>
<path d="M5805.47 838.744C5805.51 836.581 5806.19 834.478 5807.41 832.694C5808.64 830.909 5810.36 829.522 5812.36 828.702C5814.36 827.881 5816.56 827.664 5818.68 828.077C5820.81 828.489 5822.76 829.514 5824.31 831.024C5826.35 833.072 5827.49 835.843 5827.49 838.732C5827.49 841.621 5826.35 844.392 5824.31 846.44C5823.31 847.486 5822.1 848.317 5820.77 848.881C5819.43 849.445 5817.99 849.731 5816.54 849.72C5815.1 849.756 5813.67 849.495 5812.34 848.951C5811.01 848.408 5809.8 847.595 5808.8 846.563C5807.74 845.554 5806.9 844.341 5806.33 842.996C5805.76 841.652 5805.46 840.205 5805.47 838.744ZM5825.72 838.744C5825.74 837.543 5825.52 836.35 5825.05 835.242C5824.59 834.133 5823.9 833.134 5823.03 832.307C5821.3 830.599 5818.97 829.641 5816.54 829.641C5814.11 829.641 5811.78 830.599 5810.06 832.307C5809.21 833.152 5808.54 834.155 5808.08 835.26C5807.62 836.365 5807.39 837.548 5807.39 838.744C5807.39 839.94 5807.62 841.124 5808.08 842.228C5808.54 843.333 5809.21 844.336 5810.06 845.182C5811.79 846.872 5814.12 847.818 5816.54 847.818C5818.97 847.818 5821.29 846.872 5823.03 845.182C5823.91 844.356 5824.6 843.358 5825.07 842.25C5825.55 841.142 5825.78 839.948 5825.77 838.744H5825.72ZM5811.71 844.787V833.047H5815.9C5816.85 833.022 5817.79 833.113 5818.71 833.318C5819.33 833.44 5819.88 833.793 5820.24 834.304C5820.62 834.82 5820.84 835.439 5820.86 836.08C5820.89 836.531 5820.83 836.982 5820.67 837.407C5820.52 837.831 5820.28 838.22 5819.97 838.547C5819.66 838.884 5819.28 839.149 5818.85 839.323C5818.42 839.498 5817.97 839.578 5817.51 839.558C5818.27 839.829 5819.16 840.693 5820.32 842.469L5821.72 844.738H5819.43L5818.37 842.715C5817.89 841.848 5817.33 841.023 5816.72 840.249C5816.47 839.999 5816.17 839.81 5815.84 839.699C5815.51 839.587 5815.16 839.556 5814.82 839.607H5813.68V844.664H5811.76L5811.71 844.787ZM5813.63 838.226H5815.9C5816.65 838.288 5817.39 838.161 5818.07 837.856C5818.59 837.61 5818.71 837.092 5818.71 836.45C5818.73 836.185 5818.68 835.92 5818.57 835.679C5818.46 835.438 5818.29 835.228 5818.07 835.069C5817.34 834.782 5816.56 834.656 5815.78 834.699H5813.63V838.226Z" fill="#1C1E21"/>
</g>
<defs>
<clipPath id="clip0_1074_1225">
<rect width="461.895" height="150.023" fill="white" transform="translate(553.051 175.24)"/>
</clipPath>
<clipPath id="clip1_1074_1225">
<rect width="1005.98" height="207.135" fill="white" transform="translate(1896.01 162.684)"/>
</clipPath>
<clipPath id="clip2_1074_1225">
<rect width="944.461" height="267.471" fill="white" transform="translate(3525.77 116.518)"/>
</clipPath>
<clipPath id="clip3_1074_1225">
<rect width="885" height="234" fill="white" transform="translate(5154.5 133.252)"/>
</clipPath>
<clipPath id="clip4_1074_1225">
<rect width="459.827" height="159.652" fill="white" transform="translate(570.086 669.426)"/>
</clipPath>
<clipPath id="clip5_1074_1225">
<rect width="1012.5" height="216" fill="white" transform="translate(1892.75 641.252)"/>
</clipPath>
<clipPath id="clip6_1074_1225">
<rect width="461.232" height="187.453" fill="white" transform="translate(5366.38 663.525)"/>
</clipPath>
</defs>
</svg>
