<svg width="110" height="60" viewBox="0 0 110 60" fill="none" xmlns="http://www.w3.org/2000/svg">
<path d="M0 53.4276H5.94196V54.6842H3.80441V59.8748H2.14187V54.6842H0V53.4276Z" fill="#1C1E21"/>
<path d="M9.25957 56.2863C9.60791 56.2863 9.85693 56.2215 10.0066 56.0919C10.1592 55.9624 10.2355 55.7494 10.2355 55.4528C10.2355 55.1592 10.1592 54.949 10.0066 54.8224C9.85693 54.6957 9.60791 54.6324 9.25957 54.6324H8.56V56.2863H9.25957ZM8.56 57.4349V59.8748H6.89746V53.4276H9.43662C10.2859 53.4276 10.9077 53.5701 11.3021 53.8551C11.6994 54.1401 11.898 54.5906 11.898 55.2067C11.898 55.6328 11.7944 55.9825 11.5871 56.256C11.3827 56.5295 11.0732 56.731 10.6587 56.8606C10.8861 56.9124 11.0891 57.0304 11.2676 57.2147C11.4489 57.3961 11.6317 57.6724 11.816 58.0438L12.7185 59.8748H10.948L10.1621 58.2727C10.0038 57.9502 9.84253 57.73 9.67844 57.612C9.51722 57.4939 9.30131 57.4349 9.0307 57.4349H8.56Z" fill="#1C1E21"/>
<path d="M17.9733 58.7002H15.3737L14.9634 59.8748H13.2922L15.6803 53.4276H17.6623L20.0504 59.8748H18.3792L17.9733 58.7002ZM15.7882 57.504H17.5544L16.6735 54.939L15.7882 57.504Z" fill="#1C1E21"/>
<path d="M20.394 53.4276H22.0652L23.7753 58.1863L25.481 53.4276H27.1522L24.7642 59.8748H22.7821L20.394 53.4276Z" fill="#1C1E21"/>
<path d="M28.2908 53.4276H32.7775V54.6842H29.9533V55.8847H32.6091V57.1413H29.9533V58.6181H32.8725V59.8748H28.2908V53.4276Z" fill="#1C1E21"/>
<path d="M34.8882 53.4276H36.5507V58.6181H39.4699V59.8748H34.8882V53.4276Z" fill="#1C1E21"/>
<path d="M46.6977 55.5953L48.4639 57.5386C48.6165 57.3371 48.7316 57.1111 48.8094 56.8606C48.89 56.6101 48.9375 56.3266 48.9519 56.0099H50.2949C50.2517 56.5339 50.1495 57.0002 49.9883 57.409C49.8299 57.8178 49.6083 58.1762 49.3232 58.4843L50.5885 59.8748H48.7576L48.3344 59.4041C48.0321 59.6056 47.714 59.7553 47.38 59.8532C47.0461 59.9511 46.692 60 46.3177 60C45.5606 60 44.9474 59.8014 44.4781 59.4041C44.0118 59.0039 43.7786 58.4886 43.7786 57.8581C43.7786 57.4378 43.8808 57.0664 44.0852 56.744C44.2924 56.4187 44.6293 56.1035 45.0956 55.7983C44.9747 55.6457 44.8855 55.4931 44.8279 55.3406C44.7703 55.188 44.7415 55.0282 44.7415 54.8612C44.7415 54.392 44.9244 54.0163 45.29 53.7342C45.6556 53.452 46.1421 53.311 46.7495 53.311C47.0115 53.311 47.2836 53.3326 47.5657 53.3757C47.8507 53.4161 48.1472 53.4779 48.4553 53.5614V54.7619C48.1847 54.6237 47.9284 54.5215 47.6866 54.4553C47.4448 54.3891 47.2087 54.356 46.9784 54.356C46.7567 54.356 46.584 54.3992 46.4602 54.4855C46.3393 54.569 46.2789 54.6885 46.2789 54.844C46.2789 54.9418 46.3134 55.0541 46.3825 55.1808C46.4545 55.3046 46.5595 55.4428 46.6977 55.5953ZM45.8384 56.6663C45.6513 56.8016 45.5102 56.9556 45.4152 57.1283C45.3202 57.2982 45.2727 57.4853 45.2727 57.6897C45.2727 58.0208 45.395 58.3029 45.6397 58.5361C45.8845 58.7693 46.1781 58.8859 46.5207 58.8859C46.7136 58.8859 46.8935 58.8571 47.0605 58.7995C47.2274 58.7391 47.3829 58.6498 47.5268 58.5318L45.8384 56.6663Z" fill="#1C1E21"/>
<path d="M54.3271 53.4276H57.0865C57.907 53.4276 58.536 53.6104 58.9736 53.976C59.4141 54.3387 59.6343 54.8569 59.6343 55.5306C59.6343 56.2071 59.4141 56.7282 58.9736 57.0938C58.536 57.4565 57.907 57.6379 57.0865 57.6379H55.9897V59.8748H54.3271V53.4276ZM55.9897 54.6324V56.4331H56.9095C57.2319 56.4331 57.4809 56.3554 57.6566 56.1999C57.8322 56.0416 57.92 55.8184 57.92 55.5306C57.92 55.2427 57.8322 55.021 57.6566 54.8655C57.4809 54.7101 57.2319 54.6324 56.9095 54.6324H55.9897Z" fill="#1C1E21"/>
<path d="M64.9784 58.7002H62.3788L61.9685 59.8748H60.2974L62.6854 53.4276H64.6675L67.0555 59.8748H65.3843L64.9784 58.7002ZM62.7933 57.504H64.5595L63.6786 54.939L62.7933 57.504Z" fill="#1C1E21"/>
<path d="M67.2253 53.4276H69.0433L70.5116 55.7249L71.9798 53.4276H73.8021L71.345 57.1586V59.8748H69.6825V57.1586L67.2253 53.4276Z" fill="#1C1E21"/>
<path d="M74.7034 53.4276H76.8193L78.2875 56.8779L79.7644 53.4276H81.876V59.8748H80.3042V55.1592L78.8187 58.6354H77.765L76.2795 55.1592V59.8748H74.7034V53.4276Z" fill="#1C1E21"/>
<path d="M83.8125 53.4276H88.2992V54.6842H85.475V55.8847H88.1308V57.1413H85.475V58.6181H88.3942V59.8748H83.8125V53.4276Z" fill="#1C1E21"/>
<path d="M90.4102 53.4276H92.267L94.6119 57.8495V53.4276H96.188V59.8748H94.3312L91.9863 55.4528V59.8748H90.4102V53.4276Z" fill="#1C1E21"/>
<path d="M97.4504 53.4276H103.392V54.6842H101.255V59.8748H99.5923V54.6842H97.4504V53.4276Z" fill="#1C1E21"/>
<path d="M108.79 53.6305V54.9951C108.436 54.8368 108.091 54.7173 107.754 54.6367C107.417 54.5561 107.099 54.5158 106.8 54.5158C106.402 54.5158 106.109 54.5705 105.919 54.6799C105.729 54.7893 105.634 54.9591 105.634 55.1894C105.634 55.3622 105.697 55.4975 105.824 55.5953C105.953 55.6904 106.187 55.7724 106.523 55.8415L107.232 55.984C107.948 56.1279 108.458 56.3467 108.76 56.6404C109.063 56.934 109.214 57.3515 109.214 57.8927C109.214 58.6038 109.002 59.1335 108.579 59.4818C108.159 59.8273 107.515 60 106.649 60C106.24 60 105.83 59.9611 105.418 59.8834C105.006 59.8057 104.595 59.6905 104.183 59.5379V58.1345C104.595 58.3533 104.992 58.5188 105.375 58.6311C105.76 58.7405 106.132 58.7952 106.489 58.7952C106.852 58.7952 107.129 58.7347 107.322 58.6138C107.515 58.4929 107.612 58.3202 107.612 58.0956C107.612 57.8941 107.545 57.7387 107.413 57.6293C107.283 57.5199 107.023 57.422 106.631 57.3356L105.988 57.1931C105.343 57.0549 104.871 56.8347 104.571 56.5324C104.275 56.2301 104.127 55.8228 104.127 55.3103C104.127 54.6684 104.334 54.1746 104.749 53.8292C105.163 53.4837 105.759 53.311 106.536 53.311C106.89 53.311 107.255 53.3383 107.629 53.393C108.003 53.4448 108.39 53.524 108.79 53.6305Z" fill="#1C1E21"/>
<path d="M53.023 26.9457C52.8194 27.221 52.7909 27.6032 52.9799 27.9134C53.2294 28.3234 53.7638 28.4529 54.1734 28.2033C57.9131 25.9253 61.4675 23.2955 64.7374 20.3868C68.4276 17.1042 71.7974 13.431 74.7536 9.46941C74.7544 9.46822 74.7552 9.46704 74.756 9.46585C75.0396 9.08161 74.96 8.53973 74.5769 8.25413C74.1923 7.96734 73.6484 8.04616 73.3616 8.43079C70.4759 12.2985 67.1862 15.8845 63.5831 19.0891C60.3912 21.9289 56.9208 24.4961 53.2698 26.7203C53.1708 26.7809 53.088 26.8577 53.023 26.9457Z" fill="#1C1E21"/>
<path d="M47.0062 24.5199C46.8026 24.7952 46.7741 25.1774 46.963 25.4876C47.2126 25.8976 47.7469 26.0271 48.1565 25.7776C48.7689 25.4044 49.4839 24.9905 50.2401 24.552C53.3365 22.758 57.5774 20.3009 61.2129 16.9541C64.892 13.6814 68.2618 10.0082 71.218 6.0466C71.5076 5.66118 71.4256 5.11811 71.0414 4.83132C70.6567 4.54453 70.1129 4.62375 69.8261 5.00799C66.9404 8.87567 63.6506 12.4621 60.0475 15.6667C56.5415 18.8939 52.3966 21.2959 49.3694 23.0495C48.6045 23.4928 47.882 23.9115 47.253 24.2945C47.154 24.3551 47.0712 24.432 47.0062 24.5199Z" fill="#1C1E21"/>
<path d="M49.1412 29.5922C48.7736 29.082 48.0658 28.9676 47.552 29.3352C47.548 29.3391 46.7887 29.8929 45.1004 30.7941C44.5391 31.0987 43.8709 31.4385 43.0961 31.8101C42.2658 32.2094 41.3088 32.6443 40.2179 33.107C36.6239 34.6372 31.5711 36.4716 24.767 38.306C24.1581 38.4684 23.7981 39.0931 23.9565 39.698C24.1185 40.3068 24.7472 40.6665 25.356 40.5045C31.8083 38.7647 36.7503 37.0056 40.3997 35.4912C41.7556 34.9256 42.9341 34.396 43.9422 33.9135C44.6615 33.5697 45.2981 33.2532 45.8519 32.9608C47.9394 31.8695 48.8762 31.1854 48.8841 31.1815C49.3943 30.8139 49.5088 30.1024 49.1412 29.5922ZM31.9545 32.0078C31.8044 31.395 31.1837 31.0234 30.5748 31.1735C30.0567 31.3043 29.5192 31.4267 28.9773 31.5415C28.4398 31.6521 27.9141 31.755 27.4079 31.8378C26.7872 31.9448 26.372 32.5298 26.4746 33.1506C26.5776 33.7713 27.1667 34.1943 27.7874 34.0874C28.3645 33.9887 28.9183 33.8822 29.44 33.7752C30.0056 33.6568 30.563 33.5261 31.1203 33.3878C31.7331 33.2377 32.105 32.621 31.9545 32.0078ZM45.9109 25.9389C45.5314 25.437 44.82 25.334 44.3177 25.7139C44.3137 25.7178 43.6811 26.1959 42.4912 26.8563C41.9652 27.153 41.3326 27.4809 40.5934 27.8212C40.4076 27.904 40.2139 27.9911 40.0123 28.0779C39.4308 28.335 38.7947 28.5881 38.1066 28.8372C37.8376 28.9319 37.5608 29.027 37.2724 29.1217C36.7978 29.2801 36.2956 29.4342 35.7739 29.5804C35.6986 29.6002 35.6317 29.6279 35.5643 29.6635C35.0898 29.9008 34.8287 30.4542 34.9793 30.9838C35.1492 31.5926 35.7778 31.9448 36.3827 31.7788C37.1183 31.5693 37.8178 31.3518 38.4742 31.1224C39.1504 30.8891 39.783 30.6439 40.368 30.3987C42.57 29.4853 44.1438 28.5564 44.986 28.0149C45.4486 27.7182 45.6859 27.5364 45.6899 27.5324C45.998 27.2952 46.1561 26.9355 46.1402 26.5715C46.1284 26.3504 46.0535 26.129 45.9109 25.9389ZM80.6638 13.7183L80.6677 13.7143L79.4184 12.4848L77.584 10.6741L77.3546 10.4487L75.7892 8.90269L75.7931 8.89476L74.1164 7.23028C74.1164 7.23424 74.1128 7.24217 74.1088 7.24613L67.0988 0.327159C66.6519 -0.115699 65.9247 -0.107777 65.4858 0.343004C65.3986 0.434111 65.3277 0.528782 65.2762 0.635733C62.6389 5.05164 57.2224 11.176 50.4025 16.3552C49.3032 17.1934 48.1687 18.0039 47.0022 18.7791C46.4805 19.1229 45.9545 19.4588 45.4249 19.7872C45.0256 20.0363 44.6263 20.2776 44.223 20.5144C44.1042 20.5857 43.9858 20.657 43.863 20.72C43.0842 21.1748 42.2936 21.6057 41.495 22.009C41.3682 22.0763 41.2379 22.1437 41.1111 22.2067C40.3522 22.5865 39.5853 22.9502 38.8101 23.2861C37.8812 23.6933 36.94 24.0688 35.9953 24.4011C35.4693 24.5909 34.9396 24.7648 34.4096 24.9268C33.8127 25.1086 33.2157 25.275 32.6148 25.4251C32.5083 25.4528 32.4132 25.4924 32.3225 25.5475C31.8915 25.7927 31.6622 26.3029 31.7846 26.8048C31.9387 27.4136 32.5594 27.7856 33.1643 27.635C34.145 27.3902 35.1175 27.1015 36.0824 26.777C36.1573 26.7537 36.2326 26.7259 36.3074 26.6982C37.1615 26.4094 38.0115 26.0894 38.8537 25.7372C39.5021 25.4766 40.1426 25.1918 40.7792 24.8951C42.08 24.2942 43.3571 23.6303 44.6065 22.9185C45.6106 22.3532 46.595 21.7523 47.5599 21.1276C47.7615 21.0009 47.9592 20.8706 48.1529 20.7398C49.0382 20.1587 49.9041 19.5539 50.7502 18.9292H50.7542C51.0984 18.6761 51.4423 18.423 51.7782 18.1663C58.2701 13.2398 63.5523 7.44379 66.5097 2.95222L77.3863 13.6866L78.438 14.7224C77.473 16.3473 76.3703 17.9448 75.1526 19.5024C72.4638 22.9502 69.2061 26.2118 65.5923 29.1613C65.0865 29.5804 64.5684 29.9915 64.0467 30.3948C63.7698 30.6083 63.4929 30.8218 63.2125 31.0313C62.8762 31.2805 62.5363 31.5336 62.1964 31.7788C57.2937 35.3252 51.9247 38.2941 46.5395 40.4252C45.9228 40.6704 45.306 40.9077 44.6853 41.1291C43.5627 41.5324 42.4397 41.9 41.3207 42.2284C41.2339 42.2557 41.1468 42.2795 41.064 42.3032C40.4591 42.4811 40.1109 43.1097 40.2848 43.7146C40.4631 44.3199 41.0917 44.6676 41.6966 44.4898C42.1395 44.363 42.5819 44.2288 43.0248 44.0905C44.021 43.778 45.0216 43.4381 46.0178 43.0626C46.6861 42.8174 47.3504 42.5603 48.0182 42.2874C53.4387 40.0735 58.8278 37.0527 63.7421 33.4706C64.0229 33.265 64.3034 33.0595 64.5842 32.8499C64.9007 32.613 65.2128 32.3758 65.5214 32.1345C66.0431 31.7313 66.5612 31.3201 67.0671 30.901C72.1397 26.7497 76.5481 21.9971 79.7388 16.9641C80.1302 16.3433 80.5057 15.7226 80.8575 15.0979C81.1185 14.6357 81.0274 14.074 80.6638 13.7183ZM55.7397 31.6996C55.3761 31.1933 54.6647 31.0749 54.1545 31.4425C54.1465 31.4504 51.1574 33.6251 46.0812 35.8232C45.4724 36.0882 44.8279 36.3532 44.1597 36.6098C43.6455 36.8154 43.1119 37.0174 42.5621 37.2111C41.9731 37.4207 41.657 38.0687 41.8705 38.6621C42.0761 39.2551 42.7285 39.5633 43.3254 39.3577C43.6851 39.2313 44.0369 39.1006 44.3811 38.9663C45.0414 38.7172 45.6819 38.4645 46.2908 38.2074C52.0234 35.8073 55.4751 33.2967 55.487 33.2888C55.9968 32.9172 56.1117 32.2094 55.7397 31.6996Z" fill="#1C1E21"/>
<path d="M72.7074 43.8728C72.167 43.8728 71.6216 43.7678 71.0971 43.5539L70.9256 43.4838L60.7478 35.0279L62.2832 33.1796L72.1579 41.3844C72.7272 41.5607 73.3368 41.4525 73.8161 41.0818C74.3386 40.6769 74.598 40.0447 74.5105 39.3896L72.5358 22.9733L74.9209 22.6865L76.8935 39.0861C77.0951 40.5842 76.495 42.0467 75.2869 42.9815C74.5263 43.5702 73.624 43.8728 72.7074 43.8728Z" fill="#1C1E21"/>
<path d="M47.611 20.4708L39.6455 9.90481L39.5837 9.72973C39.0747 8.28945 39.3623 6.73509 40.3534 5.57249C41.3445 4.40949 42.8343 3.87988 44.3367 4.15399L60.6088 6.8967L60.2095 9.26588L43.9212 6.5204C43.2561 6.39958 42.6105 6.62814 42.1819 7.13121C41.7889 7.59189 41.6515 8.19557 41.8016 8.77311L49.5298 19.0242L47.611 20.4708Z" fill="#1C1E21"/>
<path d="M74.1465 14.4033L74.3219 14.2135L74.2241 14.1228C74.1215 14.0278 73.9876 13.9755 73.847 13.9755C73.7987 13.9755 73.7507 13.9818 73.7044 13.9941L74.1465 14.4033ZM74.7157 14.9305L74.8912 14.7412L74.5457 14.4207L74.3699 14.61L74.7157 14.9305ZM72.6535 15.2086C72.7581 15.1464 72.886 15.1139 73.0282 15.1139C73.0718 15.1139 73.1166 15.1171 73.1625 15.123C73.2552 15.1357 73.3503 15.161 73.4406 15.1971L73.9678 14.6279L73.4624 14.1601C73.462 14.1608 72.5664 15.1278 72.5664 15.1278L72.6535 15.2086ZM75.2397 15.4161L75.4152 15.226L75.115 14.9479L74.9395 15.1377L75.2397 15.4161ZM73.7698 15.3995C73.8585 15.4811 73.9258 15.5785 73.9714 15.6895C73.9789 15.7077 73.9856 15.7263 73.9916 15.7453L74.5374 15.1555L74.1912 14.835L73.7131 15.3516C73.7329 15.367 73.7519 15.3829 73.7698 15.3995ZM75.8953 16.023C75.9294 15.8392 75.868 15.6455 75.7262 15.514L75.639 15.4332L75.4632 15.6229L75.8953 16.023ZM74.2364 15.9299C74.3461 15.9663 74.4455 16.0254 74.5315 16.105C74.5493 16.1216 74.5667 16.1391 74.5834 16.1573L75.0611 15.6411L74.7608 15.3631L74.2364 15.9299ZM71.8688 16.8948L72.4689 16.2464C72.4289 16.1608 72.3984 16.0697 72.3806 15.9802C72.3505 15.8297 72.3548 15.6839 72.3932 15.5603C72.402 15.5286 72.4119 15.5005 72.423 15.4744L72.3271 15.3856L71.3978 16.3894C71.3859 16.4021 71.3748 16.4151 71.3649 16.4278L71.8688 16.8948ZM73.3538 16.4619C73.393 16.4619 73.4287 16.4754 73.4568 16.5015L73.4659 16.5098L73.4822 16.5336C73.4984 16.557 73.5071 16.5918 73.5028 16.6263C73.502 16.6393 73.5012 16.6536 73.502 16.6675C73.5028 16.7285 73.5143 16.7871 73.5356 16.8426C73.5642 16.9166 73.6097 16.9836 73.668 17.0367C73.7064 17.0727 73.7527 17.1052 73.8066 17.1341L73.849 17.1551C73.9425 17.1967 74.0264 17.2193 74.1088 17.2296C74.137 17.2327 74.1647 17.2343 74.1916 17.2343C74.2415 17.2343 74.2887 17.2284 74.3318 17.2169C74.3968 17.1999 74.4487 17.1701 74.4863 17.1297C74.5097 17.1048 74.5279 17.0751 74.5414 17.0414C74.545 17.0303 74.5497 17.0117 74.5537 16.9915C74.5659 16.9249 74.5644 16.8473 74.5493 16.7665C74.5339 16.6869 74.5045 16.6057 74.4645 16.5312L74.4265 16.4674C74.3956 16.4195 74.3612 16.3779 74.3235 16.3431C74.2641 16.2884 74.196 16.2492 74.1203 16.227C74.0716 16.2123 74.0225 16.2052 73.9734 16.2052L73.8731 16.2127C73.8367 16.2127 73.8003 16.1985 73.7737 16.1743L73.7654 16.1668L73.7484 16.1434C73.7309 16.1153 73.7234 16.0824 73.7278 16.0487C73.7325 15.979 73.721 15.9022 73.6941 15.8321C73.666 15.7584 73.6216 15.693 73.5626 15.6384C73.5214 15.5999 73.4715 15.5655 73.4148 15.5346L73.3721 15.5144C73.2825 15.4736 73.1978 15.449 73.117 15.4383C73.0837 15.4344 73.0516 15.432 73.0199 15.432C72.9728 15.432 72.9292 15.4367 72.8904 15.4466C72.8258 15.4629 72.7747 15.4914 72.7375 15.5318C72.7129 15.558 72.6939 15.59 72.6804 15.6277C72.6773 15.6399 72.6737 15.655 72.6709 15.6697C72.659 15.7374 72.6614 15.817 72.6781 15.9006C72.6955 15.9893 72.7288 16.0784 72.7743 16.1585L72.7985 16.1993C72.8317 16.2516 72.8678 16.2963 72.907 16.3324C72.9664 16.3874 73.0346 16.4262 73.1098 16.4488C73.157 16.4627 73.2057 16.4698 73.254 16.4698C73.2802 16.4698 73.3063 16.4678 73.332 16.4635L73.3538 16.4619ZM71.2516 16.6952C71.2398 16.8612 71.3031 17.0279 71.4283 17.144L71.5261 17.2343L71.6684 17.081L71.2516 16.6952ZM74.8828 17.2739C74.8828 17.2739 75.7789 16.3066 75.7793 16.3062L75.2849 15.8479L74.7569 16.4187C74.7981 16.5051 74.8286 16.5974 74.8464 16.6889C74.8777 16.8497 74.8686 17.0034 74.8203 17.1345C74.8127 17.1555 74.8052 17.1753 74.7969 17.1939L74.8828 17.2739ZM72.4384 17.4221L73.0496 16.7621C73.0338 16.7578 73.0179 16.7534 73.0021 16.7483C72.8904 16.7126 72.7882 16.6528 72.6991 16.5704C72.6788 16.5514 72.6594 16.5312 72.6404 16.5098L72.0922 17.1016L72.4384 17.4221ZM72.0958 17.7619L72.238 17.6086L71.8922 17.2878L71.7496 17.4415L72.0958 17.7619ZM72.9621 17.9077L73.5091 17.3167C73.4925 17.3036 73.4762 17.2902 73.4612 17.2763C73.3713 17.1931 73.3031 17.0945 73.2584 16.9852L72.6618 17.6296L72.9621 17.9077ZM72.6198 18.2472L72.7616 18.0935L72.4614 17.8154L72.3192 17.9691L72.6198 18.2472ZM73.6783 18.5708C73.6909 18.5593 73.7032 18.5478 73.7143 18.5356L74.644 17.5314L74.5628 17.4565C74.4562 17.5191 74.3263 17.552 74.1825 17.552C74.1445 17.552 74.1057 17.5496 74.066 17.5453C73.9698 17.5338 73.8723 17.5088 73.7804 17.4724L73.1859 18.1145L73.6783 18.5708ZM72.9304 18.5356C73.0326 18.6302 73.1657 18.6821 73.3055 18.6821C73.334 18.6821 73.3625 18.6801 73.3903 18.6758L72.9854 18.3007L72.8432 18.4548L72.9304 18.5356ZM73.3281 18.9935C73.1213 18.9935 72.924 18.9162 72.7723 18.7756L71.2461 17.3623C70.9145 17.0545 70.8943 16.5352 71.2013 16.204L73.2988 13.9394C73.4533 13.7727 73.6719 13.6772 73.8997 13.6772C74.1072 13.6772 74.3053 13.7548 74.457 13.8958L75.9833 15.3092C76.1437 15.4573 76.2364 15.6598 76.2443 15.8788C76.2526 16.0971 76.1754 16.3062 76.0268 16.4662L73.9294 18.7308C73.7749 18.8976 73.5555 18.9935 73.3281 18.9935Z" fill="#1C1E21"/>
<path d="M74.434 14.2092L74.2779 14.0646C74.0814 13.8828 73.7931 13.8456 73.5574 13.9656L74.1507 14.515L74.434 14.2092ZM71.7804 17.0767L71.2017 16.5408C71.126 16.7741 71.1918 17.0327 71.3744 17.2019L71.5304 17.3465L71.7804 17.0767ZM72.5643 16.2599C72.5148 16.1668 72.4783 16.0654 72.4585 15.9648C72.4308 15.8266 72.4344 15.6951 72.4688 15.5838V15.5814L72.472 15.5738C72.4835 15.5319 72.4997 15.4922 72.5195 15.4562L72.3231 15.274L71.3395 16.3356C71.3078 16.3696 71.2817 16.4045 71.2611 16.4398L71.8727 17.0066L72.5643 16.2599ZM74.0794 14.624L73.4615 14.0516C73.4413 14.069 73.4215 14.0876 73.4029 14.1078L72.4542 15.1322L72.6455 15.3092C72.7723 15.2126 72.9501 15.1746 73.1521 15.2019C73.2555 15.2154 73.3617 15.2467 73.4607 15.2918L74.0794 14.624ZM75.0032 14.7365L74.5413 14.3087L74.2581 14.6145L74.72 15.0427L75.0032 14.7365ZM72.35 17.6039L71.8877 17.1761L71.6378 17.4459L72.1 17.8741L72.35 17.6039ZM73.2084 16.7071C73.147 16.7036 73.086 16.6921 73.027 16.6731C72.9252 16.6406 72.8333 16.5863 72.7528 16.5122C72.714 16.4758 72.6776 16.4346 72.6443 16.3891L71.98 17.106L72.4423 17.5342L73.2084 16.7071ZM74.6491 15.1516L74.1868 14.7234L73.5934 15.3639C73.6382 15.3924 73.6794 15.4241 73.7166 15.4578C73.7962 15.5319 73.8572 15.6198 73.898 15.7192C73.9226 15.7802 73.9392 15.8448 73.9467 15.9098L74.6491 15.1516ZM75.5272 15.2217L75.1105 14.8359L74.8273 15.1421L75.244 15.5279L75.5272 15.2217ZM72.8737 18.0896L72.4573 17.7038L72.2074 17.9735L72.6237 18.3593L72.8737 18.0896ZM73.6279 17.3049C73.5863 17.2779 73.5483 17.2486 73.5142 17.2173C73.4005 17.112 73.3244 16.9773 73.2939 16.8299L72.5496 17.6337L72.9664 18.0195L73.6279 17.3049ZM75.1731 15.6368L74.7564 15.251L74.0858 15.9751C74.1258 15.9811 74.165 15.9902 74.2034 16.0024C74.306 16.0353 74.3983 16.0892 74.4775 16.1629C74.514 16.1969 74.5484 16.2354 74.5797 16.2774L75.1731 15.6368ZM73.4239 16.6168C73.4223 16.6366 73.4219 16.6541 73.4227 16.6711C73.4235 16.7396 73.4365 16.8066 73.4615 16.8711C73.494 16.9555 73.5467 17.0331 73.614 17.0953C73.6576 17.1357 73.7099 17.1722 73.7689 17.2039C73.7835 17.2118 73.799 17.2193 73.816 17.2268C73.822 17.23 73.8263 17.232 73.8307 17.234L73.8342 17.2356C73.9174 17.272 74.0089 17.297 74.0992 17.308C74.1911 17.3187 74.2767 17.314 74.3528 17.2934C74.4316 17.2724 74.4962 17.2356 74.5445 17.1833C74.5742 17.1512 74.598 17.1132 74.615 17.0704C74.6209 17.0529 74.6265 17.0304 74.6312 17.0062C74.6455 16.9302 74.6443 16.8422 74.6269 16.7519C74.6098 16.664 74.5778 16.5744 74.5342 16.494C74.5294 16.4849 74.5251 16.4766 74.5199 16.4679C74.5116 16.4532 74.5021 16.4382 74.4926 16.4239C74.4581 16.3708 74.4193 16.3241 74.3773 16.2853C74.3092 16.2223 74.2304 16.1767 74.1428 16.151C74.0723 16.13 74.0002 16.1221 73.9273 16.128C73.9123 16.1288 73.8988 16.13 73.8853 16.1324C73.8647 16.1363 73.843 16.13 73.8271 16.1157C73.8228 16.1118 73.8192 16.107 73.816 16.1019C73.8077 16.0888 73.8041 16.0737 73.8061 16.0587C73.8121 15.9727 73.799 15.8848 73.7681 15.804C73.7352 15.7184 73.6841 15.6432 73.616 15.5802C73.57 15.5374 73.515 15.4986 73.4524 15.4653C73.4365 15.457 73.4211 15.4495 73.4049 15.4419L73.3946 15.4372C73.3082 15.3984 73.2155 15.3714 73.1272 15.3599C73.0353 15.3473 72.9466 15.3508 72.8705 15.3698C72.7913 15.3897 72.7271 15.4261 72.6792 15.4776L72.6784 15.4784C72.6475 15.5117 72.6229 15.5529 72.6059 15.6008L72.6055 15.602C72.5999 15.621 72.596 15.6384 72.5928 15.6558C72.5794 15.7335 72.5817 15.8234 72.6003 15.9161C72.6198 16.0127 72.6558 16.1102 72.7049 16.1973C72.7148 16.2152 72.7231 16.2294 72.7319 16.2421C72.7683 16.3003 72.8091 16.3498 72.8531 16.3902C72.9212 16.4536 73 16.4988 73.0872 16.5245C73.1708 16.5495 73.2595 16.5554 73.3446 16.542L73.3474 16.5416L73.3502 16.5412C73.3712 16.5404 73.389 16.5467 73.4033 16.5602C73.406 16.5626 73.41 16.5669 73.4136 16.5725C73.4223 16.5855 73.4259 16.6014 73.4239 16.6168ZM72.8764 18.5934C73.0587 18.7622 73.3209 18.807 73.5475 18.7135L72.981 18.189L72.7311 18.4588L72.8764 18.5934ZM75.9341 16.1668C76.0371 15.924 75.9776 15.6392 75.78 15.4558L75.6346 15.3215L75.3514 15.6273L75.9341 16.1668ZM73.6742 18.675C73.7107 18.6489 73.7439 18.6204 73.7725 18.5891L74.756 17.5275L74.571 17.356C74.4455 17.4503 74.2716 17.4895 74.0751 17.4665C73.9681 17.4538 73.86 17.4233 73.7602 17.3774L73.0737 18.1189L73.6742 18.675ZM75.8358 16.3613C75.8533 16.3431 75.8699 16.3221 75.8869 16.298L75.2805 15.7363L74.6609 16.4049C74.7116 16.4992 74.7489 16.6018 74.7687 16.7036C74.7972 16.8505 74.7893 16.9896 74.7457 17.1064C74.7449 17.1088 74.7441 17.1124 74.7425 17.1159C74.7315 17.1488 74.7168 17.1813 74.699 17.2114L74.8871 17.3857L75.8358 16.3613ZM73.8711 18.677C73.5938 18.9765 73.1252 18.9947 72.8261 18.7178L71.2999 17.3041C71 17.0264 70.9818 16.557 71.2591 16.2579L73.3569 13.9929C73.6342 13.6939 74.1036 13.6761 74.4031 13.9537L75.9293 15.3675C76.2284 15.6444 76.2462 16.113 75.9689 16.4124L73.8711 18.677Z" fill="#1C1E21"/>
<path d="M74.149 14.4694L74.3883 14.2111L74.256 14.0883C74.1447 13.9853 74.0001 13.9291 73.8476 13.9291C73.7672 13.9291 73.6884 13.9449 73.6151 13.975L74.149 14.4694ZM74.7183 14.9966L74.9575 14.7383L74.5432 14.3545L74.3043 14.6128L74.7183 14.9966ZM72.6482 15.2676C72.7504 15.1974 72.8803 15.1606 73.028 15.1606C73.0704 15.1606 73.1132 15.1638 73.1564 15.1697C73.2554 15.1828 73.3568 15.2109 73.4531 15.2529L74.0338 14.6258L73.4614 14.0954C73.4495 14.1061 73.438 14.1176 73.4269 14.1299L72.5004 15.1305L72.6482 15.2676ZM75.2423 15.4823L75.4812 15.2236L75.1128 14.8817L74.8735 15.14L75.2423 15.4823ZM73.6436 15.3579C73.6777 15.3816 73.7093 15.407 73.7387 15.4339C73.8222 15.5116 73.886 15.6031 73.928 15.7072C73.9454 15.7492 73.9589 15.794 73.968 15.8388L74.6034 15.1535L74.189 14.7692L73.6436 15.3579ZM75.9209 16.1105C75.9942 15.8903 75.9339 15.6427 75.7581 15.4799L75.6365 15.3674L75.3972 15.6256L75.9209 16.1105ZM74.2136 15.9715C74.3206 16.0059 74.4168 16.0622 74.5 16.1394C74.5285 16.1659 74.5559 16.1953 74.582 16.227L75.1274 15.6383L74.7587 15.2969L74.1498 15.954C74.1712 15.9588 74.1926 15.9647 74.2136 15.9715ZM71.8714 16.9606L72.525 16.2547C72.4794 16.164 72.4457 16.0673 72.4267 15.9711C72.3974 15.8241 72.4022 15.6839 72.4406 15.5658C72.4505 15.5298 72.464 15.4953 72.4794 15.4632L72.3249 15.3194L71.3635 16.3577C71.3402 16.3826 71.32 16.4084 71.3025 16.4341L71.8714 16.9606ZM73.3865 16.5086L73.4265 16.5371L73.4554 16.6262C73.4554 16.635 73.4546 16.652 73.4554 16.6694C73.4562 16.736 73.4685 16.7989 73.4919 16.8588C73.5232 16.9404 73.5715 17.0121 73.6361 17.0715C73.6785 17.1103 73.7284 17.1451 73.7842 17.1749C73.8001 17.184 73.8147 17.1907 73.8294 17.1978C73.9276 17.241 74.0167 17.2652 74.1035 17.2759C74.1324 17.279 74.1621 17.281 74.191 17.281C74.2465 17.281 74.2976 17.2747 74.3443 17.262C74.4172 17.243 74.4766 17.2089 74.521 17.1614C74.5475 17.1325 74.5693 17.098 74.5848 17.058C74.5903 17.0418 74.5955 17.0212 74.5994 17.0002C74.6129 16.9281 74.6113 16.8441 74.5951 16.7577C74.5784 16.673 74.5475 16.587 74.5055 16.509L74.4659 16.442C74.4327 16.3913 74.3958 16.3462 74.3554 16.3089C74.2905 16.2491 74.216 16.2067 74.1336 16.1818C74.0817 16.1663 74.0282 16.1588 73.9744 16.1588L73.8729 16.1659H73.8413L73.8044 16.1386L73.7886 16.1133L73.7747 16.0511C73.7795 15.9766 73.7672 15.8926 73.7379 15.8154C73.707 15.735 73.6586 15.6637 73.5941 15.6039C73.5501 15.5635 73.4974 15.5262 73.4372 15.4941L73.3917 15.4716C73.2974 15.4292 73.2079 15.403 73.1231 15.3919C73.0882 15.3872 73.0542 15.3848 73.0205 15.3848C72.9698 15.3848 72.9223 15.3904 72.8787 15.4014C72.8058 15.4193 72.7464 15.4525 72.7032 15.4997C72.6743 15.5306 72.6525 15.5678 72.6367 15.6118C72.6319 15.628 72.628 15.6447 72.6248 15.6617C72.6121 15.735 72.6145 15.8205 72.6323 15.9097C72.6509 16.0031 72.6858 16.097 72.7337 16.1814C72.742 16.1964 72.75 16.2107 72.7587 16.2238C72.7943 16.28 72.8331 16.3276 72.8755 16.3668C72.9397 16.4262 73.0142 16.469 73.0966 16.4927C73.1484 16.5086 73.2011 16.5165 73.2546 16.5165C73.2831 16.5165 73.3116 16.5141 73.3398 16.5098L73.3548 16.5086H73.3865ZM71.219 16.6009C71.171 16.8081 71.236 17.0295 71.3968 17.1784L71.5287 17.3004L71.7343 17.0782L71.219 16.6009ZM74.8854 17.34L75.8123 16.3394C75.8234 16.3272 75.8337 16.3145 75.8436 16.3018L75.2823 15.7817L74.7008 16.41C74.7476 16.5015 74.7816 16.5997 74.8007 16.6975C74.8304 16.8504 74.822 16.9954 74.7765 17.1182C74.7658 17.1495 74.7535 17.178 74.7396 17.205L74.8854 17.34ZM72.441 17.4882L73.1405 16.7328C73.0985 16.7265 73.0573 16.7173 73.0169 16.7043C72.9104 16.6698 72.8141 16.6128 72.7309 16.5359C72.6996 16.507 72.6699 16.4745 72.6422 16.4393L72.0263 17.104L72.441 17.4882ZM72.0983 17.8281L72.3039 17.6058L71.8896 17.2216L71.6836 17.4442L72.0983 17.8281ZM72.9647 17.9738L73.5786 17.3107C73.5477 17.2889 73.5192 17.2656 73.4923 17.241C73.3893 17.1459 73.3156 17.0267 73.2772 16.8964L72.5959 17.6316L72.9647 17.9738ZM72.6224 18.3133L72.828 18.0915L72.4588 17.7492L72.2532 17.9718L72.6224 18.3133ZM73.6765 18.633C73.703 18.6124 73.7276 18.5902 73.749 18.5668L74.7103 17.5294L74.5685 17.3979C74.4643 17.4684 74.3324 17.5056 74.1827 17.5056C74.1463 17.5056 74.1086 17.5032 74.0714 17.4985C73.9688 17.4866 73.865 17.4585 73.7684 17.4165L73.1195 18.1172L73.6765 18.633ZM72.8985 18.5696C73.0098 18.6718 73.154 18.7288 73.3057 18.7288C73.3671 18.7288 73.4281 18.7193 73.4863 18.7011L72.9829 18.2349L72.7773 18.4567L72.8985 18.5696ZM73.3279 18.9471C73.133 18.9471 72.9468 18.8738 72.8042 18.7415L71.278 17.3278C70.9651 17.0378 70.946 16.5482 71.2356 16.2357L73.333 13.9711C73.4788 13.8138 73.6856 13.7235 73.8999 13.7235C74.0952 13.7235 74.2817 13.7968 74.4255 13.9299L75.9518 15.3436C76.2639 15.6328 76.2821 16.1224 75.9926 16.4345L73.8951 18.6991C73.7494 18.8564 73.5426 18.9471 73.3279 18.9471Z" fill="#1C1E21"/>
<path d="M74.6233 17.24L74.8617 17.461L74.8795 17.442L74.6387 17.219C74.634 17.2261 74.6288 17.2333 74.6233 17.24ZM74.6233 17.24L74.8617 17.461L74.8795 17.442L74.6387 17.219C74.634 17.2261 74.6288 17.2333 74.6233 17.24ZM74.6233 17.24L74.8617 17.461L74.8795 17.442L74.6387 17.219C74.634 17.2261 74.6288 17.2333 74.6233 17.24ZM74.6233 17.24L74.8617 17.461L74.8795 17.442L74.6387 17.219C74.634 17.2261 74.6288 17.2333 74.6233 17.24ZM74.6233 17.24L74.8617 17.461L74.8795 17.442L74.6387 17.219C74.634 17.2261 74.6288 17.2333 74.6233 17.24ZM74.6233 17.24L74.8617 17.461L74.8795 17.442L74.6387 17.219C74.634 17.2261 74.6288 17.2333 74.6233 17.24ZM74.6233 17.24L74.8617 17.461L74.8795 17.442L74.6387 17.219C74.634 17.2261 74.6288 17.2333 74.6233 17.24ZM74.5001 14.2065L74.1531 14.5813L73.4789 13.9566C73.7344 13.7938 74.0778 13.8156 74.3099 14.0303L74.5001 14.2065ZM75.0693 14.7342L74.7227 15.1085L74.1919 14.6169L74.5389 14.2426L75.0693 14.7342ZM75.5933 15.2194L75.2463 15.5937L74.7615 15.1445L75.1081 14.7698L75.5933 15.2194ZM75.8116 15.4214C76.0449 15.6377 76.0929 15.9784 75.9487 16.2442L75.2852 15.6298L75.6322 15.2551L75.8116 15.4214ZM74.1455 14.6213L73.4717 15.3485C73.3703 15.2982 73.2578 15.263 73.1457 15.2479C72.9576 15.2226 72.7714 15.2551 72.6439 15.3715L72.3884 15.1346L73.3688 14.0762C73.3985 14.0437 73.4306 14.0148 73.4638 13.9895L74.1455 14.6213ZM74.7152 15.1489L73.9099 16.0184C73.9083 16.0184 73.9063 16.0188 73.9043 16.0188C73.9083 15.9237 73.8916 15.8271 73.8548 15.7367C73.818 15.6468 73.7617 15.5632 73.6849 15.4923C73.6373 15.4484 73.5815 15.4084 73.5201 15.3743L74.1844 14.6573L74.7152 15.1489ZM75.2392 15.6341L74.5749 16.3515C74.5369 16.2937 74.4933 16.2414 74.4462 16.197C74.3697 16.1265 74.2818 16.0766 74.1891 16.0469C74.1234 16.0255 74.0544 16.0148 73.9859 16.0144L74.754 15.185L75.2392 15.6341ZM75.9479 16.2905C75.9257 16.3258 75.9003 16.361 75.8702 16.3931L73.8069 18.6209C73.7653 18.666 73.7181 18.7033 73.6694 18.7342L73.0079 18.1214L73.7494 17.3204C73.852 17.3719 73.9669 17.4068 74.0806 17.4202C74.2648 17.4416 74.4466 17.4072 74.573 17.2939L74.8118 17.5149L74.8284 17.4971L74.5908 17.2768C74.5939 17.2737 74.5975 17.2701 74.6011 17.2665C74.6086 17.2578 74.6161 17.2491 74.6233 17.24L74.8617 17.461L74.8795 17.442L74.6387 17.219C74.6645 17.1822 74.6847 17.1418 74.6989 17.099C74.7001 17.0962 74.7013 17.093 74.7021 17.0903C74.7449 16.9758 74.7484 16.8435 74.7231 16.7124C74.7017 16.6031 74.6601 16.4945 74.6038 16.3979L75.278 15.6702L75.9479 16.2905ZM71.8465 17.074L71.5328 17.4123L71.3426 17.236C71.1232 17.0328 71.0677 16.7187 71.183 16.4597L71.8465 17.074ZM72.4161 17.6017L72.1024 17.9399L71.5716 17.4484L71.8853 17.1101L72.4161 17.6017ZM72.9398 18.0869L72.6264 18.4252L72.1412 17.976L72.4549 17.6373L72.9398 18.0869ZM73.6298 18.7258C73.3806 18.8609 73.0634 18.8296 72.8447 18.6276L72.6653 18.4612L72.9786 18.1229L73.6298 18.7258ZM72.4838 17.6361L73.3268 16.7258C73.3375 16.8934 73.4115 17.0582 73.5458 17.1826C73.5914 17.2246 73.6441 17.2622 73.7011 17.2947L72.9687 18.0853L72.4838 17.6361ZM71.9142 17.1085L72.6498 16.3143C72.6898 16.3761 72.7354 16.4315 72.7849 16.4779C72.8609 16.5484 72.9489 16.5991 73.0412 16.6284C73.1311 16.6577 73.2254 16.6672 73.3181 16.6573L72.445 17.6001L71.9142 17.1085ZM71.2028 16.4494C71.2285 16.3971 71.2638 16.3487 71.3054 16.3036L72.3206 15.2075L72.5793 15.4476C72.5512 15.4904 72.5306 15.5379 72.5163 15.5886C72.5159 15.589 72.5159 15.5894 72.5159 15.5898C72.4795 15.7015 72.4791 15.829 72.5044 15.9558C72.5258 16.0639 72.5666 16.1713 72.6213 16.2671L71.8754 17.0724L71.2028 16.4494ZM74.5789 17.2151C74.5226 17.2757 74.4486 17.3165 74.3646 17.3386C74.2814 17.3608 74.1883 17.3652 74.0937 17.3545C73.9986 17.343 73.9027 17.3165 73.8152 17.278C73.8088 17.2753 73.8029 17.2725 73.7966 17.2693C73.7795 17.2618 73.7629 17.2535 73.747 17.2448C73.6857 17.2123 73.6298 17.1735 73.5823 17.1295C73.5074 17.0602 73.4523 16.977 73.4183 16.8879C73.3913 16.8185 73.3771 16.7453 73.3759 16.6728C73.3751 16.6522 73.3759 16.6316 73.3775 16.6114C73.3787 16.6062 73.3767 16.6007 73.3739 16.5971C73.3731 16.5959 73.3723 16.5951 73.3715 16.5943C73.3664 16.5892 73.36 16.5876 73.3521 16.588C73.2606 16.6027 73.1652 16.5967 73.074 16.5694C72.9833 16.5424 72.8966 16.4941 72.8213 16.4248C72.7742 16.3808 72.7306 16.3274 72.6926 16.2679C72.6827 16.2525 72.6736 16.2366 72.6645 16.2204C72.6134 16.1297 72.5749 16.0275 72.5547 15.9253C72.5353 15.829 72.5318 15.734 72.5468 15.648C72.5504 15.627 72.5555 15.6068 72.5615 15.5866C72.5615 15.5862 72.5615 15.5854 72.5619 15.585C72.5809 15.5331 72.6078 15.486 72.6443 15.4464L72.6451 15.446C72.7013 15.385 72.775 15.3458 72.8594 15.3244C72.9433 15.3034 73.0376 15.3002 73.1335 15.3133C73.2289 15.326 73.3252 15.3545 73.4139 15.3945C73.4175 15.3961 73.4214 15.3977 73.425 15.3996C73.4416 15.4076 73.4583 15.4155 73.4745 15.4242C73.5395 15.4587 73.5985 15.4999 73.648 15.5458C73.7233 15.6155 73.7775 15.6983 73.8116 15.7871C73.8457 15.8758 73.8595 15.9705 73.8528 16.0639C73.852 16.0687 73.8532 16.0734 73.8556 16.077C73.8568 16.0786 73.858 16.0802 73.8588 16.0814C73.8631 16.0849 73.8702 16.0877 73.8766 16.0861C73.8924 16.0837 73.9079 16.0822 73.9241 16.081C74.0014 16.075 74.0802 16.0833 74.1562 16.1059C74.2473 16.1333 74.3341 16.1812 74.409 16.2509C74.4545 16.2925 74.4957 16.3424 74.5318 16.3979C74.5417 16.4133 74.5516 16.4288 74.5607 16.4446C74.5658 16.4537 74.571 16.4624 74.5757 16.4715C74.6213 16.5563 74.6546 16.6494 74.6728 16.7429C74.6906 16.8364 74.6934 16.9298 74.6771 17.015C74.6724 17.04 74.6664 17.0641 74.6585 17.0875C74.6399 17.1346 74.6134 17.1778 74.5789 17.2151ZM73.3913 14.0247L71.2935 16.2893C71.0337 16.5702 71.0503 17.0091 71.3319 17.2697L72.8582 18.6835C73.1382 18.9429 73.5767 18.9259 73.837 18.6454L75.9348 16.3804C76.1947 16.0996 76.178 15.6611 75.898 15.4016L74.3717 13.9879C74.0901 13.7272 73.6512 13.7439 73.3913 14.0247ZM74.6233 17.24L74.8617 17.461L74.8795 17.442L74.6387 17.219C74.634 17.2261 74.6288 17.2333 74.6233 17.24ZM74.6233 17.24L74.8617 17.461L74.8795 17.442L74.6387 17.219C74.634 17.2261 74.6288 17.2333 74.6233 17.24ZM74.6233 17.24L74.8617 17.461L74.8795 17.442L74.6387 17.219C74.634 17.2261 74.6288 17.2333 74.6233 17.24ZM74.6233 17.24L74.8617 17.461L74.8795 17.442L74.6387 17.219C74.634 17.2261 74.6288 17.2333 74.6233 17.24ZM74.6233 17.24L74.8617 17.461L74.8795 17.442L74.6387 17.219C74.634 17.2261 74.6288 17.2333 74.6233 17.24ZM74.6233 17.24L74.8617 17.461L74.8795 17.442L74.6387 17.219C74.634 17.2261 74.6288 17.2333 74.6233 17.24ZM74.6233 17.24L74.8617 17.461L74.8795 17.442L74.6387 17.219C74.634 17.2261 74.6288 17.2333 74.6233 17.24ZM74.6233 17.24L74.8617 17.461L74.8795 17.442L74.6387 17.219C74.634 17.2261 74.6288 17.2333 74.6233 17.24Z" fill="#1C1E21"/>
<path d="M71.0154 19.1768C71.3117 19.542 71.4983 19.9584 71.5906 20.4175C71.6045 20.4872 71.6294 20.562 71.5581 20.6219C71.4733 20.6932 71.3454 20.6627 71.3133 20.5565C71.2824 20.4547 71.2658 20.3489 71.2333 20.2483C70.9897 19.4902 70.506 18.9463 69.7764 18.6235C69.7372 18.606 69.6983 18.5874 69.6607 18.5668C69.5973 18.532 69.57 18.4583 69.5942 18.3921C69.6199 18.3196 69.6968 18.2717 69.7685 18.2931C69.8386 18.3141 69.9067 18.3426 69.9732 18.3731C70.3452 18.5458 70.6728 18.7779 70.937 19.0948C70.9612 19.1237 70.9893 19.1495 71.0154 19.1768Z" fill="#1C1E21"/>
<path d="M70.4939 19.5651C70.5117 19.5865 70.5288 19.6083 70.5446 19.6297C70.5529 19.6396 70.5601 19.6495 70.5672 19.6594C70.5692 19.6614 70.5712 19.6638 70.572 19.6657C70.5878 19.6871 70.6021 19.7081 70.6167 19.7287C70.7684 19.9513 70.8758 20.1957 70.9411 20.4599C70.9566 20.5213 70.9657 20.5843 70.9677 20.6473C70.9693 20.7281 70.915 20.7863 70.8429 20.7955C70.7672 20.8054 70.7007 20.7602 70.6757 20.6849C70.6124 20.4936 70.5656 20.2944 70.4797 20.1133C70.2931 19.7204 69.9881 19.4384 69.5939 19.253C69.5417 19.2284 69.4882 19.2043 69.4371 19.1777C69.3436 19.1294 69.3135 19.0601 69.3476 18.9828C69.3785 18.9155 69.4387 18.8775 69.5084 18.8897H69.5104C69.5254 18.8925 69.5409 18.8973 69.5559 18.9044C69.5607 18.9064 69.565 18.9084 69.5694 18.9103C69.5714 18.9115 69.5733 18.9127 69.5757 18.9135C69.7342 18.9872 69.8974 19.0565 70.04 19.1551C70.1584 19.2371 70.2666 19.335 70.3747 19.4324C70.4151 19.4736 70.4547 19.518 70.4939 19.5651Z" fill="#1C1E21"/>
<path d="M69.9953 19.9887C70.187 20.1987 70.2876 20.4577 70.3367 20.7398C70.3482 20.8063 70.3395 20.8689 70.2793 20.9093C70.2242 20.9458 70.1585 20.9525 70.1082 20.9109C70.0733 20.882 70.0527 20.8313 70.0349 20.7865C69.9763 20.636 69.9359 20.4772 69.8626 20.3345C69.7418 20.0989 69.539 19.9436 69.3009 19.8327C69.2506 19.8089 69.1999 19.7859 69.152 19.7578C69.0842 19.7178 69.0644 19.6556 69.091 19.5827C69.1115 19.5249 69.1836 19.477 69.2474 19.4865C69.2894 19.4924 69.3314 19.5059 69.371 19.5221C69.617 19.6227 69.8281 19.7713 69.9953 19.9887Z" fill="#1C1E21"/>
<path d="M69.5364 20.3849C69.6382 20.5022 69.7067 20.6551 69.7285 20.8278C69.7341 20.8741 69.7317 20.9248 69.7202 20.97C69.7044 21.0326 69.6564 21.0678 69.5907 21.0666C69.5269 21.0654 69.4703 21.0452 69.4449 20.9783C69.4362 20.9549 69.4291 20.93 69.4255 20.9054C69.3867 20.6269 69.2338 20.4463 68.9672 20.3568C68.8539 20.3191 68.8143 20.2344 68.8567 20.1409C68.8872 20.0724 68.9414 20.0427 69.0254 20.0597C69.2294 20.1009 69.3934 20.2094 69.5364 20.3849Z" fill="#1C1E21"/>
</svg>
