<svg width="176" height="24" viewBox="0 0 176 24" fill="none" xmlns="http://www.w3.org/2000/svg">
<path d="M63.5398 23.1896L55.2757 1.12204C55.2457 1.03197 55.1555 0.941895 55.0353 0.941895H49.536C49.4158 0.941895 49.3256 1.00194 49.2956 1.09201L40.9414 23.1596C40.8813 23.3398 41.0015 23.4899 41.1818 23.4899H45.9599C46.0801 23.4899 46.1703 23.4298 46.2003 23.3097L47.7029 19.0764C47.7329 18.9863 47.8231 18.8962 47.9433 18.8962H56.3576C56.4778 18.8962 56.5679 18.9563 56.598 19.0764L58.1005 23.3097C58.1306 23.3998 58.2207 23.4899 58.3409 23.4899H63.2994C63.4797 23.5499 63.5999 23.3698 63.5398 23.1896ZM54.7348 14.3626H49.5961C49.5059 14.3626 49.4458 14.2725 49.4759 14.1825L52.0903 6.88664C52.1204 6.76654 52.3007 6.76654 52.3307 6.88664L54.8851 14.1825C54.8851 14.2725 54.825 14.3626 54.7348 14.3626Z" fill="#080808"/>
<path d="M67.5064 0.0410156C69.0991 0.0410156 70.3913 1.30202 70.3913 2.86327C70.3913 4.42451 69.0991 5.68552 67.5064 5.68552C65.9738 5.68552 64.6816 4.42451 64.6816 2.86327C64.6816 1.30202 65.9738 0.0410156 67.5064 0.0410156Z" fill="#080808"/>
<path d="M65.1025 23.2799V7.96773C65.1025 7.81761 65.2227 7.72754 65.373 7.72754H69.7304C69.8806 7.72754 70.0008 7.84763 70.0008 7.96773V23.2799C70.0008 23.4301 69.8806 23.5201 69.7304 23.5201H65.373C65.2227 23.5502 65.1025 23.4301 65.1025 23.2799Z" fill="#080808"/>
<path d="M82.502 12.1708C82.502 12.3209 82.3517 12.441 82.2015 12.411C81.7807 12.3209 81.36 12.3209 80.9694 12.3209C79.016 12.3209 77.243 13.4618 77.243 16.6144V23.2797C77.243 23.4298 77.1228 23.5199 76.9726 23.5199H72.6152C72.4649 23.5199 72.3447 23.3998 72.3447 23.2797V7.96746C72.3447 7.81734 72.4649 7.72727 72.6152 7.72727H76.8223C76.9726 7.72727 77.0928 7.84736 77.0928 7.96746V9.85897C77.9342 8.08756 79.9476 7.57715 81.2398 7.57715C81.6305 7.57715 82.0211 7.60717 82.3217 7.69724C82.4419 7.72727 82.532 7.81734 82.532 7.93744V12.1708H82.502Z" fill="#080808"/>
<path d="M99.8114 7.87741L102.726 16.7044C102.756 16.8245 102.937 16.8245 102.967 16.7044L105.461 7.90743C105.491 7.78734 105.581 7.72729 105.701 7.72729H109.939C110.119 7.72729 110.239 7.90743 110.179 8.05755L105.401 23.3698C105.371 23.4899 105.281 23.5499 105.16 23.5499H100.683C100.563 23.5499 100.472 23.4899 100.442 23.3698L97.1669 13.672C97.1368 13.5519 96.9565 13.5519 96.9265 13.672L93.711 23.3698C93.681 23.4598 93.5908 23.5499 93.4706 23.5499H88.9028C88.7826 23.5499 88.6925 23.4899 88.6624 23.3698L83.8242 8.05755C83.7641 7.90743 83.8843 7.72729 84.0646 7.72729H88.5723C88.6925 7.72729 88.7826 7.81736 88.8127 7.90743L91.3069 16.6744C91.337 16.7945 91.5173 16.7945 91.5473 16.6744L94.4923 7.87741C94.5224 7.78734 94.6125 7.69727 94.7327 7.69727H99.5709C99.6611 7.69727 99.7513 7.78734 99.8114 7.87741Z" fill="#080808"/>
<path d="M126.827 7.69718H122.62C122.47 7.69718 122.349 7.81728 122.349 7.93737V9.49862C122.019 8.77804 120.787 7.2168 117.932 7.2168C113.214 7.2168 110.179 10.8497 110.179 15.5635C110.179 20.4273 113.424 23.9702 118.082 23.9702C120.065 23.9702 121.658 23.0094 122.379 21.4782C122.379 21.5682 122.349 22.7392 122.349 23.2496C122.349 23.3997 122.47 23.5198 122.62 23.5198H126.827C126.977 23.5198 127.097 23.3997 127.097 23.2796V7.9674C127.097 7.81728 126.977 7.69718 126.827 7.69718ZM118.743 19.7968C116.73 19.7968 115.077 18.2056 115.077 15.5935C115.077 12.8613 116.64 11.4201 118.743 11.4201C120.727 11.4201 122.379 12.8613 122.379 15.5935C122.379 18.2656 120.697 19.7968 118.743 19.7968Z" fill="#080808"/>
<path d="M129.531 23.2794V0.731403C129.531 0.581283 129.651 0.491211 129.802 0.491211H134.159C134.309 0.491211 134.43 0.611307 134.43 0.731403V23.2794C134.43 23.4295 134.309 23.5196 134.159 23.5196H129.802C129.651 23.5496 129.531 23.4295 129.531 23.2794Z" fill="#080808"/>
<path d="M136.714 23.2794V0.731403C136.714 0.581283 136.834 0.491211 136.984 0.491211H141.342C141.492 0.491211 141.612 0.611307 141.612 0.731403V23.2794C141.612 23.4295 141.492 23.5196 141.342 23.5196H136.984C136.834 23.5496 136.714 23.4295 136.714 23.2794Z" fill="#080808"/>
<path d="M164.21 15.5037L159.012 8.11785C158.891 7.93771 159.012 7.72754 159.222 7.72754H164.331C164.421 7.72754 164.511 7.75756 164.541 7.84763L167.216 11.9009C167.276 11.9909 167.366 11.9909 167.426 11.9009L170.04 7.84763C170.1 7.78759 170.161 7.72754 170.251 7.72754H175.059C175.269 7.72754 175.389 7.96773 175.269 8.11785L170.161 15.3236C170.1 15.4137 170.1 15.5338 170.161 15.6238C171.843 17.9957 173.767 20.7579 175.48 23.1598C175.6 23.34 175.48 23.5502 175.269 23.5502H170.191C170.1 23.5502 170.01 23.5201 169.98 23.4301L167.216 19.2567C167.155 19.1667 167.065 19.1667 167.005 19.2567C166.164 20.4877 165.082 22.1991 164.271 23.4301C164.21 23.4901 164.15 23.5502 164.06 23.5502H159.342C159.132 23.5502 159.012 23.31 159.132 23.1598L164.24 15.804C164.271 15.6839 164.271 15.5938 164.21 15.5037Z" fill="#080808"/>
<path d="M148.073 16.8545H153.633H159.042C159.072 16.7644 159.132 16.0138 159.132 15.3533C159.132 10.2492 156.097 7.2168 151.139 7.2168C146.992 7.2168 143.205 10.4594 143.205 15.5635C143.205 20.8777 147.112 24.0002 151.499 24.0002C155.466 24.0002 157.99 21.7784 158.802 19.1063C158.802 19.0763 158.832 18.9862 158.862 18.8361C158.892 18.6859 158.771 18.5358 158.621 18.5358H154.564C154.474 18.5358 154.414 18.5658 154.354 18.6559C153.813 19.4365 152.912 19.9169 151.559 19.9169C149.726 19.9169 148.133 18.716 147.953 17.0046C147.923 16.9145 147.983 16.8545 148.073 16.8545ZM151.199 11.0599C153.422 11.0599 154.264 12.4109 154.384 13.5819C154.384 13.6719 154.324 13.732 154.264 13.732H148.163C148.073 13.732 148.013 13.6719 148.043 13.5819C148.194 12.441 149.215 11.0599 151.199 11.0599Z" fill="#080808"/>
<path d="M34.721 9.43866C33.4288 8.17766 31.6257 7.81737 29.9729 8.50792L22.5203 11.5403L14.4065 1.8426C13.2345 0.431479 11.4314 -0.229048 9.62839 0.0711916C7.82533 0.401455 6.35283 1.60241 5.72176 3.3438L0.28253 17.9955C-0.438694 19.917 0.252478 22.1088 1.99544 23.2497C3.22753 24.0603 4.79018 24.1504 6.14247 23.61L13.505 20.6076C14.7371 20.0972 15.4282 18.7161 15.0075 17.4551C14.5568 16.074 13.0242 15.3534 11.7019 15.8938L6.11242 18.2057C5.87201 18.2957 5.60156 18.0555 5.69171 17.8153L10.2895 5.41545C10.3797 5.20529 10.6802 5.14524 10.8304 5.32538L24.9544 22.1988C25.916 23.3397 27.2984 23.9703 28.7408 23.9703C29.0714 23.9703 29.3719 23.9402 29.7025 23.8802C31.4454 23.5499 32.8578 22.2589 33.4588 20.5775L35.8028 14.1824C36.4339 12.5011 36.0132 10.6696 34.721 9.43866ZM30.4237 14.3025L28.8911 18.4458C28.8009 18.686 28.5004 18.7161 28.3502 18.5359L25.886 15.5936L30.003 13.9122C30.2734 13.7921 30.5439 14.0323 30.4237 14.3025Z" fill="url(#paint0_linear_1540_5817)"/>
<defs>
<linearGradient id="paint0_linear_1540_5817" x1="0.0120705" y1="11.9963" x2="36.1039" y2="11.9963" gradientUnits="userSpaceOnUse">
<stop stop-color="#EF4749"/>
<stop offset="1" stop-color="#F68D41"/>
</linearGradient>
</defs>
</svg>
