<svg width="78" height="40" viewBox="0 0 78 40" fill="none" xmlns="http://www.w3.org/2000/svg">
<g clip-path="url(#clip0_1540_5768)">
<path d="M50.7801 7.3999C45.2534 7.3999 40.2913 10.2757 40.2913 15.5528C40.2913 21.6305 49.0568 22.0455 49.0568 25.0695C49.0568 26.3444 47.5711 27.5006 45.0752 27.5006C41.5096 27.5006 38.8354 25.8997 38.8354 25.8997L37.7063 31.2361C37.7063 31.2361 40.7667 32.5999 44.8672 32.5999C50.9287 32.5999 55.6828 29.6055 55.6828 24.2098C55.6828 17.806 46.8877 17.391 46.8877 14.5745C46.8877 13.5665 48.1059 12.4695 50.6019 12.4695C53.4246 12.4695 55.7423 13.6258 55.7423 13.6258L56.8714 8.4672C56.8417 8.4672 54.316 7.3999 50.7801 7.3999ZM0.148567 7.78531L0 8.55614C0 8.55614 2.31764 8.9712 4.42729 9.83096C7.13121 10.8093 7.30949 11.3726 7.7849 13.1218L12.747 32.1848H19.4028L29.5945 7.78531H22.9684L16.4018 24.3877L13.7276 10.3053C13.4899 8.70437 12.2419 7.78531 10.6968 7.78531H0.148567ZM32.2687 7.78531L27.0689 32.1848H33.3978L38.5679 7.78531H32.2687ZM67.5088 7.78531C65.9934 7.78531 65.1911 8.58578 64.5968 10.0088L55.3263 32.1848H61.9524L63.23 28.479H71.3121L72.0846 32.1848H77.9381L72.8572 7.78531H67.5088ZM68.3704 14.3966L70.3315 23.5575H65.0723L68.3704 14.3966Z" fill="#1434CB"/>
</g>
<defs>
<clipPath id="clip0_1540_5768">
<rect width="77.9381" height="40" fill="white"/>
</clipPath>
</defs>
</svg>
