<svg width="105" height="40" viewBox="0 0 105 40" fill="none" xmlns="http://www.w3.org/2000/svg">
<path d="M73.3079 26.337C72.6277 27.4495 71.5473 28.0058 70.3868 28.0058C68.4661 28.0058 66.4653 26.5357 66.4653 23.7544C66.4653 21.0128 68.4661 19.5824 70.3868 19.5824C71.5473 19.5427 72.6677 20.0989 73.3079 21.132L73.3479 21.0923L76.4691 18.4699C74.9886 16.6024 72.6677 15.6489 70.3068 15.6489C66.2252 15.6489 61.9836 18.3904 61.9836 23.7941C61.9836 29.2375 66.1852 31.9393 70.2668 31.8996C72.6677 31.8599 74.9886 30.9063 76.4691 29.0786L73.3079 26.337ZM101.759 25.6615V8.09961H97.3171V25.6615C97.3171 31.1844 100.198 32.3764 105 31.5023L104.84 28.1647C102.719 28.5223 101.759 28.0455 101.759 25.6615ZM93.0354 27.0522V21.6485C93.0354 17.1984 89.6742 15.6489 85.7127 15.6489C83.6319 15.6489 81.1109 16.1257 79.1902 17.2382L80.7107 20.2181C81.7111 19.6619 83.2717 19.1851 85.1124 19.1851C86.673 19.1851 88.7138 19.6221 88.7138 21.4896V22.3637C87.5534 21.6088 85.9928 21.3704 84.5922 21.3704C81.1509 21.3704 78.3899 23.1584 78.5499 26.933C78.63 29.913 81.271 31.7804 84.1921 31.7804C86.1928 31.7804 88.6338 31.0255 89.5541 29.1183C89.5541 31.8599 92.1151 31.9791 94.476 31.5023L94.436 28.9991C92.9954 29.1183 93.0354 28.3634 93.0354 27.0522ZM88.6338 25.9794C88.4737 27.6085 86.593 28.3237 85.1124 28.3237C84.072 28.3237 83.0716 27.7674 82.9916 26.6549C82.8316 25.145 83.992 24.3504 85.3925 24.2709C86.513 24.2709 87.7134 24.549 88.5937 25.1848L88.6338 25.9794ZM51.3396 15.6489C47.258 15.6886 43.1764 18.3904 43.1764 23.7544C43.1764 29.158 47.338 31.8599 51.4596 31.8599C55.5412 31.8599 59.6227 29.158 59.6227 23.7544C59.6627 18.311 55.5011 15.6091 51.3396 15.6489ZM51.3796 27.9263C49.4989 27.9263 47.6582 26.5357 47.6582 23.7544C47.6582 20.9731 49.5389 19.5824 51.4596 19.5824C53.3403 19.5824 55.181 20.9731 55.181 23.7544C55.181 26.5754 53.3003 27.9661 51.3796 27.9263ZM38.4947 25.6615V8.09961H34.053V25.6615C34.053 31.1844 36.9341 32.3764 41.7359 31.5023L41.5758 28.1647C39.455 28.5223 38.4947 28.0455 38.4947 25.6615ZM15.4859 26.3767V8.13934H10.9642V16.6819C5.56212 14.0198 0 17.715 0 23.7941C0 28.125 2.48095 31.9791 7.16273 31.8599C9.20351 31.8201 10.9642 30.7871 11.8445 28.8799V29.2772C11.9245 31.9393 14.7256 31.9791 16.9665 31.4625L16.9264 28.562C15.5259 28.721 15.4859 27.8866 15.4859 26.3767ZM11.1242 24.3901C11.1242 26.2575 9.88377 27.8866 7.92302 27.8866C5.5221 27.8866 4.52172 25.9794 4.52172 23.7544C4.52172 19.9003 7.92302 18.5494 11.1643 20.4168V24.3901H11.1242Z" fill="black"/>
<path d="M27.2503 20.417H22.7686V24.8671H27.2503V20.417Z" fill="#482683"/>
</svg>
