<svg width="55" height="40" viewBox="0 0 55 40" fill="none" xmlns="http://www.w3.org/2000/svg">
<g clip-path="url(#clip0_1540_5761)">
<path d="M34.5624 6.79492H19.8516V33.196H34.5624V6.79492Z" fill="#FF5F00"/>
<path d="M20.7858 19.9958C20.7858 14.8648 23.1676 9.96711 27.1839 6.79525C19.8985 1.05792 9.34409 2.31734 3.59987 9.64059C-2.14436 16.9172 -0.883432 27.459 6.44863 33.1963C12.5665 38.0007 21.1127 38.0007 27.2306 33.1963C23.1676 30.0244 20.7858 25.1267 20.7858 19.9958Z" fill="#EB001B"/>
<path d="M54.4105 19.9958C54.4105 29.2781 46.8916 36.788 37.5981 36.788C33.8153 36.788 30.1726 35.5286 27.2305 33.1963C34.5158 27.459 35.7768 16.9172 30.0325 9.59395C29.1919 8.56776 28.2579 7.58822 27.2305 6.79525C34.5158 1.05792 45.117 2.31734 50.8145 9.64059C53.1495 12.5792 54.4105 16.2175 54.4105 19.9958Z" fill="#F79E1B"/>
<path d="M52.8225 30.3977V29.8379H53.056V29.7446H52.4956V29.8379H52.7291V30.3977H52.8225ZM53.8966 30.3977V29.7446H53.7098L53.523 30.2111L53.3362 29.7446H53.1494V30.3977H53.2895V29.8846L53.4763 30.3044H53.6164L53.8032 29.8846V30.3977H53.8966Z" fill="#F79E1B"/>
</g>
<defs>
<clipPath id="clip0_1540_5761">
<rect width="54.4104" height="40" fill="white"/>
</clipPath>
</defs>
</svg>
