<svg width="131" height="40" viewBox="0 0 131 40" fill="none" xmlns="http://www.w3.org/2000/svg">
<g clip-path="url(#clip0_1540_5774)">
<path fill-rule="evenodd" clip-rule="evenodd" d="M14.0415 34.0847C13.3666 34.1035 12.7104 34.0472 12.0356 33.9533C10.2171 33.6903 8.51118 33.1081 6.93652 32.1504C3.44955 30.047 1.2187 26.9859 0.300134 22.967C0.0939466 22.0655 0.000217793 21.1452 0.000217793 20.225C-0.0185944 16.5442 1.18124 13.314 3.61828 10.5722C5.73668 8.20588 8.36127 6.75983 11.4544 6.15884C12.3168 5.98986 13.1792 5.89597 14.0415 5.93351C14.0415 7.34202 14.0415 8.73171 14.0415 10.1402C14.004 10.1589 13.9665 10.1778 13.929 10.2153C13.4228 10.5722 12.9167 10.9477 12.4293 11.3421C11.3232 12.2435 10.2734 13.2014 9.39229 14.3469C8.21127 15.8681 7.42389 17.5395 7.31143 19.5114C7.25516 20.4504 7.36762 21.3707 7.66762 22.2533C8.39873 24.4506 10.667 26.7229 13.854 26.7793C14.0415 26.7793 14.079 26.8168 14.079 27.0234C14.0603 27.9812 14.0603 29.8968 14.0603 29.8968C14.0603 29.8968 14.0603 30.0094 14.0603 30.0658C14.0415 31.3992 14.0415 32.7325 14.0415 34.0847Z" fill="#0099FF"/>
<path fill-rule="evenodd" clip-rule="evenodd" d="M14.0415 10.1212C14.0415 10.1212 14.0415 7.32301 14.0415 5.9145C14.8101 5.89569 15.5599 5.97086 16.3099 6.08348C17.7158 6.3089 19.0656 6.72202 20.3404 7.37928C22.9837 8.75025 25.0646 10.7034 26.4706 13.3702C27.2767 14.9101 27.8016 16.544 28.0078 18.253C28.2515 20.2624 28.0641 22.2531 27.4641 24.1874C26.7705 26.3847 25.6082 28.319 23.9773 29.9529C21.99 31.9248 19.628 33.2018 16.891 33.784C15.9537 33.9718 14.9976 34.0845 14.0415 34.0657C14.0415 32.7135 14.0415 31.3801 14.0415 30.028C14.0415 29.9717 14.0415 29.8778 14.0415 29.8778C14.0415 29.8778 14.0977 29.8402 14.1165 29.8214C15.5787 28.7885 16.966 27.6617 18.1658 26.3095C18.9531 25.4269 19.628 24.4879 20.0967 23.3986C20.7528 21.8587 21.0153 20.2812 20.6778 18.6097C20.0779 15.5674 17.3596 13.295 14.2289 13.2199C14.0227 13.2199 14.0415 13.0509 14.0415 13.0509V10.1212Z" fill="#0561E2"/>
<path d="M46.2119 24.3778C46.2119 25.1535 46.0847 25.8924 45.8483 26.6128C45.6121 27.3333 45.2303 27.9613 44.7576 28.5154C44.2668 29.0695 43.667 29.4944 42.9397 29.8269C42.2126 30.1409 41.3582 30.3072 40.413 30.3072C38.8859 30.3072 37.6317 29.9377 36.6682 29.2174C35.6865 28.497 35.0502 27.3517 34.7412 25.7816L37.9588 25.0058C38.0679 25.6523 38.3224 26.1695 38.7405 26.5574C39.1404 26.9453 39.6494 27.1301 40.2494 27.1301C41.231 27.1301 41.9036 26.7976 42.249 26.1141C42.5944 25.4491 42.7762 24.507 42.7762 23.3249V10.1914H46.2119V24.3778Z" fill="#444444"/>
<path d="M65.1541 22.6044C65.1541 23.7866 64.9541 24.858 64.5541 25.8C64.1542 26.7606 63.6088 27.5549 62.9181 28.2198C62.2272 28.8848 61.4092 29.402 60.4639 29.753C59.5186 30.1224 58.4825 30.2887 57.3735 30.2887C56.2647 30.2887 55.2285 30.1039 54.3014 29.753C53.3561 29.402 52.5381 28.8848 51.8291 28.2198C51.1201 27.5549 50.5748 26.7421 50.193 25.8C49.7931 24.858 49.6113 23.7866 49.6113 22.6044V10.1914H53.0471V22.4936C53.0471 22.9739 53.1198 23.4726 53.2652 24.0083C53.4106 24.5255 53.647 25.0243 53.9923 25.4675C54.3196 25.9108 54.7741 26.2803 55.3376 26.5574C55.8829 26.8529 56.5737 26.9822 57.3918 26.9822C58.2098 26.9822 58.9006 26.8344 59.4459 26.5574C59.9913 26.2803 60.4458 25.9108 60.7911 25.4675C61.1184 25.0243 61.3729 24.5439 61.5183 24.0083C61.6637 23.4726 61.7365 22.9739 61.7365 22.4936V10.1914H65.1722V22.6044H65.1541Z" fill="#444444"/>
<path d="M78.1696 14.4032C77.8058 13.8675 77.3152 13.4796 76.7152 13.221C76.0969 12.9624 75.4605 12.8516 74.7884 12.8516C74.3881 12.8516 74.0069 12.907 73.6248 12.9993C73.2428 13.0917 72.9158 13.2395 72.6249 13.4426C72.3159 13.6458 72.0795 13.9045 71.8978 14.237C71.7159 14.5694 71.625 14.9389 71.625 15.3822C71.625 16.0472 71.8432 16.5644 72.3159 16.8968C72.7703 17.2478 73.334 17.5619 74.0069 17.802C74.679 18.0606 75.4066 18.3192 76.2063 18.5594C77.0061 18.7994 77.7329 19.1319 78.424 19.5568C79.0961 19.9817 79.6596 20.5543 80.1146 21.2377C80.5688 21.9397 80.8049 22.8818 80.8049 24.027C80.8049 25.0799 80.6235 26.0035 80.2414 26.7793C79.8602 27.5736 79.3514 28.2201 78.6967 28.7373C78.042 29.2545 77.2969 29.6425 76.4425 29.901C75.5881 30.1597 74.679 30.2889 73.7516 30.2889C72.5522 30.2889 71.3888 30.0857 70.2981 29.6793C69.1891 29.273 68.2257 28.5896 67.4258 27.629L70.0253 25.0799C70.4434 25.7264 70.9888 26.2251 71.6796 26.5946C72.3704 26.964 73.0795 27.1302 73.8428 27.1302C74.2431 27.1302 74.6425 27.0748 75.0428 26.964C75.4422 26.8532 75.8061 26.687 76.1334 26.4653C76.4607 26.2436 76.7152 25.9665 76.9149 25.6156C77.1146 25.2831 77.224 24.8767 77.224 24.4334C77.224 23.713 76.9878 23.1588 76.5337 22.7709C76.0787 22.383 75.5152 22.0506 74.8431 21.7919C74.1701 21.5333 73.4251 21.2747 72.6249 21.0345C71.825 20.7944 71.0797 20.462 70.4253 20.0555C69.7527 19.6491 69.1892 19.0951 68.7347 18.3931C68.2802 17.6912 68.0438 16.7676 68.0438 15.6039C68.0438 14.5879 68.2438 13.7198 68.662 12.9809C69.0619 12.242 69.6072 11.6324 70.2798 11.1337C70.9343 10.6535 71.6978 10.284 72.5522 10.0438C73.4069 9.80376 74.2795 9.69287 75.1696 9.69287C76.1881 9.69287 77.1693 9.85911 78.1331 10.1546C79.0787 10.4687 79.9505 10.9859 80.7146 11.7063L78.1696 14.4032Z" fill="#444444"/>
<path d="M83.6774 10.1914H90.1672C91.0945 10.1914 91.9854 10.2837 92.8581 10.4684C93.7125 10.6532 94.4758 10.9672 95.1305 11.3921C95.7843 11.8354 96.3114 12.408 96.6934 13.1284C97.0755 13.8672 97.2752 14.7724 97.2752 15.8622C97.2752 17.0999 97.0572 18.0973 96.6387 18.8546C96.2211 19.612 95.6575 20.2031 94.9481 20.6094C94.2396 21.0159 93.4216 21.3114 92.476 21.4591C91.5305 21.6069 90.5675 21.6808 89.549 21.6808H87.0951V29.8084H83.6592V10.1914H83.6774ZM89.186 18.7068C89.6766 18.7068 90.1854 18.6884 90.7125 18.6515C91.2396 18.6145 91.731 18.5036 92.1669 18.3189C92.6037 18.1343 92.9666 17.8572 93.2575 17.4877C93.5302 17.1183 93.676 16.601 93.676 15.9361C93.676 15.3265 93.5484 14.8463 93.294 14.4768C93.0396 14.1074 92.7122 13.8303 92.3128 13.6456C91.9125 13.4424 91.4584 13.3315 90.9669 13.2762C90.4763 13.2207 90.0039 13.1838 89.549 13.1838H87.0951V18.7068H89.186Z" fill="#444444"/>
<path d="M103.874 10.1914H106.837L115.163 29.8084H111.236L109.437 25.3198H101.074L99.3292 29.8084H95.4756L103.874 10.1914ZM108.237 22.3273L105.255 14.3475L102.238 22.3273H108.237Z" fill="#444444"/>
<path d="M119.345 21.4222L112.091 10.1914H116.399L121.144 18.0049L125.943 10.1914H130.034L122.78 21.4222V29.8269H119.345V21.4222Z" fill="#444444"/>
</g>
<defs>
<clipPath id="clip0_1540_5774">
<rect width="130.033" height="40" fill="white"/>
</clipPath>
</defs>
</svg>
