<svg width="82" height="40" viewBox="0 0 82 40" fill="none" xmlns="http://www.w3.org/2000/svg">
<g clip-path="url(#clip0_1540_5805)">
<path d="M10.9111 20.9669C7.6066 20.9669 4.92558 18.2846 4.92558 14.9786C4.92558 11.6725 7.6066 8.99025 10.9111 8.99025C14.2156 8.99025 16.8966 11.6725 16.8966 14.9786C16.959 18.2846 14.278 20.9669 10.9111 20.9669ZM10.9111 4C4.92558 4 0 8.92788 0 14.9162V36H4.92558V24.0858C6.67136 25.2086 8.72888 25.8947 10.9111 25.8947C16.959 25.8947 21.8222 20.9669 21.8222 14.9786C21.8846 8.92788 16.959 4 10.9111 4Z" fill="#281932"/>
<path d="M71.0781 20.9669C67.7736 20.9669 65.0926 18.2846 65.0926 14.9786C65.0926 11.6725 67.7736 8.99025 71.0781 8.99025C74.3826 8.99025 77.0636 11.6725 77.0636 14.9786C77.126 18.2846 74.4449 20.9669 71.0781 20.9669ZM71.0781 4C65.0302 4 60.167 8.92788 60.167 14.9162C60.167 20.9669 65.0926 25.8324 71.0781 25.8324C77.126 25.8324 81.9892 20.9045 81.9892 14.9162C82.0515 8.92788 77.126 4 71.0781 4Z" fill="#281932"/>
<path d="M34.915 20.9669C31.6105 20.9669 28.9295 18.2846 28.9295 14.9786C28.9295 11.6725 31.6105 8.99025 34.915 8.99025C38.2195 8.99025 40.9005 11.6725 40.9005 14.9786C40.9005 18.2846 38.2195 20.9669 34.915 20.9669ZM34.915 4C28.8671 4 24.0039 8.92788 24.0039 14.9162V36H28.9295V24.0858C30.6753 25.2086 32.7328 25.8947 34.915 25.8947C40.9629 25.8947 45.8261 20.9669 45.8261 14.9786C45.8261 8.92788 40.9629 4 34.915 4Z" fill="#281932"/>
<path d="M59.1074 4C53.0595 4 48.1963 8.8655 48.1963 14.9162V25.8947H53.1219V14.9162C53.1219 11.6101 55.8029 8.92788 59.1074 8.92788V4Z" fill="#281932"/>
</g>
<defs>
<clipPath id="clip0_1540_5805">
<rect width="81.9898" height="40" fill="white"/>
</clipPath>
</defs>
</svg>
