<svg width="24" height="25" viewBox="0 0 24 25" fill="none" xmlns="http://www.w3.org/2000/svg">
<path fill-rule="evenodd" clip-rule="evenodd" d="M6 1.40723C6.41421 1.40723 6.75 1.74301 6.75 2.15723V4.15723C6.75 4.57144 6.41421 4.90723 6 4.90723C5.58579 4.90723 5.25 4.57144 5.25 4.15723V2.15723C5.25 1.74301 5.58579 1.40723 6 1.40723ZM18 1.40723C18.4142 1.40723 18.75 1.74301 18.75 2.15723V4.15723C18.75 4.57144 18.4142 4.90723 18 4.90723C17.5858 4.90723 17.25 4.57144 17.25 4.15723V2.15723C17.25 1.74301 17.5858 1.40723 18 1.40723Z" fill="#387ADF"/>
<path fill-rule="evenodd" clip-rule="evenodd" d="M7 13.1572C7 12.6049 7.44772 12.1572 8 12.1572H8.00897C8.56125 12.1572 9.00897 12.6049 9.00897 13.1572C9.00897 13.7095 8.56125 14.1572 8.00897 14.1572H8C7.44772 14.1572 7 13.7095 7 13.1572ZM10.9955 13.1572C10.9955 12.6049 11.4432 12.1572 11.9955 12.1572H12.0045C12.5568 12.1572 13.0045 12.6049 13.0045 13.1572C13.0045 13.7095 12.5568 14.1572 12.0045 14.1572H11.9955C11.4432 14.1572 10.9955 13.7095 10.9955 13.1572ZM14.991 13.1572C14.991 12.6049 15.4387 12.1572 15.991 12.1572H16C16.5523 12.1572 17 12.6049 17 13.1572C17 13.7095 16.5523 14.1572 16 14.1572H15.991C15.4387 14.1572 14.991 13.7095 14.991 13.1572ZM7 17.1572C7 16.6049 7.44772 16.1572 8 16.1572H8.00897C8.56125 16.1572 9.00897 16.6049 9.00897 17.1572C9.00897 17.7095 8.56125 18.1572 8.00897 18.1572H8C7.44772 18.1572 7 17.7095 7 17.1572ZM10.9955 17.1572C10.9955 16.6049 11.4432 16.1572 11.9955 16.1572H12.0045C12.5568 16.1572 13.0045 16.6049 13.0045 17.1572C13.0045 17.7095 12.5568 18.1572 12.0045 18.1572H11.9955C11.4432 18.1572 10.9955 17.7095 10.9955 17.1572Z" fill="#387ADF"/>
<path fill-rule="evenodd" clip-rule="evenodd" d="M2.75 8.15723C2.75 7.74301 3.08579 7.40723 3.5 7.40723H20.5C20.9142 7.40723 21.25 7.74301 21.25 8.15723C21.25 8.57144 20.9142 8.90723 20.5 8.90723H3.5C3.08579 8.90723 2.75 8.57144 2.75 8.15723Z" fill="#387ADF"/>
<path fill-rule="evenodd" clip-rule="evenodd" d="M6.46704 4.06863C5.39728 4.22412 4.76921 4.5158 4.30269 5.02015C3.82849 5.53281 3.54821 6.23638 3.40078 7.42185C3.25137 8.62329 3.25 10.2021 3.25 12.4004V12.914C3.25 15.1123 3.25137 16.6912 3.40078 17.8926C3.54821 19.0781 3.82848 19.7816 4.30269 20.2943C4.76921 20.7987 5.39727 21.0903 6.46704 21.2458C7.56476 21.4054 9.01188 21.4072 11.05 21.4072H12.95C14.9881 21.4072 16.4352 21.4054 17.533 21.2458C18.6028 21.0903 19.2308 20.7987 19.6973 20.2943C20.1715 19.7817 20.4518 19.0781 20.5992 17.8926C20.7486 16.6912 20.75 15.1123 20.75 12.914V12.4004C20.75 10.2021 20.7486 8.62329 20.5992 7.42185C20.4518 6.23637 20.1715 5.5328 19.6973 5.02015C19.2308 4.51581 18.6027 4.22412 17.533 4.06863C16.4352 3.90908 14.9881 3.90723 12.95 3.90723H11.05C9.01188 3.90723 7.56476 3.90908 6.46704 4.06863ZM10.9892 2.40723H13.0108C14.9744 2.40721 16.5307 2.40719 17.7487 2.58423C19.0073 2.76715 20.0129 3.15229 20.7985 4.00159C21.5764 4.84257 21.9222 5.90515 22.0878 7.23673C22.25 8.54153 22.25 10.2137 22.25 12.3473V12.9672C22.25 15.1008 22.25 16.7729 22.0878 18.0777C21.9222 19.4093 21.5764 20.4719 20.7985 21.3129C20.0129 22.1622 19.0072 22.5473 17.7487 22.7302C16.5307 22.9073 14.9745 22.9072 13.0108 22.9072H10.9892C9.02555 22.9072 7.46932 22.9073 6.25129 22.7302C4.99277 22.5473 3.98716 22.1622 3.20155 21.3129C2.42365 20.4719 2.07785 19.4093 1.91225 18.0777C1.74998 16.7729 1.74999 15.1008 1.75 12.9672V12.3472C1.74999 10.2137 1.74998 8.54152 1.91225 7.23673C2.07785 5.90515 2.42363 4.84257 3.20155 4.00159C3.98715 3.15229 4.99277 2.76715 6.25129 2.58423C7.46932 2.40719 9.02555 2.40721 10.9892 2.40723Z" fill="#387ADF"/>
<path fill-rule="evenodd" clip-rule="evenodd" d="M2.25 8.15723C2.25 7.74301 2.58579 7.40723 3 7.40723H21C21.4142 7.40723 21.75 7.74301 21.75 8.15723C21.75 8.57144 21.4142 8.90723 21 8.90723H3C2.58579 8.90723 2.25 8.57144 2.25 8.15723Z" fill="#387ADF"/>
</svg>
