<svg width="100" height="100" viewBox="0 0 100 100" fill="none" xmlns="http://www.w3.org/2000/svg">
<rect width="100" height="100" rx="12" fill="white"/>
<path d="M50.7544 56.3016C50.4801 56.6725 50.4417 57.1875 50.6963 57.6054C51.0325 58.1577 51.7524 58.3322 52.3042 57.996C57.3424 54.9269 62.1309 51.384 66.5362 47.4654C71.5077 43.043 76.0475 38.0945 80.0301 32.7574C80.0312 32.7558 80.0323 32.7542 80.0333 32.7526C80.4154 32.235 80.3081 31.5049 79.7921 31.1202C79.2739 30.7338 78.5412 30.84 78.1549 31.3582C74.2672 36.5688 69.8352 41.3999 64.9811 45.7172C60.6809 49.5429 56.0056 53.0015 51.0869 55.998C50.9535 56.0796 50.842 56.1832 50.7544 56.3016Z" fill="#1C1E21"/>
<path d="M42.647 53.0336C42.3727 53.4045 42.3343 53.9195 42.5889 54.3373C42.9251 54.8897 43.645 55.0642 44.1967 54.728C45.0218 54.2253 45.985 53.6676 47.0038 53.0769C51.1753 50.6599 56.8886 47.3497 61.7865 42.8409C66.7431 38.4318 71.2828 33.4833 75.2655 28.1462C75.6556 27.6269 75.5451 26.8953 75.0275 26.5089C74.5093 26.1226 73.7766 26.2293 73.3902 26.747C69.5026 31.9575 65.0706 36.7892 60.2165 41.1065C55.4931 45.4542 49.909 48.6902 45.8308 51.0527C44.8003 51.6499 43.8269 52.2139 42.9795 52.73C42.8461 52.8116 42.7345 52.9152 42.647 53.0336Z" fill="#1C1E21"/>
<path d="M45.5243 59.8672C45.0291 59.1798 44.0755 59.0256 43.3833 59.5208C43.378 59.5262 42.355 60.2722 40.0806 61.4863C39.3244 61.8966 38.4241 62.3545 37.3803 62.8551C36.2617 63.393 34.9724 63.979 33.5027 64.6023C28.6609 66.6638 21.8536 69.1351 12.6871 71.6065C11.8669 71.8253 11.3818 72.6668 11.5952 73.4817C11.8135 74.3019 12.6604 74.7865 13.4806 74.5682C22.1733 72.2244 28.8311 69.8545 33.7477 67.8143C35.5744 67.0523 37.162 66.3388 38.5202 65.6888C39.4893 65.2256 40.3468 64.7992 41.0929 64.4053C43.9052 62.9351 45.1673 62.0135 45.178 62.0082C45.8654 61.5129 46.0196 60.5545 45.5243 59.8672ZM22.3702 63.1214C22.168 62.2958 21.3317 61.7953 20.5115 61.9975C19.8135 62.1736 19.0893 62.3385 18.3593 62.4933C17.6351 62.6422 16.9269 62.7809 16.2449 62.8924C15.4087 63.0365 14.8494 63.8247 14.9877 64.661C15.1264 65.4972 15.9199 66.0671 16.7562 65.9231C17.5337 65.7902 18.2798 65.6466 18.9826 65.5025C19.7446 65.343 20.4955 65.1669 21.2463 64.9806C22.0719 64.7784 22.573 63.9475 22.3702 63.1214ZM41.1724 54.9453C40.6612 54.2691 39.7027 54.1304 39.0261 54.6422C39.0207 54.6475 38.1685 55.2916 36.5654 56.1812C35.8567 56.5809 35.0044 57.0228 34.0086 57.4812C33.7584 57.5927 33.4974 57.7101 33.2258 57.827C32.4424 58.1733 31.5853 58.5144 30.6584 58.85C30.296 58.9776 29.923 59.1056 29.5345 59.2332C28.8952 59.4466 28.2185 59.6542 27.5157 59.8512C27.4143 59.8778 27.3241 59.9152 27.2334 59.9632C26.5941 60.2829 26.2424 61.0284 26.4452 61.7419C26.6741 62.5621 27.521 63.0365 28.3359 62.8129C29.3269 62.5306 30.2693 62.2377 31.1536 61.9287C32.0646 61.6143 32.9168 61.284 33.705 60.9537C36.6716 59.7231 38.7918 58.4717 39.9263 57.7422C40.5496 57.3425 40.8693 57.0975 40.8746 57.0922C41.2898 56.7725 41.5027 56.288 41.4814 55.7975C41.4654 55.4997 41.3645 55.2014 41.1724 54.9453ZM87.9919 38.4816L87.9973 38.4762L86.3141 36.8198L83.8428 34.3804L83.5338 34.0768L81.4248 31.9939L81.4301 31.9833L79.1712 29.7409C79.1712 29.7462 79.1664 29.7569 79.161 29.7622L69.717 20.4409C69.115 19.8443 68.1352 19.8549 67.5439 20.4622C67.4265 20.585 67.331 20.7125 67.2616 20.8566C63.7086 26.8058 56.4114 35.0566 47.2235 42.0341C45.7426 43.1633 44.2142 44.2551 42.6426 45.2995C41.9398 45.7627 41.2311 46.2153 40.5176 46.6577C39.9797 46.9933 39.4418 47.3183 38.8985 47.6374C38.7384 47.7335 38.5789 47.8296 38.4134 47.9144C37.3643 48.527 36.2991 49.1077 35.2232 49.6509C35.0525 49.7416 34.8769 49.8324 34.7061 49.9172C33.6837 50.429 32.6505 50.9189 31.6061 51.3714C30.3547 51.92 29.0868 52.4259 27.814 52.8736C27.1053 53.1293 26.3918 53.3635 25.6778 53.5818C24.8736 53.8267 24.0694 54.0509 23.2598 54.2531C23.1163 54.2905 22.9882 54.3439 22.866 54.418C22.2854 54.7484 21.9764 55.4357 22.1413 56.1118C22.3489 56.9321 23.1851 57.4332 24 57.2304C25.3213 56.9006 26.6314 56.5116 27.9314 56.0745C28.0323 56.043 28.1337 56.0056 28.2345 55.9683C29.3851 55.5793 30.5303 55.1481 31.6648 54.6737C32.5384 54.3225 33.4014 53.9388 34.2589 53.5391C36.0115 52.7296 37.7319 51.8352 39.4151 50.8762C40.7679 50.1147 42.094 49.3051 43.394 48.4635C43.6656 48.2928 43.9319 48.1172 44.1929 47.9411C45.3856 47.1582 46.5522 46.3433 47.692 45.5018H47.6974C48.1611 45.1608 48.6243 44.8198 49.0769 44.4739C57.8229 37.8369 64.9392 30.0285 68.9234 23.9774L83.5765 38.4389L84.9933 39.8344C83.6933 42.0234 82.2077 44.1756 80.5672 46.274C76.9448 50.9189 72.556 55.313 67.6875 59.2865C67.006 59.8512 66.308 60.4051 65.6052 60.9483C65.2322 61.236 64.8591 61.5236 64.4813 61.8059C64.0282 62.1416 63.5704 62.4826 63.1125 62.8129C56.5075 67.5907 49.2743 71.5905 42.0193 74.4615C41.1884 74.7918 40.3575 75.1115 39.5213 75.4098C38.0089 75.9531 36.496 76.4483 34.9884 76.8907C34.8716 76.9275 34.7542 76.9595 34.6426 76.9916C33.8277 77.2312 33.3587 78.0781 33.5929 78.893C33.8331 79.7084 34.68 80.1769 35.4949 79.9373C36.0915 79.7666 36.6876 79.5856 37.2842 79.3994C38.6263 78.9783 39.9744 78.5205 41.3165 78.0146C42.2168 77.6842 43.1117 77.3379 44.0114 76.9702C51.3139 73.9876 58.5743 69.918 65.1948 65.0922C65.5732 64.8152 65.951 64.5382 66.3293 64.2559C66.7557 63.9368 67.1763 63.6171 67.592 63.2921C68.2948 62.7489 68.9928 62.195 69.6743 61.6304C76.5082 56.0377 82.4473 49.6349 86.7458 42.8543C87.2731 42.0181 87.779 41.1818 88.2529 40.3403C88.6046 39.7175 88.4818 38.9608 87.9919 38.4816ZM54.4139 62.7062C53.924 62.0242 52.9656 61.8646 52.2783 62.3599C52.2676 62.3705 48.2406 65.3003 41.4019 68.2615C40.5817 68.6185 39.7134 68.9756 38.8131 69.3214C38.1204 69.5983 37.4016 69.8705 36.6609 70.1314C35.8674 70.4137 35.4415 71.2868 35.7291 72.0862C36.0061 72.8851 36.885 73.3003 37.6893 73.0233C38.1738 72.8531 38.6477 72.677 39.1114 72.4961C40.001 72.1604 40.864 71.8199 41.6842 71.4736C49.4072 68.2402 54.0575 64.8579 54.0735 64.8472C54.7603 64.3466 54.915 63.393 54.4139 62.7062Z" fill="#1C1E21"/>
<path d="M77.2722 79.1061C76.5443 79.1061 75.8095 78.9647 75.1029 78.6765L74.8718 78.5821L61.1602 67.1902L63.2286 64.7002L76.532 75.7537C77.2989 75.9912 78.1202 75.8455 78.7659 75.346C79.4698 74.8006 79.8193 73.9489 79.7014 73.0663L77.0411 50.9501L80.2543 50.5637L82.9119 72.6575C83.1835 74.6758 82.375 76.646 80.7474 77.9054C79.7227 78.6984 78.5071 79.1061 77.2722 79.1061Z" fill="#1C1E21"/>
<path d="M43.4618 47.5787L32.7305 33.3441L32.6473 33.1082C31.9616 31.1678 32.349 29.0738 33.6842 27.5075C35.0194 25.9407 37.0265 25.2272 39.0506 25.5965L60.9725 29.2915L60.4346 32.4833L38.4908 28.7845C37.5948 28.6218 36.7249 28.9297 36.1475 29.6074C35.6181 30.2281 35.433 31.0414 35.6352 31.8194L46.0468 45.6298L43.4618 47.5787Z" fill="#1C1E21"/>
<path d="M79.2112 39.4042L79.4476 39.1486L79.3158 39.0264C79.1776 38.8983 78.9972 38.8279 78.8077 38.8279C78.7426 38.8279 78.6781 38.8364 78.6156 38.853L79.2112 39.4042ZM79.978 40.1145L80.2145 39.8594L79.7491 39.4277L79.5122 39.6828L79.978 40.1145ZM77.1998 40.4891C77.3407 40.4054 77.5131 40.3616 77.7047 40.3616C77.7634 40.3616 77.8237 40.3659 77.8856 40.3739C78.0105 40.3909 78.1385 40.4251 78.2602 40.4737L78.9705 39.7068L78.2896 39.0766C78.289 39.0776 77.0824 40.3803 77.0824 40.3803L77.1998 40.4891ZM80.6841 40.7688L80.9205 40.5126L80.516 40.138L80.2796 40.3936L80.6841 40.7688ZM78.7037 40.7464C78.8232 40.8563 78.9139 40.9876 78.9753 41.137C78.9854 41.1615 78.9945 41.1866 79.0025 41.2122L79.7379 40.4176L79.2715 39.9859L78.6274 40.6818C78.654 40.7026 78.6797 40.7239 78.7037 40.7464ZM81.5673 41.5863C81.6132 41.3387 81.5304 41.0778 81.3394 40.9006L81.222 40.7917L80.985 41.0473L81.5673 41.5863ZM79.3323 41.4609C79.4801 41.51 79.6141 41.5895 79.7299 41.6968C79.7539 41.7192 79.7774 41.7427 79.7998 41.7672L80.4434 41.0719L80.0389 40.6973L79.3323 41.4609ZM76.1427 42.7609L76.9512 41.8873C76.8973 41.772 76.8562 41.6493 76.8322 41.5287C76.7916 41.3259 76.7975 41.1295 76.8492 40.963C76.861 40.9203 76.8743 40.8824 76.8893 40.8472L76.7601 40.7277L75.5082 42.08C75.4922 42.097 75.4772 42.1146 75.4639 42.1317L76.1427 42.7609ZM78.1433 42.1776C78.1962 42.1776 78.2442 42.1958 78.2821 42.231L78.2944 42.2422L78.3162 42.2742C78.3381 42.3057 78.3499 42.3527 78.344 42.3991C78.3429 42.4167 78.3419 42.4359 78.3429 42.4546C78.344 42.5368 78.3595 42.6157 78.3883 42.6905C78.4267 42.7903 78.4881 42.8804 78.5665 42.9519C78.6183 43.0005 78.6807 43.0443 78.7533 43.0832L78.8104 43.1115C78.9364 43.1675 79.0495 43.198 79.1605 43.2118C79.1984 43.2161 79.2357 43.2182 79.272 43.2182C79.3393 43.2182 79.4028 43.2102 79.4609 43.1948C79.5485 43.1718 79.6184 43.1318 79.6691 43.0774C79.7005 43.0437 79.7251 43.0037 79.7432 42.9584C79.748 42.9434 79.7544 42.9183 79.7598 42.8911C79.7763 42.8015 79.7742 42.6969 79.7539 42.588C79.7331 42.4807 79.6936 42.3713 79.6397 42.271L79.5885 42.1851C79.5469 42.1205 79.5004 42.0645 79.4497 42.0175C79.3697 41.9439 79.2779 41.891 79.176 41.8612C79.1103 41.8414 79.0441 41.8318 78.978 41.8318L78.843 41.842C78.7939 41.842 78.7448 41.8227 78.709 41.7902L78.6978 41.78L78.6749 41.7486C78.6514 41.7107 78.6412 41.6664 78.6471 41.621C78.6535 41.5271 78.638 41.4236 78.6018 41.3291C78.5639 41.2299 78.5041 41.1418 78.4246 41.0682C78.3691 41.0164 78.3018 40.97 78.2255 40.9283L78.1679 40.9011C78.0473 40.8462 77.9331 40.8131 77.8242 40.7987C77.7794 40.7933 77.7362 40.7901 77.6935 40.7901C77.63 40.7901 77.5713 40.7965 77.519 40.8099C77.432 40.8317 77.3631 40.8702 77.313 40.9246C77.2799 40.9598 77.2543 41.003 77.2361 41.0537C77.2319 41.0703 77.2271 41.0906 77.2233 41.1103C77.2073 41.2016 77.2105 41.3088 77.2329 41.4214C77.2564 41.541 77.3012 41.661 77.3626 41.7688L77.3952 41.8238C77.44 41.8942 77.4886 41.9546 77.5414 42.0031C77.6214 42.0773 77.7132 42.1296 77.8146 42.16C77.8781 42.1787 77.9438 42.1883 78.0089 42.1883C78.0441 42.1883 78.0793 42.1856 78.114 42.1798L78.1433 42.1776ZM75.3112 42.4919C75.2952 42.7155 75.3806 42.9402 75.5493 43.0966L75.6811 43.2182L75.8726 43.0117L75.3112 42.4919ZM80.2032 43.2716C80.2032 43.2716 81.4104 41.9684 81.4109 41.9679L80.7449 41.3505L80.0335 42.1195C80.089 42.2358 80.1301 42.3601 80.1541 42.4834C80.1963 42.7001 80.184 42.9071 80.1189 43.0838C80.1088 43.112 80.0986 43.1387 80.0874 43.1638L80.2032 43.2716ZM76.9101 43.4712L77.7335 42.5821C77.7122 42.5763 77.6908 42.5704 77.6695 42.5635C77.519 42.5154 77.3813 42.4348 77.2612 42.3238C77.234 42.2982 77.2078 42.271 77.1822 42.2422L76.4437 43.0395L76.9101 43.4712ZM76.4485 43.9291L76.64 43.7225L76.1742 43.2903L75.982 43.4973L76.4485 43.9291ZM77.6156 44.1255L78.3525 43.3292C78.3301 43.3116 78.3082 43.2935 78.288 43.2748C78.1668 43.1627 78.075 43.0299 78.0147 42.8826L77.2111 43.7508L77.6156 44.1255ZM77.1545 44.5828L77.3455 44.3757L76.941 44.0011L76.7494 44.2082L77.1545 44.5828ZM78.5804 45.0188C78.5975 45.0033 78.614 44.9878 78.629 44.9713L79.8815 43.6185L79.7721 43.5176C79.6285 43.6019 79.4535 43.6462 79.2597 43.6462C79.2085 43.6462 79.1562 43.643 79.1029 43.6372C78.9732 43.6217 78.8419 43.5881 78.7181 43.539L77.9171 44.404L78.5804 45.0188ZM77.5729 44.9713C77.7105 45.0988 77.8899 45.1687 78.0782 45.1687C78.1167 45.1687 78.1551 45.1661 78.1924 45.1602L77.647 44.6548L77.4555 44.8624L77.5729 44.9713ZM78.1087 45.5882C77.8301 45.5882 77.5643 45.4841 77.3599 45.2947L75.3038 43.3906C74.8571 42.976 74.8299 42.2763 75.2435 41.8302L78.0692 38.7793C78.2773 38.5546 78.5719 38.426 78.8787 38.426C79.1584 38.426 79.4252 38.5306 79.6296 38.7206L81.6857 40.6247C81.9019 40.8243 82.0267 41.097 82.0374 41.3921C82.0486 41.6861 81.9446 41.9679 81.7444 42.1835L78.9187 45.2344C78.7106 45.4591 78.415 45.5882 78.1087 45.5882Z" fill="#1C1E21"/>
<path d="M79.6007 39.143L79.3904 38.9482C79.1257 38.7032 78.7372 38.6531 78.4197 38.8148L79.2191 39.5549L79.6007 39.143ZM76.0257 43.0061L75.2461 42.284C75.1441 42.5984 75.2327 42.9468 75.4787 43.1747L75.689 43.3695L76.0257 43.0061ZM77.0818 41.9057C77.0151 41.7803 76.966 41.6437 76.9393 41.5081C76.902 41.3219 76.9068 41.1447 76.9532 40.9947V40.9915L76.9575 40.9814C76.973 40.9248 76.9948 40.8715 77.0215 40.8229L76.7568 40.5774L75.4318 42.0076C75.3891 42.0535 75.3539 42.1005 75.3261 42.148L76.1501 42.9116L77.0818 41.9057ZM79.1231 39.7017L78.2906 38.9306C78.2633 38.954 78.2367 38.9791 78.2116 39.0063L76.9335 40.3864L77.1912 40.6249C77.362 40.4947 77.6016 40.4435 77.8738 40.4803C78.0131 40.4984 78.1561 40.5406 78.2895 40.6014L79.1231 39.7017ZM80.3675 39.8532L79.7453 39.2769L79.3637 39.6889L79.986 40.2658L80.3675 39.8532ZM76.7931 43.7164L76.1704 43.14L75.8336 43.5034L76.4564 44.0803L76.7931 43.7164ZM77.9496 42.5082C77.8668 42.5034 77.7847 42.4879 77.7051 42.4623C77.568 42.4185 77.4442 42.3454 77.3359 42.2456C77.2836 42.1965 77.2345 42.141 77.1896 42.0796L76.2947 43.0456L76.9175 43.6224L77.9496 42.5082ZM79.8905 40.4125L79.2677 39.8356L78.4683 40.6986C78.5286 40.737 78.5841 40.7797 78.6342 40.825C78.7415 40.9248 78.8237 41.0433 78.8786 41.1772C78.9117 41.2594 78.9341 41.3464 78.9443 41.4339L79.8905 40.4125ZM81.0736 40.507L80.5122 39.9872L80.1306 40.3997L80.692 40.9195L81.0736 40.507ZM77.4986 44.3706L76.9377 43.8508L76.601 44.2143L77.1619 44.734L77.4986 44.3706ZM78.5147 43.3135C78.4587 43.2772 78.4074 43.2377 78.3615 43.1955C78.2084 43.0536 78.1059 42.8721 78.0648 42.6736L77.0621 43.7564L77.6235 44.2762L78.5147 43.3135ZM80.5965 41.0662L80.0351 40.5465L79.1316 41.522C79.1855 41.53 79.2383 41.5423 79.2901 41.5588C79.4283 41.6031 79.5526 41.6757 79.6594 41.7749C79.7085 41.8208 79.7549 41.8726 79.7971 41.9292L80.5965 41.0662ZM78.2399 42.3865C78.2377 42.4132 78.2372 42.4367 78.2383 42.4596C78.2393 42.5519 78.2569 42.6421 78.2906 42.7291C78.3343 42.8428 78.4053 42.9474 78.496 43.0311C78.5547 43.0856 78.6252 43.1347 78.7047 43.1774C78.7244 43.188 78.7452 43.1982 78.7682 43.2083C78.7762 43.2126 78.7821 43.2153 78.7879 43.2179L78.7927 43.2201C78.9048 43.2692 79.0281 43.3028 79.1497 43.3177C79.2735 43.3321 79.3888 43.3257 79.4913 43.298C79.5975 43.2697 79.6845 43.2201 79.7496 43.1496C79.7896 43.1064 79.8216 43.0552 79.8446 42.9975C79.8526 42.974 79.86 42.9436 79.8664 42.9111C79.8856 42.8086 79.884 42.6901 79.8606 42.5685C79.8376 42.45 79.7944 42.3294 79.7357 42.2211C79.7293 42.2088 79.7234 42.1976 79.7165 42.1858C79.7053 42.1661 79.6925 42.1458 79.6797 42.1266C79.6332 42.0551 79.5809 41.9921 79.5244 41.9398C79.4326 41.855 79.3264 41.7936 79.2084 41.7589C79.1135 41.7306 79.0163 41.72 78.9181 41.728C78.8979 41.729 78.8797 41.7306 78.8616 41.7338C78.8338 41.7392 78.8045 41.7306 78.7831 41.7114C78.7773 41.7061 78.7724 41.6997 78.7682 41.6927C78.757 41.6751 78.7522 41.6549 78.7548 41.6346C78.7628 41.5188 78.7452 41.4003 78.7036 41.2914C78.6593 41.1762 78.5905 41.0748 78.4987 40.9899C78.4368 40.9323 78.3626 40.88 78.2783 40.8352C78.2569 40.824 78.2361 40.8138 78.2142 40.8037L78.2004 40.7973C78.084 40.745 77.9592 40.7087 77.8402 40.6932C77.7163 40.6761 77.5968 40.6809 77.4943 40.7066C77.3876 40.7332 77.3012 40.7823 77.2366 40.8517L77.2355 40.8528C77.1939 40.8976 77.1608 40.9531 77.1379 41.0177L77.1373 41.0193C77.1299 41.0449 77.1245 41.0684 77.1203 41.0919C77.1021 41.1964 77.1053 41.3176 77.1304 41.4425C77.1565 41.5727 77.2051 41.704 77.2713 41.8214C77.2846 41.8454 77.2958 41.8646 77.3076 41.8817C77.3567 41.9601 77.4116 42.0268 77.4709 42.0812C77.5627 42.1666 77.6689 42.2275 77.7863 42.2622C77.8989 42.2958 78.0184 42.3038 78.1331 42.2856L78.1369 42.2851L78.1406 42.2846C78.1689 42.2835 78.1929 42.292 78.2121 42.3102C78.2158 42.3134 78.2212 42.3193 78.226 42.3267C78.2377 42.3443 78.2425 42.3657 78.2399 42.3865ZM77.5024 45.0494C77.7478 45.2768 78.1011 45.3371 78.4064 45.2111L77.6432 44.5046L77.3065 44.868L77.5024 45.0494ZM81.6216 41.7803C81.7604 41.4531 81.6803 41.0694 81.414 40.8224L81.2182 40.6414L80.8366 41.0534L81.6216 41.7803ZM78.5771 45.1594C78.6262 45.1241 78.6711 45.0857 78.7095 45.0436L80.0345 43.6134L79.7853 43.3823C79.6162 43.5093 79.3819 43.5621 79.1172 43.5312C78.9731 43.5141 78.8274 43.473 78.6929 43.4111L77.7681 44.4101L78.5771 45.1594ZM81.4893 42.0423C81.5128 42.0177 81.5352 41.9895 81.5581 41.9569L80.7411 41.2002L79.9065 42.101C79.9748 42.228 80.0249 42.3662 80.0516 42.5034C80.09 42.7014 80.0794 42.8887 80.0207 43.0461C80.0196 43.0493 80.0185 43.0541 80.0164 43.0589C80.0015 43.1032 79.9817 43.147 79.9577 43.1875L80.2112 43.4223L81.4893 42.0423ZM78.8424 45.162C78.4688 45.5655 77.8375 45.59 77.4346 45.217L75.3784 43.3124C74.9744 42.9383 74.9499 42.3059 75.3234 41.903L78.1497 38.8516C78.5232 38.4487 79.1556 38.4247 79.5591 38.7987L81.6152 40.7034C82.0181 41.0764 82.0421 41.7077 81.6686 42.1111L78.8424 45.162Z" fill="#1C1E21"/>
<path d="M79.2153 39.4935L79.5376 39.1455L79.3594 38.9801C79.2094 38.8413 79.0147 38.7656 78.8092 38.7656C78.7009 38.7656 78.5947 38.7869 78.4959 38.8275L79.2153 39.4935ZM79.9822 40.2038L80.3045 39.8558L79.7463 39.3387L79.4245 39.6866L79.9822 40.2038ZM77.1933 40.5688C77.331 40.4743 77.506 40.4247 77.7051 40.4247C77.7622 40.4247 77.8198 40.429 77.878 40.437C78.0114 40.4546 78.148 40.4925 78.2777 40.549L79.06 39.7043L78.2889 38.9897C78.2729 39.0041 78.2574 39.0196 78.2425 39.0361L76.9942 40.3841L77.1933 40.5688ZM80.6882 40.858L81.01 40.5095L80.5137 40.049L80.1914 40.3969L80.6882 40.858ZM78.5344 40.6904C78.5803 40.7225 78.623 40.7566 78.6624 40.7929C78.775 40.8975 78.861 41.0208 78.9175 41.1611C78.941 41.2177 78.9592 41.278 78.9714 41.3383L79.8274 40.4151L79.2692 39.8974L78.5344 40.6904ZM81.6023 41.7044C81.7011 41.4077 81.62 41.0741 81.383 40.8548L81.2192 40.7033L80.8969 41.0512L81.6023 41.7044ZM79.3023 41.5171C79.4464 41.5635 79.5761 41.6393 79.6881 41.7433C79.7266 41.7791 79.7634 41.8186 79.7986 41.8613L80.5334 41.0683L80.0366 40.6083L79.2164 41.4936C79.2452 41.5 79.274 41.508 79.3023 41.5171ZM76.1468 42.8496L77.0273 41.8986C76.966 41.7764 76.9206 41.6462 76.895 41.5165C76.8555 41.3186 76.8619 41.1296 76.9137 40.9706C76.927 40.9221 76.9452 40.8756 76.966 40.8324L76.7578 40.6387L75.4627 42.0374C75.4312 42.071 75.404 42.1057 75.3805 42.1404L76.1468 42.8496ZM78.188 42.2407L78.2419 42.2791L78.2809 42.3992C78.2809 42.4109 78.2798 42.4339 78.2809 42.4574C78.282 42.547 78.2985 42.6319 78.33 42.7125C78.3721 42.8224 78.4372 42.919 78.5242 42.999C78.5813 43.0513 78.6486 43.0983 78.7238 43.1383C78.7452 43.1506 78.7649 43.1597 78.7847 43.1693C78.917 43.2274 79.0371 43.26 79.1539 43.2744C79.1929 43.2787 79.2329 43.2813 79.2719 43.2813C79.3466 43.2813 79.4154 43.2728 79.4784 43.2557C79.5766 43.2301 79.6566 43.1842 79.7164 43.1202C79.7522 43.0812 79.7815 43.0348 79.8023 42.9809C79.8098 42.959 79.8167 42.9313 79.8221 42.903C79.8402 42.8058 79.8381 42.6927 79.8162 42.5764C79.7938 42.4622 79.7522 42.3464 79.6956 42.2412L79.6422 42.1511C79.5974 42.0827 79.5478 42.0219 79.4933 41.9717C79.4058 41.8912 79.3055 41.8341 79.1945 41.8004C79.1246 41.7796 79.0525 41.7695 78.98 41.7695L78.8434 41.7791H78.8007L78.751 41.7423L78.7297 41.7081L78.711 41.6243C78.7174 41.524 78.7009 41.4109 78.6614 41.3068C78.6198 41.1985 78.5546 41.1024 78.4677 41.0218C78.4084 40.9674 78.3375 40.9173 78.2563 40.874L78.195 40.8436C78.068 40.7865 77.9474 40.7513 77.8332 40.7363C77.7862 40.7299 77.7403 40.7267 77.6949 40.7267C77.6266 40.7267 77.5626 40.7342 77.5039 40.7492C77.4057 40.7732 77.3256 40.818 77.2675 40.8815C77.2285 40.9231 77.1992 40.9733 77.1778 41.0325C77.1714 41.0544 77.1661 41.0768 77.1618 41.0998C77.1447 41.1985 77.1479 41.3138 77.172 41.4338C77.197 41.5598 77.244 41.6862 77.3086 41.7999C77.3198 41.8202 77.3304 41.8394 77.3422 41.857C77.3902 41.9328 77.4425 41.9968 77.4996 42.0497C77.5861 42.1297 77.6864 42.1873 77.7974 42.2194C77.8673 42.2407 77.9383 42.2514 78.0103 42.2514C78.0487 42.2514 78.0872 42.2482 78.1251 42.2423L78.1453 42.2407H78.188ZM75.2679 42.3651C75.2033 42.6442 75.2908 42.9425 75.5075 43.1431L75.6852 43.3075L75.9622 43.0081L75.2679 42.3651ZM80.2074 43.3608L81.4561 42.0128C81.4711 41.9963 81.4849 41.9792 81.4983 41.9621L80.7421 41.2615L79.9587 42.1078C80.0217 42.2311 80.0676 42.3635 80.0932 42.4953C80.1332 42.7013 80.122 42.8966 80.0606 43.062C80.0462 43.1042 80.0297 43.1426 80.011 43.1789L80.2074 43.3608ZM76.9142 43.5604L77.8566 42.5428C77.8001 42.5342 77.7446 42.5219 77.6901 42.5043C77.5466 42.4579 77.4169 42.3811 77.3048 42.2775C77.2627 42.2386 77.2227 42.1948 77.1853 42.1473L76.3555 43.0428L76.9142 43.5604ZM76.4526 44.0183L76.7296 43.7189L76.1714 43.2013L75.8939 43.5012L76.4526 44.0183ZM77.6197 44.2147L78.4469 43.3214C78.4052 43.292 78.3668 43.2605 78.3305 43.2274C78.1918 43.0994 78.0925 42.9387 78.0407 42.7632L77.1229 43.7536L77.6197 44.2147ZM77.1586 44.672L77.4356 44.3732L76.9382 43.9121L76.6612 44.212L77.1586 44.672ZM78.5787 45.1027C78.6144 45.0749 78.6475 45.0451 78.6763 45.0136L79.9715 43.6159L79.7805 43.4388C79.6401 43.5338 79.4624 43.5839 79.2607 43.5839C79.2116 43.5839 79.1609 43.5807 79.1107 43.5743C78.9725 43.5583 78.8327 43.5204 78.7025 43.4638L77.8283 44.4079L78.5787 45.1027ZM77.5306 45.0173C77.6805 45.155 77.8748 45.2318 78.0792 45.2318C78.1619 45.2318 78.2441 45.219 78.3225 45.1945L77.6442 44.5664L77.3673 44.8652L77.5306 45.0173ZM78.109 45.5259C77.8465 45.5259 77.5957 45.4272 77.4036 45.2489L75.3474 43.3443C74.9258 42.9537 74.9002 42.2941 75.2903 41.873L78.116 38.8221C78.3124 38.6103 78.5909 38.4886 78.8796 38.4886C79.1427 38.4886 79.3941 38.5873 79.5878 38.7666L81.644 40.6712C82.0645 41.0608 82.089 41.7204 81.6989 42.1409L78.8732 45.1918C78.6769 45.4037 78.3983 45.5259 78.109 45.5259Z" fill="#1C1E21"/>
<path d="M79.8534 43.2261L80.1747 43.5239L80.1987 43.4983L79.8742 43.1978C79.8678 43.2074 79.8609 43.217 79.8534 43.2261ZM79.8534 43.2261L80.1747 43.5239L80.1987 43.4983L79.8742 43.1978C79.8678 43.2074 79.8609 43.217 79.8534 43.2261ZM79.8534 43.2261L80.1747 43.5239L80.1987 43.4983L79.8742 43.1978C79.8678 43.2074 79.8609 43.217 79.8534 43.2261ZM79.8534 43.2261L80.1747 43.5239L80.1987 43.4983L79.8742 43.1978C79.8678 43.2074 79.8609 43.217 79.8534 43.2261ZM79.8534 43.2261L80.1747 43.5239L80.1987 43.4983L79.8742 43.1978C79.8678 43.2074 79.8609 43.217 79.8534 43.2261ZM79.8534 43.2261L80.1747 43.5239L80.1987 43.4983L79.8742 43.1978C79.8678 43.2074 79.8609 43.217 79.8534 43.2261ZM79.8534 43.2261L80.1747 43.5239L80.1987 43.4983L79.8742 43.1978C79.8678 43.2074 79.8609 43.217 79.8534 43.2261ZM79.6875 39.1394L79.22 39.6442L78.3117 38.8026C78.6559 38.5833 79.1186 38.6127 79.4313 38.9019L79.6875 39.1394ZM80.4543 39.8502L79.9874 40.3545L79.2723 39.6922L79.7397 39.1879L80.4543 39.8502ZM81.1603 40.5039L80.6929 41.0082L80.0397 40.4031L80.5066 39.8982L81.1603 40.5039ZM81.4544 40.7761C81.7687 41.0675 81.8333 41.5264 81.639 41.8845L80.7452 41.0568L81.2126 40.552L81.4544 40.7761ZM79.2098 39.6981L78.3021 40.6779C78.1655 40.6101 78.0139 40.5626 77.8629 40.5423C77.6094 40.5082 77.3586 40.552 77.1868 40.7088L76.8425 40.3897L78.1633 38.9638C78.2034 38.92 78.2466 38.8811 78.2914 38.8469L79.2098 39.6981ZM79.9772 40.4089L78.8923 41.5803C78.8902 41.5803 78.8875 41.5808 78.8848 41.5808C78.8902 41.4528 78.8678 41.3225 78.8181 41.2009C78.7685 41.0797 78.6927 40.9671 78.5892 40.8716C78.5252 40.8124 78.4499 40.7585 78.3672 40.7126L79.2621 39.7467L79.9772 40.4089ZM80.6832 41.0627L79.7883 42.0291C79.7371 41.9512 79.6784 41.8808 79.6149 41.821C79.5119 41.726 79.3934 41.6588 79.2685 41.6187C79.1799 41.5899 79.0871 41.5755 78.9948 41.575L80.0295 40.4575L80.6832 41.0627ZM81.638 41.9469C81.6081 41.9944 81.5739 42.0419 81.5334 42.0851L78.7536 45.0864C78.6975 45.1472 78.634 45.1974 78.5684 45.239L77.6772 44.4135L78.6762 43.3344C78.8144 43.4038 78.9692 43.4508 79.1223 43.4689C79.3705 43.4977 79.6154 43.4513 79.7856 43.2987L80.1074 43.5964L80.1298 43.5724L79.8097 43.2757C79.8139 43.2715 79.8187 43.2666 79.8235 43.2618C79.8337 43.2501 79.8438 43.2384 79.8534 43.2261L80.1747 43.5239L80.1987 43.4983L79.8742 43.1978C79.9089 43.1482 79.9361 43.0937 79.9553 43.0361C79.9569 43.0324 79.9585 43.0281 79.9596 43.0244C80.0172 42.8701 80.0221 42.6919 79.9879 42.5153C79.9591 42.368 79.903 42.2218 79.8273 42.0915L80.7355 41.1112L81.638 41.9469ZM76.1125 43.0025L75.6899 43.4582L75.4337 43.2208C75.1381 42.947 75.0633 42.5238 75.2186 42.1748L76.1125 43.0025ZM76.8799 43.7133L76.4572 44.1691L75.7422 43.5068L76.1648 43.0511L76.8799 43.7133ZM77.5854 44.367L77.1633 44.8228L76.5095 44.2176L76.9322 43.7613L77.5854 44.367ZM78.515 45.2278C78.1793 45.4098 77.7519 45.3676 77.4573 45.0955L77.2156 44.8713L77.6377 44.4156L78.515 45.2278ZM76.9712 43.7597L78.1068 42.5334C78.1212 42.7591 78.221 42.9811 78.4019 43.1487C78.4633 43.2053 78.5342 43.256 78.6111 43.2997L77.6243 44.3649L76.9712 43.7597ZM76.2038 43.0489L77.1948 41.9789C77.2487 42.0622 77.31 42.1369 77.3767 42.1993C77.4792 42.2943 77.5977 42.3626 77.722 42.4021C77.8431 42.4416 77.9702 42.4544 78.095 42.4411L76.9189 43.7112L76.2038 43.0489ZM75.2453 42.1609C75.28 42.0905 75.3275 42.0254 75.3835 41.9645L76.7513 40.4879L77.0998 40.8113C77.0619 40.8689 77.0341 40.933 77.0149 41.0013C77.0144 41.0018 77.0144 41.0024 77.0144 41.0029C76.9653 41.1534 76.9648 41.3252 76.9989 41.496C77.0277 41.6417 77.0827 41.7863 77.1563 41.9154L76.1515 43.0004L75.2453 42.1609ZM79.7936 43.1925C79.7179 43.2741 79.6181 43.3291 79.5049 43.359C79.3929 43.3889 79.2675 43.3947 79.1399 43.3803C79.0118 43.3648 78.8827 43.3291 78.7648 43.2773C78.7562 43.2736 78.7482 43.2698 78.7397 43.2656C78.7167 43.2554 78.6943 43.2442 78.673 43.2325C78.5903 43.1887 78.515 43.1364 78.451 43.0772C78.3501 42.9838 78.2759 42.8717 78.23 42.7517C78.1938 42.6583 78.1745 42.5596 78.1729 42.4619C78.1719 42.4341 78.1729 42.4064 78.1751 42.3792C78.1767 42.3722 78.174 42.3648 78.1703 42.36C78.1692 42.3584 78.1681 42.3573 78.1671 42.3562C78.1601 42.3493 78.1516 42.3472 78.1409 42.3477C78.0177 42.3674 77.889 42.3594 77.7663 42.3226C77.6441 42.2863 77.5272 42.2212 77.4258 42.1278C77.3623 42.0686 77.3036 41.9966 77.2524 41.9165C77.2391 41.8957 77.2268 41.8743 77.2145 41.8525C77.1457 41.7303 77.0939 41.5926 77.0667 41.4549C77.0405 41.3252 77.0357 41.1971 77.056 41.0813C77.0608 41.0531 77.0677 41.0258 77.0758 40.9986C77.0758 40.9981 77.0758 40.997 77.0763 40.9965C77.1019 40.9266 77.1382 40.8631 77.1873 40.8097L77.1884 40.8092C77.2641 40.727 77.3634 40.6742 77.4771 40.6453C77.5902 40.6171 77.7172 40.6128 77.8463 40.6304C77.975 40.6475 78.1046 40.6859 78.2242 40.7398C78.229 40.7419 78.2343 40.7441 78.2391 40.7467C78.2615 40.7574 78.2839 40.7681 78.3058 40.7798C78.3933 40.8263 78.4729 40.8818 78.5396 40.9437C78.641 41.0376 78.7141 41.1491 78.76 41.2687C78.8059 41.3882 78.8245 41.5157 78.8155 41.6417C78.8144 41.6481 78.816 41.6545 78.8192 41.6593C78.8208 41.6614 78.8224 41.6636 78.8235 41.6652C78.8293 41.67 78.8389 41.6737 78.8475 41.6716C78.8688 41.6684 78.8896 41.6662 78.9115 41.6646C79.0156 41.6566 79.1218 41.6678 79.2242 41.6982C79.347 41.7351 79.4639 41.7996 79.5647 41.8936C79.6261 41.9496 79.6816 42.0168 79.7301 42.0915C79.7435 42.1124 79.7568 42.1332 79.7691 42.1545C79.776 42.1668 79.783 42.1785 79.7894 42.1908C79.8507 42.305 79.8956 42.4304 79.9201 42.5564C79.9441 42.6823 79.9479 42.8082 79.926 42.923C79.9196 42.9566 79.9116 42.9891 79.9009 43.0206C79.8758 43.0841 79.8401 43.1423 79.7936 43.1925ZM78.1938 38.8944L75.3675 41.9453C75.0175 42.3237 75.0399 42.915 75.4193 43.2661L77.4755 45.1707C77.8528 45.5203 78.4435 45.4973 78.7941 45.1195L81.6203 42.0681C81.9704 41.6897 81.948 41.0989 81.5707 40.7494L79.5145 38.8448C79.1351 38.4937 78.5438 38.5161 78.1938 38.8944ZM79.8534 43.2261L80.1747 43.5239L80.1987 43.4983L79.8742 43.1978C79.8678 43.2074 79.8609 43.217 79.8534 43.2261ZM79.8534 43.2261L80.1747 43.5239L80.1987 43.4983L79.8742 43.1978C79.8678 43.2074 79.8609 43.217 79.8534 43.2261ZM79.8534 43.2261L80.1747 43.5239L80.1987 43.4983L79.8742 43.1978C79.8678 43.2074 79.8609 43.217 79.8534 43.2261ZM79.8534 43.2261L80.1747 43.5239L80.1987 43.4983L79.8742 43.1978C79.8678 43.2074 79.8609 43.217 79.8534 43.2261ZM79.8534 43.2261L80.1747 43.5239L80.1987 43.4983L79.8742 43.1978C79.8678 43.2074 79.8609 43.217 79.8534 43.2261ZM79.8534 43.2261L80.1747 43.5239L80.1987 43.4983L79.8742 43.1978C79.8678 43.2074 79.8609 43.217 79.8534 43.2261ZM79.8534 43.2261L80.1747 43.5239L80.1987 43.4983L79.8742 43.1978C79.8678 43.2074 79.8609 43.217 79.8534 43.2261ZM79.8534 43.2261L80.1747 43.5239L80.1987 43.4983L79.8742 43.1978C79.8678 43.2074 79.8609 43.217 79.8534 43.2261Z" fill="#1C1E21"/>
<path d="M74.9919 45.8353C75.3911 46.3273 75.6424 46.8882 75.7668 47.5067C75.7855 47.6006 75.8191 47.7014 75.723 47.782C75.6088 47.8781 75.4365 47.837 75.3932 47.694C75.3516 47.5568 75.3292 47.4143 75.2854 47.2788C74.9572 46.2574 74.3056 45.5247 73.3227 45.0897C73.2698 45.0663 73.2175 45.0412 73.1668 45.0134C73.0814 44.9665 73.0446 44.8672 73.0772 44.7781C73.1119 44.6804 73.2154 44.6159 73.312 44.6447C73.4064 44.673 73.4982 44.7114 73.5879 44.7525C74.089 44.9851 74.5303 45.2979 74.8863 45.7248C74.9188 45.7637 74.9567 45.7984 74.9919 45.8353Z" fill="#1C1E21"/>
<path d="M74.2892 46.3586C74.3133 46.3874 74.3362 46.4168 74.3576 46.4456C74.3688 46.4589 74.3784 46.4723 74.388 46.4856C74.3906 46.4883 74.3933 46.4915 74.3944 46.4941C74.4157 46.523 74.4349 46.5512 74.4547 46.579C74.6591 46.8789 74.8037 47.2082 74.8917 47.5641C74.9126 47.6468 74.9248 47.7317 74.9275 47.8165C74.9296 47.9254 74.8565 48.0038 74.7594 48.0161C74.6575 48.0295 74.5678 47.9686 74.5342 47.8672C74.4488 47.6095 74.3858 47.341 74.27 47.0972C74.0187 46.5678 73.6078 46.1878 73.0768 45.9381C73.0063 45.905 72.9343 45.8724 72.8655 45.8367C72.7395 45.7716 72.699 45.6782 72.7449 45.5741C72.7865 45.4834 72.8676 45.4322 72.9615 45.4487H72.9642C72.9845 45.4524 73.0053 45.4589 73.0256 45.4685C73.032 45.4711 73.0378 45.4738 73.0437 45.4765C73.0464 45.4781 73.049 45.4797 73.0522 45.4807C73.2657 45.58 73.4856 45.6734 73.6777 45.8063C73.8372 45.9167 73.9829 46.0485 74.1286 46.1798C74.183 46.2353 74.2364 46.2951 74.2892 46.3586Z" fill="#1C1E21"/>
<path d="M73.6184 46.9293C73.8767 47.2121 74.0122 47.5611 74.0784 47.9411C74.0939 48.0307 74.0821 48.115 74.001 48.1695C73.9269 48.2186 73.8383 48.2276 73.7705 48.1716C73.7235 48.1327 73.6958 48.0644 73.6718 48.004C73.5928 47.8013 73.5384 47.5873 73.4396 47.3952C73.2769 47.0776 73.0036 46.8684 72.6829 46.719C72.6151 46.687 72.5468 46.656 72.4823 46.6182C72.391 46.5643 72.3643 46.4805 72.4001 46.3823C72.4278 46.3044 72.5249 46.2398 72.6109 46.2526C72.6674 46.2606 72.724 46.2787 72.7774 46.3006C73.1088 46.4362 73.3932 46.6363 73.6184 46.9293Z" fill="#1C1E21"/>
<path d="M73.0006 47.4631C73.1377 47.621 73.2301 47.827 73.2594 48.0597C73.2669 48.1221 73.2637 48.1904 73.2482 48.2513C73.2269 48.3356 73.1623 48.3831 73.0737 48.3815C72.9878 48.3799 72.9115 48.3527 72.8773 48.2625C72.8656 48.231 72.856 48.1974 72.8512 48.1643C72.7989 47.7891 72.5929 47.5458 72.2337 47.4252C72.0811 47.3745 72.0277 47.2603 72.0848 47.1343C72.1259 47.042 72.199 47.002 72.3122 47.0249C72.587 47.0804 72.8079 47.2267 73.0006 47.4631Z" fill="#1C1E21"/>
</svg>
