<svg width="32" height="32" viewBox="0 0 32 32" fill="none" xmlns="http://www.w3.org/2000/svg">
<path d="M6.29289 14.0429L5.76257 13.5126L5.76254 13.5126L6.29289 14.0429ZM6.29289 25.9571L5.76255 26.4874L5.76256 26.4874L6.29289 25.9571ZM10.2071 25.9571L10.7374 26.4874L10.7374 26.4874L10.2071 25.9571ZM10.2071 14.0429L10.7375 13.5126L10.7374 13.5126L10.2071 14.0429ZM13.7929 14.0429L13.2626 13.5125L13.2625 13.5126L13.7929 14.0429ZM13.7929 25.9571L13.2626 26.4874L13.2626 26.4874L13.7929 25.9571ZM18 24.25L17.25 24.25V24.25H18ZM18.0001 20.7501L18.7501 20.7501V20.7501H18.0001ZM21.7929 25.4572L22.3233 24.927L22.3232 24.9269L21.7929 25.4572ZM25.9987 23.7506L25.2487 23.7504L25.2487 23.7504L25.9987 23.7506ZM26.0001 18.2502L26.7501 18.2504V18.2502H26.0001ZM18.0001 15.424L17.2501 15.4241C17.2502 15.746 17.4556 16.0319 17.7606 16.1347C18.0656 16.2375 18.4022 16.1342 18.597 15.8781L18.0001 15.424ZM17.8632 14.245L18.5106 13.8664L18.5105 13.8662L17.8632 14.245ZM17.505 13.8869L17.1262 14.5342L17.1262 14.5342L17.505 13.8869ZM8.5 13H8V14.5H8.5V13ZM8 13C7.5498 13 7.1367 12.9984 6.80279 13.0433C6.44731 13.0911 6.07159 13.2035 5.76257 13.5126L6.82321 14.5732C6.82367 14.5728 6.82368 14.5728 6.82334 14.5731C6.82299 14.5734 6.82276 14.5735 6.82283 14.5735C6.82291 14.5734 6.82376 14.5729 6.82567 14.5719C6.8276 14.5709 6.83091 14.5692 6.83596 14.5672C6.85774 14.5582 6.9061 14.5429 7.00266 14.5299C7.21339 14.5016 7.50739 14.5 8 14.5V13ZM5.76254 13.5126C5.45354 13.8216 5.34109 14.1973 5.2933 14.5528C5.24841 14.8867 5.25 15.2998 5.25 15.75H6.75C6.75 15.2574 6.75159 14.9634 6.77992 14.7527C6.79291 14.6561 6.8082 14.6077 6.81716 14.586C6.81924 14.5809 6.82085 14.5776 6.82186 14.5757C6.82286 14.5738 6.82342 14.5729 6.82347 14.5728C6.82352 14.5728 6.82336 14.573 6.82308 14.5733C6.8228 14.5737 6.82278 14.5737 6.82324 14.5732L5.76254 13.5126ZM5.25 15.75V24.25H6.75V15.75H5.25ZM5.25 24.25C5.25 24.7002 5.24841 25.1133 5.2933 25.4472C5.34109 25.8027 5.45354 26.1784 5.76255 26.4874L6.82323 25.4268C6.82277 25.4263 6.82279 25.4263 6.82307 25.4266C6.82336 25.427 6.82351 25.4272 6.82347 25.4272C6.82341 25.4271 6.82286 25.4262 6.82186 25.4243C6.82085 25.4224 6.81923 25.4191 6.81716 25.414C6.8082 25.3922 6.79291 25.3439 6.77992 25.2473C6.75159 25.0366 6.75 24.7426 6.75 24.25H5.25ZM5.76256 26.4874C6.07158 26.7965 6.44731 26.9089 6.80279 26.9567C7.1367 27.0016 7.5498 27 8 27V25.5C7.50739 25.5 7.21339 25.4984 7.00267 25.4701C6.90611 25.4571 6.85775 25.4418 6.83597 25.4328C6.83092 25.4308 6.82761 25.4291 6.82567 25.4281C6.82377 25.4271 6.82292 25.4266 6.82284 25.4265C6.82277 25.4265 6.823 25.4266 6.82335 25.4269C6.82369 25.4272 6.82368 25.4272 6.82322 25.4268L5.76256 26.4874ZM8 27H8.5V25.5H8V27ZM8.5 27C8.9502 27 9.3633 27.0016 9.69721 26.9567C10.0527 26.9089 10.4284 26.7965 10.7374 26.4874L9.67678 25.4268C9.67632 25.4272 9.67631 25.4272 9.67665 25.4269C9.677 25.4266 9.67723 25.4265 9.67716 25.4265C9.67708 25.4266 9.67623 25.4271 9.67433 25.4281C9.67239 25.4291 9.66908 25.4308 9.66403 25.4328C9.64225 25.4418 9.59389 25.4571 9.49733 25.4701C9.28661 25.4984 8.99261 25.5 8.5 25.5V27ZM10.7374 26.4874C11.0465 26.1784 11.1589 25.8027 11.2067 25.4472C11.2516 25.1133 11.25 24.7002 11.25 24.25H9.75C9.75 24.7426 9.74841 25.0366 9.72008 25.2473C9.70709 25.3439 9.6918 25.3922 9.68284 25.414C9.68077 25.4191 9.67915 25.4224 9.67814 25.4243C9.67714 25.4262 9.67659 25.4271 9.67653 25.4272C9.67649 25.4272 9.67664 25.427 9.67693 25.4266C9.67721 25.4263 9.67723 25.4263 9.67677 25.4268L10.7374 26.4874ZM11.25 24.25V15.75H9.75V24.25H11.25ZM11.25 15.75C11.25 15.2998 11.2516 14.8867 11.2067 14.5528C11.1589 14.1973 11.0465 13.8216 10.7375 13.5126L9.67676 14.5732C9.67722 14.5737 9.6772 14.5737 9.67692 14.5733C9.67664 14.573 9.67648 14.5728 9.67653 14.5728C9.67658 14.5729 9.67714 14.5738 9.67814 14.5757C9.67915 14.5776 9.68076 14.5809 9.68284 14.586C9.6918 14.6077 9.70709 14.6561 9.72008 14.7527C9.74841 14.9634 9.75 15.2574 9.75 15.75H11.25ZM10.7374 13.5126C10.4284 13.2035 10.0527 13.0911 9.69721 13.0433C9.3633 12.9984 8.9502 13 8.5 13V14.5C8.99261 14.5 9.28661 14.5016 9.49734 14.5299C9.5939 14.5429 9.64226 14.5582 9.66404 14.5672C9.66909 14.5692 9.6724 14.5709 9.67433 14.5719C9.67624 14.5729 9.67709 14.5734 9.67717 14.5735C9.67724 14.5735 9.67701 14.5734 9.67666 14.5731C9.67632 14.5728 9.67633 14.5728 9.67679 14.5732L10.7374 13.5126ZM9.75 8C9.75 8.82843 9.07843 9.5 8.25 9.5V11C9.90685 11 11.25 9.65685 11.25 8H9.75ZM8.25 9.5C7.42157 9.5 6.75 8.82843 6.75 8H5.25C5.25 9.65685 6.59315 11 8.25 11V9.5ZM6.75 8C6.75 7.17157 7.42157 6.5 8.25 6.5V5C6.59315 5 5.25 6.34315 5.25 8H6.75ZM8.25 6.5C9.07843 6.5 9.75 7.17157 9.75 8H11.25C11.25 6.34315 9.90685 5 8.25 5V6.5ZM16.326 13H15.5V14.5H16.326V13ZM15.5 13C15.0498 13 14.6367 12.9984 14.3028 13.0433C13.9473 13.0911 13.5716 13.2035 13.2626 13.5125L14.3232 14.5732C14.3237 14.5728 14.3237 14.5728 14.3233 14.5731C14.323 14.5734 14.3228 14.5735 14.3228 14.5735C14.3229 14.5734 14.3238 14.5729 14.3257 14.5719C14.3276 14.5709 14.3309 14.5692 14.336 14.5672C14.3577 14.5582 14.4061 14.5429 14.5027 14.5299C14.7134 14.5016 15.0074 14.5 15.5 14.5V13ZM13.2625 13.5126C12.9535 13.8216 12.8411 14.1973 12.7933 14.5528C12.7484 14.8867 12.75 15.2998 12.75 15.75H14.25C14.25 15.2574 14.2516 14.9634 14.2799 14.7527C14.2929 14.6561 14.3082 14.6077 14.3172 14.586C14.3192 14.5809 14.3209 14.5776 14.3219 14.5757C14.3229 14.5738 14.3234 14.5729 14.3235 14.5728C14.3235 14.5728 14.3234 14.573 14.3231 14.5733C14.3228 14.5737 14.3228 14.5737 14.3232 14.5732L13.2625 13.5126ZM12.75 15.75V24.25H14.25V15.75H12.75ZM12.75 24.25C12.75 24.7002 12.7484 25.1133 12.7933 25.4472C12.8411 25.8027 12.9535 26.1784 13.2626 26.4874L14.3232 25.4268C14.3228 25.4263 14.3228 25.4263 14.3231 25.4266C14.3234 25.427 14.3235 25.4272 14.3235 25.4272C14.3234 25.4271 14.3229 25.4262 14.3219 25.4243C14.3209 25.4224 14.3192 25.4191 14.3172 25.414C14.3082 25.3922 14.2929 25.3439 14.2799 25.2473C14.2516 25.0366 14.25 24.7426 14.25 24.25H12.75ZM13.2626 26.4874C13.5716 26.7965 13.9473 26.9089 14.3028 26.9567C14.6367 27.0016 15.0498 27 15.5 27V25.5C15.0074 25.5 14.7134 25.4984 14.5027 25.4701C14.4061 25.4571 14.3578 25.4418 14.336 25.4328C14.3309 25.4308 14.3276 25.4291 14.3257 25.4281C14.3238 25.4271 14.3229 25.4266 14.3228 25.4265C14.3228 25.4265 14.323 25.4266 14.3233 25.4269C14.3237 25.4272 14.3237 25.4272 14.3232 25.4268L13.2626 26.4874ZM15.5 27H16V25.5H15.5V27ZM16 27C16.4502 27 16.8633 27.0016 17.1972 26.9567C17.5527 26.9089 17.9284 26.7965 18.2374 26.4874L17.1768 25.4268C17.1763 25.4272 17.1763 25.4272 17.1766 25.4269C17.177 25.4266 17.1772 25.4265 17.1772 25.4265C17.1771 25.4266 17.1762 25.4271 17.1743 25.4281C17.1724 25.4291 17.1691 25.4308 17.164 25.4328C17.1422 25.4418 17.0939 25.4571 16.9973 25.4701C16.7866 25.4984 16.4926 25.5 16 25.5V27ZM18.2374 26.4874C18.5465 26.1784 18.6589 25.8027 18.7067 25.4472C18.7516 25.1133 18.75 24.7002 18.75 24.25H17.25C17.25 24.7426 17.2484 25.0366 17.2201 25.2473C17.2071 25.3439 17.1918 25.3922 17.1828 25.414C17.1808 25.4191 17.1791 25.4224 17.1781 25.4243C17.1771 25.4262 17.1766 25.4271 17.1765 25.4272C17.1765 25.4272 17.1766 25.427 17.1769 25.4266C17.1772 25.4263 17.1772 25.4263 17.1768 25.4268L18.2374 26.4874ZM18.75 24.25L18.7501 20.7501L17.2501 20.7501L17.25 24.25L18.75 24.25ZM18.7501 20.7501C18.7501 19.9788 18.8769 19.3888 19.1015 19.0157C19.2927 18.6984 19.5706 18.5001 20.0879 18.5001V17.0001C19.0454 17.0001 18.2794 17.4734 17.8166 18.2419C17.3873 18.9546 17.2501 19.8646 17.2501 20.7501H18.7501ZM20.0879 18.5001C20.4115 18.5001 20.75 18.7926 20.75 19.2501H22.25C22.25 18.0508 21.3239 17.0001 20.0879 17.0001V18.5001ZM20.75 19.2501V23.7501H22.25V19.2501H20.75ZM20.75 23.7501C20.75 24.2003 20.7484 24.6134 20.7933 24.9473C20.8411 25.3028 20.9535 25.6785 21.2626 25.9875L22.3232 24.9269C22.3228 24.9264 22.3228 24.9264 22.3231 24.9267C22.3234 24.9271 22.3235 24.9273 22.3235 24.9273C22.3234 24.9272 22.3229 24.9263 22.3219 24.9244C22.3209 24.9225 22.3192 24.9192 22.3172 24.9141C22.3082 24.8923 22.2929 24.844 22.2799 24.7474C22.2516 24.5367 22.25 24.2427 22.25 23.7501H20.75ZM21.2625 25.9874C21.5715 26.2966 21.9473 26.409 22.3028 26.4568C22.6367 26.5017 23.0498 26.5001 23.5 26.5001V25.0001C23.0074 25.0001 22.7134 24.9985 22.5026 24.9702C22.4061 24.9572 22.3577 24.9419 22.3359 24.9329C22.3309 24.9309 22.3276 24.9293 22.3257 24.9283C22.3238 24.9273 22.3229 24.9267 22.3229 24.9267C22.3228 24.9266 22.3231 24.9268 22.3234 24.9271C22.3238 24.9274 22.3238 24.9274 22.3233 24.927L21.2625 25.9874ZM23.5 26.5001H23.9987V25.0001H23.5V26.5001ZM23.9987 26.5001C24.4488 26.5001 24.8618 26.5017 25.1957 26.4568C25.5511 26.409 25.9267 26.2966 26.2357 25.9877L25.1753 24.9269C25.1748 24.9273 25.1748 24.9273 25.1751 24.927C25.1755 24.9268 25.1757 24.9266 25.1756 24.9266C25.1756 24.9267 25.1747 24.9273 25.1728 24.9283C25.1709 24.9293 25.1675 24.9309 25.1625 24.933C25.1407 24.9419 25.0924 24.9572 24.9958 24.9702C24.7851 24.9985 24.4912 25.0001 23.9987 25.0001V26.5001ZM26.2357 25.9877C26.5448 25.6788 26.6573 25.3031 26.7052 24.9477C26.7501 24.6139 26.7486 24.2009 26.7487 23.7508L25.2487 23.7504C25.2486 24.2429 25.2469 24.5369 25.2186 24.7475C25.2056 24.8441 25.1903 24.8924 25.1813 24.9142C25.1792 24.9192 25.1776 24.9225 25.1766 24.9244C25.1756 24.9263 25.1751 24.9272 25.175 24.9273C25.175 24.9273 25.1751 24.9271 25.1754 24.9268C25.1757 24.9264 25.1757 24.9264 25.1753 24.9269L26.2357 25.9877ZM26.7487 23.7508L26.7501 18.2504L25.2501 18.25L25.2487 23.7504L26.7487 23.7508ZM26.7501 18.2502C26.7501 15.2945 23.992 13.0002 21.2968 13.0002V14.5002C23.2808 14.5002 25.2501 16.2355 25.2501 18.2502H26.7501ZM21.2968 13.0002C19.7106 13.0002 18.309 13.7791 17.4032 14.9699L18.597 15.8781C19.2444 15.0271 20.2192 14.5002 21.2968 14.5002V13.0002ZM18.7501 15.4239C18.7501 15.1228 18.7508 14.8463 18.7298 14.6175C18.7079 14.3782 18.6575 14.1175 18.5106 13.8664L17.2158 14.6236C17.2057 14.6064 17.2237 14.6202 17.236 14.7544C17.2493 14.899 17.25 15.0951 17.2501 15.4241L18.7501 15.4239ZM18.5105 13.8662C18.3587 13.6069 18.1428 13.3911 17.8838 13.2395L17.1262 14.5342C17.1634 14.5559 17.1943 14.5868 17.2159 14.6238L18.5105 13.8662ZM17.8838 13.2396C17.6326 13.0926 17.3719 13.0422 17.1325 13.0202C16.9036 12.9993 16.6271 13 16.326 13V14.5C16.655 14.5 16.8511 14.5007 16.9957 14.514C17.1298 14.5263 17.1435 14.5443 17.1262 14.5342L17.8838 13.2396Z" fill="#718098"/>
</svg>
