<svg width="25" height="25" viewBox="0 0 25 25" fill="none" xmlns="http://www.w3.org/2000/svg">
<path d="M14.1177 21.5242C13.6841 21.9302 13.1044 22.1572 12.5011 22.1572C11.8978 22.1572 11.3182 21.9302 10.8845 21.5242C6.91302 17.7832 1.59076 13.6041 4.18627 7.53689C5.58963 4.25639 8.95834 2.15723 12.5011 2.15723C16.0439 2.15723 19.4126 4.25639 20.816 7.53689C23.4082 13.5965 18.099 17.7961 14.1177 21.5242Z" stroke="#387ADF" stroke-width="1.5"/>
<path d="M16 11.1572C16 13.0902 14.433 14.6572 12.5 14.6572C10.567 14.6572 9 13.0902 9 11.1572C9 9.22423 10.567 7.65723 12.5 7.65723C14.433 7.65723 16 9.22423 16 11.1572Z" stroke="#387ADF" stroke-width="1.5"/>
</svg>
