<svg width="18" height="12" viewBox="0 0 18 12" fill="none" xmlns="http://www.w3.org/2000/svg">
<path fill-rule="evenodd" clip-rule="evenodd" d="M10.9371 0.316062C11.3149 -0.0868501 11.9477 -0.107264 12.3506 0.270466L17.6839 5.27047C17.8856 5.45951 18 5.72359 18 6C18 6.27641 17.8856 6.54049 17.6839 6.72954L12.3506 11.7295C11.9477 12.1073 11.3149 12.0869 10.9371 11.6839C10.5594 11.281 10.5798 10.6482 10.9827 10.2705L14.4712 7H1C0.447715 7 0 6.55229 0 6C0 5.44772 0.447715 5 1 5H14.4712L10.9827 1.72954C10.5798 1.35181 10.5594 0.718974 10.9371 0.316062Z" fill="#387ADF"/>
</svg>
